<svg width="52" height="46" viewBox="0 0 52 46" fill="none" xmlns="http://www.w3.org/2000/svg">
<g filter="url(#filter0_d_1381_3490)">
<path d="M43.6831 22.8436C43.6831 31.4154 36.7869 38.3642 28.28 38.3642C23.9578 38.3642 21.2253 37.3648 18.2858 34.249C26.7516 33.0732 25.9872 27.8244 25.9872 23.6079C24.2315 20.5315 17.7015 14.496 16.9336 12.379C21.6956 8.49883 22.5187 7.32303 28.28 7.323C36.7869 7.323 43.6831 14.2718 43.6831 22.8436Z" fill="#CCE6E4" fill-opacity="0.42" shape-rendering="crispEdges"/>
</g>
<g filter="url(#filter1_f_1381_3490)">
<path d="M22.9386 24.8877C22.9386 30.2485 20.462 33.4105 15.3628 33.4105C16.073 32.7002 5.65637 35.5411 4.47266 23.704C5.89311 18.7324 11.9208 15.6548 17.02 15.6548C22.1192 15.6548 22.9386 19.527 22.9386 24.8877Z" fill="white"/>
</g>
<path d="M32.2396 39.0886C38.0599 35.326 38.7653 34.9145 40.7054 33.4447C42.3516 29.5646 43.2334 27.213 44.2328 23.9795C44.2328 18.3356 42.8219 17.6889 41.8812 13.7226C38.0011 11.5747 37.1192 10.0462 33.1803 7.323H23.2447C19.7173 9.98742 18.8942 10.3402 14.8377 13.7226C13.4689 17.0753 14.4158 15.6313 17.8948 15.6313C22.1277 15.6313 23.1859 20.7146 23.1859 21.863C23.1859 23.4419 25.9491 24.2734 25.9491 25.0377C24.5969 26.3311 23.8326 26.2723 24.7733 27.0954C24.8841 27.4445 23.6562 28.036 24.7733 28.036C23.1859 30.0349 24.7145 29.2706 24.5381 30.7404C23.4799 32.3865 20.0112 31.8574 19.1882 33.5035C18.4239 33.2684 16.7016 33.5304 16.1311 33.8563C19.3646 36.1491 20.1876 36.8546 24.3617 39.0886H32.2396Z" fill="#D9E9E9"/>
<path d="M28.0063 7.87008L28.2415 22.8037" stroke="white" stroke-width="0.3"/>
<line x1="23.2627" y1="7.25179" x2="27.966" y2="7.8397" stroke="white" stroke-width="0.3"/>
<line x1="17.013" y1="15.0681" x2="23.1272" y2="7.30774" stroke="white" stroke-width="0.3"/>
<line x1="14.8364" y1="13.6126" x2="28.0054" y2="7.85113" stroke="white" stroke-width="0.3"/>
<line x1="27.9303" y1="7.83948" x2="33.1039" y2="7.25158" stroke="white" stroke-width="0.3"/>
<line x1="28.0052" y1="7.85017" x2="41.7621" y2="13.6116" stroke="white" stroke-width="0.3"/>
<line x1="33.2414" y1="7.3111" x2="44.1764" y2="22.0087" stroke="white" stroke-width="0.3"/>
<line x1="22.217" y1="18.5666" x2="28.0961" y2="14.3337" stroke="white" stroke-width="0.3"/>
<line x1="19.8844" y1="11.3747" x2="28.1151" y2="14.3142" stroke="white" stroke-width="0.3"/>
<line x1="28.1586" y1="14.2196" x2="36.1541" y2="20.4513" stroke="white" stroke-width="0.3"/>
<line x1="28.0165" y1="14.1964" x2="36.012" y2="11.3745" stroke="white" stroke-width="0.3"/>
<line x1="28.1422" y1="22.6595" x2="41.664" y2="18.7794" stroke="white" stroke-width="0.3"/>
<line x1="35.7934" y1="20.3325" x2="35.911" y2="11.3964" stroke="white" stroke-width="0.3"/>
<line x1="23.2853" y1="21.2485" x2="28.2237" y2="22.6594" stroke="white" stroke-width="0.3"/>
<line x1="28.312" y1="22.7637" x2="24.1967" y2="29.5833" stroke="white" stroke-width="0.3"/>
<line x1="41.855" y1="13.7548" x2="41.2708" y2="32.0975" stroke="white" stroke-width="0.3"/>
<line x1="28.31" y1="22.6055" x2="36.1879" y2="34.9514" stroke="white" stroke-width="0.3"/>
<line x1="36.2028" y1="20.4996" x2="33.0282" y2="30.0236" stroke="white" stroke-width="0.3"/>
<line x1="36.1862" y1="20.2526" x2="41.2422" y2="28.0129" stroke="white" stroke-width="0.3"/>
<line x1="41.2384" y1="28.0656" x2="33.9484" y2="38.0599" stroke="white" stroke-width="0.3"/>
<line x1="41.1526" y1="28.1229" x2="32.922" y2="30.1218" stroke="white" stroke-width="0.3"/>
<line x1="32.8867" y1="30.1261" x2="24.6561" y2="30.1261" stroke="white" stroke-width="0.3"/>
<path d="M33.9824 38.0115L16.9332 33.661" stroke="white" stroke-width="0.3"/>
<line x1="24.1887" y1="31.1799" x2="28.304" y2="36.7062" stroke="white" stroke-width="0.3"/>
<line x1="19.0017" y1="33.3986" x2="24.4481" y2="38.9648" stroke="white" stroke-width="0.3"/>
<line x1="33.0102" y1="30.0612" x2="28.307" y2="36.8809" stroke="white" stroke-width="0.3"/>
<line x1="28.2554" y1="36.9275" x2="24.3753" y2="39.0439" stroke="white" stroke-width="0.3"/>
<line x1="28.2568" y1="36.6648" x2="32.2545" y2="38.8989" stroke="white" stroke-width="0.3"/>
<line x1="41.1148" y1="27.769" x2="44.0543" y2="23.8889" stroke="white" stroke-width="0.3"/>
<line x1="36.0131" y1="34.7721" x2="40.5988" y2="33.2436" stroke="white" stroke-width="0.3"/>
<line x1="28.1492" y1="36.6498" x2="36.1447" y2="34.7685" stroke="white" stroke-width="0.3"/>
<path d="M19.8399 11.3582L15.4043 13.2608L22.6762 7.80861L19.8399 11.3582Z" fill="#FFCE54"/>
<path d="M23.2833 7.44048L27.4394 7.94283L20.4782 10.9718L23.2833 7.44048Z" fill="#FA5E6B"/>
<path d="M25.1788 11.9675L27.7962 8.18702L20.3432 11.4971L25.1788 11.9675Z" fill="url(#paint0_linear_1381_3490)"/>
<path d="M27.9271 7.79333L24.7195 7.35241L31.1346 7.35241L27.9271 7.79333Z" fill="#FF8F5A"/>
<path d="M19.4038 11.791L16.6407 15.0833L16.2292 13.7311L15.4649 13.4959L19.4038 11.791Z" fill="url(#paint1_linear_1381_3490)"/>
<path d="M33.2076 7.38331L34.2676 9.32738L31.0325 7.79744L33.2076 7.38331Z" fill="url(#paint2_linear_1381_3490)"/>
<path d="M36.2167 11.203L33.5711 7.44048L37.2161 10.2036L40.2455 12.7871L36.2167 11.203Z" fill="#E577BE"/>
<path d="M19.3633 16.0464L20.3685 12.9541L22.5404 16.7381L19.3633 16.0464Z" fill="#5A00CF"/>
<path d="M23.3386 12.9109L22.1792 17.2894L19.9386 15.9035L23.3386 12.9109Z" fill="#4325B7"/>
<path d="M21.8739 13.8915L24.9546 13.5168L20.0345 16.391L21.8739 13.8915Z" fill="#7A47C3"/>
<path d="M23.2938 15.9872L25.0546 13.353L20.1344 16.2273L23.2938 15.9872Z" fill="#6823B2"/>
<path d="M24.9674 13.333L22.9772 15.8378L24.6203 16.5133L24.9674 13.333Z" fill="#7950DC"/>
<path d="M41.7443 13.79L41.4503 18.258L36.7471 11.7323L41.7443 13.79Z" fill="url(#paint3_linear_1381_3490)"/>
<path d="M41.0374 32.7792L38.9798 33.661L36.9154 34.2986L41.2138 28.2523L41.0374 32.7792Z" fill="url(#paint4_linear_1381_3490)"/>
<path d="M19.6099 14.6383L16.9775 15.3135L19.7235 11.923L19.6099 14.6383Z" fill="#985A86"/>
<path d="M41.6853 18.7283L41.9458 14.3191L43.4491 18.0816L44.0958 21.6678L41.6853 18.7283Z" fill="#0067D2"/>
<path d="M19.918 11.6454L22.4611 12.6038L18.2662 13.8034L19.918 11.6454Z" fill="#B2368C"/>
<path d="M26.2821 11.2383L27.7341 12.2965L25.2818 13.2019L24.3411 12.8493L25.2818 12.4965L26.2821 11.2383Z" fill="url(#paint5_linear_1381_3490)"/>
<path d="M31.3969 11.5558L30.809 13.1432L28.3229 13.9026L28.3229 12.5553L28.9865 11.5558L28.6926 10.674L31.3969 11.5558Z" fill="url(#paint6_linear_1381_3490)"/>
<path d="M26.5176 25.0189C26.4309 25.3658 25.283 26.0183 24.989 26.5474C24.912 26.7714 25.4378 26.9983 25.3418 27.2529C25.2587 27.473 24.9337 27.6066 24.8376 27.8408C24.7867 27.9645 25.3961 28.0088 25.3418 28.1348C25.165 28.5449 24.8464 28.8458 24.6363 29.2518C24.6363 29.9572 25.4029 30.2449 25.1654 30.6039C24.8376 31.6622 22.755 32.1913 21.8732 32.3676C21.4619 32.5595 20.6385 32.544 19.6979 33.5435C19.1688 33.5435 17.7578 33.7198 17.1699 33.5435C17.2875 33.3083 17.3463 33.2495 17.3463 33.2495C19.5215 33.4847 19.4627 31.3094 18.816 31.0155C18.9924 30.3688 18.9924 30.6039 19.11 30.1336C22.5198 28.899 19.6979 26.0771 18.1106 27.2529C18.097 26.8939 18.1106 26.371 17.3463 25.9007C18.1106 25.1364 17.7304 24.6162 17.699 24.2546C17.9342 23.9606 18.0518 23.6667 18.2281 23.1964C21.5792 22.1381 19.2276 19.7277 18.1694 19.9629C19.9919 18.3756 18.2869 17.6113 17.7578 17.3761C17.8462 17.0527 17.8754 16.9058 17.6402 16.4943C18.2281 16.2003 18.1106 15.7888 18.4045 15.6124C19.4039 15.7888 20.9041 15.9965 22.1083 17.3761C23.1399 18.558 23.578 20.2569 23.7544 22.0794C23.9896 23.3727 26.6645 24.431 26.5176 25.0189Z" fill="url(#paint7_linear_1381_3490)"/>
<line x1="16.8536" y1="15.6999" x2="16.5022" y2="16.8711" stroke="#4C235F" stroke-width="0.2"/>
<line x1="11.4446" y1="16.6319" x2="16.6182" y2="15.4561" stroke="#4C235F" stroke-width="0.2"/>
<line x1="8.76599" y1="18.2917" x2="10.7649" y2="16.9983" stroke="#4C235F" stroke-width="0.2"/>
<line x1="5.81794" y1="20.6494" x2="8.28713" y2="18.6506" stroke="#4C235F" stroke-width="0.2"/>
<line x1="4.49685" y1="23.5077" x2="5.67266" y2="20.9209" stroke="#4C235F" stroke-width="0.2"/>
<line x1="4.567" y1="24.11" x2="5.39006" y2="27.0495" stroke="#4C235F" stroke-width="0.2"/>
<line x1="5.68915" y1="27.0099" x2="7.68802" y2="24.7758" stroke="#4C235F" stroke-width="0.2"/>
<line x1="5.73411" y1="27.8515" x2="7.02749" y2="30.2031" stroke="#4C235F" stroke-width="0.2"/>
<line x1="7.03348" y1="30.0364" x2="9.50267" y2="29.4485" stroke="#4C235F" stroke-width="0.2"/>
<line x1="10.0893" y1="29.8622" x2="10.9124" y2="31.9786" stroke="#4C235F" stroke-width="0.2"/>
<line x1="11.1656" y1="32.0326" x2="13.0469" y2="31.9151" stroke="#4C235F" stroke-width="0.2"/>
<line x1="13.5775" y1="32.0483" x2="15.2236" y2="33.1066" stroke="#4C235F" stroke-width="0.2"/>
<line x1="15.8226" y1="33.1067" x2="17.8215" y2="31.8133" stroke="#4C235F" stroke-width="0.2"/>
<line x1="17.6578" y1="31.7798" x2="17.6578" y2="30.4864" stroke="#4C235F" stroke-width="0.2"/>
<line x1="17.7906" y1="30.08" x2="18.6137" y2="28.7866" stroke="#4C235F" stroke-width="0.2"/>
<line x1="16.6201" y1="27.4544" x2="18.619" y2="28.2775" stroke="#4C235F" stroke-width="0.2"/>
<line x1="16.3283" y1="25.3057" x2="16.4458" y2="26.9519" stroke="#4C235F" stroke-width="0.2"/>
<line x1="16.9093" y1="23.4687" x2="16.4389" y2="24.6445" stroke="#4C235F" stroke-width="0.2"/>
<line x1="17.8422" y1="22.0742" x2="17.0191" y2="23.3676" stroke="#4C235F" stroke-width="0.2"/>
<line x1="17.5006" y1="19.0543" x2="18.0886" y2="21.1707" stroke="#4C235F" stroke-width="0.2"/>
<line x1="16.5526" y1="17.3871" x2="17.2581" y2="18.6804" stroke="#4C235F" stroke-width="0.2"/>
<line x1="11.3007" y1="16.7474" x2="16.1215" y2="17.2177" stroke="#4C235F" stroke-width="0.2"/>
<line x1="9.78473" y1="20.3408" x2="10.9605" y2="17.0485" stroke="#4C235F" stroke-width="0.2"/>
<line x1="9.55509" y1="20.5367" x2="8.61444" y2="18.6554" stroke="#4C235F" stroke-width="0.2"/>
<line x1="13.3262" y1="19.9641" x2="11.2098" y2="17.1421" stroke="#4C235F" stroke-width="0.2"/>
<line x1="13.9234" y1="19.7158" x2="16.1575" y2="17.4818" stroke="#4C235F" stroke-width="0.2"/>
<line x1="14.0766" y1="20.0455" x2="17.2513" y2="18.8697" stroke="#4C235F" stroke-width="0.2"/>
<line x1="11.3865" y1="22.9812" x2="17.7359" y2="21.5703" stroke="#4C235F" stroke-width="0.2"/>
<line x1="4.65482" y1="23.5802" x2="9.71078" y2="20.6407" stroke="#4C235F" stroke-width="0.2"/>
<line x1="7.79624" y1="24.0727" x2="5.79737" y2="20.898" stroke="#4C235F" stroke-width="0.2"/>
<line x1="8.37704" y1="23.7443" x2="9.55285" y2="21.04" stroke="#4C235F" stroke-width="0.2"/>
<line x1="10.1053" y1="20.5101" x2="13.6327" y2="20.1574" stroke="#4C235F" stroke-width="0.2"/>
<line x1="4.60547" y1="23.8034" x2="7.89772" y2="24.3913" stroke="#4C235F" stroke-width="0.2"/>
<line x1="8.54807" y1="24.0444" x2="11.1348" y2="22.9862" stroke="#4C235F" stroke-width="0.2"/>
<line x1="11.332" y1="22.8964" x2="13.3309" y2="20.5448" stroke="#4C235F" stroke-width="0.2"/>
<line x1="16.63" y1="23.2686" x2="13.8081" y2="20.5643" stroke="#4C235F" stroke-width="0.2"/>
<line x1="16.6902" y1="23.5311" x2="11.5166" y2="23.0608" stroke="#4C235F" stroke-width="0.2"/>
<line x1="16.7308" y1="23.5264" x2="12.8507" y2="24.8198" stroke="#4C235F" stroke-width="0.2"/>
<line x1="8.59623" y1="24.2727" x2="12.0061" y2="24.6255" stroke="#4C235F" stroke-width="0.2"/>
<line x1="8.54203" y1="24.7744" x2="10.0706" y2="26.4205" stroke="#4C235F" stroke-width="0.2"/>
<line x1="12.1758" y1="25.1557" x2="10.412" y2="26.5667" stroke="#4C235F" stroke-width="0.2"/>
<line x1="6.98354" y1="29.9478" x2="10.2758" y2="26.4203" stroke="#4C235F" stroke-width="0.2"/>
<line x1="5.74678" y1="27.3306" x2="9.86209" y2="26.6252" stroke="#4C235F" stroke-width="0.2"/>
<line x1="9.89678" y1="28.9461" x2="10.1319" y2="26.9472" stroke="#4C235F" stroke-width="0.2"/>
<line x1="10.4701" y1="29.3282" x2="13.9975" y2="29.4457" stroke="#4C235F" stroke-width="0.2"/>
<line x1="10.5241" y1="26.6418" x2="14.0516" y2="29.111" stroke="#4C235F" stroke-width="0.2"/>
<line x1="10.3623" y1="26.507" x2="15.8886" y2="27.2125" stroke="#4C235F" stroke-width="0.2"/>
<line x1="12.7934" y1="25.2742" x2="14.3219" y2="28.9192" stroke="#4C235F" stroke-width="0.2"/>
<line x1="10.9947" y1="31.9349" x2="13.8166" y2="29.8184" stroke="#4C235F" stroke-width="0.2"/>
<line x1="13.4306" y1="31.7426" x2="14.1361" y2="29.9789" stroke="#4C235F" stroke-width="0.2"/>
<line x1="17.5818" y1="31.8607" x2="14.995" y2="29.9794" stroke="#4C235F" stroke-width="0.2"/>
<line x1="18.5971" y1="28.8211" x2="15.1872" y2="29.409" stroke="#4C235F" stroke-width="0.2"/>
<line x1="16.6742" y1="27.7432" x2="17.6148" y2="29.9772" stroke="#4C235F" stroke-width="0.2"/>
<line x1="13.7237" y1="31.6865" x2="17.3687" y2="30.2756" stroke="#4C235F" stroke-width="0.2"/>
<line x1="14.963" y1="29.4495" x2="17.4322" y2="30.155" stroke="#4C235F" stroke-width="0.2"/>
<line x1="13.0589" y1="24.7425" x2="15.8808" y2="24.8601" stroke="#4C235F" stroke-width="0.2"/>
<circle cx="4.41153" cy="23.8431" r="0.411532" fill="url(#paint8_linear_1381_3490)"/>
<circle cx="5.7629" cy="20.7271" r="0.352742" fill="url(#paint9_linear_1381_3490)"/>
<circle cx="8.58516" cy="18.4931" r="0.352742" fill="url(#paint10_linear_1381_3490)"/>
<circle cx="16.9348" cy="15.4361" r="0.352742" fill="url(#paint11_linear_1381_3490)"/>
<circle cx="6.82149" cy="30.1336" r="0.352742" fill="url(#paint12_linear_1381_3490)"/>
<circle cx="10.8783" cy="32.0736" r="0.411532" fill="url(#paint13_linear_1381_3490)"/>
<circle cx="13.3471" cy="31.9561" r="0.411532" fill="url(#paint14_linear_1381_3490)"/>
<circle cx="17.8158" cy="31.9561" r="0.411532" fill="url(#paint15_linear_1381_3490)"/>
<circle cx="17.6986" cy="30.2513" r="0.411532" fill="url(#paint16_linear_1381_3490)"/>
<circle cx="9.93771" cy="29.4869" r="0.646693" fill="url(#paint17_linear_1381_3490)"/>
<circle cx="8.11603" cy="24.3721" r="0.823063" fill="url(#paint18_linear_1381_3490)"/>
<circle cx="14.4656" cy="29.5456" r="0.823063" fill="url(#paint19_linear_1381_3490)"/>
<circle cx="9.82052" cy="20.6684" r="0.646693" fill="url(#paint20_linear_1381_3490)"/>
<circle cx="10.2318" cy="26.6649" r="0.411532" fill="url(#paint21_linear_1381_3490)"/>
<circle cx="11.2318" cy="23.0199" r="0.411532" fill="url(#paint22_linear_1381_3490)"/>
<circle cx="16.7568" cy="23.3727" r="0.293951" fill="url(#paint23_linear_1381_3490)"/>
<circle cx="16.2281" cy="24.9601" r="0.470322" fill="url(#paint24_linear_1381_3490)"/>
<circle cx="16.4057" cy="17.2585" r="0.411532" fill="url(#paint25_linear_1381_3490)"/>
<circle cx="17.4039" cy="18.8459" r="0.470322" fill="url(#paint26_linear_1381_3490)"/>
<circle cx="18.1682" cy="21.609" r="0.646693" fill="url(#paint27_linear_1381_3490)"/>
<circle cx="18.8733" cy="28.5464" r="0.646693" fill="url(#paint28_linear_1381_3490)"/>
<circle cx="16.4045" cy="27.3704" r="0.646693" fill="url(#paint29_linear_1381_3490)"/>
<circle cx="12.5236" cy="24.7837" r="0.646693" fill="url(#paint30_linear_1381_3490)"/>
<circle cx="13.5822" cy="20.1981" r="0.646693" fill="url(#paint31_linear_1381_3490)"/>
<circle cx="5.46896" cy="27.488" r="0.646693" fill="url(#paint32_linear_1381_3490)"/>
<circle cx="15.5822" cy="33.367" r="0.646693" fill="url(#paint33_linear_1381_3490)"/>
<circle cx="11.1127" cy="16.8471" r="0.411532" fill="url(#paint34_linear_1381_3490)"/>
<path d="M35.6282 22.6673C35.6282 22.6673 36.804 22.1829 36.804 22.6673C36.804 23.6667 37.6859 22.8436 37.6859 22.8436L40.9194 27.9584L33.2178 29.8397L35.6282 22.6673Z" fill="url(#paint35_linear_1381_3490)"/>
<path d="M40.8618 28.2523L36.1586 34.6604C36.1586 34.6604 37.0913 33.367 36.4799 32.8967C35.8685 32.4264 37.2756 31.3681 36.4799 31.3681C35.6842 31.3681 33.6306 30.7214 33.6306 30.7214L33.2191 30.1335L40.8618 28.2523Z" fill="url(#paint36_linear_1381_3490)"/>
<path d="M36.3797 34.8135L40.5095 33.5434L34.5129 37.5412L36.3797 34.8135Z" fill="#0468C4"/>
<path d="M32.9252 29.6046L30.1033 25.1366L32.3373 24.0195L33.5131 22.6673L35.2181 22.6673L32.9252 29.6046Z" fill="url(#paint37_linear_1381_3490)"/>
<path d="M32.7482 30.016L30.8669 30.016L29.2796 28.076L30.0438 27.1353L30.0438 25.6656L32.7482 30.016Z" fill="url(#paint38_linear_1381_3490)"/>
<path d="M32.6299 30.2511L32.336 30.7802L31.1014 30.2511L32.6299 30.2511Z" fill="#0055B0"/>
<path d="M38.3663 22.1057L40.2732 22.1057L38.3799 23.4057L38.3663 22.1057Z" fill="#0065CA"/>
<path d="M41.0963 27.6644L37.8629 22.726L40.5084 23.2552L41.3315 25.9595L41.2727 27.4293L41.0963 27.6644Z" fill="#0A74D1"/>
<path d="M39.8521 23.167L39.8521 21.6678L41.3319 23.9019L41.3319 25.9007L39.8521 23.167Z" fill="#0157D0"/>
<path d="M41.4495 21.08L41.332 22.8437L39.9961 22.05L41.4495 21.08Z" fill="#006EEA"/>
<path d="M41.5086 19.6101L41.391 22.7848L40.0977 20.6095L41.5086 19.6101Z" fill="#004EAB"/>
<path d="M41.5081 19.904L38.9213 21.1974L38.5098 20.4919L40.6262 18.9634H41.5316L41.5081 19.904Z" fill="#0B6DD2"/>
<path d="M39.7645 19.52L41.0008 20.112L39.5414 20.8725L39.7645 19.52Z" fill="#0493F3"/>
<path d="M41.8217 20.7271L41.8217 19.0667L43.0361 20.7271L41.8217 20.7271Z" fill="#0265CB"/>
<path d="M37.1582 20.2216L38.3974 19.8511L38.3458 20.2456L37.5815 20.833L37.7579 21.5972L37.1582 20.2216Z" fill="url(#paint39_linear_1381_3490)"/>
<path d="M36.6277 20.3862L37.0391 20.8449L36.9804 21.0213L36.5101 20.6098L36.4513 20.4334L36.6277 20.3862Z" fill="#D9D9D9"/>
<path d="M36.6277 20.3862L37.0391 20.8449L36.9804 21.0213L36.5101 20.6098L36.4513 20.4334L36.6277 20.3862Z" fill="url(#paint40_linear_1381_3490)"/>
<path d="M41.5071 27.488L43.3884 25.0776L43.4472 26.4297L41.3896 31.7797L41.5071 27.488Z" fill="url(#paint41_linear_1381_3490)"/>
<path d="M41.8016 20.6683L43.8592 23.0199L43.6829 24.3133L42.2131 26.2534L41.5664 25.3716L41.8016 20.6683Z" fill="url(#paint42_linear_1381_3490)"/>
<path d="M43.1552 21.0211L43.6255 21.6678L43.8607 22.9612L42.8906 22.0206L43.1552 21.0211Z" fill="#0F4ACA"/>
<path d="M41.5666 26.1947L41.9193 26.4887L41.5078 27.0766L41.5666 26.1947Z" fill="#1E509A"/>
<path d="M31.2191 24.0194L32.2186 22.9612L32.6889 23.3139L31.7483 24.137L31.1016 24.4897L31.2191 24.0194Z" fill="#1A5AA9"/>
<path d="M32.6895 21.4915L34.9823 20.9036L33.8653 22.197H32.6895V21.4915Z" fill="url(#paint43_linear_1381_3490)"/>
<path d="M33.8065 18.8458L35.8641 20.3156L32.6895 21.1386L32.9834 20.198L33.8065 20.849L34.6295 19.7277L33.8065 18.8458Z" fill="#095DAD"/>
<path d="M32.3965 18.0228L32.5141 17.7876L33.1608 18.3167H32.6904L32.3965 18.0228Z" fill="#0B6DD2"/>
<path d="M34.7473 16.0828L35.6879 16.9646V20.0217L34.3945 18.6695L35.0412 17.8465L34.7473 16.0828Z" fill="url(#paint44_linear_1381_3490)"/>
<path d="M32.3965 16.553V15.6711L34.1602 18.0815L33.8075 18.4931L32.9256 17.8464L32.3965 16.553Z" fill="#007BE2"/>
<path d="M34.3358 12.9668H35.1588H35.7467V13.6135H35.3352C35.3352 13.6135 35.3925 14.0048 35.3352 14.2602C35.2849 14.4842 35.3352 15.2008 35.3352 15.2008L35.7467 15.436V16.2591L34.7473 15.2008L33.8066 15.7299L34.3358 12.9668Z" fill="url(#paint45_linear_1381_3490)"/>
<path d="M36.8053 13.0257L36.041 11.3208L41.5673 18.7284L40.6267 19.0223L39.8624 18.4344L40.1563 19.1987L36.041 20.1981V18.4344H36.5113L36.041 17.7877V16.1416V14.8482L36.5113 14.4955L36.041 13.6136L36.8053 13.0257Z" fill="url(#paint46_linear_1381_3490)"/>
<path d="M17.4629 33.955L19.8733 34.5429L18.6975 35.8362L17.4629 34.8956V33.955Z" fill="#0250A1"/>
<path d="M17.3457 33.661L18.9918 33.6022L19.6385 34.1901L17.3457 33.661Z" fill="#0250A1"/>
<defs>
<filter id="filter0_d_1381_3490" x="10.9336" y="0.322998" width="40.75" height="45.0413" filterUnits="userSpaceOnUse" color-interpolation-filters="sRGB">
<feFlood flood-opacity="0" result="BackgroundImageFix"/>
<feColorMatrix in="SourceAlpha" type="matrix" values="0 0 0 0 0 0 0 0 0 0 0 0 0 0 0 0 0 0 127 0" result="hardAlpha"/>
<feOffset dx="1"/>
<feGaussianBlur stdDeviation="3.5"/>
<feComposite in2="hardAlpha" operator="out"/>
<feColorMatrix type="matrix" values="0 0 0 0 0.180392 0 0 0 0 0.843137 0 0 0 0 0.85098 0 0 0 0.57 0"/>
<feBlend mode="normal" in2="BackgroundImageFix" result="effect1_dropShadow_1381_3490"/>
<feBlend mode="normal" in="SourceGraphic" in2="effect1_dropShadow_1381_3490" result="shape"/>
</filter>
<filter id="filter1_f_1381_3490" x="0.472656" y="11.6548" width="26.4668" height="25.7557" filterUnits="userSpaceOnUse" color-interpolation-filters="sRGB">
<feFlood flood-opacity="0" result="BackgroundImageFix"/>
<feBlend mode="normal" in="SourceGraphic" in2="BackgroundImageFix" result="shape"/>
<feGaussianBlur stdDeviation="2" result="effect1_foregroundBlur_1381_3490"/>
</filter>
<linearGradient id="paint0_linear_1381_3490" x1="21.4015" y1="11.3795" x2="26.2811" y2="10.4976" gradientUnits="userSpaceOnUse">
<stop offset="0.420771" stop-color="#D64270"/>
<stop offset="1" stop-color="#FA8E50"/>
</linearGradient>
<linearGradient id="paint1_linear_1381_3490" x1="15.8764" y1="13.9075" x2="17.3462" y2="14.3778" gradientUnits="userSpaceOnUse">
<stop stop-color="#E84F6B"/>
<stop offset="0.820833" stop-color="#FE903E"/>
</linearGradient>
<linearGradient id="paint2_linear_1381_3490" x1="33.2076" y1="7.38331" x2="32.4642" y2="8.95544" gradientUnits="userSpaceOnUse">
<stop stop-color="#EA605F"/>
<stop offset="1" stop-color="#F28360"/>
</linearGradient>
<linearGradient id="paint3_linear_1381_3490" x1="37.3938" y1="11.7323" x2="41.4503" y2="17.4349" gradientUnits="userSpaceOnUse">
<stop offset="0.365356" stop-color="#EA3AB7"/>
<stop offset="1" stop-color="#067CF1"/>
</linearGradient>
<linearGradient id="paint4_linear_1381_3490" x1="41.5382" y1="28.6203" x2="37.2603" y2="34.1589" gradientUnits="userSpaceOnUse">
<stop stop-color="#8FC3FD"/>
<stop offset="0.544792" stop-color="#067CF1"/>
</linearGradient>
<linearGradient id="paint5_linear_1381_3490" x1="27.4438" y1="12.0703" x2="26.1817" y2="12.3867" gradientUnits="userSpaceOnUse">
<stop stop-color="#983E88"/>
<stop offset="0.701128" stop-color="#FA4F79"/>
</linearGradient>
<linearGradient id="paint6_linear_1381_3490" x1="30.4589" y1="12.1142" x2="28.7888" y2="10.8587" gradientUnits="userSpaceOnUse">
<stop offset="0.32707" stop-color="#694ED2"/>
<stop offset="0.857292" stop-color="#FF7F9E"/>
</linearGradient>
<linearGradient id="paint7_linear_1381_3490" x1="18.3457" y1="15.6712" x2="24.5187" y2="31.6034" gradientUnits="userSpaceOnUse">
<stop offset="0.208074" stop-color="#95236C"/>
<stop offset="1" stop-color="#D92684"/>
</linearGradient>
<linearGradient id="paint8_linear_1381_3490" x1="4.00624" y1="23.8507" x2="4.75909" y2="23.6896" gradientUnits="userSpaceOnUse">
<stop offset="0.608817" stop-color="#4C235F"/>
<stop offset="0.870099" stop-color="#A92571"/>
</linearGradient>
<linearGradient id="paint9_linear_1381_3490" x1="5.4155" y1="20.7337" x2="6.06081" y2="20.5956" gradientUnits="userSpaceOnUse">
<stop offset="0.608817" stop-color="#4C235F"/>
<stop offset="0.870099" stop-color="#A92571"/>
</linearGradient>
<linearGradient id="paint10_linear_1381_3490" x1="8.23777" y1="18.4997" x2="8.88307" y2="18.3616" gradientUnits="userSpaceOnUse">
<stop offset="0.608817" stop-color="#4C235F"/>
<stop offset="0.870099" stop-color="#A92571"/>
</linearGradient>
<linearGradient id="paint11_linear_1381_3490" x1="16.5874" y1="15.4427" x2="17.2327" y2="15.3045" gradientUnits="userSpaceOnUse">
<stop offset="0.608817" stop-color="#4C235F"/>
<stop offset="0.870099" stop-color="#A92571"/>
</linearGradient>
<linearGradient id="paint12_linear_1381_3490" x1="6.47409" y1="30.1402" x2="7.1194" y2="30.0021" gradientUnits="userSpaceOnUse">
<stop offset="0.608817" stop-color="#4C235F"/>
<stop offset="0.870099" stop-color="#A92571"/>
</linearGradient>
<linearGradient id="paint13_linear_1381_3490" x1="10.473" y1="32.0813" x2="11.2259" y2="31.9201" gradientUnits="userSpaceOnUse">
<stop offset="0.608817" stop-color="#4C235F"/>
<stop offset="0.870099" stop-color="#A92571"/>
</linearGradient>
<linearGradient id="paint14_linear_1381_3490" x1="12.9418" y1="31.9638" x2="13.6946" y2="31.8026" gradientUnits="userSpaceOnUse">
<stop offset="0.608817" stop-color="#4C235F"/>
<stop offset="0.870099" stop-color="#A92571"/>
</linearGradient>
<linearGradient id="paint15_linear_1381_3490" x1="17.4105" y1="31.9638" x2="18.1634" y2="31.8026" gradientUnits="userSpaceOnUse">
<stop offset="0.608817" stop-color="#4C235F"/>
<stop offset="0.870099" stop-color="#A92571"/>
</linearGradient>
<linearGradient id="paint16_linear_1381_3490" x1="17.2933" y1="30.2589" x2="18.0462" y2="30.0978" gradientUnits="userSpaceOnUse">
<stop offset="0.608817" stop-color="#4C235F"/>
<stop offset="0.870099" stop-color="#A92571"/>
</linearGradient>
<linearGradient id="paint17_linear_1381_3490" x1="9.30081" y1="29.499" x2="10.4839" y2="29.2457" gradientUnits="userSpaceOnUse">
<stop offset="0.608817" stop-color="#4C235F"/>
<stop offset="0.870099" stop-color="#A92571"/>
</linearGradient>
<linearGradient id="paint18_linear_1381_3490" x1="7.30544" y1="24.3875" x2="8.81115" y2="24.0651" gradientUnits="userSpaceOnUse">
<stop offset="0.608817" stop-color="#4C235F"/>
<stop offset="0.870099" stop-color="#A92571"/>
</linearGradient>
<linearGradient id="paint19_linear_1381_3490" x1="13.655" y1="29.5609" x2="15.1608" y2="29.2386" gradientUnits="userSpaceOnUse">
<stop offset="0.608817" stop-color="#4C235F"/>
<stop offset="0.870099" stop-color="#A92571"/>
</linearGradient>
<linearGradient id="paint20_linear_1381_3490" x1="9.18363" y1="20.6805" x2="10.3667" y2="20.4272" gradientUnits="userSpaceOnUse">
<stop offset="0.608817" stop-color="#4C235F"/>
<stop offset="0.870099" stop-color="#A92571"/>
</linearGradient>
<linearGradient id="paint21_linear_1381_3490" x1="9.82655" y1="26.6726" x2="10.5794" y2="26.5115" gradientUnits="userSpaceOnUse">
<stop offset="0.608817" stop-color="#4C235F"/>
<stop offset="0.870099" stop-color="#A92571"/>
</linearGradient>
<linearGradient id="paint22_linear_1381_3490" x1="10.8265" y1="23.0276" x2="11.5794" y2="22.8664" gradientUnits="userSpaceOnUse">
<stop offset="0.608817" stop-color="#4C235F"/>
<stop offset="0.870099" stop-color="#A92571"/>
</linearGradient>
<linearGradient id="paint23_linear_1381_3490" x1="16.4673" y1="23.3782" x2="17.0051" y2="23.263" gradientUnits="userSpaceOnUse">
<stop offset="0.608817" stop-color="#4C235F"/>
<stop offset="0.870099" stop-color="#A92571"/>
</linearGradient>
<linearGradient id="paint24_linear_1381_3490" x1="15.7649" y1="24.9688" x2="16.6253" y2="24.7846" gradientUnits="userSpaceOnUse">
<stop offset="0.608817" stop-color="#4C235F"/>
<stop offset="0.870099" stop-color="#A92571"/>
</linearGradient>
<linearGradient id="paint25_linear_1381_3490" x1="16.0004" y1="17.2661" x2="16.7532" y2="17.105" gradientUnits="userSpaceOnUse">
<stop offset="0.608817" stop-color="#4C235F"/>
<stop offset="0.870099" stop-color="#A92571"/>
</linearGradient>
<linearGradient id="paint26_linear_1381_3490" x1="16.9407" y1="18.8547" x2="17.8011" y2="18.6705" gradientUnits="userSpaceOnUse">
<stop offset="0.608817" stop-color="#4C235F"/>
<stop offset="0.870099" stop-color="#A92571"/>
</linearGradient>
<linearGradient id="paint27_linear_1381_3490" x1="17.5313" y1="21.621" x2="18.7143" y2="21.3678" gradientUnits="userSpaceOnUse">
<stop offset="0.608817" stop-color="#4C235F"/>
<stop offset="0.870099" stop-color="#A92571"/>
</linearGradient>
<linearGradient id="paint28_linear_1381_3490" x1="18.2364" y1="28.5584" x2="19.4194" y2="28.3051" gradientUnits="userSpaceOnUse">
<stop offset="0.608817" stop-color="#4C235F"/>
<stop offset="0.870099" stop-color="#A92571"/>
</linearGradient>
<linearGradient id="paint29_linear_1381_3490" x1="15.7676" y1="27.3825" x2="16.9507" y2="27.1292" gradientUnits="userSpaceOnUse">
<stop offset="0.608817" stop-color="#4C235F"/>
<stop offset="0.870099" stop-color="#A92571"/>
</linearGradient>
<linearGradient id="paint30_linear_1381_3490" x1="11.8868" y1="24.7957" x2="13.0698" y2="24.5424" gradientUnits="userSpaceOnUse">
<stop offset="0.608817" stop-color="#4C235F"/>
<stop offset="0.870099" stop-color="#A92571"/>
</linearGradient>
<linearGradient id="paint31_linear_1381_3490" x1="12.9453" y1="20.2101" x2="14.1284" y2="19.9569" gradientUnits="userSpaceOnUse">
<stop offset="0.608817" stop-color="#4C235F"/>
<stop offset="0.870099" stop-color="#A92571"/>
</linearGradient>
<linearGradient id="paint32_linear_1381_3490" x1="4.83206" y1="27.5001" x2="6.01512" y2="27.2468" gradientUnits="userSpaceOnUse">
<stop offset="0.608817" stop-color="#4C235F"/>
<stop offset="0.870099" stop-color="#A92571"/>
</linearGradient>
<linearGradient id="paint33_linear_1381_3490" x1="14.9453" y1="33.3791" x2="16.1284" y2="33.1258" gradientUnits="userSpaceOnUse">
<stop offset="0.608817" stop-color="#4C235F"/>
<stop offset="0.870099" stop-color="#A92571"/>
</linearGradient>
<linearGradient id="paint34_linear_1381_3490" x1="10.7074" y1="16.8547" x2="11.4603" y2="16.6936" gradientUnits="userSpaceOnUse">
<stop offset="0.608817" stop-color="#4C235F"/>
<stop offset="0.870099" stop-color="#A92571"/>
</linearGradient>
<linearGradient id="paint35_linear_1381_3490" x1="38.3326" y1="28.3111" x2="35.4519" y2="23.3139" gradientUnits="userSpaceOnUse">
<stop offset="0.383333" stop-color="#1D85E6"/>
<stop offset="0.992708" stop-color="#0F63A1"/>
</linearGradient>
<linearGradient id="paint36_linear_1381_3490" x1="34.5713" y1="30.0748" x2="38.7454" y2="32.1912" gradientUnits="userSpaceOnUse">
<stop stop-color="#016CD1"/>
<stop offset="1" stop-color="#035DC2"/>
</linearGradient>
<linearGradient id="paint37_linear_1381_3490" x1="33.0428" y1="27.9584" x2="32.2082" y2="23.6521" gradientUnits="userSpaceOnUse">
<stop offset="0.383333" stop-color="#1D85E6"/>
<stop offset="0.992708" stop-color="#0F63A1"/>
</linearGradient>
<linearGradient id="paint38_linear_1381_3490" x1="32.0529" y1="29.0313" x2="29.4419" y2="27.9533" gradientUnits="userSpaceOnUse">
<stop offset="0.383333" stop-color="#1D85E6"/>
<stop offset="0.992708" stop-color="#0F63A1"/>
</linearGradient>
<linearGradient id="paint39_linear_1381_3490" x1="37.2758" y1="20.5508" x2="38.334" y2="20.1393" gradientUnits="userSpaceOnUse">
<stop stop-color="#146AB3"/>
<stop offset="1" stop-color="#1593CE"/>
</linearGradient>
<linearGradient id="paint40_linear_1381_3490" x1="36.4705" y1="20.4178" x2="37.081" y2="20.6015" gradientUnits="userSpaceOnUse">
<stop stop-color="#146AB3"/>
<stop offset="1" stop-color="#1593CE"/>
</linearGradient>
<linearGradient id="paint41_linear_1381_3490" x1="42.9769" y1="27.6643" x2="41.5659" y2="27.5468" gradientUnits="userSpaceOnUse">
<stop stop-color="#0049A5"/>
<stop offset="0.579508" stop-color="#4AAFFB"/>
</linearGradient>
<linearGradient id="paint42_linear_1381_3490" x1="42.5071" y1="20.6683" x2="42.5071" y2="26.2534" gradientUnits="userSpaceOnUse">
<stop stop-color="#188BA9"/>
<stop offset="1" stop-color="#007CDD"/>
</linearGradient>
<linearGradient id="paint43_linear_1381_3490" x1="33.8359" y1="20.9036" x2="33.8359" y2="22.197" gradientUnits="userSpaceOnUse">
<stop stop-color="#37648E"/>
<stop offset="1" stop-color="#0E6DC1"/>
</linearGradient>
<linearGradient id="paint44_linear_1381_3490" x1="35.0412" y1="16.0828" x2="35.0412" y2="20.0217" gradientUnits="userSpaceOnUse">
<stop offset="0.227083" stop-color="#9F5BCA"/>
<stop offset="1" stop-color="#0388FF"/>
</linearGradient>
<linearGradient id="paint45_linear_1381_3490" x1="34.7767" y1="12.9668" x2="35.2764" y2="15.4948" gradientUnits="userSpaceOnUse">
<stop stop-color="#741B77"/>
<stop offset="0.65917" stop-color="#855CD6"/>
<stop offset="1" stop-color="#0060D9"/>
</linearGradient>
<linearGradient id="paint46_linear_1381_3490" x1="36.4525" y1="11.6735" x2="37.0992" y2="20.2569" gradientUnits="userSpaceOnUse">
<stop stop-color="#ED6AC8"/>
<stop offset="0.628937" stop-color="#7349EA"/>
<stop offset="1" stop-color="#0279D7"/>
</linearGradient>
</defs>
</svg>
