<svg width="65" height="51" viewBox="0 0 65 51" fill="none" xmlns="http://www.w3.org/2000/svg">
<path d="M16.7306 44.2355C22.352 44.2355 26.909 40.3641 26.909 35.5885C26.909 30.8128 22.352 26.9414 16.7306 26.9414C11.1093 26.9414 6.55225 30.8128 6.55225 35.5885C6.55225 40.3641 11.1093 44.2355 16.7306 44.2355Z" stroke="white" stroke-width="2" stroke-linecap="round" stroke-linejoin="round"/>
<path d="M1 50.0001C2.83153 48.2102 5.20649 46.7574 7.93677 45.7568C10.6671 44.7563 13.6777 44.2354 16.7303 44.2354C19.7828 44.2354 22.7934 44.7563 25.5237 45.7568C28.254 46.7574 30.629 48.2102 32.4605 50.0001" stroke="white" stroke-width="2" stroke-linecap="round" stroke-linejoin="round"/>
<path d="M16.7306 16.8529C22.352 16.8529 26.909 13.3041 26.909 8.92647C26.909 4.5488 22.352 1 16.7306 1C11.1093 1 6.55225 4.5488 6.55225 8.92647C6.55225 13.3041 11.1093 16.8529 16.7306 16.8529Z" stroke="white" stroke-width="2" stroke-linecap="round" stroke-linejoin="round"/>
<path d="M1 24.0589C2.83153 21.8216 5.20649 20.0056 7.93677 18.7549C10.6671 17.5042 13.6777 16.853 16.7303 16.853C19.7828 16.853 22.7934 17.5042 25.5237 18.7549C28.254 20.0056 30.629 21.8216 32.4605 24.0589" stroke="white" stroke-width="2" stroke-linecap="round" stroke-linejoin="round"/>
<path d="M48.1901 44.2355C53.8115 44.2355 58.3685 40.3641 58.3685 35.5885C58.3685 30.8128 53.8115 26.9414 48.1901 26.9414C42.5687 26.9414 38.0117 30.8128 38.0117 35.5885C38.0117 40.3641 42.5687 44.2355 48.1901 44.2355Z" stroke="white" stroke-width="2" stroke-linecap="round" stroke-linejoin="round"/>
<path d="M32.4609 50.0001C34.2925 48.2102 36.6674 46.7574 39.3977 45.7568C42.128 44.7563 45.1386 44.2354 48.1912 44.2354C51.2437 44.2354 54.2544 44.7563 56.9847 45.7568C59.715 46.7574 62.0899 48.2102 63.9214 50.0001" stroke="white" stroke-width="2" stroke-linecap="round" stroke-linejoin="round"/>
<path d="M48.1901 16.8529C53.8115 16.8529 58.3685 13.3041 58.3685 8.92647C58.3685 4.5488 53.8115 1 48.1901 1C42.5687 1 38.0117 4.5488 38.0117 8.92647C38.0117 13.3041 42.5687 16.8529 48.1901 16.8529Z" stroke="white" stroke-width="2" stroke-linecap="round" stroke-linejoin="round"/>
<path d="M32.4609 24.0589C34.2925 21.8216 36.6674 20.0056 39.3977 18.7549C42.128 17.5042 45.1386 16.853 48.1912 16.853C51.2437 16.853 54.2544 17.5042 56.9847 18.7549C59.715 20.0056 62.0899 21.8216 63.9214 24.0589" stroke="white" stroke-width="2" stroke-linecap="round" stroke-linejoin="round"/>
</svg>
