<svg width="108" height="13" viewBox="0 0 108 13" fill="none" xmlns="http://www.w3.org/2000/svg">
<path d="M0.609375 0.554688H4.67969C5.6849 0.554688 6.57031 0.690104 7.33594 0.960938C8.10156 1.23177 8.74219 1.60677 9.25781 2.08594C9.77344 2.5599 10.1615 3.1224 10.4219 3.77344C10.6875 4.42448 10.8203 5.13021 10.8203 5.89062C10.8203 6.36979 10.7656 6.85417 10.6562 7.34375C10.5521 7.83333 10.388 8.30469 10.1641 8.75781C9.9401 9.20573 9.65625 9.6276 9.3125 10.0234C8.96875 10.4193 8.55729 10.7656 8.07812 11.0625C7.60417 11.3542 7.0599 11.5833 6.44531 11.75C5.83594 11.9167 5.15365 12 4.39844 12H0.609375V0.554688ZM2.54688 10.625H4.6875C5.38542 10.625 5.99219 10.5104 6.50781 10.2812C7.02344 10.0469 7.45052 9.73177 7.78906 9.33594C8.1276 8.9349 8.38021 8.46615 8.54688 7.92969C8.71354 7.38802 8.79688 6.80729 8.79688 6.1875C8.79688 5.51042 8.70052 4.90885 8.50781 4.38281C8.3151 3.85677 8.03125 3.41146 7.65625 3.04688C7.28646 2.68229 6.83073 2.40625 6.28906 2.21875C5.7474 2.02604 5.13021 1.92969 4.4375 1.92969H2.54688V10.625ZM15.4375 12H13.5V0.554688H15.4375V12ZM21.6562 10.7812C21.9688 10.7812 22.2578 10.7422 22.5234 10.6641C22.7943 10.5807 23.0286 10.4661 23.2266 10.3203C23.4245 10.1693 23.5781 9.98698 23.6875 9.77344C23.8021 9.55469 23.8594 9.3099 23.8594 9.03906C23.8594 8.71615 23.7812 8.44271 23.625 8.21875C23.474 7.99479 23.2708 7.79948 23.0156 7.63281C22.7604 7.46094 22.4714 7.30729 22.1484 7.17188C21.8255 7.03646 21.4948 6.89844 21.1562 6.75781C20.8229 6.61719 20.4948 6.46354 20.1719 6.29688C19.849 6.125 19.5599 5.92188 19.3047 5.6875C19.0495 5.44792 18.8438 5.16406 18.6875 4.83594C18.5365 4.50781 18.4609 4.11198 18.4609 3.64844C18.4609 3.14323 18.5573 2.6901 18.75 2.28906C18.9427 1.88802 19.2135 1.54688 19.5625 1.26562C19.9115 0.984375 20.3281 0.770833 20.8125 0.625C21.2969 0.473958 21.8307 0.398438 22.4141 0.398438C22.5859 0.398438 22.7839 0.40625 23.0078 0.421875C23.2318 0.4375 23.4714 0.463542 23.7266 0.5C23.9818 0.53125 24.2474 0.575521 24.5234 0.632812C24.8047 0.684896 25.0859 0.752604 25.3672 0.835938L25.0625 2.35156L24.9141 2.42969C24.638 2.30469 24.3698 2.20052 24.1094 2.11719C23.849 2.03385 23.6016 1.96615 23.3672 1.91406C23.1328 1.86198 22.9141 1.82552 22.7109 1.80469C22.513 1.78385 22.3385 1.77344 22.1875 1.77344C21.901 1.77344 21.6406 1.80729 21.4062 1.875C21.1719 1.94271 20.9714 2.04167 20.8047 2.17188C20.6432 2.30208 20.5156 2.46354 20.4219 2.65625C20.3333 2.84375 20.2891 3.0599 20.2891 3.30469C20.2891 3.63281 20.3672 3.91406 20.5234 4.14844C20.6797 4.3776 20.8828 4.58073 21.1328 4.75781C21.388 4.9349 21.6771 5.09375 22 5.23438C22.3281 5.36979 22.6615 5.51042 23 5.65625C23.3438 5.79688 23.6771 5.95052 24 6.11719C24.3281 6.28385 24.6172 6.48177 24.8672 6.71094C25.1224 6.9401 25.3281 7.21094 25.4844 7.52344C25.6406 7.83073 25.7188 8.20052 25.7188 8.63281C25.7188 9.11719 25.6172 9.57292 25.4141 10C25.2109 10.4271 24.9219 10.8021 24.5469 11.125C24.1771 11.4427 23.7318 11.6953 23.2109 11.8828C22.6901 12.0651 22.1094 12.1562 21.4688 12.1562C21.2083 12.1562 20.9349 12.138 20.6484 12.1016C20.362 12.0703 20.0703 12.0234 19.7734 11.9609C19.4766 11.8984 19.1823 11.8203 18.8906 11.7266C18.599 11.6328 18.3177 11.526 18.0469 11.4062L18.3594 9.875L18.5156 9.79688C19.0677 10.099 19.6068 10.3385 20.1328 10.5156C20.6589 10.6927 21.1667 10.7812 21.6562 10.7812ZM32.6953 12H30.75V1.92969H27.0391L27.2969 0.554688H36.5234L36.2656 1.92969H32.6953V12ZM41.4062 10.7812C41.7188 10.7812 42.0078 10.7422 42.2734 10.6641C42.5443 10.5807 42.7786 10.4661 42.9766 10.3203C43.1745 10.1693 43.3281 9.98698 43.4375 9.77344C43.5521 9.55469 43.6094 9.3099 43.6094 9.03906C43.6094 8.71615 43.5312 8.44271 43.375 8.21875C43.224 7.99479 43.0208 7.79948 42.7656 7.63281C42.5104 7.46094 42.2214 7.30729 41.8984 7.17188C41.5755 7.03646 41.2448 6.89844 40.9062 6.75781C40.5729 6.61719 40.2448 6.46354 39.9219 6.29688C39.599 6.125 39.3099 5.92188 39.0547 5.6875C38.7995 5.44792 38.5938 5.16406 38.4375 4.83594C38.2865 4.50781 38.2109 4.11198 38.2109 3.64844C38.2109 3.14323 38.3073 2.6901 38.5 2.28906C38.6927 1.88802 38.9635 1.54688 39.3125 1.26562C39.6615 0.984375 40.0781 0.770833 40.5625 0.625C41.0469 0.473958 41.5807 0.398438 42.1641 0.398438C42.3359 0.398438 42.5339 0.40625 42.7578 0.421875C42.9818 0.4375 43.2214 0.463542 43.4766 0.5C43.7318 0.53125 43.9974 0.575521 44.2734 0.632812C44.5547 0.684896 44.8359 0.752604 45.1172 0.835938L44.8125 2.35156L44.6641 2.42969C44.388 2.30469 44.1198 2.20052 43.8594 2.11719C43.599 2.03385 43.3516 1.96615 43.1172 1.91406C42.8828 1.86198 42.6641 1.82552 42.4609 1.80469C42.263 1.78385 42.0885 1.77344 41.9375 1.77344C41.651 1.77344 41.3906 1.80729 41.1562 1.875C40.9219 1.94271 40.7214 2.04167 40.5547 2.17188C40.3932 2.30208 40.2656 2.46354 40.1719 2.65625C40.0833 2.84375 40.0391 3.0599 40.0391 3.30469C40.0391 3.63281 40.1172 3.91406 40.2734 4.14844C40.4297 4.3776 40.6328 4.58073 40.8828 4.75781C41.138 4.9349 41.4271 5.09375 41.75 5.23438C42.0781 5.36979 42.4115 5.51042 42.75 5.65625C43.0938 5.79688 43.4271 5.95052 43.75 6.11719C44.0781 6.28385 44.3672 6.48177 44.6172 6.71094C44.8724 6.9401 45.0781 7.21094 45.2344 7.52344C45.3906 7.83073 45.4688 8.20052 45.4688 8.63281C45.4688 9.11719 45.3672 9.57292 45.1641 10C44.9609 10.4271 44.6719 10.8021 44.2969 11.125C43.9271 11.4427 43.4818 11.6953 42.9609 11.8828C42.4401 12.0651 41.8594 12.1562 41.2188 12.1562C40.9583 12.1562 40.6849 12.138 40.3984 12.1016C40.112 12.0703 39.8203 12.0234 39.5234 11.9609C39.2266 11.8984 38.9323 11.8203 38.6406 11.7266C38.349 11.6328 38.0677 11.526 37.7969 11.4062L38.1094 9.875L38.2656 9.79688C38.8177 10.099 39.3568 10.3385 39.8828 10.5156C40.4089 10.6927 40.9167 10.7812 41.4062 10.7812ZM54.2891 9.04688H49.7031L48.7422 12H47.0078L51.0625 0.554688H53.2578L57.3125 12H55.2656L54.2891 9.04688ZM53.8594 7.71875L52.5 3.48438L52.0703 1.85156H51.9141L51.4922 3.48438L50.1172 7.71875H53.8594ZM59.1484 12L60.0234 0.554688H62.8594L65.3125 7.86719L65.75 9.57031H65.9062L66.3516 7.86719L68.8125 0.554688H71.7266L72.6094 12H70.6094L70.0781 3.44531L70.0312 1.66406H69.875L69.4062 3.36719L66.6172 11.7656H64.8516L62.0391 3.38281L61.5547 1.66406H61.3984L61.3594 3.42969L60.8359 12H59.1484ZM84.6797 11.3984C83.9505 11.6797 83.2578 11.8776 82.6016 11.9922C81.9453 12.1016 81.3359 12.1562 80.7734 12.1562C79.8568 12.1562 79.0365 12.026 78.3125 11.7656C77.5938 11.5 76.9818 11.1276 76.4766 10.6484C75.9714 10.1641 75.5859 9.58073 75.3203 8.89844C75.0547 8.21615 74.9219 7.45573 74.9219 6.61719C74.9219 5.96094 75.0026 5.35156 75.1641 4.78906C75.3255 4.22656 75.5495 3.71615 75.8359 3.25781C76.1224 2.79427 76.4661 2.38542 76.8672 2.03125C77.2682 1.67708 77.7083 1.38021 78.1875 1.14062C78.6667 0.895833 79.1771 0.710938 79.7188 0.585938C80.2604 0.460938 80.8177 0.398438 81.3906 0.398438C81.5781 0.398438 81.7865 0.40625 82.0156 0.421875C82.2448 0.4375 82.487 0.463542 82.7422 0.5C83.0026 0.53125 83.2708 0.575521 83.5469 0.632812C83.8229 0.684896 84.1016 0.752604 84.3828 0.835938L84.0781 2.34375L83.9219 2.42188C83.375 2.16667 82.862 1.99479 82.3828 1.90625C81.9036 1.81771 81.4896 1.77344 81.1406 1.77344C80.5052 1.77344 79.9297 1.88802 79.4141 2.11719C78.8984 2.34115 78.4557 2.65365 78.0859 3.05469C77.7161 3.45052 77.4297 3.92188 77.2266 4.46875C77.0286 5.01042 76.9297 5.60156 76.9297 6.24219C76.9297 6.85156 77.0208 7.42969 77.2031 7.97656C77.3906 8.52344 77.6615 9.00521 78.0156 9.42188C78.3698 9.83854 78.8021 10.1693 79.3125 10.4141C79.8229 10.6589 80.4062 10.7812 81.0625 10.7812C81.3385 10.7812 81.6406 10.7578 81.9688 10.7109C82.3021 10.6641 82.6302 10.5885 82.9531 10.4844V6.53125H84.6797V11.3984ZM92.2734 12H90.3281V1.92969H86.6172L86.875 0.554688H96.1016L95.8438 1.92969H92.2734V12ZM100 0.554688V7.71875C100 8.24479 100.081 8.70052 100.242 9.08594C100.409 9.47135 100.625 9.78906 100.891 10.0391C101.161 10.2891 101.466 10.4766 101.805 10.6016C102.143 10.7214 102.484 10.7812 102.828 10.7812C103.182 10.7812 103.516 10.7188 103.828 10.5938C104.146 10.4688 104.422 10.2839 104.656 10.0391C104.891 9.79427 105.076 9.48698 105.211 9.11719C105.352 8.7474 105.422 8.3151 105.422 7.82031V0.554688H107.094V7.71094C107.094 8.0651 107.052 8.42188 106.969 8.78125C106.891 9.13542 106.768 9.47656 106.602 9.80469C106.435 10.1328 106.224 10.4401 105.969 10.7266C105.719 11.013 105.422 11.263 105.078 11.4766C104.734 11.6849 104.344 11.8516 103.906 11.9766C103.474 12.0964 102.995 12.1562 102.469 12.1562C101.812 12.1562 101.214 12.0599 100.672 11.8672C100.13 11.6693 99.6641 11.3802 99.2734 11C98.888 10.6198 98.5885 10.1536 98.375 9.60156C98.1667 9.04427 98.0625 8.40625 98.0625 7.6875V0.554688H100Z" fill="black"/>
<path d="M0.609375 0.554688V-0.445312H-0.390625V0.554688H0.609375ZM9.25781 2.08594L8.57707 2.81848L8.58108 2.82216L9.25781 2.08594ZM10.4219 3.77344L9.49338 4.14484L9.49597 4.15121L10.4219 3.77344ZM10.6562 7.34375L9.68026 7.12571L9.67814 7.13564L10.6562 7.34375ZM10.1641 8.75781L11.0585 9.20503L11.0605 9.2009L10.1641 8.75781ZM8.07812 11.0625L8.60222 11.9142L8.6048 11.9126L8.07812 11.0625ZM6.44531 11.75L6.18358 10.7849L6.1815 10.7854L6.44531 11.75ZM0.609375 12H-0.390625V13H0.609375V12ZM2.54688 10.625H1.54688V11.625H2.54688V10.625ZM6.50781 10.2812L6.91397 11.1951L6.92162 11.1916L6.50781 10.2812ZM7.78906 9.33594L8.54904 9.98592L8.5532 9.98099L7.78906 9.33594ZM8.54688 7.92969L9.50185 8.22638L9.50265 8.22377L8.54688 7.92969ZM7.65625 3.04688L6.95416 3.759L6.95917 3.76387L7.65625 3.04688ZM6.28906 2.21875L5.95386 3.16094L5.96195 3.16374L6.28906 2.21875ZM2.54688 1.92969V0.929688H1.54688V1.92969H2.54688ZM0.609375 1.55469H4.67969V-0.445312H0.609375V1.55469ZM4.67969 1.55469C5.59727 1.55469 6.36595 1.67853 7.00245 1.90369L7.66943 0.0181842C6.77468 -0.298327 5.77252 -0.445312 4.67969 -0.445312V1.55469ZM7.00245 1.90369C7.65884 2.13588 8.17584 2.4456 8.57708 2.81847L9.93855 1.35341C9.30853 0.76794 8.54429 0.327658 7.66943 0.0181842L7.00245 1.90369ZM8.58108 2.82216C8.98642 3.19475 9.28848 3.63253 9.4934 4.14483L11.3504 3.40205C11.0344 2.61226 10.5605 1.92504 9.93455 1.34971L8.58108 2.82216ZM9.49597 4.15121C9.7088 4.67284 9.82031 5.24911 9.82031 5.89062H11.8203C11.8203 5.01131 11.6662 4.17611 11.3478 3.39567L9.49597 4.15121ZM9.82031 5.89062C9.82031 6.2931 9.77444 6.70436 9.68031 7.12572L11.6322 7.56178C11.7568 7.00397 11.8203 6.44649 11.8203 5.89062H9.82031ZM9.67814 7.13564C9.59147 7.543 9.45502 7.93549 9.26758 8.31472L11.0605 9.2009C11.321 8.67389 11.5127 8.12366 11.6344 7.55186L9.67814 7.13564ZM9.26964 8.3106C9.08493 8.68001 8.84877 9.03231 8.55747 9.36775L10.0675 10.6791C10.4637 10.2229 10.7953 9.73145 11.0585 9.20503L9.26964 8.3106ZM8.55747 9.36775C8.2844 9.68219 7.95157 9.96453 7.55145 10.2124L8.6048 11.9126C9.16301 11.5667 9.6531 11.1564 10.0675 10.6791L8.55747 9.36775ZM7.55403 10.2108C7.17241 10.4457 6.71878 10.6397 6.18358 10.7849L6.70705 12.7151C7.40101 12.5269 8.03592 12.2626 8.60222 11.9142L7.55403 10.2108ZM6.1815 10.7854C5.67291 10.9245 5.08132 11 4.39844 11V13C5.22598 13 5.99897 12.9088 6.70913 12.7146L6.1815 10.7854ZM4.39844 11H0.609375V13H4.39844V11ZM1.60938 12V0.554688H-0.390625V12H1.60938ZM2.54688 11.625H4.6875V9.625H2.54688V11.625ZM4.6875 11.625C5.49309 11.625 6.24396 11.4928 6.91395 11.1951L6.10167 9.36744C5.74041 9.528 5.27774 9.625 4.6875 9.625V11.625ZM6.92162 11.1916C7.55847 10.9021 8.10743 10.5022 8.54902 9.9859L7.0291 8.68597C6.79361 8.96131 6.4884 9.19161 6.09401 9.37088L6.92162 11.1916ZM8.5532 9.98099C8.98395 9.47072 9.29833 8.88145 9.50185 8.22638L7.5919 7.633C7.46209 8.05084 7.27126 8.39907 7.02492 8.69089L8.5532 9.98099ZM9.50265 8.22377C9.70124 7.57836 9.79688 6.89771 9.79688 6.1875H7.79688C7.79688 6.71688 7.72584 7.19768 7.5911 7.6356L9.50265 8.22377ZM9.79688 6.1875C9.79688 5.41682 9.6873 4.69536 9.44679 4.03883L7.56884 4.72679C7.71374 5.12235 7.79688 5.60401 7.79688 6.1875H9.79688ZM9.44679 4.03883C9.20621 3.38211 8.84348 2.80641 8.35333 2.32988L6.95917 3.76387C7.21902 4.0165 7.424 4.33144 7.56884 4.72679L9.44679 4.03883ZM8.35832 2.33477C7.87185 1.85515 7.28384 1.50488 6.61617 1.27376L5.96195 3.16374C6.37762 3.30762 6.70107 3.50943 6.95418 3.75898L8.35832 2.33477ZM6.62425 1.2766C5.95549 1.03867 5.22172 0.929688 4.4375 0.929688V2.92969C5.0387 2.92969 5.5393 3.01341 5.95387 3.1609L6.62425 1.2766ZM4.4375 0.929688H2.54688V2.92969H4.4375V0.929688ZM1.54688 1.92969V10.625H3.54688V1.92969H1.54688ZM15.4375 12V13H16.4375V12H15.4375ZM13.5 12H12.5V13H13.5V12ZM13.5 0.554688V-0.445312H12.5V0.554688H13.5ZM15.4375 0.554688H16.4375V-0.445312H15.4375V0.554688ZM15.4375 11H13.5V13H15.4375V11ZM14.5 12V0.554688H12.5V12H14.5ZM13.5 1.55469H15.4375V-0.445312H13.5V1.55469ZM14.4375 0.554688V12H16.4375V0.554688H14.4375ZM22.5234 10.6641L22.8056 11.6235L22.8175 11.6198L22.5234 10.6641ZM23.2266 10.3203L23.8198 11.1254L23.8265 11.1204L23.8332 11.1153L23.2266 10.3203ZM23.6875 9.77344L22.8016 9.30941L22.7975 9.31756L23.6875 9.77344ZM23.625 8.21875L22.7959 8.77789L22.8003 8.78445L22.8049 8.79093L23.625 8.21875ZM23.0156 7.63281L22.457 8.46225L22.4629 8.46621L22.4688 8.47008L23.0156 7.63281ZM21.1562 6.75781L20.7675 7.67919L20.7726 7.68131L21.1562 6.75781ZM20.1719 6.29688L19.702 7.17969L19.7132 7.1855L20.1719 6.29688ZM19.3047 5.6875L18.6202 6.41662L18.6283 6.42403L19.3047 5.6875ZM18.6875 4.83594L17.779 5.25412L17.7846 5.26587L18.6875 4.83594ZM20.8125 0.625L21.1008 1.58259L21.1102 1.57966L20.8125 0.625ZM23.7266 0.5L23.5851 1.48995L23.5951 1.49137L23.605 1.49259L23.7266 0.5ZM24.5234 0.632812L24.3202 1.61195L24.3308 1.61413L24.3413 1.61609L24.5234 0.632812ZM25.3672 0.835938L26.3476 1.03303L26.5277 0.136831L25.6513 -0.122861L25.3672 0.835938ZM25.0625 2.35156L25.5282 3.23648L25.9491 3.01496L26.0429 2.54865L25.0625 2.35156ZM24.9141 2.42969L24.5016 3.34064L24.947 3.54237L25.3798 3.31461L24.9141 2.42969ZM22.7109 1.80469L22.6063 2.7992L22.6089 2.79947L22.7109 1.80469ZM20.8047 2.17188L20.189 1.38385L20.183 1.38861L20.1769 1.39346L20.8047 2.17188ZM20.4219 2.65625L19.5226 2.21875L19.5176 2.22924L20.4219 2.65625ZM20.5234 4.14844L19.6913 4.70317L19.6972 4.71177L20.5234 4.14844ZM21.1328 4.75781L20.5548 5.57388L20.5627 5.5794L21.1328 4.75781ZM22 5.23438L21.6007 6.15121L21.6096 6.15507L21.6185 6.15875L22 5.23438ZM23 5.65625L22.6044 6.57466L22.6128 6.57831L22.6214 6.5818L23 5.65625ZM24 6.11719L23.5413 7.00583L23.5471 7.00877L24 6.11719ZM24.8672 6.71094L24.1914 7.44813L24.1991 7.45499L24.8672 6.71094ZM25.4844 7.52344L24.5899 7.97066L24.593 7.97668L25.4844 7.52344ZM24.5469 11.125L25.1985 11.8835L25.1994 11.8828L24.5469 11.125ZM23.2109 11.8828L23.5413 12.8267L23.5497 12.8237L23.2109 11.8828ZM20.6484 12.1016L20.7747 11.1096L20.7658 11.1084L20.7569 11.1075L20.6484 12.1016ZM18.0469 11.4062L17.0671 11.2063L16.9061 11.9951L17.6424 12.3208L18.0469 11.4062ZM18.3594 9.875L17.9122 8.98057L17.4769 9.19821L17.3796 9.67504L18.3594 9.875ZM18.5156 9.79688L18.9956 8.91961L18.5365 8.6684L18.0684 8.90245L18.5156 9.79688ZM21.6562 11.7812C22.0522 11.7812 22.4374 11.7317 22.8056 11.6234L22.2413 9.7047C22.0782 9.75266 21.8853 9.78125 21.6562 9.78125V11.7812ZM22.8175 11.6198C23.1797 11.5084 23.5187 11.3472 23.8198 11.1254L22.6334 9.51526C22.5386 9.58507 22.4088 9.65306 22.2294 9.70828L22.8175 11.6198ZM23.8332 11.1153C24.1451 10.8773 24.3976 10.5806 24.5775 10.2293L22.7975 9.31756C22.7587 9.39331 22.7038 9.46129 22.6199 9.52536L23.8332 11.1153ZM24.5733 10.2374C24.77 9.86203 24.8594 9.45557 24.8594 9.03906H22.8594C22.8594 9.16422 22.8342 9.24734 22.8017 9.30943L24.5733 10.2374ZM24.8594 9.03906C24.8594 8.54977 24.7386 8.06722 24.4451 7.64657L22.8049 8.79093C22.8239 8.8182 22.8594 8.88252 22.8594 9.03906H24.8594ZM24.4541 7.65961C24.2194 7.3117 23.915 7.02582 23.5624 6.79554L22.4688 8.47008C22.6266 8.57314 22.7285 8.67788 22.7959 8.77789L24.4541 7.65961ZM23.5742 6.80338C23.2581 6.59046 22.9102 6.40695 22.5352 6.24968L21.7617 8.09407C22.0325 8.20764 22.2628 8.33142 22.457 8.46225L23.5742 6.80338ZM22.5352 6.24968C22.2112 6.11381 21.8794 5.97535 21.5399 5.83432L20.7726 7.68131C21.1102 7.82152 21.4399 7.95911 21.7617 8.09407L22.5352 6.24968ZM21.545 5.83645C21.2354 5.70588 20.9307 5.56316 20.6305 5.40825L19.7132 7.1855C20.0589 7.36392 20.4104 7.5285 20.7675 7.67918L21.545 5.83645ZM20.6417 5.41413C20.3894 5.27983 20.1705 5.12495 19.9811 4.95097L18.6283 6.42403C18.9492 6.7188 19.3085 6.97017 19.702 7.17962L20.6417 5.41413ZM19.9891 4.95843C19.8282 4.80734 19.6951 4.62606 19.5904 4.406L17.7846 5.26587C17.9924 5.70207 18.2708 6.0885 18.6203 6.41657L19.9891 4.95843ZM19.5959 4.41779C19.5198 4.25241 19.4609 4.00701 19.4609 3.64844H17.4609C17.4609 4.21695 17.5532 4.76322 17.7791 5.25408L19.5959 4.41779ZM19.4609 3.64844C19.4609 3.27279 19.5319 2.97082 19.6513 2.72217L17.8487 1.85595C17.5827 2.40938 17.4609 3.01367 17.4609 3.64844H19.4609ZM19.6513 2.72217C19.7791 2.45624 19.956 2.23282 20.19 2.04422L18.935 0.487029C18.4711 0.860932 18.1063 1.3198 17.8487 1.85595L19.6513 2.72217ZM20.19 2.04422C20.4264 1.85371 20.7242 1.69594 21.1008 1.58254L20.5242 -0.332542C19.9321 -0.154272 19.3965 0.115038 18.935 0.487029L20.19 2.04422ZM21.1102 1.57966C21.485 1.46278 21.9169 1.39844 22.4141 1.39844V-0.601562C21.7446 -0.601562 21.1087 -0.514866 20.5148 -0.329662L21.1102 1.57966ZM22.4141 1.39844C22.557 1.39844 22.7309 1.40498 22.9382 1.41945L23.0774 -0.5757C22.8369 -0.592483 22.6149 -0.601562 22.4141 -0.601562V1.39844ZM22.9382 1.41945C23.1349 1.43318 23.3504 1.45641 23.5851 1.48995L23.868 -0.489949C23.5923 -0.529327 23.3286 -0.558175 23.0774 -0.5757L22.9382 1.41945ZM23.605 1.49259C23.8304 1.52018 24.0687 1.55974 24.3202 1.61195L24.7267 -0.346321C24.4261 -0.408694 24.1332 -0.457679 23.8481 -0.492586L23.605 1.49259ZM24.3413 1.61609C24.5873 1.66165 24.8345 1.72109 25.0831 1.79474L25.6513 -0.122861C25.3373 -0.215881 25.022 -0.291855 24.7055 -0.35047L24.3413 1.61609ZM24.3868 0.63885L24.0821 2.15447L26.0429 2.54865L26.3476 1.03303L24.3868 0.63885ZM24.5968 1.46664L24.4483 1.54477L25.3798 3.31461L25.5282 3.23648L24.5968 1.46664ZM25.3266 1.51873C25.0192 1.37952 24.7149 1.26101 24.4142 1.16476L23.8046 3.06961C24.0247 3.14003 24.2569 3.22985 24.5016 3.34064L25.3266 1.51873ZM24.4142 1.16476C24.1287 1.07342 23.8518 0.997371 23.5841 0.937875L23.1503 2.89025C23.3513 2.93492 23.5692 2.99429 23.8046 3.06961L24.4142 1.16476ZM23.5841 0.937875C23.3182 0.878788 23.0607 0.835317 22.813 0.809906L22.6089 2.79947C22.7674 2.81572 22.9474 2.84517 23.1503 2.89025L23.5841 0.937875ZM22.8156 0.810182C22.5931 0.786762 22.3825 0.773438 22.1875 0.773438V2.77344C22.2946 2.77344 22.4329 2.78095 22.6063 2.79919L22.8156 0.810182ZM22.1875 0.773438C21.823 0.773438 21.4674 0.816448 21.1287 0.914286L21.6838 2.83571C21.8139 2.79814 21.9791 2.77344 22.1875 2.77344V0.773438ZM21.1287 0.914286C20.7903 1.01206 20.4706 1.16391 20.189 1.38385L21.4203 2.9599C21.4721 2.91942 21.5535 2.87336 21.6838 2.83571L21.1287 0.914286ZM20.1769 1.39346C19.8972 1.61908 19.6785 1.89836 19.5226 2.21878L21.3211 3.09372C21.3527 3.02872 21.3893 2.98509 21.4324 2.95029L20.1769 1.39346ZM19.5176 2.22924C19.3556 2.57225 19.2891 2.93865 19.2891 3.30469H21.2891C21.2891 3.18114 21.311 3.11525 21.3261 3.08326L19.5176 2.22924ZM19.2891 3.30469C19.2891 3.7969 19.4085 4.27879 19.6914 4.70314L21.3555 3.59374C21.3259 3.54933 21.2891 3.46872 21.2891 3.30469H19.2891ZM19.6972 4.71177C19.9272 5.04903 20.2178 5.33514 20.5548 5.57384L21.7108 3.94179C21.5478 3.82632 21.4322 3.70618 21.3497 3.5851L19.6972 4.71177ZM20.5627 5.5794C20.8782 5.7983 21.2257 5.98789 21.6007 6.15121L22.3993 4.31754C22.1285 4.19961 21.8978 4.07149 21.7029 3.93622L20.5627 5.5794ZM21.6185 6.15875C21.9417 6.29214 22.2704 6.43078 22.6044 6.57466L23.3956 4.73784C23.0526 4.59006 22.7145 4.44744 22.3815 4.31L21.6185 6.15875ZM22.6214 6.5818C22.9385 6.71154 23.2451 6.85291 23.5414 7.00581L24.4586 5.22857C24.109 5.04813 23.749 4.88221 23.3786 4.7307L22.6214 6.5818ZM23.5471 7.00877C23.8011 7.13779 24.0138 7.28526 24.1915 7.44809L25.5429 5.97378C25.2206 5.67828 24.8551 5.42992 24.4529 5.22561L23.5471 7.00877ZM24.1991 7.45499C24.3591 7.59871 24.4888 7.76829 24.5899 7.97065L26.3788 7.07622C26.1675 6.65359 25.8857 6.2815 25.5353 5.96689L24.1991 7.45499ZM24.593 7.97668C24.662 8.11243 24.7188 8.31895 24.7188 8.63281H26.7188C26.7188 8.08209 26.6192 7.54903 26.3758 7.07019L24.593 7.97668ZM24.7188 8.63281C24.7188 8.97231 24.6487 9.28091 24.511 9.57049L26.3171 10.4295C26.5856 9.86492 26.7188 9.26207 26.7188 8.63281H24.7188ZM24.511 9.57049C24.3704 9.86609 24.1689 10.1308 23.8944 10.3672L25.1994 11.8828C25.6748 11.4734 26.0515 10.9881 26.3171 10.4295L24.511 9.57049ZM23.8952 10.3665C23.6294 10.5949 23.2939 10.7901 22.8722 10.9419L23.5497 12.8237C24.1697 12.6005 24.7248 12.2905 25.1985 11.8835L23.8952 10.3665ZM22.8806 10.939C22.4815 11.0786 22.0146 11.1562 21.4688 11.1562V13.1562C22.2041 13.1562 22.8987 13.0516 23.5413 12.8267L22.8806 10.939ZM21.4688 11.1562C21.2548 11.1562 21.0237 11.1413 20.7747 11.1096L20.5222 13.0936C20.8461 13.1348 21.1619 13.1562 21.4688 13.1562V11.1562ZM20.7569 11.1075C20.5049 11.08 20.2458 11.0385 19.9794 10.9824L19.5674 12.9395C19.8949 13.0084 20.2191 13.0607 20.54 13.0957L20.7569 11.1075ZM19.9794 10.9824C19.7167 10.9271 19.4558 10.8578 19.1966 10.7745L18.5846 12.6786C18.9088 12.7828 19.2365 12.8698 19.5674 12.9395L19.9794 10.9824ZM19.1966 10.7745C18.9373 10.6912 18.689 10.5968 18.4514 10.4917L17.6424 12.3208C17.9464 12.4553 18.2606 12.5745 18.5846 12.6786L19.1966 10.7745ZM19.0267 11.6062L19.3392 10.075L17.3796 9.67504L17.0671 11.2063L19.0267 11.6062ZM18.8066 10.7694L18.9628 10.6913L18.0684 8.90245L17.9122 8.98057L18.8066 10.7694ZM18.0356 10.6741C18.6325 11.0007 19.2253 11.2653 19.8138 11.4634L20.4519 9.56788C19.9882 9.41181 19.5029 9.19719 18.9956 8.91961L18.0356 10.6741ZM19.8138 11.4634C20.4291 11.6705 21.0448 11.7812 21.6562 11.7812V9.78125C21.2886 9.78125 20.8886 9.71492 20.4519 9.56788L19.8138 11.4634ZM32.6953 12V13H33.6953V12H32.6953ZM30.75 12H29.75V13H30.75V12ZM30.75 1.92969H31.75V0.929688H30.75V1.92969ZM27.0391 1.92969L26.0562 1.7454L25.8341 2.92969H27.0391V1.92969ZM27.2969 0.554688V-0.445312H26.4669L26.314 0.370399L27.2969 0.554688ZM36.5234 0.554688L37.5063 0.738976L37.7284 -0.445312H36.5234V0.554688ZM36.2656 1.92969V2.92969H37.0956L37.2485 2.11398L36.2656 1.92969ZM32.6953 1.92969V0.929688H31.6953V1.92969H32.6953ZM32.6953 11H30.75V13H32.6953V11ZM31.75 12V1.92969H29.75V12H31.75ZM30.75 0.929688H27.0391V2.92969H30.75V0.929688ZM28.0219 2.11398L28.2797 0.738976L26.314 0.370399L26.0562 1.7454L28.0219 2.11398ZM27.2969 1.55469H36.5234V-0.445312H27.2969V1.55469ZM35.5406 0.370399L35.2828 1.7454L37.2485 2.11398L37.5063 0.738976L35.5406 0.370399ZM36.2656 0.929688H32.6953V2.92969H36.2656V0.929688ZM31.6953 1.92969V12H33.6953V1.92969H31.6953ZM42.2734 10.6641L42.5556 11.6235L42.5675 11.6198L42.2734 10.6641ZM42.9766 10.3203L43.5698 11.1254L43.5765 11.1204L43.5832 11.1153L42.9766 10.3203ZM43.4375 9.77344L42.5516 9.30941L42.5475 9.31756L43.4375 9.77344ZM43.375 8.21875L42.5459 8.77789L42.5504 8.78445L42.5549 8.79093L43.375 8.21875ZM42.7656 7.63281L42.207 8.46225L42.2129 8.46621L42.2188 8.47008L42.7656 7.63281ZM40.9062 6.75781L40.5175 7.67919L40.5226 7.68131L40.9062 6.75781ZM39.9219 6.29688L39.452 7.17969L39.4632 7.1855L39.9219 6.29688ZM39.0547 5.6875L38.3702 6.41662L38.3783 6.42403L39.0547 5.6875ZM38.4375 4.83594L37.529 5.25412L37.5346 5.26587L38.4375 4.83594ZM40.5625 0.625L40.8508 1.58259L40.8602 1.57966L40.5625 0.625ZM43.4766 0.5L43.3351 1.48995L43.3451 1.49137L43.355 1.49259L43.4766 0.5ZM44.2734 0.632812L44.0702 1.61195L44.0808 1.61413L44.0913 1.61609L44.2734 0.632812ZM45.1172 0.835938L46.0976 1.03303L46.2777 0.136831L45.4013 -0.122861L45.1172 0.835938ZM44.8125 2.35156L45.2782 3.23648L45.6991 3.01496L45.7929 2.54865L44.8125 2.35156ZM44.6641 2.42969L44.2516 3.34064L44.697 3.54237L45.1298 3.31461L44.6641 2.42969ZM42.4609 1.80469L42.3563 2.7992L42.3589 2.79947L42.4609 1.80469ZM40.5547 2.17188L39.939 1.38385L39.933 1.38861L39.9269 1.39346L40.5547 2.17188ZM40.1719 2.65625L39.2726 2.21875L39.2676 2.22924L40.1719 2.65625ZM40.2734 4.14844L39.4413 4.70317L39.4472 4.71177L40.2734 4.14844ZM40.8828 4.75781L40.3048 5.57388L40.3127 5.5794L40.8828 4.75781ZM41.75 5.23438L41.3507 6.15121L41.3596 6.15507L41.3685 6.15875L41.75 5.23438ZM42.75 5.65625L42.3544 6.57466L42.3628 6.57831L42.3714 6.5818L42.75 5.65625ZM43.75 6.11719L43.2913 7.00583L43.2971 7.00877L43.75 6.11719ZM44.6172 6.71094L43.9414 7.44813L43.9491 7.45499L44.6172 6.71094ZM45.2344 7.52344L44.3399 7.97066L44.343 7.97668L45.2344 7.52344ZM44.2969 11.125L44.9485 11.8835L44.9494 11.8828L44.2969 11.125ZM42.9609 11.8828L43.2913 12.8267L43.2997 12.8237L42.9609 11.8828ZM40.3984 12.1016L40.5247 11.1096L40.5158 11.1084L40.5069 11.1075L40.3984 12.1016ZM37.7969 11.4062L36.8171 11.2063L36.6561 11.9951L37.3924 12.3208L37.7969 11.4062ZM38.1094 9.875L37.6622 8.98057L37.2269 9.19821L37.1296 9.67504L38.1094 9.875ZM38.2656 9.79688L38.7456 8.91961L38.2865 8.6684L37.8184 8.90245L38.2656 9.79688ZM41.4062 11.7812C41.8022 11.7812 42.1874 11.7317 42.5556 11.6234L41.9913 9.7047C41.8282 9.75266 41.6353 9.78125 41.4062 9.78125V11.7812ZM42.5675 11.6198C42.9297 11.5084 43.2687 11.3472 43.5698 11.1254L42.3834 9.51526C42.2886 9.58507 42.1588 9.65306 41.9794 9.70828L42.5675 11.6198ZM43.5832 11.1153C43.8951 10.8773 44.1476 10.5806 44.3275 10.2293L42.5475 9.31756C42.5087 9.39331 42.4538 9.46129 42.3699 9.52536L43.5832 11.1153ZM44.3233 10.2374C44.52 9.86203 44.6094 9.45557 44.6094 9.03906H42.6094C42.6094 9.16422 42.5842 9.24734 42.5517 9.30943L44.3233 10.2374ZM44.6094 9.03906C44.6094 8.54977 44.4886 8.06722 44.1951 7.64657L42.5549 8.79093C42.5739 8.8182 42.6094 8.88252 42.6094 9.03906H44.6094ZM44.2041 7.65961C43.9694 7.3117 43.665 7.02582 43.3124 6.79554L42.2188 8.47008C42.3766 8.57314 42.4785 8.67788 42.5459 8.77789L44.2041 7.65961ZM43.3242 6.80338C43.0081 6.59046 42.6602 6.40695 42.2852 6.24968L41.5117 8.09407C41.7825 8.20764 42.0128 8.33142 42.207 8.46225L43.3242 6.80338ZM42.2852 6.24968C41.9612 6.11381 41.6294 5.97535 41.2899 5.83432L40.5226 7.68131C40.8602 7.82152 41.1899 7.95911 41.5117 8.09407L42.2852 6.24968ZM41.295 5.83645C40.9855 5.70588 40.6807 5.56316 40.3805 5.40825L39.4632 7.1855C39.8089 7.36392 40.1604 7.5285 40.5175 7.67918L41.295 5.83645ZM40.3917 5.41413C40.1394 5.27983 39.9205 5.12495 39.7311 4.95097L38.3783 6.42403C38.6992 6.7188 39.0585 6.97017 39.452 7.17962L40.3917 5.41413ZM39.7391 4.95843C39.5782 4.80734 39.4451 4.62606 39.3404 4.406L37.5346 5.26587C37.7424 5.70207 38.0208 6.0885 38.3703 6.41657L39.7391 4.95843ZM39.3459 4.41779C39.2697 4.25241 39.2109 4.00701 39.2109 3.64844H37.2109C37.2109 4.21695 37.3032 4.76322 37.5291 5.25408L39.3459 4.41779ZM39.2109 3.64844C39.2109 3.27279 39.2819 2.97082 39.4013 2.72217L37.5987 1.85595C37.3327 2.40938 37.2109 3.01367 37.2109 3.64844H39.2109ZM39.4013 2.72217C39.5291 2.45624 39.706 2.23282 39.94 2.04422L38.685 0.487029C38.2211 0.860932 37.8563 1.3198 37.5987 1.85595L39.4013 2.72217ZM39.94 2.04422C40.1764 1.85371 40.4742 1.69594 40.8508 1.58254L40.2742 -0.332542C39.6821 -0.154272 39.1465 0.115038 38.685 0.487029L39.94 2.04422ZM40.8602 1.57966C41.235 1.46278 41.6669 1.39844 42.1641 1.39844V-0.601562C41.4946 -0.601562 40.8587 -0.514866 40.2648 -0.329662L40.8602 1.57966ZM42.1641 1.39844C42.307 1.39844 42.4809 1.40498 42.6882 1.41945L42.8274 -0.5757C42.5869 -0.592483 42.3649 -0.601562 42.1641 -0.601562V1.39844ZM42.6882 1.41945C42.8849 1.43318 43.1004 1.45641 43.3351 1.48995L43.618 -0.489949C43.3423 -0.529327 43.0786 -0.558175 42.8274 -0.5757L42.6882 1.41945ZM43.355 1.49259C43.5804 1.52018 43.8187 1.55974 44.0702 1.61195L44.4767 -0.346321C44.1761 -0.408694 43.8832 -0.457679 43.5981 -0.492586L43.355 1.49259ZM44.0913 1.61609C44.3373 1.66165 44.5845 1.72109 44.8331 1.79474L45.4013 -0.122861C45.0873 -0.215881 44.772 -0.291855 44.4555 -0.35047L44.0913 1.61609ZM44.1368 0.63885L43.8321 2.15447L45.7929 2.54865L46.0976 1.03303L44.1368 0.63885ZM44.3468 1.46664L44.1983 1.54477L45.1298 3.31461L45.2782 3.23648L44.3468 1.46664ZM45.0766 1.51873C44.7691 1.37952 44.4649 1.26101 44.1642 1.16476L43.5546 3.06961C43.7747 3.14003 44.0069 3.22985 44.2516 3.34064L45.0766 1.51873ZM44.1642 1.16476C43.8787 1.07342 43.6018 0.997371 43.3341 0.937875L42.9003 2.89025C43.1013 2.93492 43.3192 2.99429 43.5546 3.06961L44.1642 1.16476ZM43.3341 0.937875C43.0682 0.878788 42.8107 0.835317 42.563 0.809906L42.3589 2.79947C42.5174 2.81572 42.6974 2.84517 42.9003 2.89025L43.3341 0.937875ZM42.5656 0.810182C42.3431 0.786762 42.1325 0.773438 41.9375 0.773438V2.77344C42.0446 2.77344 42.1829 2.78095 42.3563 2.79919L42.5656 0.810182ZM41.9375 0.773438C41.573 0.773438 41.2174 0.816448 40.8787 0.914286L41.4338 2.83571C41.5639 2.79814 41.7291 2.77344 41.9375 2.77344V0.773438ZM40.8787 0.914286C40.5403 1.01206 40.2206 1.16391 39.939 1.38385L41.1703 2.9599C41.2221 2.91942 41.3035 2.87336 41.4338 2.83571L40.8787 0.914286ZM39.9269 1.39346C39.6472 1.61908 39.4285 1.89836 39.2726 2.21878L41.0711 3.09372C41.1027 3.02872 41.1393 2.98509 41.1824 2.95029L39.9269 1.39346ZM39.2676 2.22924C39.1057 2.57225 39.0391 2.93865 39.0391 3.30469H41.0391C41.0391 3.18114 41.061 3.11525 41.0761 3.08326L39.2676 2.22924ZM39.0391 3.30469C39.0391 3.7969 39.1585 4.27879 39.4414 4.70314L41.1055 3.59374C41.0759 3.54933 41.0391 3.46872 41.0391 3.30469H39.0391ZM39.4472 4.71177C39.6772 5.04903 39.9678 5.33514 40.3048 5.57384L41.4608 3.94179C41.2978 3.82632 41.1822 3.70618 41.0997 3.5851L39.4472 4.71177ZM40.3127 5.5794C40.6282 5.7983 40.9757 5.98789 41.3507 6.15121L42.1493 4.31754C41.8785 4.19961 41.6478 4.07149 41.4529 3.93622L40.3127 5.5794ZM41.3685 6.15875C41.6917 6.29214 42.0204 6.43078 42.3544 6.57466L43.1456 4.73784C42.8026 4.59006 42.4645 4.44744 42.1315 4.31L41.3685 6.15875ZM42.3714 6.5818C42.6885 6.71154 42.9951 6.85291 43.2914 7.00581L44.2086 5.22857C43.859 5.04813 43.499 4.88221 43.1286 4.7307L42.3714 6.5818ZM43.2971 7.00877C43.5512 7.13779 43.7638 7.28526 43.9415 7.44809L45.2929 5.97378C44.9706 5.67828 44.6051 5.42992 44.2029 5.22561L43.2971 7.00877ZM43.9491 7.45499C44.1091 7.59871 44.2388 7.76829 44.3399 7.97065L46.1288 7.07622C45.9175 6.65359 45.6357 6.2815 45.2853 5.96689L43.9491 7.45499ZM44.343 7.97668C44.412 8.11243 44.4688 8.31895 44.4688 8.63281H46.4688C46.4688 8.08209 46.3692 7.54903 46.1258 7.07019L44.343 7.97668ZM44.4688 8.63281C44.4688 8.97231 44.3987 9.28091 44.261 9.57049L46.0671 10.4295C46.3356 9.86492 46.4688 9.26207 46.4688 8.63281H44.4688ZM44.261 9.57049C44.1204 9.86609 43.9189 10.1308 43.6444 10.3672L44.9494 11.8828C45.4248 11.4734 45.8015 10.9881 46.0671 10.4295L44.261 9.57049ZM43.6452 10.3665C43.3794 10.5949 43.0439 10.7901 42.6222 10.9419L43.2997 12.8237C43.9197 12.6005 44.4748 12.2905 44.9485 11.8835L43.6452 10.3665ZM42.6306 10.939C42.2315 11.0786 41.7646 11.1562 41.2188 11.1562V13.1562C41.9541 13.1562 42.6487 13.0516 43.2913 12.8267L42.6306 10.939ZM41.2188 11.1562C41.0048 11.1562 40.7737 11.1413 40.5247 11.1096L40.2722 13.0936C40.5961 13.1348 40.9119 13.1562 41.2188 13.1562V11.1562ZM40.5069 11.1075C40.2549 11.08 39.9958 11.0385 39.7294 10.9824L39.3174 12.9395C39.6449 13.0084 39.9691 13.0607 40.29 13.0957L40.5069 11.1075ZM39.7294 10.9824C39.4667 10.9271 39.2058 10.8578 38.9466 10.7745L38.3346 12.6786C38.6588 12.7828 38.9865 12.8698 39.3174 12.9395L39.7294 10.9824ZM38.9466 10.7745C38.6873 10.6912 38.439 10.5968 38.2014 10.4917L37.3924 12.3208C37.6964 12.4553 38.0106 12.5745 38.3346 12.6786L38.9466 10.7745ZM38.7767 11.6062L39.0892 10.075L37.1296 9.67504L36.8171 11.2063L38.7767 11.6062ZM38.5566 10.7694L38.7128 10.6913L37.8184 8.90245L37.6622 8.98057L38.5566 10.7694ZM37.7856 10.6741C38.3825 11.0007 38.9753 11.2653 39.5638 11.4634L40.2019 9.56788C39.7382 9.41181 39.2529 9.19719 38.7456 8.91961L37.7856 10.6741ZM39.5638 11.4634C40.1791 11.6705 40.7948 11.7812 41.4062 11.7812V9.78125C41.0386 9.78125 40.6386 9.71492 40.2019 9.56788L39.5638 11.4634ZM54.2891 9.04688L55.2385 8.73291L55.0116 8.04688H54.2891V9.04688ZM49.7031 9.04688V8.04688H48.9769L48.7522 8.73745L49.7031 9.04688ZM48.7422 12V13H49.4684L49.6931 12.3094L48.7422 12ZM47.0078 12L46.0652 11.6661L45.5926 13H47.0078V12ZM51.0625 0.554688V-0.445312H50.3559L50.1199 0.220757L51.0625 0.554688ZM53.2578 0.554688L54.2004 0.220757L53.9644 -0.445312H53.2578V0.554688ZM57.3125 12V13H58.7277L58.2551 11.6661L57.3125 12ZM55.2656 12L54.3162 12.314L54.5431 13H55.2656V12ZM53.8594 7.71875V8.71875H55.2307L54.8115 7.41308L53.8594 7.71875ZM52.5 3.48438L51.5329 3.73887L51.5397 3.76465L51.5479 3.79004L52.5 3.48438ZM52.0703 1.85156L53.0374 1.59707L52.8412 0.851562H52.0703V1.85156ZM51.9141 1.85156V0.851562H51.1396L50.9459 1.6014L51.9141 1.85156ZM51.4922 3.48438L52.4433 3.79322L52.4527 3.76414L52.4604 3.73453L51.4922 3.48438ZM50.1172 7.71875L49.1661 7.4099L48.7411 8.71875H50.1172V7.71875ZM54.2891 8.04688H49.7031V10.0469H54.2891V8.04688ZM48.7522 8.73745L47.7913 11.6906L49.6931 12.3094L50.654 9.3563L48.7522 8.73745ZM48.7422 11H47.0078V13H48.7422V11ZM47.9504 12.3339L52.0051 0.888618L50.1199 0.220757L46.0652 11.6661L47.9504 12.3339ZM51.0625 1.55469H53.2578V-0.445312H51.0625V1.55469ZM52.3152 0.888618L56.3699 12.3339L58.2551 11.6661L54.2004 0.220757L52.3152 0.888618ZM57.3125 11H55.2656V13H57.3125V11ZM56.2151 11.686L55.2385 8.73291L53.3396 9.36084L54.3162 12.314L56.2151 11.686ZM54.8115 7.41308L53.4521 3.17871L51.5479 3.79004L52.9072 8.02442L54.8115 7.41308ZM53.4671 3.22988L53.0374 1.59707L51.1032 2.10606L51.5329 3.73887L53.4671 3.22988ZM52.0703 0.851562H51.9141V2.85156H52.0703V0.851562ZM50.9459 1.6014L50.524 3.23422L52.4604 3.73453L52.8823 2.10172L50.9459 1.6014ZM50.5411 3.17553L49.1661 7.4099L51.0683 8.0276L52.4433 3.79322L50.5411 3.17553ZM50.1172 8.71875H53.8594V6.71875H50.1172V8.71875ZM59.1484 12L58.1513 11.9238L58.0691 13H59.1484V12ZM60.0234 0.554688V-0.445312H59.097L59.0263 0.478459L60.0234 0.554688ZM62.8594 0.554688L63.8074 0.236637L63.5787 -0.445312H62.8594V0.554688ZM65.3125 7.86719L66.2811 7.61838L66.2721 7.58339L66.2606 7.54914L65.3125 7.86719ZM65.75 9.57031L64.7814 9.81912L64.9744 10.5703H65.75V9.57031ZM65.9062 9.57031V10.5703H66.6784L66.8737 9.82328L65.9062 9.57031ZM66.3516 7.86719L65.4038 7.54823L65.3928 7.58089L65.3841 7.61422L66.3516 7.86719ZM68.8125 0.554688V-0.445312H68.0939L67.8647 0.235727L68.8125 0.554688ZM71.7266 0.554688L72.7236 0.477783L72.6524 -0.445312H71.7266V0.554688ZM72.6094 12V13H73.6895L73.6064 11.9231L72.6094 12ZM70.6094 12L69.6113 12.062L69.6695 13H70.6094V12ZM70.0781 3.44531L69.0785 3.47162L69.0789 3.48947L69.08 3.50729L70.0781 3.44531ZM70.0312 1.66406L71.0309 1.63776L71.0053 0.664062H70.0312V1.66406ZM69.875 1.66406V0.664062H69.113L68.9109 1.3987L69.875 1.66406ZM69.4062 3.36719L70.3553 3.68236L70.3635 3.65765L70.3704 3.63255L69.4062 3.36719ZM66.6172 11.7656V12.7656H67.3388L67.5662 12.0808L66.6172 11.7656ZM64.8516 11.7656L63.9035 12.0837L64.1323 12.7656H64.8516V11.7656ZM62.0391 3.38281L61.0766 3.65406L61.0832 3.67766L61.091 3.7009L62.0391 3.38281ZM61.5547 1.66406L62.5172 1.39281L62.3118 0.664062H61.5547V1.66406ZM61.3984 1.66406V0.664062H60.4203L60.3987 1.64194L61.3984 1.66406ZM61.3594 3.42969L62.3575 3.49065L62.3587 3.47124L62.3591 3.45181L61.3594 3.42969ZM60.8359 12V13H61.7767L61.8341 12.061L60.8359 12ZM60.1455 12.0762L61.0205 0.630916L59.0263 0.478459L58.1513 11.9238L60.1455 12.0762ZM60.0234 1.55469H62.8594V-0.445312H60.0234V1.55469ZM61.9113 0.872738L64.3644 8.18524L66.2606 7.54914L63.8074 0.236637L61.9113 0.872738ZM64.3439 8.11599L64.7814 9.81912L66.7186 9.32151L66.2811 7.61838L64.3439 8.11599ZM65.75 10.5703H65.9062V8.57031H65.75V10.5703ZM66.8737 9.82328L67.319 8.12015L65.3841 7.61422L64.9388 9.31735L66.8737 9.82328ZM67.2993 8.18615L69.7603 0.873648L67.8647 0.235727L65.4038 7.54823L67.2993 8.18615ZM68.8125 1.55469H71.7266V-0.445312H68.8125V1.55469ZM70.7295 0.631592L71.6123 12.0769L73.6064 11.9231L72.7236 0.477783L70.7295 0.631592ZM72.6094 11H70.6094V13H72.6094V11ZM71.6075 11.938L71.0762 3.38333L69.08 3.50729L69.6113 12.062L71.6075 11.938ZM71.0778 3.41901L71.0309 1.63776L69.0316 1.69037L69.0785 3.47162L71.0778 3.41901ZM70.0312 0.664062H69.875V2.66406H70.0312V0.664062ZM68.9109 1.3987L68.4421 3.10183L70.3704 3.63255L70.8391 1.92942L68.9109 1.3987ZM68.4572 3.05202L65.6682 11.4505L67.5662 12.0808L70.3553 3.68236L68.4572 3.05202ZM66.6172 10.7656H64.8516V12.7656H66.6172V10.7656ZM65.7996 11.4475L62.9871 3.06473L61.091 3.7009L63.9035 12.0837L65.7996 11.4475ZM63.0016 3.11156L62.5172 1.39281L60.5922 1.93531L61.0766 3.65406L63.0016 3.11156ZM61.5547 0.664062H61.3984V2.66406H61.5547V0.664062ZM60.3987 1.64194L60.3596 3.40757L62.3591 3.45181L62.3982 1.68618L60.3987 1.64194ZM60.3612 3.36873L59.8378 11.939L61.8341 12.061L62.3575 3.49065L60.3612 3.36873ZM60.8359 11H59.1484V13H60.8359V11ZM84.6797 11.3984L85.0396 12.3314L85.6797 12.0845V11.3984H84.6797ZM82.6016 11.9922L82.766 12.9786L82.7736 12.9773L82.6016 11.9922ZM78.3125 11.7656L77.9658 12.7037L77.974 12.7066L78.3125 11.7656ZM76.4766 10.6484L75.7845 11.3703L75.7884 11.374L76.4766 10.6484ZM75.8359 3.25781L76.6839 3.78782L76.6866 3.78351L75.8359 3.25781ZM78.1875 1.14062L78.6347 2.03509L78.6424 2.03115L78.1875 1.14062ZM82.7422 0.5L82.6008 1.48995L82.6119 1.49154L82.623 1.49288L82.7422 0.5ZM83.5469 0.632812L83.3437 1.61195L83.3525 1.61379L83.3615 1.61547L83.5469 0.632812ZM84.3828 0.835938L85.363 1.03401L85.5442 0.137092L84.6669 -0.122861L84.3828 0.835938ZM84.0781 2.34375L84.5253 3.23818L84.9617 3.02L85.0583 2.54182L84.0781 2.34375ZM83.9219 2.42188L83.499 3.32806L83.9369 3.53241L84.3691 3.3163L83.9219 2.42188ZM79.4141 2.11719L79.8125 3.03444L79.8202 3.031L79.4141 2.11719ZM78.0859 3.05469L78.8167 3.73736L78.8211 3.73257L78.0859 3.05469ZM77.2266 4.46875L76.2891 4.12056L76.2873 4.12556L77.2266 4.46875ZM77.2031 7.97656L76.2544 8.2928L76.2572 8.30089L77.2031 7.97656ZM78.0156 9.42188L77.2537 10.0695L78.0156 9.42188ZM81.9688 10.7109L81.8295 9.72068L81.8273 9.72099L81.9688 10.7109ZM82.9531 10.4844L83.2601 11.4361L83.9531 11.2125V10.4844H82.9531ZM82.9531 6.53125V5.53125H81.9531V6.53125H82.9531ZM84.6797 6.53125H85.6797V5.53125H84.6797V6.53125ZM84.3198 10.4654C83.6413 10.7272 83.0117 10.9054 82.4296 11.0071L82.7736 12.9773C83.5039 12.8498 84.2598 12.6322 85.0396 12.3314L84.3198 10.4654ZM82.4372 11.0058C81.8257 11.1077 81.272 11.1562 80.7734 11.1562V13.1562C81.3999 13.1562 82.0649 13.0954 82.766 12.9786L82.4372 11.0058ZM80.7734 11.1562C79.9506 11.1562 79.2478 11.0393 78.651 10.8247L77.974 12.7066C78.8251 13.0127 79.7629 13.1562 80.7734 13.1562V11.1562ZM78.6591 10.8276C78.0546 10.6042 77.5622 10.2999 77.1647 9.92288L75.7884 11.374C76.4014 11.9554 77.1329 12.3958 77.9659 12.7036L78.6591 10.8276ZM77.1686 9.9266C76.7734 9.54768 76.4675 9.08864 76.2522 8.53565L74.3884 9.26123C74.7044 10.0728 75.1693 10.7804 75.7845 11.3703L77.1686 9.9266ZM76.2522 8.53565C76.0376 7.98454 75.9219 7.34945 75.9219 6.61719H73.9219C73.9219 7.562 74.0717 8.44775 74.3884 9.26123L76.2522 8.53565ZM75.9219 6.61719C75.9219 6.04312 75.9924 5.52764 76.1253 5.06496L74.2029 4.51317C74.0128 5.17549 73.9219 5.87876 73.9219 6.61719H75.9219ZM76.1253 5.06496C76.2631 4.58465 76.4508 4.16089 76.6839 3.78781L74.9879 2.72781C74.6482 3.27141 74.3879 3.86847 74.2029 4.51317L76.1253 5.06496ZM76.6866 3.78351C76.9224 3.40188 77.203 3.06881 77.5291 2.7808L76.2052 1.2817C75.7293 1.70202 75.3223 2.18666 74.9853 2.73212L76.6866 3.78351ZM77.5291 2.7808C77.8651 2.48411 78.233 2.23591 78.6347 2.03505L77.7403 0.246198C77.1837 0.524508 76.6714 0.870059 76.2052 1.2817L77.5291 2.7808ZM78.6424 2.03115C79.0463 1.82485 79.4791 1.66752 79.9436 1.56033L79.4939 -0.388454C78.875 -0.245641 78.2871 -0.0331845 77.7326 0.250103L78.6424 2.03115ZM79.9436 1.56033C80.4093 1.45286 80.8911 1.39844 81.3906 1.39844V-0.601562C80.7443 -0.601562 80.1115 -0.530985 79.4939 -0.388454L79.9436 1.56033ZM81.3906 1.39844C81.5511 1.39844 81.7363 1.40515 81.9476 1.41956L82.0836 -0.575809C81.8367 -0.592649 81.6052 -0.601562 81.3906 -0.601562V1.39844ZM81.9476 1.41956C82.1495 1.43332 82.367 1.45656 82.6008 1.48995L82.8836 -0.489949C82.6069 -0.529475 82.3401 -0.558322 82.0836 -0.575809L81.9476 1.41956ZM82.623 1.49288C82.8532 1.5205 83.0934 1.56 83.3437 1.61195L83.7501 -0.346321C83.4483 -0.408961 83.152 -0.458002 82.8613 -0.492877L82.623 1.49288ZM83.3615 1.61547C83.6028 1.66101 83.8485 1.7206 84.0987 1.79474L84.6669 -0.122861C84.3546 -0.215393 84.043 -0.291218 83.7323 -0.349849L83.3615 1.61547ZM83.4026 0.637868L83.0979 2.14568L85.0583 2.54182L85.363 1.03401L83.4026 0.637868ZM83.6309 1.44932L83.4747 1.52745L84.3691 3.3163L84.5253 3.23818L83.6309 1.44932ZM84.3448 1.51569C83.7385 1.23279 83.144 1.02998 82.5645 0.922897L82.2011 2.8896C82.5799 2.9596 83.0115 3.10055 83.499 3.32806L84.3448 1.51569ZM82.5645 0.922897C82.047 0.827272 81.5691 0.773438 81.1406 0.773438V2.77344C81.41 2.77344 81.7603 2.80814 82.2011 2.8896L82.5645 0.922897ZM81.1406 0.773438C80.383 0.773438 79.6666 0.910622 79.0079 1.20338L79.8202 3.031C80.1928 2.86542 80.6275 2.77344 81.1406 2.77344V0.773438ZM79.0157 1.19997C78.3764 1.47766 77.8178 1.87025 77.3508 2.3768L78.8211 3.73257C79.0936 3.43704 79.4205 3.20464 79.8124 3.0344L79.0157 1.19997ZM77.3552 2.37203C76.8883 2.87182 76.5348 3.45926 76.2891 4.12056L78.164 4.81694C78.3246 4.38449 78.544 4.02922 78.8167 3.73735L77.3552 2.37203ZM76.2873 4.12556C76.045 4.78869 75.9297 5.49741 75.9297 6.24219H77.9297C77.9297 5.70572 78.0123 5.23214 78.1658 4.81194L76.2873 4.12556ZM75.9297 6.24219C75.9297 6.95288 76.0363 7.63826 76.2544 8.29279L78.1518 7.66033C78.0054 7.22112 77.9297 6.75025 77.9297 6.24219H75.9297ZM76.2572 8.30089C76.4829 8.95925 76.8139 9.55217 77.2537 10.0695L78.7776 8.77423C78.509 8.45824 78.2983 8.08763 78.1491 7.65224L76.2572 8.30089ZM77.2537 10.0695C77.7019 10.5968 78.2478 11.0125 78.8801 11.3157L79.7449 9.5124C79.3564 9.32605 79.0377 9.08027 78.7776 8.77423L77.2537 10.0695ZM78.8801 11.3157C79.5454 11.6348 80.2803 11.7812 81.0625 11.7812V9.78125C80.5322 9.78125 80.1005 9.68291 79.7449 9.5124L78.8801 11.3157ZM81.0625 11.7812C81.3941 11.7812 81.7442 11.7532 82.1102 11.7009L81.8273 9.72099C81.5371 9.76245 81.283 9.78125 81.0625 9.78125V11.7812ZM82.108 11.7012C82.4987 11.6463 82.8829 11.5578 83.2601 11.4361L82.6461 9.53267C82.3775 9.61933 82.1055 9.68187 81.8295 9.72068L82.108 11.7012ZM83.9531 10.4844V6.53125H81.9531V10.4844H83.9531ZM82.9531 7.53125H84.6797V5.53125H82.9531V7.53125ZM83.6797 6.53125V11.3984H85.6797V6.53125H83.6797ZM92.2734 12V13H93.2734V12H92.2734ZM90.3281 12H89.3281V13H90.3281V12ZM90.3281 1.92969H91.3281V0.929688H90.3281V1.92969ZM86.6172 1.92969L85.6343 1.7454L85.4123 2.92969H86.6172V1.92969ZM86.875 0.554688V-0.445312H86.0451L85.8921 0.370399L86.875 0.554688ZM96.1016 0.554688L97.0844 0.738976L97.3065 -0.445312H96.1016V0.554688ZM95.8438 1.92969V2.92969H96.6737L96.8266 2.11398L95.8438 1.92969ZM92.2734 1.92969V0.929688H91.2734V1.92969H92.2734ZM92.2734 11H90.3281V13H92.2734V11ZM91.3281 12V1.92969H89.3281V12H91.3281ZM90.3281 0.929688H86.6172V2.92969H90.3281V0.929688ZM87.6001 2.11398L87.8579 0.738976L85.8921 0.370399L85.6343 1.7454L87.6001 2.11398ZM86.875 1.55469H96.1016V-0.445312H86.875V1.55469ZM95.1187 0.370399L94.8609 1.7454L96.8266 2.11398L97.0844 0.738976L95.1187 0.370399ZM95.8438 0.929688H92.2734V2.92969H95.8438V0.929688ZM91.2734 1.92969V12H93.2734V1.92969H91.2734ZM100 0.554688H101V-0.445312H100V0.554688ZM100.242 9.08594L99.3198 9.47235L99.3243 9.48285L100.242 9.08594ZM100.891 10.0391L100.205 10.7673L100.212 10.7739L100.891 10.0391ZM101.805 10.6016L101.458 11.5397L101.471 11.5443L101.805 10.6016ZM103.828 10.5938L103.462 9.66317L103.457 9.66527L103.828 10.5938ZM104.656 10.0391L103.934 9.34749L104.656 10.0391ZM105.211 9.11719L104.276 8.76171L104.272 8.77332L105.211 9.11719ZM105.422 0.554688V-0.445312H104.422V0.554688H105.422ZM107.094 0.554688H108.094V-0.445312H107.094V0.554688ZM106.969 8.78125L105.995 8.55535L105.992 8.56584L106.969 8.78125ZM105.969 10.7266L105.222 10.0613L105.215 10.069L105.969 10.7266ZM105.078 11.4766L105.596 12.3318L105.606 12.326L105.078 11.4766ZM103.906 11.9766L104.173 12.9403L104.181 12.9381L103.906 11.9766ZM100.672 11.8672L100.329 12.8065L100.337 12.8093L100.672 11.8672ZM99.2734 11L98.5711 11.7119L98.576 11.7166L99.2734 11ZM98.375 9.60156L97.4383 9.95175L97.4423 9.96231L98.375 9.60156ZM98.0625 0.554688V-0.445312H97.0625V0.554688H98.0625ZM99 0.554688V7.71875H101V0.554688H99ZM99 7.71875C99 8.34435 99.0957 8.93731 99.3198 9.47232L101.165 8.69955C101.066 8.46374 101 8.14523 101 7.71875H99ZM99.3243 9.48285C99.537 9.97461 99.8265 10.4108 100.205 10.7673L101.576 9.31086C101.424 9.16736 101.281 8.9681 101.16 8.68903L99.3243 9.48285ZM100.212 10.7739C100.577 11.1108 100.994 11.3683 101.458 11.5397L102.151 9.66347C101.938 9.58482 101.746 9.46735 101.569 9.30426L100.212 10.7739ZM101.471 11.5443C101.912 11.7003 102.366 11.7812 102.828 11.7812V9.78125C102.603 9.78125 102.375 9.74244 102.138 9.65884L101.471 11.5443ZM102.828 11.7812C103.303 11.7812 103.763 11.6969 104.2 11.5222L103.457 9.66527C103.268 9.74058 103.062 9.78125 102.828 9.78125V11.7812ZM104.194 11.5243C104.646 11.3468 105.043 11.0807 105.379 10.7306L103.934 9.34749C103.8 9.48699 103.646 9.59074 103.462 9.66318L104.194 11.5243ZM105.379 10.7306C105.723 10.3713 105.975 9.93965 106.15 9.46105L104.272 8.77332C104.176 9.03431 104.059 9.21725 103.934 9.34749L105.379 10.7306ZM106.146 9.47264C106.339 8.96483 106.422 8.40729 106.422 7.82031H104.422C104.422 8.22291 104.364 8.52996 104.276 8.76174L106.146 9.47264ZM106.422 7.82031V0.554688H104.422V7.82031H106.422ZM105.422 1.55469H107.094V-0.445312H105.422V1.55469ZM106.094 0.554688V7.71094H108.094V0.554688H106.094ZM106.094 7.71094C106.094 7.98597 106.061 8.26697 105.995 8.55536L107.943 9.00714C108.043 8.57678 108.094 8.14424 108.094 7.71094H106.094ZM105.992 8.56584C105.933 8.83637 105.839 9.09783 105.71 9.35182L107.493 10.2576C107.697 9.8553 107.849 9.43446 107.945 8.99666L105.992 8.56584ZM105.71 9.35182C105.584 9.60003 105.422 9.83642 105.222 10.0614L106.715 11.3918C107.025 11.0438 107.286 10.6656 107.493 10.2576L105.71 9.35182ZM105.215 10.069C105.035 10.276 104.815 10.4626 104.55 10.6271L105.606 12.326C106.028 12.0634 106.403 11.75 106.722 11.3841L105.215 10.069ZM104.56 10.6214C104.301 10.778 103.995 10.9113 103.632 11.015L104.181 12.9381C104.693 12.7918 105.167 12.5918 105.596 12.3318L104.56 10.6214ZM103.639 11.0129C103.307 11.1048 102.92 11.1562 102.469 11.1562V13.1562C103.07 13.1562 103.641 13.0879 104.173 12.9402L103.639 11.0129ZM102.469 11.1562C101.911 11.1562 101.427 11.0745 101.007 10.925L100.337 12.8093C101 13.0453 101.714 13.1562 102.469 13.1562V11.1562ZM101.015 10.9279C100.598 10.7756 100.255 10.5596 99.9709 10.2834L98.576 11.7166C99.0734 12.2008 99.6624 12.563 100.329 12.8065L101.015 10.9279ZM99.9757 10.2881C99.7002 10.0163 99.475 9.67332 99.3077 9.24082L97.4423 9.96231C97.7021 10.634 98.0759 11.2233 98.5712 11.7119L99.9757 10.2881ZM99.3117 9.2514C99.1529 8.82671 99.0625 8.31085 99.0625 7.6875H97.0625C97.0625 8.50165 97.1804 9.26184 97.4383 9.95173L99.3117 9.2514ZM99.0625 7.6875V0.554688H97.0625V7.6875H99.0625ZM98.0625 1.55469H100V-0.445312H98.0625V1.55469Z" fill="#2ED7D9" fill-opacity="0.43"/>
</svg>
