<svg width="37" height="37" viewBox="0 0 37 37" fill="none" xmlns="http://www.w3.org/2000/svg">
<path d="M36.5006 18.5C36.5006 28.4411 28.4416 36.5 18.5003 36.5C8.55901 36.5 0.5 28.4411 0.5 18.5C0.5 8.55888 8.55901 0.5 18.5003 0.5C28.4416 0.5 36.5006 8.55888 36.5006 18.5Z" fill="#2E49D9" stroke="white"/>
<path d="M19.0633 12.7284C19.2751 12.5654 19.5623 12.4739 19.8618 12.4739C20.1613 12.4739 20.4485 12.5654 20.6603 12.7284L27.4367 17.9434C27.6484 18.1064 27.7673 18.3274 27.7673 18.5579C27.7673 18.7884 27.6484 19.0094 27.4367 19.1724L20.6603 24.3874C20.4473 24.5458 20.162 24.6334 19.8659 24.6314C19.5698 24.6294 19.2865 24.538 19.0771 24.3769C18.8677 24.2157 18.7489 23.9977 18.7463 23.7698C18.7438 23.5419 18.8576 23.3224 19.0633 23.1584L23.9118 19.4271H10.8267C10.5271 19.4271 10.2399 19.3355 10.0281 19.1725C9.81626 19.0095 9.69727 18.7884 9.69727 18.5579C9.69727 18.3274 9.81626 18.1063 10.0281 17.9433C10.2399 17.7803 10.5271 17.6887 10.8267 17.6887H23.9118L19.0633 13.9574C18.8516 13.7944 18.7327 13.5733 18.7327 13.3429C18.7327 13.1124 18.8516 12.8914 19.0633 12.7284Z" fill="white"/>
</svg>
