<svg width="37" height="37" viewBox="0 0 37 37" fill="none" xmlns="http://www.w3.org/2000/svg">
<circle cx="18.5" cy="18.5" r="18" fill="#2E49D9" stroke="white"/>
<path d="M12.3193 26.1471C14.7037 26.1471 16.6366 24.505 16.6366 22.4793C16.6366 20.4536 14.7037 18.8115 12.3193 18.8115C9.93489 18.8115 8.00195 20.4536 8.00195 22.4793C8.00195 24.505 9.93489 26.1471 12.3193 26.1471Z" stroke="white" stroke-linecap="round" stroke-linejoin="round"/>
<path d="M5.64648 28.5922C6.42336 27.833 7.43073 27.2167 8.58883 26.7923C9.74693 26.3679 11.0239 26.147 12.3187 26.147C13.6135 26.147 14.8905 26.3679 16.0486 26.7923C17.2067 27.2167 18.2141 27.833 18.991 28.5922" stroke="white" stroke-linecap="round" stroke-linejoin="round"/>
<path d="M12.3193 14.5324C14.7037 14.5324 16.6366 13.0271 16.6366 11.1702C16.6366 9.31339 14.7037 7.80811 12.3193 7.80811C9.93489 7.80811 8.00195 9.31339 8.00195 11.1702C8.00195 13.0271 9.93489 14.5324 12.3193 14.5324Z" stroke="white" stroke-linecap="round" stroke-linejoin="round"/>
<path d="M5.64648 17.589C6.42336 16.64 7.43073 15.8697 8.58883 15.3392C9.74693 14.8087 11.0239 14.5325 12.3187 14.5325C13.6135 14.5325 14.8905 14.8087 16.0486 15.3392C17.2067 15.8697 18.2141 16.64 18.991 17.589" stroke="white" stroke-linecap="round" stroke-linejoin="round"/>
<path d="M25.663 26.1471C28.0474 26.1471 29.9804 24.505 29.9804 22.4793C29.9804 20.4536 28.0474 18.8115 25.663 18.8115C23.2786 18.8115 21.3457 20.4536 21.3457 22.4793C21.3457 24.505 23.2786 26.1471 25.663 26.1471Z" stroke="white" stroke-linecap="round" stroke-linejoin="round"/>
<path d="M18.9902 28.5922C19.7671 27.833 20.7745 27.2167 21.9326 26.7923C23.0907 26.3679 24.3677 26.147 25.6625 26.147C26.9573 26.147 28.2343 26.3679 29.3924 26.7923C30.5505 27.2167 31.5578 27.833 32.3347 28.5922" stroke="white" stroke-linecap="round" stroke-linejoin="round"/>
<path d="M25.663 14.5324C28.0474 14.5324 29.9804 13.0271 29.9804 11.1702C29.9804 9.31339 28.0474 7.80811 25.663 7.80811C23.2786 7.80811 21.3457 9.31339 21.3457 11.1702C21.3457 13.0271 23.2786 14.5324 25.663 14.5324Z" stroke="white" stroke-linecap="round" stroke-linejoin="round"/>
<path d="M18.9902 17.589C19.7671 16.64 20.7745 15.8697 21.9326 15.3392C23.0907 14.8087 24.3677 14.5325 25.6625 14.5325C26.9573 14.5325 28.2343 14.8087 29.3924 15.3392C30.5505 15.8697 31.5578 16.64 32.3347 17.589" stroke="white" stroke-linecap="round" stroke-linejoin="round"/>
</svg>
