<svg width="166" height="46" viewBox="0 0 166 46" fill="none" xmlns="http://www.w3.org/2000/svg">
<g filter="url(#filter0_d_63_3)">
<path d="M54.6094 18.5547H58.6797C59.6849 18.5547 60.5703 18.6901 61.3359 18.9609C62.1016 19.2318 62.7422 19.6068 63.2578 20.0859C63.7734 20.5599 64.1615 21.1224 64.4219 21.7734C64.6875 22.4245 64.8203 23.1302 64.8203 23.8906C64.8203 24.3698 64.7656 24.8542 64.6562 25.3438C64.5521 25.8333 64.388 26.3047 64.1641 26.7578C63.9401 27.2057 63.6562 27.6276 63.3125 28.0234C62.9688 28.4193 62.5573 28.7656 62.0781 29.0625C61.6042 29.3542 61.0599 29.5833 60.4453 29.75C59.8359 29.9167 59.1536 30 58.3984 30H54.6094V18.5547ZM56.5469 28.625H58.6875C59.3854 28.625 59.9922 28.5104 60.5078 28.2812C61.0234 28.0469 61.4505 27.7318 61.7891 27.3359C62.1276 26.9349 62.3802 26.4661 62.5469 25.9297C62.7135 25.388 62.7969 24.8073 62.7969 24.1875C62.7969 23.5104 62.7005 22.9089 62.5078 22.3828C62.3151 21.8568 62.0312 21.4115 61.6562 21.0469C61.2865 20.6823 60.8307 20.4062 60.2891 20.2188C59.7474 20.026 59.1302 19.9297 58.4375 19.9297H56.5469V28.625ZM69.4375 30H67.5V18.5547H69.4375V30ZM75.6562 28.7812C75.9688 28.7812 76.2578 28.7422 76.5234 28.6641C76.7943 28.5807 77.0286 28.4661 77.2266 28.3203C77.4245 28.1693 77.5781 27.987 77.6875 27.7734C77.8021 27.5547 77.8594 27.3099 77.8594 27.0391C77.8594 26.7161 77.7812 26.4427 77.625 26.2188C77.474 25.9948 77.2708 25.7995 77.0156 25.6328C76.7604 25.4609 76.4714 25.3073 76.1484 25.1719C75.8255 25.0365 75.4948 24.8984 75.1562 24.7578C74.8229 24.6172 74.4948 24.4635 74.1719 24.2969C73.849 24.125 73.5599 23.9219 73.3047 23.6875C73.0495 23.4479 72.8438 23.1641 72.6875 22.8359C72.5365 22.5078 72.4609 22.112 72.4609 21.6484C72.4609 21.1432 72.5573 20.6901 72.75 20.2891C72.9427 19.888 73.2135 19.5469 73.5625 19.2656C73.9115 18.9844 74.3281 18.7708 74.8125 18.625C75.2969 18.474 75.8307 18.3984 76.4141 18.3984C76.5859 18.3984 76.7839 18.4062 77.0078 18.4219C77.2318 18.4375 77.4714 18.4635 77.7266 18.5C77.9818 18.5312 78.2474 18.5755 78.5234 18.6328C78.8047 18.6849 79.0859 18.7526 79.3672 18.8359L79.0625 20.3516L78.9141 20.4297C78.638 20.3047 78.3698 20.2005 78.1094 20.1172C77.849 20.0339 77.6016 19.9661 77.3672 19.9141C77.1328 19.862 76.9141 19.8255 76.7109 19.8047C76.513 19.7839 76.3385 19.7734 76.1875 19.7734C75.901 19.7734 75.6406 19.8073 75.4062 19.875C75.1719 19.9427 74.9714 20.0417 74.8047 20.1719C74.6432 20.3021 74.5156 20.4635 74.4219 20.6562C74.3333 20.8438 74.2891 21.0599 74.2891 21.3047C74.2891 21.6328 74.3672 21.9141 74.5234 22.1484C74.6797 22.3776 74.8828 22.5807 75.1328 22.7578C75.388 22.9349 75.6771 23.0938 76 23.2344C76.3281 23.3698 76.6615 23.5104 77 23.6562C77.3438 23.7969 77.6771 23.9505 78 24.1172C78.3281 24.2839 78.6172 24.4818 78.8672 24.7109C79.1224 24.9401 79.3281 25.2109 79.4844 25.5234C79.6406 25.8307 79.7188 26.2005 79.7188 26.6328C79.7188 27.1172 79.6172 27.5729 79.4141 28C79.2109 28.4271 78.9219 28.8021 78.5469 29.125C78.1771 29.4427 77.7318 29.6953 77.2109 29.8828C76.6901 30.0651 76.1094 30.1562 75.4688 30.1562C75.2083 30.1562 74.9349 30.138 74.6484 30.1016C74.362 30.0703 74.0703 30.0234 73.7734 29.9609C73.4766 29.8984 73.1823 29.8203 72.8906 29.7266C72.599 29.6328 72.3177 29.526 72.0469 29.4062L72.3594 27.875L72.5156 27.7969C73.0677 28.099 73.6068 28.3385 74.1328 28.5156C74.6589 28.6927 75.1667 28.7812 75.6562 28.7812ZM86.6953 30H84.75V19.9297H81.0391L81.2969 18.5547H90.5234L90.2656 19.9297H86.6953V30ZM95.4062 28.7812C95.7188 28.7812 96.0078 28.7422 96.2734 28.6641C96.5443 28.5807 96.7786 28.4661 96.9766 28.3203C97.1745 28.1693 97.3281 27.987 97.4375 27.7734C97.5521 27.5547 97.6094 27.3099 97.6094 27.0391C97.6094 26.7161 97.5312 26.4427 97.375 26.2188C97.224 25.9948 97.0208 25.7995 96.7656 25.6328C96.5104 25.4609 96.2214 25.3073 95.8984 25.1719C95.5755 25.0365 95.2448 24.8984 94.9062 24.7578C94.5729 24.6172 94.2448 24.4635 93.9219 24.2969C93.599 24.125 93.3099 23.9219 93.0547 23.6875C92.7995 23.4479 92.5938 23.1641 92.4375 22.8359C92.2865 22.5078 92.2109 22.112 92.2109 21.6484C92.2109 21.1432 92.3073 20.6901 92.5 20.2891C92.6927 19.888 92.9635 19.5469 93.3125 19.2656C93.6615 18.9844 94.0781 18.7708 94.5625 18.625C95.0469 18.474 95.5807 18.3984 96.1641 18.3984C96.3359 18.3984 96.5339 18.4062 96.7578 18.4219C96.9818 18.4375 97.2214 18.4635 97.4766 18.5C97.7318 18.5312 97.9974 18.5755 98.2734 18.6328C98.5547 18.6849 98.8359 18.7526 99.1172 18.8359L98.8125 20.3516L98.6641 20.4297C98.388 20.3047 98.1198 20.2005 97.8594 20.1172C97.599 20.0339 97.3516 19.9661 97.1172 19.9141C96.8828 19.862 96.6641 19.8255 96.4609 19.8047C96.263 19.7839 96.0885 19.7734 95.9375 19.7734C95.651 19.7734 95.3906 19.8073 95.1562 19.875C94.9219 19.9427 94.7214 20.0417 94.5547 20.1719C94.3932 20.3021 94.2656 20.4635 94.1719 20.6562C94.0833 20.8438 94.0391 21.0599 94.0391 21.3047C94.0391 21.6328 94.1172 21.9141 94.2734 22.1484C94.4297 22.3776 94.6328 22.5807 94.8828 22.7578C95.138 22.9349 95.4271 23.0938 95.75 23.2344C96.0781 23.3698 96.4115 23.5104 96.75 23.6562C97.0938 23.7969 97.4271 23.9505 97.75 24.1172C98.0781 24.2839 98.3672 24.4818 98.6172 24.7109C98.8724 24.9401 99.0781 25.2109 99.2344 25.5234C99.3906 25.8307 99.4688 26.2005 99.4688 26.6328C99.4688 27.1172 99.3672 27.5729 99.1641 28C98.9609 28.4271 98.6719 28.8021 98.2969 29.125C97.9271 29.4427 97.4818 29.6953 96.9609 29.8828C96.4401 30.0651 95.8594 30.1562 95.2188 30.1562C94.9583 30.1562 94.6849 30.138 94.3984 30.1016C94.112 30.0703 93.8203 30.0234 93.5234 29.9609C93.2266 29.8984 92.9323 29.8203 92.6406 29.7266C92.349 29.6328 92.0677 29.526 91.7969 29.4062L92.1094 27.875L92.2656 27.7969C92.8177 28.099 93.3568 28.3385 93.8828 28.5156C94.4089 28.6927 94.9167 28.7812 95.4062 28.7812ZM108.289 27.0469H103.703L102.742 30H101.008L105.062 18.5547H107.258L111.312 30H109.266L108.289 27.0469ZM107.859 25.7188L106.5 21.4844L106.07 19.8516H105.914L105.492 21.4844L104.117 25.7188H107.859ZM113.148 30L114.023 18.5547H116.859L119.312 25.8672L119.75 27.5703H119.906L120.352 25.8672L122.812 18.5547H125.727L126.609 30H124.609L124.078 21.4453L124.031 19.6641H123.875L123.406 21.3672L120.617 29.7656H118.852L116.039 21.3828L115.555 19.6641H115.398L115.359 21.4297L114.836 30H113.148ZM138.68 29.3984C137.951 29.6797 137.258 29.8776 136.602 29.9922C135.945 30.1016 135.336 30.1562 134.773 30.1562C133.857 30.1562 133.036 30.026 132.312 29.7656C131.594 29.5 130.982 29.1276 130.477 28.6484C129.971 28.1641 129.586 27.5807 129.32 26.8984C129.055 26.2161 128.922 25.4557 128.922 24.6172C128.922 23.9609 129.003 23.3516 129.164 22.7891C129.326 22.2266 129.549 21.7161 129.836 21.2578C130.122 20.7943 130.466 20.3854 130.867 20.0312C131.268 19.6771 131.708 19.3802 132.188 19.1406C132.667 18.8958 133.177 18.7109 133.719 18.5859C134.26 18.4609 134.818 18.3984 135.391 18.3984C135.578 18.3984 135.786 18.4062 136.016 18.4219C136.245 18.4375 136.487 18.4635 136.742 18.5C137.003 18.5312 137.271 18.5755 137.547 18.6328C137.823 18.6849 138.102 18.7526 138.383 18.8359L138.078 20.3438L137.922 20.4219C137.375 20.1667 136.862 19.9948 136.383 19.9062C135.904 19.8177 135.49 19.7734 135.141 19.7734C134.505 19.7734 133.93 19.888 133.414 20.1172C132.898 20.3411 132.456 20.6536 132.086 21.0547C131.716 21.4505 131.43 21.9219 131.227 22.4688C131.029 23.0104 130.93 23.6016 130.93 24.2422C130.93 24.8516 131.021 25.4297 131.203 25.9766C131.391 26.5234 131.661 27.0052 132.016 27.4219C132.37 27.8385 132.802 28.1693 133.312 28.4141C133.823 28.6589 134.406 28.7812 135.062 28.7812C135.339 28.7812 135.641 28.7578 135.969 28.7109C136.302 28.6641 136.63 28.5885 136.953 28.4844V24.5312H138.68V29.3984ZM146.273 30H144.328V19.9297H140.617L140.875 18.5547H150.102L149.844 19.9297H146.273V30ZM154 18.5547V25.7188C154 26.2448 154.081 26.7005 154.242 27.0859C154.409 27.4714 154.625 27.7891 154.891 28.0391C155.161 28.2891 155.466 28.4766 155.805 28.6016C156.143 28.7214 156.484 28.7812 156.828 28.7812C157.182 28.7812 157.516 28.7188 157.828 28.5938C158.146 28.4688 158.422 28.2839 158.656 28.0391C158.891 27.7943 159.076 27.487 159.211 27.1172C159.352 26.7474 159.422 26.3151 159.422 25.8203V18.5547H161.094V25.7109C161.094 26.0651 161.052 26.4219 160.969 26.7812C160.891 27.1354 160.768 27.4766 160.602 27.8047C160.435 28.1328 160.224 28.4401 159.969 28.7266C159.719 29.013 159.422 29.263 159.078 29.4766C158.734 29.6849 158.344 29.8516 157.906 29.9766C157.474 30.0964 156.995 30.1562 156.469 30.1562C155.812 30.1562 155.214 30.0599 154.672 29.8672C154.13 29.6693 153.664 29.3802 153.273 29C152.888 28.6198 152.589 28.1536 152.375 27.6016C152.167 27.0443 152.062 26.4062 152.062 25.6875V18.5547H154Z" fill="current"/>
<path d="M54.6094 18.5547V17.5547H53.6094V18.5547H54.6094ZM63.2578 20.0859L62.5771 20.8185L62.5811 20.8222L63.2578 20.0859ZM64.4219 21.7734L63.4934 22.1448L63.496 22.1512L64.4219 21.7734ZM64.6562 25.3438L63.6803 25.1257L63.6781 25.1356L64.6562 25.3438ZM64.1641 26.7578L65.0585 27.205L65.0605 27.2009L64.1641 26.7578ZM62.0781 29.0625L62.6022 29.9142L62.6048 29.9126L62.0781 29.0625ZM60.4453 29.75L60.1836 28.7849L60.1815 28.7854L60.4453 29.75ZM54.6094 30H53.6094V31H54.6094V30ZM56.5469 28.625H55.5469V29.625H56.5469V28.625ZM60.5078 28.2812L60.914 29.1951L60.9216 29.1916L60.5078 28.2812ZM61.7891 27.3359L62.549 27.9859L62.5532 27.981L61.7891 27.3359ZM62.5469 25.9297L63.5019 26.2264L63.5027 26.2238L62.5469 25.9297ZM61.6562 21.0469L60.9542 21.759L60.9592 21.7639L61.6562 21.0469ZM60.2891 20.2188L59.9539 21.1609L59.962 21.1637L60.2891 20.2188ZM56.5469 19.9297V18.9297H55.5469V19.9297H56.5469ZM54.6094 19.5547H58.6797V17.5547H54.6094V19.5547ZM58.6797 19.5547C59.5973 19.5547 60.3659 19.6785 61.0024 19.9037L61.6694 18.0182C60.7747 17.7017 59.7725 17.5547 58.6797 17.5547V19.5547ZM61.0024 19.9037C61.6588 20.1359 62.1758 20.4456 62.5771 20.8185L63.9385 19.3534C63.3085 18.7679 62.5443 18.3277 61.6694 18.0182L61.0024 19.9037ZM62.5811 20.8222C62.9864 21.1947 63.2885 21.6325 63.4934 22.1448L65.3504 21.402C65.0344 20.6123 64.5605 19.925 63.9345 19.3497L62.5811 20.8222ZM63.496 22.1512C63.7088 22.6728 63.8203 23.2491 63.8203 23.8906H65.8203C65.8203 23.0113 65.6662 22.1761 65.3478 21.3957L63.496 22.1512ZM63.8203 23.8906C63.8203 24.2931 63.7744 24.7044 63.6803 25.1257L65.6322 25.5618C65.7568 25.004 65.8203 24.4465 65.8203 23.8906H63.8203ZM63.6781 25.1356C63.5915 25.543 63.455 25.9355 63.2676 26.3147L65.0605 27.2009C65.321 26.6739 65.5127 26.1237 65.6344 25.5519L63.6781 25.1356ZM63.2696 26.3106C63.0849 26.68 62.8488 27.0323 62.5575 27.3678L64.0675 28.6791C64.4637 28.2229 64.7953 27.7314 65.0585 27.205L63.2696 26.3106ZM62.5575 27.3678C62.2844 27.6822 61.9516 27.9645 61.5515 28.2124L62.6048 29.9126C63.163 29.5667 63.6531 29.1564 64.0675 28.6791L62.5575 27.3678ZM61.554 28.2108C61.1724 28.4457 60.7188 28.6397 60.1836 28.7849L60.707 30.7151C61.401 30.5269 62.0359 30.2626 62.6022 29.9142L61.554 28.2108ZM60.1815 28.7854C59.6729 28.9245 59.0813 29 58.3984 29V31C59.226 31 59.999 30.9088 60.7091 30.7146L60.1815 28.7854ZM58.3984 29H54.6094V31H58.3984V29ZM55.6094 30V18.5547H53.6094V30H55.6094ZM56.5469 29.625H58.6875V27.625H56.5469V29.625ZM58.6875 29.625C59.4931 29.625 60.244 29.4928 60.914 29.1951L60.1017 27.3674C59.7404 27.528 59.2777 27.625 58.6875 27.625V29.625ZM60.9216 29.1916C61.5585 28.9021 62.1074 28.5022 62.549 27.9859L61.0291 26.686C60.7936 26.9613 60.4884 27.1916 60.094 27.3709L60.9216 29.1916ZM62.5532 27.981C62.9839 27.4707 63.2983 26.8815 63.5018 26.2264L61.5919 25.633C61.4621 26.0508 61.2713 26.3991 61.0249 26.6909L62.5532 27.981ZM63.5027 26.2238C63.7012 25.5784 63.7969 24.8977 63.7969 24.1875H61.7969C61.7969 24.7169 61.7258 25.1977 61.5911 25.6356L63.5027 26.2238ZM63.7969 24.1875C63.7969 23.4168 63.6873 22.6954 63.4468 22.0388L61.5688 22.7268C61.7137 23.1223 61.7969 23.604 61.7969 24.1875H63.7969ZM63.4468 22.0388C63.2062 21.3821 62.8435 20.8064 62.3533 20.3299L60.9592 21.7639C61.219 22.0165 61.424 22.3314 61.5688 22.7268L63.4468 22.0388ZM62.3583 20.3348C61.8719 19.8551 61.2838 19.5049 60.6162 19.2738L59.962 21.1637C60.3776 21.3076 60.7011 21.5094 60.9542 21.759L62.3583 20.3348ZM60.6243 19.2766C59.9555 19.0387 59.2217 18.9297 58.4375 18.9297V20.9297C59.0387 20.9297 59.5393 21.0134 59.9539 21.1609L60.6243 19.2766ZM58.4375 18.9297H56.5469V20.9297H58.4375V18.9297ZM55.5469 19.9297V28.625H57.5469V19.9297H55.5469ZM69.4375 30V31H70.4375V30H69.4375ZM67.5 30H66.5V31H67.5V30ZM67.5 18.5547V17.5547H66.5V18.5547H67.5ZM69.4375 18.5547H70.4375V17.5547H69.4375V18.5547ZM69.4375 29H67.5V31H69.4375V29ZM68.5 30V18.5547H66.5V30H68.5ZM67.5 19.5547H69.4375V17.5547H67.5V19.5547ZM68.4375 18.5547V30H70.4375V18.5547H68.4375ZM76.5234 28.6641L76.8056 29.6235L76.8175 29.6198L76.5234 28.6641ZM77.2266 28.3203L77.8198 29.1254L77.8265 29.1204L77.8332 29.1153L77.2266 28.3203ZM77.6875 27.7734L76.8016 27.3094L76.7975 27.3176L77.6875 27.7734ZM77.625 26.2188L76.7959 26.7779L76.8003 26.7844L76.8049 26.7909L77.625 26.2188ZM77.0156 25.6328L76.457 26.4622L76.4629 26.4662L76.4688 26.4701L77.0156 25.6328ZM75.1562 24.7578L74.7675 25.6792L74.7726 25.6813L75.1562 24.7578ZM74.1719 24.2969L73.702 25.1797L73.7132 25.1855L74.1719 24.2969ZM73.3047 23.6875L72.6202 24.4166L72.6283 24.424L73.3047 23.6875ZM72.6875 22.8359L71.779 23.2541L71.7846 23.2659L72.6875 22.8359ZM74.8125 18.625L75.1008 19.5826L75.1102 19.5797L74.8125 18.625ZM77.7266 18.5L77.5851 19.4899L77.5951 19.4914L77.605 19.4926L77.7266 18.5ZM78.5234 18.6328L78.3202 19.6119L78.3308 19.6141L78.3413 19.6161L78.5234 18.6328ZM79.3672 18.8359L80.3476 19.033L80.5277 18.1368L79.6513 17.8771L79.3672 18.8359ZM79.0625 20.3516L79.5282 21.2365L79.9491 21.015L80.0429 20.5487L79.0625 20.3516ZM78.9141 20.4297L78.5016 21.3406L78.947 21.5424L79.3798 21.3146L78.9141 20.4297ZM76.7109 19.8047L76.6063 20.7992L76.6089 20.7995L76.7109 19.8047ZM74.8047 20.1719L74.189 19.3839L74.183 19.3886L74.1769 19.3935L74.8047 20.1719ZM74.4219 20.6562L73.5226 20.2188L73.5176 20.2292L74.4219 20.6562ZM74.5234 22.1484L73.6913 22.7032L73.6972 22.7118L74.5234 22.1484ZM75.1328 22.7578L74.5548 23.5739L74.5627 23.5794L75.1328 22.7578ZM76 23.2344L75.6007 24.1512L75.6096 24.1551L75.6185 24.1587L76 23.2344ZM77 23.6562L76.6044 24.5747L76.6128 24.5783L76.6214 24.5818L77 23.6562ZM78 24.1172L77.5413 25.0058L77.5471 25.0088L78 24.1172ZM78.8672 24.7109L78.1914 25.4481L78.1991 25.455L78.8672 24.7109ZM79.4844 25.5234L78.5899 25.9707L78.593 25.9767L79.4844 25.5234ZM78.5469 29.125L79.1985 29.8835L79.1994 29.8828L78.5469 29.125ZM77.2109 29.8828L77.5413 30.8267L77.5497 30.8237L77.2109 29.8828ZM74.6484 30.1016L74.7747 29.1096L74.7658 29.1084L74.7569 29.1075L74.6484 30.1016ZM72.0469 29.4062L71.0671 29.2063L70.9061 29.9951L71.6424 30.3208L72.0469 29.4062ZM72.3594 27.875L71.9122 26.9806L71.4769 27.1982L71.3796 27.675L72.3594 27.875ZM72.5156 27.7969L72.9956 26.9196L72.5365 26.6684L72.0684 26.9024L72.5156 27.7969ZM75.6562 29.7812C76.0522 29.7812 76.4374 29.7317 76.8056 29.6234L76.2413 27.7047C76.0782 27.7527 75.8853 27.7812 75.6562 27.7812V29.7812ZM76.8175 29.6198C77.1797 29.5084 77.5187 29.3472 77.8198 29.1254L76.6334 27.5153C76.5386 27.5851 76.4088 27.6531 76.2294 27.7083L76.8175 29.6198ZM77.8332 29.1153C78.1451 28.8773 78.3976 28.5806 78.5775 28.2293L76.7975 27.3176C76.7587 27.3933 76.7038 27.4613 76.6199 27.5254L77.8332 29.1153ZM78.5733 28.2374C78.77 27.862 78.8594 27.4556 78.8594 27.0391H76.8594C76.8594 27.1642 76.8342 27.2473 76.8017 27.3094L78.5733 28.2374ZM78.8594 27.0391C78.8594 26.5498 78.7386 26.0672 78.4451 25.6466L76.8049 26.7909C76.8239 26.8182 76.8594 26.8825 76.8594 27.0391H78.8594ZM78.4541 25.6596C78.2194 25.3117 77.915 25.0258 77.5624 24.7955L76.4688 26.4701C76.6266 26.5731 76.7285 26.6779 76.7959 26.7779L78.4541 25.6596ZM77.5742 24.8034C77.2581 24.5905 76.9102 24.4069 76.5352 24.2497L75.7617 26.0941C76.0325 26.2076 76.2628 26.3314 76.457 26.4622L77.5742 24.8034ZM76.5352 24.2497C76.2112 24.1138 75.8794 23.9754 75.5399 23.8343L74.7726 25.6813C75.1102 25.8215 75.4399 25.9591 75.7617 26.0941L76.5352 24.2497ZM75.545 23.8364C75.2354 23.7059 74.9307 23.5632 74.6305 23.4083L73.7132 25.1855C74.0589 25.3639 74.4104 25.5285 74.7675 25.6792L75.545 23.8364ZM74.6417 23.4141C74.3894 23.2798 74.1705 23.125 73.9811 22.951L72.6283 24.424C72.9492 24.7188 73.3085 24.9702 73.702 25.1796L74.6417 23.4141ZM73.9891 22.9584C73.8282 22.8073 73.6951 22.6261 73.5904 22.406L71.7846 23.2659C71.9924 23.7021 72.2708 24.0885 72.6203 24.4166L73.9891 22.9584ZM73.5959 22.4178C73.5198 22.2524 73.4609 22.007 73.4609 21.6484H71.4609C71.4609 22.2169 71.5532 22.7632 71.7791 23.2541L73.5959 22.4178ZM73.4609 21.6484C73.4609 21.2728 73.5319 20.9708 73.6513 20.7222L71.8487 19.856C71.5827 20.4094 71.4609 21.0137 71.4609 21.6484H73.4609ZM73.6513 20.7222C73.7791 20.4562 73.956 20.2328 74.19 20.0442L72.935 18.487C72.4711 18.8609 72.1063 19.3198 71.8487 19.856L73.6513 20.7222ZM74.19 20.0442C74.4264 19.8537 74.7242 19.6959 75.1008 19.5825L74.5242 17.6675C73.9321 17.8457 73.3965 18.115 72.935 18.487L74.19 20.0442ZM75.1102 19.5797C75.485 19.4628 75.9169 19.3984 76.4141 19.3984V17.3984C75.7446 17.3984 75.1087 17.4851 74.5148 17.6703L75.1102 19.5797ZM76.4141 19.3984C76.557 19.3984 76.7309 19.405 76.9382 19.4195L77.0774 17.4243C76.8369 17.4075 76.6149 17.3984 76.4141 17.3984V19.3984ZM76.9382 19.4195C77.1349 19.4332 77.3504 19.4564 77.5851 19.4899L77.868 17.5101C77.5923 17.4707 77.3286 17.4418 77.0774 17.4243L76.9382 19.4195ZM77.605 19.4926C77.8304 19.5202 78.0687 19.5597 78.3202 19.6119L78.7267 17.6537C78.4261 17.5913 78.1332 17.5423 77.8481 17.5074L77.605 19.4926ZM78.3413 19.6161C78.5873 19.6616 78.8345 19.7211 79.0831 19.7947L79.6513 17.8771C79.3373 17.7841 79.022 17.7081 78.7055 17.6495L78.3413 19.6161ZM78.3868 18.6388L78.0821 20.1545L80.0429 20.5487L80.3476 19.033L78.3868 18.6388ZM78.5968 19.4666L78.4483 19.5448L79.3798 21.3146L79.5282 21.2365L78.5968 19.4666ZM79.3266 19.5187C79.0192 19.3795 78.7149 19.261 78.4142 19.1648L77.8046 21.0696C78.0247 21.14 78.2569 21.2299 78.5016 21.3406L79.3266 19.5187ZM78.4142 19.1648C78.1287 19.0734 77.8518 18.9974 77.5841 18.9379L77.1503 20.8902C77.3513 20.9349 77.5692 20.9943 77.8046 21.0696L78.4142 19.1648ZM77.5841 18.9379C77.3182 18.8788 77.0607 18.8353 76.813 18.8099L76.6089 20.7995C76.7674 20.8157 76.9474 20.8452 77.1503 20.8902L77.5841 18.9379ZM76.8156 18.8102C76.5931 18.7868 76.3825 18.7734 76.1875 18.7734V20.7734C76.2946 20.7734 76.4329 20.7809 76.6063 20.7992L76.8156 18.8102ZM76.1875 18.7734C75.823 18.7734 75.4674 18.8164 75.1287 18.9143L75.6838 20.8357C75.8139 20.7981 75.9791 20.7734 76.1875 20.7734V18.7734ZM75.1287 18.9143C74.7903 19.0121 74.4706 19.1639 74.189 19.3839L75.4203 20.9599C75.4721 20.9194 75.5535 20.8734 75.6838 20.8357L75.1287 18.9143ZM74.1769 19.3935C73.8972 19.6191 73.6785 19.8984 73.5226 20.2188L75.3211 21.0937C75.3527 21.0287 75.3893 20.9851 75.4324 20.9503L74.1769 19.3935ZM73.5176 20.2292C73.3556 20.5723 73.2891 20.9387 73.2891 21.3047H75.2891C75.2891 21.1811 75.311 21.1152 75.3261 21.0833L73.5176 20.2292ZM73.2891 21.3047C73.2891 21.7969 73.4085 22.2788 73.6914 22.7031L75.3555 21.5937C75.3259 21.5493 75.2891 21.4687 75.2891 21.3047H73.2891ZM73.6972 22.7118C73.9272 23.049 74.2178 23.3351 74.5548 23.5738L75.7108 21.9418C75.5478 21.8263 75.4322 21.7062 75.3497 21.5851L73.6972 22.7118ZM74.5627 23.5794C74.8782 23.7983 75.2257 23.9879 75.6007 24.1512L76.3993 22.3175C76.1285 22.1996 75.8978 22.0715 75.7029 21.9362L74.5627 23.5794ZM75.6185 24.1587C75.9417 24.2921 76.2704 24.4308 76.6044 24.5747L77.3956 22.7378C77.0526 22.5901 76.7145 22.4474 76.3815 22.31L75.6185 24.1587ZM76.6214 24.5818C76.9385 24.7115 77.2451 24.8529 77.5414 25.0058L78.4586 23.2286C78.109 23.0481 77.749 22.8822 77.3786 22.7307L76.6214 24.5818ZM77.5471 25.0088C77.8011 25.1378 78.0138 25.2853 78.1915 25.4481L79.5429 23.9738C79.2206 23.6783 78.8551 23.4299 78.4529 23.2256L77.5471 25.0088ZM78.1991 25.455C78.3591 25.5987 78.4888 25.7683 78.5899 25.9707L80.3788 25.0762C80.1675 24.6536 79.8857 24.2815 79.5353 23.9669L78.1991 25.455ZM78.593 25.9767C78.662 26.1124 78.7188 26.319 78.7188 26.6328H80.7188C80.7188 26.0821 80.6192 25.549 80.3758 25.0702L78.593 25.9767ZM78.7188 26.6328C78.7188 26.9723 78.6487 27.2809 78.511 27.5705L80.3171 28.4295C80.5856 27.8649 80.7188 27.2621 80.7188 26.6328H78.7188ZM78.511 27.5705C78.3704 27.8661 78.1689 28.1308 77.8944 28.3672L79.1994 29.8828C79.6748 29.4734 80.0515 28.9881 80.3171 28.4295L78.511 27.5705ZM77.8952 28.3665C77.6294 28.5949 77.2939 28.7901 76.8722 28.9419L77.5497 30.8237C78.1697 30.6005 78.7248 30.2905 79.1985 29.8835L77.8952 28.3665ZM76.8806 28.939C76.4815 29.0786 76.0146 29.1562 75.4688 29.1562V31.1562C76.2041 31.1562 76.8987 31.0516 77.5413 30.8267L76.8806 28.939ZM75.4688 29.1562C75.2548 29.1562 75.0237 29.1413 74.7747 29.1096L74.5222 31.0936C74.8461 31.1348 75.1619 31.1562 75.4688 31.1562V29.1562ZM74.7569 29.1075C74.5049 29.08 74.2458 29.0385 73.9794 28.9824L73.5674 30.9395C73.8949 31.0084 74.2191 31.0607 74.54 31.0957L74.7569 29.1075ZM73.9794 28.9824C73.7167 28.9271 73.4558 28.8578 73.1966 28.7745L72.5846 30.6786C72.9088 30.7828 73.2365 30.8698 73.5674 30.9395L73.9794 28.9824ZM73.1966 28.7745C72.9373 28.6912 72.689 28.5968 72.4514 28.4917L71.6424 30.3208C71.9464 30.4553 72.2606 30.5745 72.5846 30.6786L73.1966 28.7745ZM73.0267 29.6062L73.3392 28.075L71.3796 27.675L71.0671 29.2063L73.0267 29.6062ZM72.8066 28.7694L72.9628 28.6913L72.0684 26.9024L71.9122 26.9806L72.8066 28.7694ZM72.0356 28.6741C72.6325 29.0007 73.2253 29.2653 73.8138 29.4634L74.4519 27.5679C73.9882 27.4118 73.5029 27.1972 72.9956 26.9196L72.0356 28.6741ZM73.8138 29.4634C74.4291 29.6705 75.0448 29.7812 75.6562 29.7812V27.7812C75.2886 27.7812 74.8886 27.7149 74.4519 27.5679L73.8138 29.4634ZM86.6953 30V31H87.6953V30H86.6953ZM84.75 30H83.75V31H84.75V30ZM84.75 19.9297H85.75V18.9297H84.75V19.9297ZM81.0391 19.9297L80.0562 19.7454L79.8341 20.9297H81.0391V19.9297ZM81.2969 18.5547V17.5547H80.4669L80.314 18.3704L81.2969 18.5547ZM90.5234 18.5547L91.5063 18.739L91.7284 17.5547H90.5234V18.5547ZM90.2656 19.9297V20.9297H91.0956L91.2485 20.114L90.2656 19.9297ZM86.6953 19.9297V18.9297H85.6953V19.9297H86.6953ZM86.6953 29H84.75V31H86.6953V29ZM85.75 30V19.9297H83.75V30H85.75ZM84.75 18.9297H81.0391V20.9297H84.75V18.9297ZM82.0219 20.114L82.2797 18.739L80.314 18.3704L80.0562 19.7454L82.0219 20.114ZM81.2969 19.5547H90.5234V17.5547H81.2969V19.5547ZM89.5406 18.3704L89.2828 19.7454L91.2485 20.114L91.5063 18.739L89.5406 18.3704ZM90.2656 18.9297H86.6953V20.9297H90.2656V18.9297ZM85.6953 19.9297V30H87.6953V19.9297H85.6953ZM96.2734 28.6641L96.5556 29.6235L96.5675 29.6198L96.2734 28.6641ZM96.9766 28.3203L97.5698 29.1254L97.5765 29.1204L97.5832 29.1153L96.9766 28.3203ZM97.4375 27.7734L96.5516 27.3094L96.5475 27.3176L97.4375 27.7734ZM97.375 26.2188L96.5459 26.7779L96.5504 26.7844L96.5549 26.7909L97.375 26.2188ZM96.7656 25.6328L96.207 26.4622L96.2129 26.4662L96.2188 26.4701L96.7656 25.6328ZM94.9062 24.7578L94.5175 25.6792L94.5226 25.6813L94.9062 24.7578ZM93.9219 24.2969L93.452 25.1797L93.4632 25.1855L93.9219 24.2969ZM93.0547 23.6875L92.3702 24.4166L92.3783 24.424L93.0547 23.6875ZM92.4375 22.8359L91.529 23.2541L91.5346 23.2659L92.4375 22.8359ZM94.5625 18.625L94.8508 19.5826L94.8602 19.5797L94.5625 18.625ZM97.4766 18.5L97.3351 19.4899L97.3451 19.4914L97.355 19.4926L97.4766 18.5ZM98.2734 18.6328L98.0702 19.6119L98.0808 19.6141L98.0913 19.6161L98.2734 18.6328ZM99.1172 18.8359L100.098 19.033L100.278 18.1368L99.4013 17.8771L99.1172 18.8359ZM98.8125 20.3516L99.2782 21.2365L99.6991 21.015L99.7929 20.5487L98.8125 20.3516ZM98.6641 20.4297L98.2516 21.3406L98.697 21.5424L99.1298 21.3146L98.6641 20.4297ZM96.4609 19.8047L96.3563 20.7992L96.3589 20.7995L96.4609 19.8047ZM94.5547 20.1719L93.939 19.3839L93.933 19.3886L93.9269 19.3935L94.5547 20.1719ZM94.1719 20.6562L93.2726 20.2188L93.2676 20.2292L94.1719 20.6562ZM94.2734 22.1484L93.4413 22.7032L93.4472 22.7118L94.2734 22.1484ZM94.8828 22.7578L94.3048 23.5739L94.3127 23.5794L94.8828 22.7578ZM95.75 23.2344L95.3507 24.1512L95.3596 24.1551L95.3685 24.1587L95.75 23.2344ZM96.75 23.6562L96.3544 24.5747L96.3628 24.5783L96.3714 24.5818L96.75 23.6562ZM97.75 24.1172L97.2913 25.0058L97.2971 25.0088L97.75 24.1172ZM98.6172 24.7109L97.9414 25.4481L97.9491 25.455L98.6172 24.7109ZM99.2344 25.5234L98.3399 25.9707L98.343 25.9767L99.2344 25.5234ZM98.2969 29.125L98.9485 29.8835L98.9494 29.8828L98.2969 29.125ZM96.9609 29.8828L97.2913 30.8267L97.2997 30.8237L96.9609 29.8828ZM94.3984 30.1016L94.5247 29.1096L94.5158 29.1084L94.5069 29.1075L94.3984 30.1016ZM91.7969 29.4062L90.8171 29.2063L90.6561 29.9951L91.3924 30.3208L91.7969 29.4062ZM92.1094 27.875L91.6622 26.9806L91.2269 27.1982L91.1296 27.675L92.1094 27.875ZM92.2656 27.7969L92.7456 26.9196L92.2865 26.6684L91.8184 26.9024L92.2656 27.7969ZM95.4062 29.7812C95.8022 29.7812 96.1874 29.7317 96.5556 29.6234L95.9913 27.7047C95.8282 27.7527 95.6353 27.7812 95.4062 27.7812V29.7812ZM96.5675 29.6198C96.9297 29.5084 97.2687 29.3472 97.5698 29.1254L96.3834 27.5153C96.2886 27.5851 96.1588 27.6531 95.9794 27.7083L96.5675 29.6198ZM97.5832 29.1153C97.8951 28.8773 98.1476 28.5806 98.3275 28.2293L96.5475 27.3176C96.5087 27.3933 96.4538 27.4613 96.3699 27.5254L97.5832 29.1153ZM98.3233 28.2374C98.52 27.862 98.6094 27.4556 98.6094 27.0391H96.6094C96.6094 27.1642 96.5842 27.2473 96.5517 27.3094L98.3233 28.2374ZM98.6094 27.0391C98.6094 26.5498 98.4886 26.0672 98.1951 25.6466L96.5549 26.7909C96.5739 26.8182 96.6094 26.8825 96.6094 27.0391H98.6094ZM98.2041 25.6596C97.9694 25.3117 97.665 25.0258 97.3124 24.7955L96.2188 26.4701C96.3766 26.5731 96.4785 26.6779 96.5459 26.7779L98.2041 25.6596ZM97.3242 24.8034C97.0081 24.5905 96.6602 24.4069 96.2852 24.2497L95.5117 26.0941C95.7825 26.2076 96.0128 26.3314 96.207 26.4622L97.3242 24.8034ZM96.2852 24.2497C95.9612 24.1138 95.6294 23.9754 95.2899 23.8343L94.5226 25.6813C94.8602 25.8215 95.1899 25.9591 95.5117 26.0941L96.2852 24.2497ZM95.295 23.8364C94.9855 23.7059 94.6807 23.5632 94.3805 23.4083L93.4632 25.1855C93.8089 25.3639 94.1604 25.5285 94.5175 25.6792L95.295 23.8364ZM94.3917 23.4141C94.1394 23.2798 93.9205 23.125 93.7311 22.951L92.3783 24.424C92.6992 24.7188 93.0585 24.9702 93.452 25.1796L94.3917 23.4141ZM93.7391 22.9584C93.5782 22.8073 93.4451 22.6261 93.3404 22.406L91.5346 23.2659C91.7424 23.7021 92.0208 24.0885 92.3703 24.4166L93.7391 22.9584ZM93.3459 22.4178C93.2697 22.2524 93.2109 22.007 93.2109 21.6484H91.2109C91.2109 22.2169 91.3032 22.7632 91.5291 23.2541L93.3459 22.4178ZM93.2109 21.6484C93.2109 21.2728 93.2819 20.9708 93.4013 20.7222L91.5987 19.856C91.3327 20.4094 91.2109 21.0137 91.2109 21.6484H93.2109ZM93.4013 20.7222C93.5291 20.4562 93.706 20.2328 93.94 20.0442L92.685 18.487C92.2211 18.8609 91.8563 19.3198 91.5987 19.856L93.4013 20.7222ZM93.94 20.0442C94.1764 19.8537 94.4742 19.6959 94.8508 19.5825L94.2742 17.6675C93.6821 17.8457 93.1465 18.115 92.685 18.487L93.94 20.0442ZM94.8602 19.5797C95.235 19.4628 95.6669 19.3984 96.1641 19.3984V17.3984C95.4946 17.3984 94.8587 17.4851 94.2648 17.6703L94.8602 19.5797ZM96.1641 19.3984C96.307 19.3984 96.4809 19.405 96.6882 19.4195L96.8274 17.4243C96.5869 17.4075 96.3649 17.3984 96.1641 17.3984V19.3984ZM96.6882 19.4195C96.8849 19.4332 97.1004 19.4564 97.3351 19.4899L97.618 17.5101C97.3423 17.4707 97.0786 17.4418 96.8274 17.4243L96.6882 19.4195ZM97.355 19.4926C97.5804 19.5202 97.8187 19.5597 98.0702 19.6119L98.4767 17.6537C98.1761 17.5913 97.8832 17.5423 97.5981 17.5074L97.355 19.4926ZM98.0913 19.6161C98.3373 19.6616 98.5845 19.7211 98.8331 19.7947L99.4013 17.8771C99.0873 17.7841 98.772 17.7081 98.4555 17.6495L98.0913 19.6161ZM98.1368 18.6388L97.8321 20.1545L99.7929 20.5487L100.098 19.033L98.1368 18.6388ZM98.3468 19.4666L98.1983 19.5448L99.1298 21.3146L99.2782 21.2365L98.3468 19.4666ZM99.0766 19.5187C98.7691 19.3795 98.4649 19.261 98.1642 19.1648L97.5546 21.0696C97.7747 21.14 98.0069 21.2299 98.2516 21.3406L99.0766 19.5187ZM98.1642 19.1648C97.8787 19.0734 97.6018 18.9974 97.3341 18.9379L96.9003 20.8902C97.1013 20.9349 97.3192 20.9943 97.5546 21.0696L98.1642 19.1648ZM97.3341 18.9379C97.0682 18.8788 96.8107 18.8353 96.563 18.8099L96.3589 20.7995C96.5174 20.8157 96.6974 20.8452 96.9003 20.8902L97.3341 18.9379ZM96.5656 18.8102C96.3431 18.7868 96.1325 18.7734 95.9375 18.7734V20.7734C96.0446 20.7734 96.1829 20.7809 96.3563 20.7992L96.5656 18.8102ZM95.9375 18.7734C95.573 18.7734 95.2174 18.8164 94.8787 18.9143L95.4338 20.8357C95.5639 20.7981 95.7291 20.7734 95.9375 20.7734V18.7734ZM94.8787 18.9143C94.5403 19.0121 94.2206 19.1639 93.939 19.3839L95.1703 20.9599C95.2221 20.9194 95.3035 20.8734 95.4338 20.8357L94.8787 18.9143ZM93.9269 19.3935C93.6472 19.6191 93.4285 19.8984 93.2726 20.2188L95.0711 21.0937C95.1027 21.0287 95.1393 20.9851 95.1824 20.9503L93.9269 19.3935ZM93.2676 20.2292C93.1057 20.5723 93.0391 20.9387 93.0391 21.3047H95.0391C95.0391 21.1811 95.061 21.1152 95.0761 21.0833L93.2676 20.2292ZM93.0391 21.3047C93.0391 21.7969 93.1585 22.2788 93.4414 22.7031L95.1055 21.5937C95.0759 21.5493 95.0391 21.4687 95.0391 21.3047H93.0391ZM93.4472 22.7118C93.6772 23.049 93.9678 23.3351 94.3048 23.5738L95.4608 21.9418C95.2978 21.8263 95.1822 21.7062 95.0997 21.5851L93.4472 22.7118ZM94.3127 23.5794C94.6282 23.7983 94.9757 23.9879 95.3507 24.1512L96.1493 22.3175C95.8785 22.1996 95.6478 22.0715 95.4529 21.9362L94.3127 23.5794ZM95.3685 24.1587C95.6917 24.2921 96.0204 24.4308 96.3544 24.5747L97.1456 22.7378C96.8026 22.5901 96.4645 22.4474 96.1315 22.31L95.3685 24.1587ZM96.3714 24.5818C96.6885 24.7115 96.9951 24.8529 97.2914 25.0058L98.2086 23.2286C97.859 23.0481 97.499 22.8822 97.1286 22.7307L96.3714 24.5818ZM97.2971 25.0088C97.5512 25.1378 97.7638 25.2853 97.9415 25.4481L99.2929 23.9738C98.9706 23.6783 98.6051 23.4299 98.2029 23.2256L97.2971 25.0088ZM97.9491 25.455C98.1091 25.5987 98.2388 25.7683 98.3399 25.9707L100.129 25.0762C99.9175 24.6536 99.6357 24.2815 99.2853 23.9669L97.9491 25.455ZM98.343 25.9767C98.412 26.1124 98.4688 26.319 98.4688 26.6328H100.469C100.469 26.0821 100.369 25.549 100.126 25.0702L98.343 25.9767ZM98.4688 26.6328C98.4688 26.9723 98.3987 27.2809 98.261 27.5705L100.067 28.4295C100.336 27.8649 100.469 27.2621 100.469 26.6328H98.4688ZM98.261 27.5705C98.1204 27.8661 97.9189 28.1308 97.6444 28.3672L98.9494 29.8828C99.4248 29.4734 99.8015 28.9881 100.067 28.4295L98.261 27.5705ZM97.6452 28.3665C97.3794 28.5949 97.0439 28.7901 96.6222 28.9419L97.2997 30.8237C97.9197 30.6005 98.4748 30.2905 98.9485 29.8835L97.6452 28.3665ZM96.6306 28.939C96.2315 29.0786 95.7646 29.1562 95.2188 29.1562V31.1562C95.9541 31.1562 96.6487 31.0516 97.2913 30.8267L96.6306 28.939ZM95.2188 29.1562C95.0048 29.1562 94.7737 29.1413 94.5247 29.1096L94.2722 31.0936C94.5961 31.1348 94.9119 31.1562 95.2188 31.1562V29.1562ZM94.5069 29.1075C94.2549 29.08 93.9958 29.0385 93.7294 28.9824L93.3174 30.9395C93.6449 31.0084 93.9691 31.0607 94.29 31.0957L94.5069 29.1075ZM93.7294 28.9824C93.4667 28.9271 93.2058 28.8578 92.9466 28.7745L92.3346 30.6786C92.6588 30.7828 92.9865 30.8698 93.3174 30.9395L93.7294 28.9824ZM92.9466 28.7745C92.6873 28.6912 92.439 28.5968 92.2014 28.4917L91.3924 30.3208C91.6964 30.4553 92.0106 30.5745 92.3346 30.6786L92.9466 28.7745ZM92.7767 29.6062L93.0892 28.075L91.1296 27.675L90.8171 29.2063L92.7767 29.6062ZM92.5566 28.7694L92.7128 28.6913L91.8184 26.9024L91.6622 26.9806L92.5566 28.7694ZM91.7856 28.6741C92.3825 29.0007 92.9753 29.2653 93.5638 29.4634L94.2019 27.5679C93.7382 27.4118 93.2529 27.1972 92.7456 26.9196L91.7856 28.6741ZM93.5638 29.4634C94.1791 29.6705 94.7948 29.7812 95.4062 29.7812V27.7812C95.0386 27.7812 94.6386 27.7149 94.2019 27.5679L93.5638 29.4634ZM108.289 27.0469L109.238 26.7329L109.012 26.0469H108.289V27.0469ZM103.703 27.0469V26.0469H102.977L102.752 26.7374L103.703 27.0469ZM102.742 30V31H103.468L103.693 30.3094L102.742 30ZM101.008 30L100.065 29.6661L99.5926 31H101.008V30ZM105.062 18.5547V17.5547H104.356L104.12 18.2208L105.062 18.5547ZM107.258 18.5547L108.2 18.2208L107.964 17.5547H107.258V18.5547ZM111.312 30V31H112.728L112.255 29.6661L111.312 30ZM109.266 30L108.316 30.314L108.543 31H109.266V30ZM107.859 25.7188V26.7188H109.231L108.812 25.4131L107.859 25.7188ZM106.5 21.4844L105.533 21.7389L105.54 21.7647L105.548 21.79L106.5 21.4844ZM106.07 19.8516L107.037 19.5971L106.841 18.8516H106.07V19.8516ZM105.914 19.8516V18.8516H105.14L104.946 19.6014L105.914 19.8516ZM105.492 21.4844L106.443 21.7932L106.453 21.7641L106.46 21.7345L105.492 21.4844ZM104.117 25.7188L103.166 25.4099L102.741 26.7188H104.117V25.7188ZM108.289 26.0469H103.703V28.0469H108.289V26.0469ZM102.752 26.7374L101.791 29.6906L103.693 30.3094L104.654 27.3563L102.752 26.7374ZM102.742 29H101.008V31H102.742V29ZM101.95 30.3339L106.005 18.8886L104.12 18.2208L100.065 29.6661L101.95 30.3339ZM105.062 19.5547H107.258V17.5547H105.062V19.5547ZM106.315 18.8886L110.37 30.3339L112.255 29.6661L108.2 18.2208L106.315 18.8886ZM111.312 29H109.266V31H111.312V29ZM110.215 29.686L109.238 26.7329L107.34 27.3608L108.316 30.314L110.215 29.686ZM108.812 25.4131L107.452 21.1787L105.548 21.79L106.907 26.0244L108.812 25.4131ZM107.467 21.2299L107.037 19.5971L105.103 20.1061L105.533 21.7389L107.467 21.2299ZM106.07 18.8516H105.914V20.8516H106.07V18.8516ZM104.946 19.6014L104.524 21.2342L106.46 21.7345L106.882 20.1017L104.946 19.6014ZM104.541 21.1755L103.166 25.4099L105.068 26.0276L106.443 21.7932L104.541 21.1755ZM104.117 26.7188H107.859V24.7188H104.117V26.7188ZM113.148 30L112.151 29.9238L112.069 31H113.148V30ZM114.023 18.5547V17.5547H113.097L113.026 18.4785L114.023 18.5547ZM116.859 18.5547L117.807 18.2366L117.579 17.5547H116.859V18.5547ZM119.312 25.8672L120.281 25.6184L120.272 25.5834L120.261 25.5491L119.312 25.8672ZM119.75 27.5703L118.781 27.8191L118.974 28.5703H119.75V27.5703ZM119.906 27.5703V28.5703H120.678L120.874 27.8233L119.906 27.5703ZM120.352 25.8672L119.404 25.5482L119.393 25.5809L119.384 25.6142L120.352 25.8672ZM122.812 18.5547V17.5547H122.094L121.865 18.2357L122.812 18.5547ZM125.727 18.5547L126.724 18.4778L126.652 17.5547H125.727V18.5547ZM126.609 30V31H127.689L127.606 29.9231L126.609 30ZM124.609 30L123.611 30.062L123.67 31H124.609V30ZM124.078 21.4453L123.078 21.4716L123.079 21.4895L123.08 21.5073L124.078 21.4453ZM124.031 19.6641L125.031 19.6378L125.005 18.6641H124.031V19.6641ZM123.875 19.6641V18.6641H123.113L122.911 19.3987L123.875 19.6641ZM123.406 21.3672L124.355 21.6824L124.363 21.6576L124.37 21.6325L123.406 21.3672ZM120.617 29.7656V30.7656H121.339L121.566 30.0808L120.617 29.7656ZM118.852 29.7656L117.903 30.0837L118.132 30.7656H118.852V29.7656ZM116.039 21.3828L115.077 21.6541L115.083 21.6777L115.091 21.7009L116.039 21.3828ZM115.555 19.6641L116.517 19.3928L116.312 18.6641H115.555V19.6641ZM115.398 19.6641V18.6641H114.42L114.399 19.6419L115.398 19.6641ZM115.359 21.4297L116.358 21.4906L116.359 21.4712L116.359 21.4518L115.359 21.4297ZM114.836 30V31H115.777L115.834 30.061L114.836 30ZM114.146 30.0762L115.021 18.6309L113.026 18.4785L112.151 29.9238L114.146 30.0762ZM114.023 19.5547H116.859V17.5547H114.023V19.5547ZM115.911 18.8727L118.364 26.1852L120.261 25.5491L117.807 18.2366L115.911 18.8727ZM118.344 26.116L118.781 27.8191L120.719 27.3215L120.281 25.6184L118.344 26.116ZM119.75 28.5703H119.906V26.5703H119.75V28.5703ZM120.874 27.8233L121.319 26.1202L119.384 25.6142L118.939 27.3173L120.874 27.8233ZM121.299 26.1861L123.76 18.8736L121.865 18.2357L119.404 25.5482L121.299 26.1861ZM122.812 19.5547H125.727V17.5547H122.812V19.5547ZM124.73 18.6316L125.612 30.0769L127.606 29.9231L126.724 18.4778L124.73 18.6316ZM126.609 29H124.609V31H126.609V29ZM125.607 29.938L125.076 21.3833L123.08 21.5073L123.611 30.062L125.607 29.938ZM125.078 21.419L125.031 19.6378L123.032 19.6904L123.078 21.4716L125.078 21.419ZM124.031 18.6641H123.875V20.6641H124.031V18.6641ZM122.911 19.3987L122.442 21.1018L124.37 21.6325L124.839 19.9294L122.911 19.3987ZM122.457 21.052L119.668 29.4505L121.566 30.0808L124.355 21.6824L122.457 21.052ZM120.617 28.7656H118.852V30.7656H120.617V28.7656ZM119.8 29.4475L116.987 21.0647L115.091 21.7009L117.903 30.0837L119.8 29.4475ZM117.002 21.1116L116.517 19.3928L114.592 19.9353L115.077 21.6541L117.002 21.1116ZM115.555 18.6641H115.398V20.6641H115.555V18.6641ZM114.399 19.6419L114.36 21.4076L116.359 21.4518L116.398 19.6862L114.399 19.6419ZM114.361 21.3687L113.838 29.939L115.834 30.061L116.358 21.4906L114.361 21.3687ZM114.836 29H113.148V31H114.836V29ZM138.68 29.3984L139.04 30.3314L139.68 30.0845V29.3984H138.68ZM136.602 29.9922L136.766 30.9786L136.774 30.9773L136.602 29.9922ZM132.312 29.7656L131.966 30.7037L131.974 30.7066L132.312 29.7656ZM130.477 28.6484L129.784 29.3703L129.788 29.374L130.477 28.6484ZM129.836 21.2578L130.684 21.7878L130.687 21.7835L129.836 21.2578ZM132.188 19.1406L132.635 20.0351L132.642 20.0311L132.188 19.1406ZM136.742 18.5L136.601 19.4899L136.612 19.4915L136.623 19.4929L136.742 18.5ZM137.547 18.6328L137.344 19.6119L137.353 19.6138L137.361 19.6155L137.547 18.6328ZM138.383 18.8359L139.363 19.034L139.544 18.1371L138.667 17.8771L138.383 18.8359ZM138.078 20.3438L138.525 21.2382L138.962 21.02L139.058 20.5418L138.078 20.3438ZM137.922 20.4219L137.499 21.3281L137.937 21.5324L138.369 21.3163L137.922 20.4219ZM133.414 20.1172L133.812 21.0344L133.82 21.031L133.414 20.1172ZM132.086 21.0547L132.817 21.7374L132.821 21.7326L132.086 21.0547ZM131.227 22.4688L130.289 22.1206L130.287 22.1256L131.227 22.4688ZM131.203 25.9766L130.254 26.2928L130.257 26.3009L131.203 25.9766ZM132.016 27.4219L131.254 28.0695L132.016 27.4219ZM135.969 28.7109L135.829 27.7207L135.827 27.721L135.969 28.7109ZM136.953 28.4844L137.26 29.4361L137.953 29.2125V28.4844H136.953ZM136.953 24.5312V23.5312H135.953V24.5312H136.953ZM138.68 24.5312H139.68V23.5312H138.68V24.5312ZM138.32 28.4654C137.641 28.7272 137.012 28.9054 136.43 29.0071L136.774 30.9773C137.504 30.8498 138.26 30.6322 139.04 30.3314L138.32 28.4654ZM136.437 29.0058C135.826 29.1077 135.272 29.1562 134.773 29.1562V31.1562C135.4 31.1562 136.065 31.0954 136.766 30.9786L136.437 29.0058ZM134.773 29.1562C133.951 29.1562 133.248 29.0393 132.651 28.8247L131.974 30.7066C132.825 31.0127 133.763 31.1562 134.773 31.1562V29.1562ZM132.659 28.8276C132.055 28.6042 131.562 28.2999 131.165 27.9229L129.788 29.374C130.401 29.9554 131.133 30.3958 131.966 30.7036L132.659 28.8276ZM131.169 27.9266C130.773 27.5477 130.467 27.0886 130.252 26.5356L128.388 27.2612C128.704 28.0728 129.169 28.7804 129.784 29.3703L131.169 27.9266ZM130.252 26.5356C130.038 25.9845 129.922 25.3495 129.922 24.6172H127.922C127.922 25.562 128.072 26.4477 128.388 27.2612L130.252 26.5356ZM129.922 24.6172C129.922 24.0431 129.992 23.5276 130.125 23.065L128.203 22.5132C128.013 23.1755 127.922 23.8788 127.922 24.6172H129.922ZM130.125 23.065C130.263 22.5847 130.451 22.1609 130.684 21.7878L128.988 20.7278C128.648 21.2714 128.388 21.8685 128.203 22.5132L130.125 23.065ZM130.687 21.7835C130.922 21.4019 131.203 21.0688 131.529 20.7808L130.205 19.2817C129.729 19.702 129.322 20.1867 128.985 20.7321L130.687 21.7835ZM131.529 20.7808C131.865 20.4841 132.233 20.2359 132.635 20.0351L131.74 18.2462C131.184 18.5245 130.671 18.8701 130.205 19.2817L131.529 20.7808ZM132.642 20.0311C133.046 19.8249 133.479 19.6675 133.944 19.5603L133.494 17.6115C132.875 17.7544 132.287 17.9668 131.733 18.2501L132.642 20.0311ZM133.944 19.5603C134.409 19.4529 134.891 19.3984 135.391 19.3984V17.3984C134.744 17.3984 134.112 17.469 133.494 17.6115L133.944 19.5603ZM135.391 19.3984C135.551 19.3984 135.736 19.4051 135.948 19.4196L136.084 17.4242C135.837 17.4074 135.605 17.3984 135.391 17.3984V19.3984ZM135.948 19.4196C136.149 19.4333 136.367 19.4566 136.601 19.4899L136.884 17.5101C136.607 17.4705 136.34 17.4417 136.084 17.4242L135.948 19.4196ZM136.623 19.4929C136.853 19.5205 137.093 19.56 137.344 19.6119L137.75 17.6537C137.448 17.591 137.152 17.542 136.861 17.5071L136.623 19.4929ZM137.361 19.6155C137.603 19.661 137.849 19.7206 138.099 19.7947L138.667 17.8771C138.355 17.7846 138.043 17.7088 137.732 17.6502L137.361 19.6155ZM137.403 18.6379L137.098 20.1457L139.058 20.5418L139.363 19.034L137.403 18.6379ZM137.631 19.4493L137.475 19.5274L138.369 21.3163L138.525 21.2382L137.631 19.4493ZM138.345 19.5157C137.739 19.2328 137.144 19.03 136.565 18.9229L136.201 20.8896C136.58 20.9596 137.011 21.1005 137.499 21.3281L138.345 19.5157ZM136.565 18.9229C136.047 18.8273 135.569 18.7734 135.141 18.7734V20.7734C135.41 20.7734 135.76 20.8081 136.201 20.8896L136.565 18.9229ZM135.141 18.7734C134.383 18.7734 133.667 18.9106 133.008 19.2034L133.82 21.031C134.193 20.8654 134.627 20.7734 135.141 20.7734V18.7734ZM133.016 19.2C132.376 19.4777 131.818 19.8703 131.351 20.3768L132.821 21.7326C133.094 21.437 133.421 21.2046 133.812 21.0344L133.016 19.2ZM131.355 20.372C130.888 20.8718 130.535 21.4593 130.289 22.1206L132.164 22.8169C132.325 22.3845 132.544 22.0292 132.817 21.7373L131.355 20.372ZM130.287 22.1256C130.045 22.7887 129.93 23.4974 129.93 24.2422H131.93C131.93 23.7057 132.012 23.2321 132.166 22.8119L130.287 22.1256ZM129.93 24.2422C129.93 24.9529 130.036 25.6383 130.254 26.2928L132.152 25.6603C132.005 25.2211 131.93 24.7502 131.93 24.2422H129.93ZM130.257 26.3009C130.483 26.9592 130.814 27.5522 131.254 28.0695L132.778 26.7742C132.509 26.4582 132.298 26.0876 132.149 25.6522L130.257 26.3009ZM131.254 28.0695C131.702 28.5968 132.248 29.0125 132.88 29.3157L133.745 27.5124C133.356 27.3261 133.038 27.0803 132.778 26.7742L131.254 28.0695ZM132.88 29.3157C133.545 29.6348 134.28 29.7812 135.062 29.7812V27.7812C134.532 27.7812 134.1 27.6829 133.745 27.5124L132.88 29.3157ZM135.062 29.7812C135.394 29.7812 135.744 29.7532 136.11 29.7009L135.827 27.721C135.537 27.7625 135.283 27.7812 135.062 27.7812V29.7812ZM136.108 29.7012C136.499 29.6463 136.883 29.5578 137.26 29.4361L136.646 27.5327C136.377 27.6193 136.105 27.6819 135.829 27.7207L136.108 29.7012ZM137.953 28.4844V24.5312H135.953V28.4844H137.953ZM136.953 25.5312H138.68V23.5312H136.953V25.5312ZM137.68 24.5312V29.3984H139.68V24.5312H137.68ZM146.273 30V31H147.273V30H146.273ZM144.328 30H143.328V31H144.328V30ZM144.328 19.9297H145.328V18.9297H144.328V19.9297ZM140.617 19.9297L139.634 19.7454L139.412 20.9297H140.617V19.9297ZM140.875 18.5547V17.5547H140.045L139.892 18.3704L140.875 18.5547ZM150.102 18.5547L151.084 18.739L151.306 17.5547H150.102V18.5547ZM149.844 19.9297V20.9297H150.674L150.827 20.114L149.844 19.9297ZM146.273 19.9297V18.9297H145.273V19.9297H146.273ZM146.273 29H144.328V31H146.273V29ZM145.328 30V19.9297H143.328V30H145.328ZM144.328 18.9297H140.617V20.9297H144.328V18.9297ZM141.6 20.114L141.858 18.739L139.892 18.3704L139.634 19.7454L141.6 20.114ZM140.875 19.5547H150.102V17.5547H140.875V19.5547ZM149.119 18.3704L148.861 19.7454L150.827 20.114L151.084 18.739L149.119 18.3704ZM149.844 18.9297H146.273V20.9297H149.844V18.9297ZM145.273 19.9297V30H147.273V19.9297H145.273ZM154 18.5547H155V17.5547H154V18.5547ZM154.242 27.0859L153.32 27.4723L153.324 27.4828L154.242 27.0859ZM154.891 28.0391L154.205 28.7673L154.212 28.7739L154.891 28.0391ZM155.805 28.6016L155.458 29.5397L155.471 29.5443L155.805 28.6016ZM157.828 28.5938L157.462 27.6632L157.457 27.6653L157.828 28.5938ZM158.656 28.0391L157.934 27.3475L158.656 28.0391ZM159.211 27.1172L158.276 26.7617L158.272 26.7733L159.211 27.1172ZM159.422 18.5547V17.5547H158.422V18.5547H159.422ZM161.094 18.5547H162.094V17.5547H161.094V18.5547ZM160.969 26.7812L159.995 26.5553L159.992 26.5658L160.969 26.7812ZM159.969 28.7266L159.222 28.0613L159.215 28.069L159.969 28.7266ZM159.078 29.4766L159.596 30.3318L159.606 30.326L159.078 29.4766ZM157.906 29.9766L158.173 30.9403L158.181 30.9381L157.906 29.9766ZM154.672 29.8672L154.329 30.8065L154.337 30.8093L154.672 29.8672ZM153.273 29L152.571 29.7119L152.576 29.7166L153.273 29ZM152.375 27.6016L151.438 27.9517L151.442 27.9623L152.375 27.6016ZM152.062 18.5547V17.5547H151.062V18.5547H152.062ZM153 18.5547V25.7188H155V18.5547H153ZM153 25.7188C153 26.3444 153.096 26.9373 153.32 27.4723L155.165 26.6996C155.066 26.4637 155 26.1452 155 25.7188H153ZM153.324 27.4828C153.537 27.9746 153.826 28.4108 154.205 28.7673L155.576 27.3109C155.424 27.1674 155.281 26.9681 155.16 26.689L153.324 27.4828ZM154.212 28.7739C154.577 29.1108 154.994 29.3683 155.458 29.5397L156.151 27.6635C155.938 27.5848 155.746 27.4674 155.569 27.3043L154.212 28.7739ZM155.471 29.5443C155.912 29.7003 156.366 29.7812 156.828 29.7812V27.7812C156.603 27.7812 156.375 27.7424 156.138 27.6588L155.471 29.5443ZM156.828 29.7812C157.303 29.7812 157.763 29.6969 158.2 29.5222L157.457 27.6653C157.268 27.7406 157.062 27.7812 156.828 27.7812V29.7812ZM158.194 29.5243C158.646 29.3468 159.043 29.0807 159.379 28.7306L157.934 27.3475C157.8 27.487 157.646 27.5907 157.462 27.6632L158.194 29.5243ZM159.379 28.7306C159.723 28.3713 159.975 27.9397 160.15 27.4611L158.272 26.7733C158.176 27.0343 158.059 27.2173 157.934 27.3475L159.379 28.7306ZM160.146 27.4726C160.339 26.9648 160.422 26.4073 160.422 25.8203H158.422C158.422 26.2229 158.364 26.53 158.276 26.7617L160.146 27.4726ZM160.422 25.8203V18.5547H158.422V25.8203H160.422ZM159.422 19.5547H161.094V17.5547H159.422V19.5547ZM160.094 18.5547V25.7109H162.094V18.5547H160.094ZM160.094 25.7109C160.094 25.986 160.061 26.267 159.995 26.5554L161.943 27.0071C162.043 26.5768 162.094 26.1442 162.094 25.7109H160.094ZM159.992 26.5658C159.933 26.8364 159.839 27.0978 159.71 27.3518L161.493 28.2576C161.697 27.8553 161.849 27.4345 161.945 26.9967L159.992 26.5658ZM159.71 27.3518C159.584 27.6 159.422 27.8364 159.222 28.0614L160.715 29.3918C161.025 29.0438 161.286 28.6656 161.493 28.2576L159.71 27.3518ZM159.215 28.069C159.035 28.276 158.815 28.4626 158.55 28.6271L159.606 30.326C160.028 30.0634 160.403 29.75 160.722 29.3841L159.215 28.069ZM158.56 28.6214C158.301 28.778 157.995 28.9113 157.632 29.015L158.181 30.9381C158.693 30.7918 159.167 30.5918 159.596 30.3318L158.56 28.6214ZM157.639 29.0129C157.307 29.1048 156.92 29.1562 156.469 29.1562V31.1562C157.07 31.1562 157.641 31.0879 158.173 30.9402L157.639 29.0129ZM156.469 29.1562C155.911 29.1562 155.427 29.0745 155.007 28.925L154.337 30.8093C155 31.0453 155.714 31.1562 156.469 31.1562V29.1562ZM155.015 28.9279C154.598 28.7756 154.255 28.5596 153.971 28.2834L152.576 29.7166C153.073 30.2008 153.662 30.563 154.329 30.8065L155.015 28.9279ZM153.976 28.2881C153.7 28.0163 153.475 27.6733 153.308 27.2408L151.442 27.9623C151.702 28.634 152.076 29.2233 152.571 29.7119L153.976 28.2881ZM153.312 27.2514C153.153 26.8267 153.062 26.3109 153.062 25.6875H151.062C151.062 26.5016 151.18 27.2618 151.438 27.9517L153.312 27.2514ZM153.062 25.6875V18.5547H151.062V25.6875H153.062ZM152.062 19.5547H154V17.5547H152.062V19.5547Z" fill="#2ED7D9" fill-opacity="0.43"/>
</g>
<g filter="url(#filter1_d_63_3)">
<path d="M43.6831 22.8436C43.6831 31.4154 36.7869 38.3642 28.28 38.3642C23.9578 38.3642 21.2253 37.3648 18.2858 34.2489C26.7516 33.0731 25.9872 27.8244 25.9872 23.6078C24.2315 20.5315 17.7015 14.496 16.9336 12.3789C21.6956 8.49876 22.5187 7.32297 28.28 7.32294C36.7869 7.32294 43.6831 14.2718 43.6831 22.8436Z" fill="#CCE6E4" fill-opacity="0.42" shape-rendering="crispEdges"/>
</g>
<g filter="url(#filter2_f_63_3)">
<path d="M22.9395 24.8878C22.9395 30.2485 20.463 33.4105 15.3638 33.4105C16.074 32.7003 5.65735 35.5412 4.47363 23.7041C5.89409 18.7325 11.9218 15.6548 17.021 15.6548C22.1202 15.6548 22.9395 19.5271 22.9395 24.8878Z" fill="white"/>
</g>
<path d="M32.2406 39.0885C38.0608 35.326 38.7663 34.9144 40.7064 33.4447C42.3525 29.5645 43.2344 27.2129 44.2338 23.9794C44.2338 18.3356 42.8229 17.6889 41.8822 13.7226C38.0021 11.5747 37.1202 10.0461 33.1813 7.32294H23.2457C19.7183 9.98735 18.8952 10.3401 14.8387 13.7226C13.4699 17.0753 14.4168 15.6312 17.8958 15.6312C22.1287 15.6312 23.1869 20.7146 23.1869 21.863C23.1869 23.4419 25.9501 24.2734 25.9501 25.0377C24.5979 26.331 23.8336 26.2723 24.7742 27.0953C24.8851 27.4444 23.6572 28.036 24.7742 28.036C23.1869 30.0348 24.7154 29.2706 24.5391 30.7403C23.4808 32.3864 20.0122 31.8573 19.1892 33.5035C18.4249 33.2683 16.7025 33.5303 16.1321 33.8562C19.3655 36.149 20.1886 36.8545 24.3627 39.0885H32.2406Z" fill="#D9E9E9"/>
<path d="M28.0073 7.86996L28.2425 22.8036" stroke="white" stroke-width="0.3"/>
<line x1="23.2647" y1="7.25173" x2="27.9679" y2="7.83963" stroke="white" stroke-width="0.3"/>
<line x1="17.014" y1="15.0681" x2="23.1282" y2="7.30774" stroke="white" stroke-width="0.3"/>
<line x1="14.8373" y1="13.6125" x2="28.0064" y2="7.85101" stroke="white" stroke-width="0.3"/>
<line x1="27.9323" y1="7.83942" x2="33.1058" y2="7.25152" stroke="white" stroke-width="0.3"/>
<line x1="28.0072" y1="7.85011" x2="41.7641" y2="13.6116" stroke="white" stroke-width="0.3"/>
<line x1="33.2424" y1="7.31104" x2="44.1774" y2="22.0086" stroke="white" stroke-width="0.3"/>
<line x1="22.217" y1="18.5665" x2="28.0961" y2="14.3336" stroke="white" stroke-width="0.3"/>
<line x1="19.8864" y1="11.3746" x2="28.117" y2="14.3141" stroke="white" stroke-width="0.3"/>
<line x1="28.1586" y1="14.2195" x2="36.1541" y2="20.4513" stroke="white" stroke-width="0.3"/>
<line x1="28.0165" y1="14.1964" x2="36.012" y2="11.3744" stroke="white" stroke-width="0.3"/>
<line x1="28.1432" y1="22.6595" x2="41.665" y2="18.7793" stroke="white" stroke-width="0.3"/>
<line x1="35.7943" y1="20.3324" x2="35.9119" y2="11.3963" stroke="white" stroke-width="0.3"/>
<line x1="23.2873" y1="21.2484" x2="28.2257" y2="22.6594" stroke="white" stroke-width="0.3"/>
<line x1="28.313" y1="22.7635" x2="24.1977" y2="29.5832" stroke="white" stroke-width="0.3"/>
<line x1="41.856" y1="13.7547" x2="41.2718" y2="32.0973" stroke="white" stroke-width="0.3"/>
<line x1="28.311" y1="22.6053" x2="36.1889" y2="34.9513" stroke="white" stroke-width="0.3"/>
<line x1="36.2038" y1="20.4995" x2="33.0292" y2="30.0235" stroke="white" stroke-width="0.3"/>
<line x1="36.1872" y1="20.2525" x2="41.2432" y2="28.0128" stroke="white" stroke-width="0.3"/>
<line x1="41.2394" y1="28.0656" x2="33.9494" y2="38.0599" stroke="white" stroke-width="0.3"/>
<line x1="41.1536" y1="28.1229" x2="32.9229" y2="30.1218" stroke="white" stroke-width="0.3"/>
<line x1="32.8877" y1="30.1261" x2="24.6571" y2="30.1261" stroke="white" stroke-width="0.3"/>
<path d="M33.9834 38.0114L16.9342 33.6609" stroke="white" stroke-width="0.3"/>
<line x1="24.1887" y1="31.1798" x2="28.304" y2="36.7061" stroke="white" stroke-width="0.3"/>
<line x1="19.0027" y1="33.3985" x2="24.4491" y2="38.9647" stroke="white" stroke-width="0.3"/>
<line x1="33.0112" y1="30.0612" x2="28.308" y2="36.8809" stroke="white" stroke-width="0.3"/>
<line x1="28.2564" y1="36.9274" x2="24.3762" y2="39.0438" stroke="white" stroke-width="0.3"/>
<line x1="28.2577" y1="36.6648" x2="32.2555" y2="38.8988" stroke="white" stroke-width="0.3"/>
<line x1="41.1158" y1="27.769" x2="44.0553" y2="23.8889" stroke="white" stroke-width="0.3"/>
<line x1="36.0141" y1="34.7721" x2="40.5997" y2="33.2436" stroke="white" stroke-width="0.3"/>
<line x1="28.1502" y1="36.6497" x2="36.1457" y2="34.7684" stroke="white" stroke-width="0.3"/>
<path d="M19.8408 11.3581L15.4052 13.2608L22.6772 7.80854L19.8408 11.3581Z" fill="#FFCE54"/>
<path d="M23.2833 7.44054L27.4394 7.94289L20.4782 10.9719L23.2833 7.44054Z" fill="#FA5E6B"/>
<path d="M25.1797 11.9675L27.7972 8.18702L20.3442 11.4971L25.1797 11.9675Z" fill="url(#paint0_linear_63_3)"/>
<path d="M27.9281 7.79333L24.7205 7.35241L31.1356 7.35241L27.9281 7.79333Z" fill="#FF8F5A"/>
<path d="M19.4028 11.791L16.6397 15.0833L16.2282 13.7311L15.4639 13.4959L19.4028 11.791Z" fill="url(#paint1_linear_63_3)"/>
<path d="M33.2067 7.38325L34.2666 9.32732L31.0315 7.79738L33.2067 7.38325Z" fill="url(#paint2_linear_63_3)"/>
<path d="M36.2167 11.2031L33.5711 7.44054L37.2161 10.2037L40.2455 12.7872L36.2167 11.2031Z" fill="#E577BE"/>
<path d="M19.3633 16.0464L20.3685 12.9541L22.5404 16.7382L19.3633 16.0464Z" fill="#5A00CF"/>
<path d="M23.3386 12.9108L22.1792 17.2894L19.9386 15.9034L23.3386 12.9108Z" fill="#4325B7"/>
<path d="M21.8739 13.8914L24.9546 13.5167L20.0345 16.391L21.8739 13.8914Z" fill="#7A47C3"/>
<path d="M23.2938 15.9872L25.0546 13.353L20.1344 16.2273L23.2938 15.9872Z" fill="#6823B2"/>
<path d="M24.9674 13.333L22.9772 15.8378L24.6203 16.5133L24.9674 13.333Z" fill="#7950DC"/>
<path d="M41.7433 13.79L41.4494 18.258L36.7461 11.7323L41.7433 13.79Z" fill="url(#paint3_linear_63_3)"/>
<path d="M41.0374 32.7792L38.9798 33.661L36.9154 34.2986L41.2138 28.2523L41.0374 32.7792Z" fill="url(#paint4_linear_63_3)"/>
<path d="M19.6109 14.6382L16.9784 15.3134L19.7245 11.9229L19.6109 14.6382Z" fill="#985A86"/>
<path d="M41.6844 18.7283L41.9448 14.3191L43.4481 18.0816L44.0948 21.6678L41.6844 18.7283Z" fill="#0067D2"/>
<path d="M19.917 11.6454L22.4601 12.6038L18.2652 13.8034L19.917 11.6454Z" fill="#B2368C"/>
<path d="M26.2821 11.2382L27.7341 12.2965L25.2818 13.2019L24.3411 12.8492L25.2818 12.4965L26.2821 11.2382Z" fill="url(#paint5_linear_63_3)"/>
<path d="M31.3959 11.5559L30.808 13.1433L28.3219 13.9026L28.3219 12.5553L28.9855 11.5559L28.6916 10.674L31.3959 11.5559Z" fill="url(#paint6_linear_63_3)"/>
<path d="M26.5166 25.0188C26.4299 25.3657 25.282 26.0182 24.9881 26.5474C24.911 26.7713 25.4369 26.9982 25.3408 27.2528C25.2578 27.4729 24.9328 27.6066 24.8366 27.8407C24.7858 27.9645 25.3951 28.0088 25.3408 28.1347C25.164 28.5448 24.8454 28.8457 24.6353 29.2517C24.6353 29.9572 25.4019 30.2449 25.1644 30.6039C24.8366 31.6621 22.754 32.1912 21.8722 32.3676C21.461 32.5595 20.6376 32.544 19.6969 33.5434C19.1678 33.5434 17.7568 33.7198 17.1689 33.5434C17.2865 33.3082 17.3453 33.2494 17.3453 33.2494C19.5206 33.4846 19.4618 31.3094 18.8151 31.0154C18.9914 30.3687 18.9914 30.6039 19.109 30.1336C22.5189 28.899 19.6969 26.077 18.1096 27.2528C18.096 26.8939 18.1096 26.371 17.3453 25.9007C18.1096 25.1364 17.7295 24.6161 17.6981 24.2545C17.9332 23.9606 18.0508 23.6666 18.2272 23.1963C21.5782 22.1381 19.2266 19.7277 18.1684 19.9628C19.9909 18.3755 18.286 17.6112 17.7568 17.3761C17.8452 17.0527 17.8744 16.9058 17.6393 16.4942C18.2272 16.2003 18.1096 15.7887 18.4035 15.6124C19.403 15.7887 20.9031 15.9964 22.1073 17.3761C23.1389 18.5579 23.5771 20.2568 23.7534 22.0793C23.9886 23.3727 26.6636 24.4309 26.5166 25.0188Z" fill="url(#paint7_linear_63_3)"/>
<line x1="16.8536" y1="15.6999" x2="16.5022" y2="16.8712" stroke="#4C235F" stroke-width="0.2"/>
<line x1="11.4446" y1="16.6319" x2="16.6182" y2="15.4561" stroke="#4C235F" stroke-width="0.2"/>
<line x1="8.76696" y1="18.2916" x2="10.7658" y2="16.9982" stroke="#4C235F" stroke-width="0.2"/>
<line x1="5.81892" y1="20.6494" x2="8.28811" y2="18.6506" stroke="#4C235F" stroke-width="0.2"/>
<line x1="4.49685" y1="23.5078" x2="5.67266" y2="20.921" stroke="#4C235F" stroke-width="0.2"/>
<line x1="4.567" y1="24.11" x2="5.39006" y2="27.0495" stroke="#4C235F" stroke-width="0.2"/>
<line x1="5.68915" y1="27.0098" x2="7.68802" y2="24.7758" stroke="#4C235F" stroke-width="0.2"/>
<line x1="5.73411" y1="27.8514" x2="7.02749" y2="30.203" stroke="#4C235F" stroke-width="0.2"/>
<line x1="7.03446" y1="30.0363" x2="9.50365" y2="29.4484" stroke="#4C235F" stroke-width="0.2"/>
<line x1="10.0903" y1="29.8622" x2="10.9133" y2="31.9786" stroke="#4C235F" stroke-width="0.2"/>
<line x1="11.1666" y1="32.0326" x2="13.0479" y2="31.9151" stroke="#4C235F" stroke-width="0.2"/>
<line x1="13.5785" y1="32.0483" x2="15.2246" y2="33.1066" stroke="#4C235F" stroke-width="0.2"/>
<line x1="15.8217" y1="33.1067" x2="17.8205" y2="31.8133" stroke="#4C235F" stroke-width="0.2"/>
<line x1="17.6568" y1="31.7797" x2="17.6568" y2="30.4863" stroke="#4C235F" stroke-width="0.2"/>
<line x1="17.7906" y1="30.0799" x2="18.6137" y2="28.7865" stroke="#4C235F" stroke-width="0.2"/>
<line x1="16.6191" y1="27.4544" x2="18.618" y2="28.2775" stroke="#4C235F" stroke-width="0.2"/>
<line x1="16.3283" y1="25.3057" x2="16.4458" y2="26.9518" stroke="#4C235F" stroke-width="0.2"/>
<line x1="16.9093" y1="23.4687" x2="16.4389" y2="24.6445" stroke="#4C235F" stroke-width="0.2"/>
<line x1="17.8412" y1="22.0742" x2="17.0181" y2="23.3676" stroke="#4C235F" stroke-width="0.2"/>
<line x1="17.5006" y1="19.0542" x2="18.0886" y2="21.1707" stroke="#4C235F" stroke-width="0.2"/>
<line x1="16.5517" y1="17.387" x2="17.2571" y2="18.6804" stroke="#4C235F" stroke-width="0.2"/>
<line x1="11.2997" y1="16.7475" x2="16.1206" y2="17.2178" stroke="#4C235F" stroke-width="0.2"/>
<line x1="9.78571" y1="20.3408" x2="10.9615" y2="17.0485" stroke="#4C235F" stroke-width="0.2"/>
<line x1="9.55509" y1="20.5367" x2="8.61444" y2="18.6554" stroke="#4C235F" stroke-width="0.2"/>
<line x1="13.3272" y1="19.9641" x2="11.2108" y2="17.1422" stroke="#4C235F" stroke-width="0.2"/>
<line x1="13.9244" y1="19.7158" x2="16.1584" y2="17.4818" stroke="#4C235F" stroke-width="0.2"/>
<line x1="14.0776" y1="20.0454" x2="17.2522" y2="18.8696" stroke="#4C235F" stroke-width="0.2"/>
<line x1="11.3865" y1="22.9812" x2="17.7359" y2="21.5702" stroke="#4C235F" stroke-width="0.2"/>
<line x1="4.65579" y1="23.5802" x2="9.71175" y2="20.6407" stroke="#4C235F" stroke-width="0.2"/>
<line x1="7.79624" y1="24.0727" x2="5.79737" y2="20.898" stroke="#4C235F" stroke-width="0.2"/>
<line x1="8.37704" y1="23.7444" x2="9.55285" y2="21.04" stroke="#4C235F" stroke-width="0.2"/>
<line x1="10.1043" y1="20.5101" x2="13.6317" y2="20.1574" stroke="#4C235F" stroke-width="0.2"/>
<line x1="4.60547" y1="23.8034" x2="7.89772" y2="24.3913" stroke="#4C235F" stroke-width="0.2"/>
<line x1="8.54807" y1="24.0444" x2="11.1348" y2="22.9862" stroke="#4C235F" stroke-width="0.2"/>
<line x1="11.332" y1="22.8964" x2="13.3309" y2="20.5448" stroke="#4C235F" stroke-width="0.2"/>
<line x1="16.63" y1="23.2685" x2="13.8081" y2="20.5642" stroke="#4C235F" stroke-width="0.2"/>
<line x1="16.6902" y1="23.5311" x2="11.5166" y2="23.0608" stroke="#4C235F" stroke-width="0.2"/>
<line x1="16.7308" y1="23.5264" x2="12.8507" y2="24.8198" stroke="#4C235F" stroke-width="0.2"/>
<line x1="8.59623" y1="24.2727" x2="12.0061" y2="24.6254" stroke="#4C235F" stroke-width="0.2"/>
<line x1="8.54203" y1="24.7744" x2="10.0706" y2="26.4205" stroke="#4C235F" stroke-width="0.2"/>
<line x1="12.1758" y1="25.1557" x2="10.412" y2="26.5667" stroke="#4C235F" stroke-width="0.2"/>
<line x1="6.98451" y1="29.9478" x2="10.2768" y2="26.4203" stroke="#4C235F" stroke-width="0.2"/>
<line x1="5.74678" y1="27.3307" x2="9.86209" y2="26.6252" stroke="#4C235F" stroke-width="0.2"/>
<line x1="9.89776" y1="28.9461" x2="10.1329" y2="26.9472" stroke="#4C235F" stroke-width="0.2"/>
<line x1="10.4711" y1="29.3282" x2="13.9985" y2="29.4457" stroke="#4C235F" stroke-width="0.2"/>
<line x1="10.5251" y1="26.6418" x2="14.0525" y2="29.111" stroke="#4C235F" stroke-width="0.2"/>
<line x1="10.3623" y1="26.507" x2="15.8886" y2="27.2125" stroke="#4C235F" stroke-width="0.2"/>
<line x1="12.7934" y1="25.2741" x2="14.3219" y2="28.9191" stroke="#4C235F" stroke-width="0.2"/>
<line x1="10.9947" y1="31.9349" x2="13.8166" y2="29.8184" stroke="#4C235F" stroke-width="0.2"/>
<line x1="13.4316" y1="31.7426" x2="14.137" y2="29.9789" stroke="#4C235F" stroke-width="0.2"/>
<line x1="17.5808" y1="31.8606" x2="14.9941" y2="29.9793" stroke="#4C235F" stroke-width="0.2"/>
<line x1="18.5971" y1="28.8211" x2="15.1872" y2="29.409" stroke="#4C235F" stroke-width="0.2"/>
<line x1="16.6732" y1="27.7432" x2="17.6139" y2="29.9772" stroke="#4C235F" stroke-width="0.2"/>
<line x1="13.7237" y1="31.6865" x2="17.3687" y2="30.2755" stroke="#4C235F" stroke-width="0.2"/>
<line x1="14.963" y1="29.4496" x2="17.4322" y2="30.155" stroke="#4C235F" stroke-width="0.2"/>
<line x1="13.0579" y1="24.7426" x2="15.8798" y2="24.8601" stroke="#4C235F" stroke-width="0.2"/>
<circle cx="4.41153" cy="23.843" r="0.411532" fill="url(#paint8_linear_63_3)"/>
<circle cx="5.76387" cy="20.7271" r="0.352742" fill="url(#paint9_linear_63_3)"/>
<circle cx="8.58614" cy="18.4931" r="0.352742" fill="url(#paint10_linear_63_3)"/>
<circle cx="16.9338" cy="15.436" r="0.352742" fill="url(#paint11_linear_63_3)"/>
<circle cx="6.82149" cy="30.1336" r="0.352742" fill="url(#paint12_linear_63_3)"/>
<circle cx="10.8783" cy="32.0736" r="0.411532" fill="url(#paint13_linear_63_3)"/>
<circle cx="13.3481" cy="31.956" r="0.411532" fill="url(#paint14_linear_63_3)"/>
<circle cx="17.8158" cy="31.956" r="0.411532" fill="url(#paint15_linear_63_3)"/>
<circle cx="17.6977" cy="30.2511" r="0.411532" fill="url(#paint16_linear_63_3)"/>
<circle cx="9.93771" cy="29.4868" r="0.646693" fill="url(#paint17_linear_63_3)"/>
<circle cx="8.11506" cy="24.3721" r="0.823063" fill="url(#paint18_linear_63_3)"/>
<circle cx="14.4647" cy="29.5456" r="0.823063" fill="url(#paint19_linear_63_3)"/>
<circle cx="9.82052" cy="20.6683" r="0.646693" fill="url(#paint20_linear_63_3)"/>
<circle cx="10.2318" cy="26.6649" r="0.411532" fill="url(#paint21_linear_63_3)"/>
<circle cx="11.2309" cy="23.0199" r="0.411532" fill="url(#paint22_linear_63_3)"/>
<circle cx="16.7578" cy="23.3726" r="0.293951" fill="url(#paint23_linear_63_3)"/>
<circle cx="16.2281" cy="24.96" r="0.470322" fill="url(#paint24_linear_63_3)"/>
<circle cx="16.4047" cy="17.2585" r="0.411532" fill="url(#paint25_linear_63_3)"/>
<circle cx="17.4039" cy="18.8458" r="0.470322" fill="url(#paint26_linear_63_3)"/>
<circle cx="18.1682" cy="21.609" r="0.646693" fill="url(#paint27_linear_63_3)"/>
<circle cx="18.8742" cy="28.5462" r="0.646693" fill="url(#paint28_linear_63_3)"/>
<circle cx="16.4045" cy="27.3704" r="0.646693" fill="url(#paint29_linear_63_3)"/>
<circle cx="12.5246" cy="24.7836" r="0.646693" fill="url(#paint30_linear_63_3)"/>
<circle cx="13.5832" cy="20.198" r="0.646693" fill="url(#paint31_linear_63_3)"/>
<circle cx="5.46993" cy="27.4879" r="0.646693" fill="url(#paint32_linear_63_3)"/>
<circle cx="15.5813" cy="33.367" r="0.646693" fill="url(#paint33_linear_63_3)"/>
<circle cx="11.1137" cy="16.847" r="0.411532" fill="url(#paint34_linear_63_3)"/>
<path d="M35.6292 22.6673C35.6292 22.6673 36.805 22.1829 36.805 22.6673C36.805 23.6667 37.6869 22.8436 37.6869 22.8436L40.9203 27.9584L33.2188 29.8397L35.6292 22.6673Z" fill="url(#paint35_linear_63_3)"/>
<path d="M40.8618 28.2523L36.1586 34.6604C36.1586 34.6604 37.0913 33.3671 36.4799 32.8967C35.8685 32.4264 37.2756 31.3682 36.4799 31.3682C35.6842 31.3682 33.6306 30.7215 33.6306 30.7215L33.2191 30.1336L40.8618 28.2523Z" fill="url(#paint36_linear_63_3)"/>
<path d="M36.3788 34.8135L40.5085 33.5434L34.5119 37.5412L36.3788 34.8135Z" fill="#0468C4"/>
<path d="M32.9242 29.6045L30.1023 25.1365L32.3364 24.0194L33.5122 22.6672L35.2171 22.6672L32.9242 29.6045Z" fill="url(#paint37_linear_63_3)"/>
<path d="M32.7482 30.016L30.8669 30.016L29.2796 28.076L30.0438 27.1353L30.0438 25.6656L32.7482 30.016Z" fill="url(#paint38_linear_63_3)"/>
<path d="M32.6309 30.2512L32.3369 30.7803L31.1023 30.2512L32.6309 30.2512Z" fill="#0055B0"/>
<path d="M38.3663 22.1058L40.2732 22.1058L38.3799 23.4058L38.3663 22.1058Z" fill="#0065CA"/>
<path d="M41.0963 27.6644L37.8629 22.7259L40.5084 23.2551L41.3315 25.9595L41.2727 27.4292L41.0963 27.6644Z" fill="#0A74D1"/>
<path d="M39.8521 23.167L39.8521 21.6677L41.3319 23.9018L41.3319 25.9007L39.8521 23.167Z" fill="#0157D0"/>
<path d="M41.4495 21.0799L41.332 22.8436L39.9961 22.0499L41.4495 21.0799Z" fill="#006EEA"/>
<path d="M41.5086 19.6102L41.391 22.7848L40.0977 20.6096L41.5086 19.6102Z" fill="#004EAB"/>
<path d="M41.5081 19.9041L38.9213 21.1975L38.5098 20.492L40.6262 18.9634H41.5316L41.5081 19.9041Z" fill="#0B6DD2"/>
<path d="M39.7635 19.52L40.9998 20.112L39.5404 20.8725L39.7635 19.52Z" fill="#0493F3"/>
<path d="M41.8227 20.7271L41.8227 19.0667L43.0371 20.7271L41.8227 20.7271Z" fill="#0265CB"/>
<path d="M37.1572 20.2216L38.3964 19.8512L38.3448 20.2456L37.5805 20.833L37.7569 21.5973L37.1572 20.2216Z" fill="url(#paint39_linear_63_3)"/>
<path d="M36.6287 20.3862L37.0401 20.8449L36.9813 21.0213L36.511 20.6098L36.4522 20.4334L36.6287 20.3862Z" fill="#D9D9D9"/>
<path d="M36.6287 20.3862L37.0401 20.8449L36.9813 21.0213L36.511 20.6098L36.4522 20.4334L36.6287 20.3862Z" fill="url(#paint40_linear_63_3)"/>
<path d="M41.5081 27.4881L43.3894 25.0776L43.4482 26.4298L41.3905 31.7797L41.5081 27.4881Z" fill="url(#paint41_linear_63_3)"/>
<path d="M41.8025 20.6684L43.8602 23.02L43.6838 24.3134L42.2141 26.2535L41.5674 25.3716L41.8025 20.6684Z" fill="url(#paint42_linear_63_3)"/>
<path d="M43.1542 21.0211L43.6245 21.6678L43.8597 22.9612L42.8896 22.0206L43.1542 21.0211Z" fill="#0F4ACA"/>
<path d="M41.5666 26.1946L41.9193 26.4886L41.5078 27.0765L41.5666 26.1946Z" fill="#1E509A"/>
<path d="M31.2201 24.0194L32.2196 22.9612L32.6899 23.3139L31.7492 24.137L31.1025 24.4897L31.2201 24.0194Z" fill="#1A5AA9"/>
<path d="M32.6895 21.4915L34.9823 20.9036L33.8653 22.197H32.6895V21.4915Z" fill="url(#paint43_linear_63_3)"/>
<path d="M33.8065 18.8459L35.8641 20.3156L32.6895 21.1387L32.9834 20.1981L33.8065 20.8491L34.6295 19.7277L33.8065 18.8459Z" fill="#095DAD"/>
<path d="M32.3955 18.0228L32.5131 17.7877L33.1598 18.3168H32.6895L32.3955 18.0228Z" fill="#0B6DD2"/>
<path d="M34.7473 16.0828L35.6879 16.9646V20.0217L34.3945 18.6695L35.0412 17.8465L34.7473 16.0828Z" fill="url(#paint44_linear_63_3)"/>
<path d="M32.3955 16.5531V15.6712L34.1592 18.0816L33.8065 18.4931L32.9246 17.8464L32.3955 16.5531Z" fill="#007BE2"/>
<path d="M34.3358 12.9669H35.1588H35.7467V13.6136H35.3352C35.3352 13.6136 35.3925 14.0048 35.3352 14.2602C35.2849 14.4843 35.3352 15.2009 35.3352 15.2009L35.7467 15.436V16.2591L34.7473 15.2009L33.8066 15.73L34.3358 12.9669Z" fill="url(#paint45_linear_63_3)"/>
<path d="M36.8053 13.0257L36.041 11.3207L41.5673 18.7283L40.6267 19.0223L39.8624 18.4344L40.1563 19.1986L36.041 20.1981V18.4344H36.5113L36.041 17.7877V16.1415V14.8482L36.5113 14.4954L36.041 13.6136L36.8053 13.0257Z" fill="url(#paint46_linear_63_3)"/>
<path d="M17.4629 33.955L19.8733 34.5429L18.6975 35.8362L17.4629 34.8956V33.955Z" fill="#0250A1"/>
<path d="M17.3457 33.661L18.9918 33.6022L19.6385 34.1901L17.3457 33.661Z" fill="#0250A1"/>
<defs>
<filter id="filter0_d_63_3" x="54.6094" y="18.3984" width="109.484" height="16.7578" filterUnits="userSpaceOnUse" color-interpolation-filters="sRGB">
<feFlood flood-opacity="0" result="BackgroundImageFix"/>
<feColorMatrix in="SourceAlpha" type="matrix" values="0 0 0 0 0 0 0 0 0 0 0 0 0 0 0 0 0 0 127 0" result="hardAlpha"/>
<feOffset dx="2" dy="4"/>
<feGaussianBlur stdDeviation="0.5"/>
<feComposite in2="hardAlpha" operator="out"/>
<feColorMatrix type="matrix" values="0 0 0 0 0 0 0 0 0 0 0 0 0 0 0 0 0 0 0.16 0"/>
<feBlend mode="normal" in2="BackgroundImageFix" result="effect1_dropShadow_63_3"/>
<feBlend mode="normal" in="SourceGraphic" in2="effect1_dropShadow_63_3" result="shape"/>
</filter>
<filter id="filter1_d_63_3" x="10.9336" y="0.322937" width="40.749" height="45.0413" filterUnits="userSpaceOnUse" color-interpolation-filters="sRGB">
<feFlood flood-opacity="0" result="BackgroundImageFix"/>
<feColorMatrix in="SourceAlpha" type="matrix" values="0 0 0 0 0 0 0 0 0 0 0 0 0 0 0 0 0 0 127 0" result="hardAlpha"/>
<feOffset dx="1"/>
<feGaussianBlur stdDeviation="3.5"/>
<feComposite in2="hardAlpha" operator="out"/>
<feColorMatrix type="matrix" values="0 0 0 0 0.180392 0 0 0 0 0.843137 0 0 0 0 0.85098 0 0 0 0.57 0"/>
<feBlend mode="normal" in2="BackgroundImageFix" result="effect1_dropShadow_63_3"/>
<feBlend mode="normal" in="SourceGraphic" in2="effect1_dropShadow_63_3" result="shape"/>
</filter>
<filter id="filter2_f_63_3" x="0.473633" y="11.6548" width="26.4658" height="25.7557" filterUnits="userSpaceOnUse" color-interpolation-filters="sRGB">
<feFlood flood-opacity="0" result="BackgroundImageFix"/>
<feBlend mode="normal" in="SourceGraphic" in2="BackgroundImageFix" result="shape"/>
<feGaussianBlur stdDeviation="2" result="effect1_foregroundBlur_63_3"/>
</filter>
<linearGradient id="paint0_linear_63_3" x1="21.4024" y1="11.3795" x2="26.282" y2="10.4976" gradientUnits="userSpaceOnUse">
<stop offset="0.420771" stop-color="#D64270"/>
<stop offset="1" stop-color="#FA8E50"/>
</linearGradient>
<linearGradient id="paint1_linear_63_3" x1="15.8754" y1="13.9075" x2="17.3452" y2="14.3778" gradientUnits="userSpaceOnUse">
<stop stop-color="#E84F6B"/>
<stop offset="0.820833" stop-color="#FE903E"/>
</linearGradient>
<linearGradient id="paint2_linear_63_3" x1="33.2067" y1="7.38325" x2="32.4632" y2="8.95538" gradientUnits="userSpaceOnUse">
<stop stop-color="#EA605F"/>
<stop offset="1" stop-color="#F28360"/>
</linearGradient>
<linearGradient id="paint3_linear_63_3" x1="37.3928" y1="11.7323" x2="41.4494" y2="17.4349" gradientUnits="userSpaceOnUse">
<stop offset="0.365356" stop-color="#EA3AB7"/>
<stop offset="1" stop-color="#067CF1"/>
</linearGradient>
<linearGradient id="paint4_linear_63_3" x1="41.5382" y1="28.6203" x2="37.2603" y2="34.1589" gradientUnits="userSpaceOnUse">
<stop stop-color="#8FC3FD"/>
<stop offset="0.544792" stop-color="#067CF1"/>
</linearGradient>
<linearGradient id="paint5_linear_63_3" x1="27.4438" y1="12.0702" x2="26.1817" y2="12.3866" gradientUnits="userSpaceOnUse">
<stop stop-color="#983E88"/>
<stop offset="0.701128" stop-color="#FA4F79"/>
</linearGradient>
<linearGradient id="paint6_linear_63_3" x1="30.458" y1="12.1143" x2="28.7879" y2="10.8588" gradientUnits="userSpaceOnUse">
<stop offset="0.32707" stop-color="#694ED2"/>
<stop offset="0.857292" stop-color="#FF7F9E"/>
</linearGradient>
<linearGradient id="paint7_linear_63_3" x1="18.3448" y1="15.6712" x2="24.5177" y2="31.6033" gradientUnits="userSpaceOnUse">
<stop offset="0.208074" stop-color="#95236C"/>
<stop offset="1" stop-color="#D92684"/>
</linearGradient>
<linearGradient id="paint8_linear_63_3" x1="4.00624" y1="23.8507" x2="4.75909" y2="23.6895" gradientUnits="userSpaceOnUse">
<stop offset="0.608817" stop-color="#4C235F"/>
<stop offset="0.870099" stop-color="#A92571"/>
</linearGradient>
<linearGradient id="paint9_linear_63_3" x1="5.41648" y1="20.7336" x2="6.06178" y2="20.5955" gradientUnits="userSpaceOnUse">
<stop offset="0.608817" stop-color="#4C235F"/>
<stop offset="0.870099" stop-color="#A92571"/>
</linearGradient>
<linearGradient id="paint10_linear_63_3" x1="8.23874" y1="18.4996" x2="8.88405" y2="18.3615" gradientUnits="userSpaceOnUse">
<stop offset="0.608817" stop-color="#4C235F"/>
<stop offset="0.870099" stop-color="#A92571"/>
</linearGradient>
<linearGradient id="paint11_linear_63_3" x1="16.5864" y1="15.4426" x2="17.2317" y2="15.3044" gradientUnits="userSpaceOnUse">
<stop offset="0.608817" stop-color="#4C235F"/>
<stop offset="0.870099" stop-color="#A92571"/>
</linearGradient>
<linearGradient id="paint12_linear_63_3" x1="6.47409" y1="30.1401" x2="7.1194" y2="30.002" gradientUnits="userSpaceOnUse">
<stop offset="0.608817" stop-color="#4C235F"/>
<stop offset="0.870099" stop-color="#A92571"/>
</linearGradient>
<linearGradient id="paint13_linear_63_3" x1="10.473" y1="32.0813" x2="11.2259" y2="31.9201" gradientUnits="userSpaceOnUse">
<stop offset="0.608817" stop-color="#4C235F"/>
<stop offset="0.870099" stop-color="#A92571"/>
</linearGradient>
<linearGradient id="paint14_linear_63_3" x1="12.9428" y1="31.9637" x2="13.6956" y2="31.8025" gradientUnits="userSpaceOnUse">
<stop offset="0.608817" stop-color="#4C235F"/>
<stop offset="0.870099" stop-color="#A92571"/>
</linearGradient>
<linearGradient id="paint15_linear_63_3" x1="17.4105" y1="31.9637" x2="18.1634" y2="31.8025" gradientUnits="userSpaceOnUse">
<stop offset="0.608817" stop-color="#4C235F"/>
<stop offset="0.870099" stop-color="#A92571"/>
</linearGradient>
<linearGradient id="paint16_linear_63_3" x1="17.2924" y1="30.2588" x2="18.0452" y2="30.0976" gradientUnits="userSpaceOnUse">
<stop offset="0.608817" stop-color="#4C235F"/>
<stop offset="0.870099" stop-color="#A92571"/>
</linearGradient>
<linearGradient id="paint17_linear_63_3" x1="9.30081" y1="29.4989" x2="10.4839" y2="29.2456" gradientUnits="userSpaceOnUse">
<stop offset="0.608817" stop-color="#4C235F"/>
<stop offset="0.870099" stop-color="#A92571"/>
</linearGradient>
<linearGradient id="paint18_linear_63_3" x1="7.30446" y1="24.3875" x2="8.81018" y2="24.0651" gradientUnits="userSpaceOnUse">
<stop offset="0.608817" stop-color="#4C235F"/>
<stop offset="0.870099" stop-color="#A92571"/>
</linearGradient>
<linearGradient id="paint19_linear_63_3" x1="13.6541" y1="29.5609" x2="15.1598" y2="29.2386" gradientUnits="userSpaceOnUse">
<stop offset="0.608817" stop-color="#4C235F"/>
<stop offset="0.870099" stop-color="#A92571"/>
</linearGradient>
<linearGradient id="paint20_linear_63_3" x1="9.18363" y1="20.6803" x2="10.3667" y2="20.4271" gradientUnits="userSpaceOnUse">
<stop offset="0.608817" stop-color="#4C235F"/>
<stop offset="0.870099" stop-color="#A92571"/>
</linearGradient>
<linearGradient id="paint21_linear_63_3" x1="9.82655" y1="26.6726" x2="10.5794" y2="26.5114" gradientUnits="userSpaceOnUse">
<stop offset="0.608817" stop-color="#4C235F"/>
<stop offset="0.870099" stop-color="#A92571"/>
</linearGradient>
<linearGradient id="paint22_linear_63_3" x1="10.8256" y1="23.0276" x2="11.5784" y2="22.8664" gradientUnits="userSpaceOnUse">
<stop offset="0.608817" stop-color="#4C235F"/>
<stop offset="0.870099" stop-color="#A92571"/>
</linearGradient>
<linearGradient id="paint23_linear_63_3" x1="16.4683" y1="23.3781" x2="17.0061" y2="23.263" gradientUnits="userSpaceOnUse">
<stop offset="0.608817" stop-color="#4C235F"/>
<stop offset="0.870099" stop-color="#A92571"/>
</linearGradient>
<linearGradient id="paint24_linear_63_3" x1="15.7649" y1="24.9688" x2="16.6253" y2="24.7846" gradientUnits="userSpaceOnUse">
<stop offset="0.608817" stop-color="#4C235F"/>
<stop offset="0.870099" stop-color="#A92571"/>
</linearGradient>
<linearGradient id="paint25_linear_63_3" x1="15.9994" y1="17.2661" x2="16.7523" y2="17.105" gradientUnits="userSpaceOnUse">
<stop offset="0.608817" stop-color="#4C235F"/>
<stop offset="0.870099" stop-color="#A92571"/>
</linearGradient>
<linearGradient id="paint26_linear_63_3" x1="16.9407" y1="18.8546" x2="17.8011" y2="18.6704" gradientUnits="userSpaceOnUse">
<stop offset="0.608817" stop-color="#4C235F"/>
<stop offset="0.870099" stop-color="#A92571"/>
</linearGradient>
<linearGradient id="paint27_linear_63_3" x1="17.5313" y1="21.621" x2="18.7143" y2="21.3678" gradientUnits="userSpaceOnUse">
<stop offset="0.608817" stop-color="#4C235F"/>
<stop offset="0.870099" stop-color="#A92571"/>
</linearGradient>
<linearGradient id="paint28_linear_63_3" x1="18.2373" y1="28.5583" x2="19.4204" y2="28.305" gradientUnits="userSpaceOnUse">
<stop offset="0.608817" stop-color="#4C235F"/>
<stop offset="0.870099" stop-color="#A92571"/>
</linearGradient>
<linearGradient id="paint29_linear_63_3" x1="15.7676" y1="27.3824" x2="16.9507" y2="27.1292" gradientUnits="userSpaceOnUse">
<stop offset="0.608817" stop-color="#4C235F"/>
<stop offset="0.870099" stop-color="#A92571"/>
</linearGradient>
<linearGradient id="paint30_linear_63_3" x1="11.8877" y1="24.7956" x2="13.0708" y2="24.5424" gradientUnits="userSpaceOnUse">
<stop offset="0.608817" stop-color="#4C235F"/>
<stop offset="0.870099" stop-color="#A92571"/>
</linearGradient>
<linearGradient id="paint31_linear_63_3" x1="12.9463" y1="20.2101" x2="14.1294" y2="19.9568" gradientUnits="userSpaceOnUse">
<stop offset="0.608817" stop-color="#4C235F"/>
<stop offset="0.870099" stop-color="#A92571"/>
</linearGradient>
<linearGradient id="paint32_linear_63_3" x1="4.83304" y1="27.5" x2="6.0161" y2="27.2467" gradientUnits="userSpaceOnUse">
<stop offset="0.608817" stop-color="#4C235F"/>
<stop offset="0.870099" stop-color="#A92571"/>
</linearGradient>
<linearGradient id="paint33_linear_63_3" x1="14.9444" y1="33.3791" x2="16.1274" y2="33.1258" gradientUnits="userSpaceOnUse">
<stop offset="0.608817" stop-color="#4C235F"/>
<stop offset="0.870099" stop-color="#A92571"/>
</linearGradient>
<linearGradient id="paint34_linear_63_3" x1="10.7084" y1="16.8546" x2="11.4612" y2="16.6935" gradientUnits="userSpaceOnUse">
<stop offset="0.608817" stop-color="#4C235F"/>
<stop offset="0.870099" stop-color="#A92571"/>
</linearGradient>
<linearGradient id="paint35_linear_63_3" x1="38.3336" y1="28.3111" x2="35.4528" y2="23.3139" gradientUnits="userSpaceOnUse">
<stop offset="0.383333" stop-color="#1D85E6"/>
<stop offset="0.992708" stop-color="#0F63A1"/>
</linearGradient>
<linearGradient id="paint36_linear_63_3" x1="34.5713" y1="30.0748" x2="38.7454" y2="32.1913" gradientUnits="userSpaceOnUse">
<stop stop-color="#016CD1"/>
<stop offset="1" stop-color="#035DC2"/>
</linearGradient>
<linearGradient id="paint37_linear_63_3" x1="33.0418" y1="27.9584" x2="32.2073" y2="23.652" gradientUnits="userSpaceOnUse">
<stop offset="0.383333" stop-color="#1D85E6"/>
<stop offset="0.992708" stop-color="#0F63A1"/>
</linearGradient>
<linearGradient id="paint38_linear_63_3" x1="32.0529" y1="29.0313" x2="29.4419" y2="27.9533" gradientUnits="userSpaceOnUse">
<stop offset="0.383333" stop-color="#1D85E6"/>
<stop offset="0.992708" stop-color="#0F63A1"/>
</linearGradient>
<linearGradient id="paint39_linear_63_3" x1="37.2748" y1="20.5508" x2="38.333" y2="20.1393" gradientUnits="userSpaceOnUse">
<stop stop-color="#146AB3"/>
<stop offset="1" stop-color="#1593CE"/>
</linearGradient>
<linearGradient id="paint40_linear_63_3" x1="36.4715" y1="20.4178" x2="37.082" y2="20.6015" gradientUnits="userSpaceOnUse">
<stop stop-color="#146AB3"/>
<stop offset="1" stop-color="#1593CE"/>
</linearGradient>
<linearGradient id="paint41_linear_63_3" x1="42.9779" y1="27.6644" x2="41.5669" y2="27.5468" gradientUnits="userSpaceOnUse">
<stop stop-color="#0049A5"/>
<stop offset="0.579508" stop-color="#4AAFFB"/>
</linearGradient>
<linearGradient id="paint42_linear_63_3" x1="42.508" y1="20.6684" x2="42.508" y2="26.2535" gradientUnits="userSpaceOnUse">
<stop stop-color="#188BA9"/>
<stop offset="1" stop-color="#007CDD"/>
</linearGradient>
<linearGradient id="paint43_linear_63_3" x1="33.8359" y1="20.9036" x2="33.8359" y2="22.197" gradientUnits="userSpaceOnUse">
<stop stop-color="#37648E"/>
<stop offset="1" stop-color="#0E6DC1"/>
</linearGradient>
<linearGradient id="paint44_linear_63_3" x1="35.0412" y1="16.0828" x2="35.0412" y2="20.0217" gradientUnits="userSpaceOnUse">
<stop offset="0.227083" stop-color="#9F5BCA"/>
<stop offset="1" stop-color="#0388FF"/>
</linearGradient>
<linearGradient id="paint45_linear_63_3" x1="34.7767" y1="12.9669" x2="35.2764" y2="15.4948" gradientUnits="userSpaceOnUse">
<stop stop-color="#741B77"/>
<stop offset="0.65917" stop-color="#855CD6"/>
<stop offset="1" stop-color="#0060D9"/>
</linearGradient>
<linearGradient id="paint46_linear_63_3" x1="36.4525" y1="11.6735" x2="37.0992" y2="20.2569" gradientUnits="userSpaceOnUse">
<stop stop-color="#ED6AC8"/>
<stop offset="0.628937" stop-color="#7349EA"/>
<stop offset="1" stop-color="#0279D7"/>
</linearGradient>
</defs>
</svg>
