<svg width="188" height="114" viewBox="0 0 188 114" fill="none" xmlns="http://www.w3.org/2000/svg">
<g filter="url(#filter0_d_1674_706)">
<path d="M2.41406 88.832H8.51953C10.0273 88.832 11.3555 89.0351 12.5039 89.4414C13.6523 89.8476 14.6133 90.4101 15.3867 91.1289C16.1602 91.8398 16.7422 92.6836 17.1328 93.6601C17.5312 94.6367 17.7305 95.6953 17.7305 96.8359C17.7305 97.5547 17.6484 98.2812 17.4844 99.0156C17.3281 99.75 17.082 100.457 16.7461 101.137C16.4102 101.809 15.9844 102.441 15.4688 103.035C14.9531 103.629 14.3359 104.148 13.6172 104.594C12.9062 105.031 12.0898 105.375 11.168 105.625C10.2539 105.875 9.23047 106 8.09766 106H2.41406V88.832ZM5.32031 103.937H8.53125C9.57812 103.937 10.4883 103.766 11.2617 103.422C12.0352 103.07 12.6758 102.598 13.1836 102.004C13.6914 101.402 14.0703 100.699 14.3203 99.8945C14.5703 99.082 14.6953 98.2109 14.6953 97.2812C14.6953 96.2656 14.5508 95.3633 14.2617 94.5742C13.9727 93.7851 13.5469 93.1172 12.9844 92.5703C12.4297 92.0234 11.7461 91.6094 10.9336 91.3281C10.1211 91.039 9.19531 90.8945 8.15625 90.8945H5.32031V103.937ZM24.6562 106H21.75V88.832H24.6562V106ZM33.9844 104.172C34.4531 104.172 34.8867 104.113 35.2852 103.996C35.6914 103.871 36.043 103.699 36.3398 103.48C36.6367 103.254 36.8672 102.98 37.0312 102.66C37.2031 102.332 37.2891 101.965 37.2891 101.559C37.2891 101.074 37.1719 100.664 36.9375 100.328C36.7109 99.9922 36.4062 99.6992 36.0234 99.4492C35.6406 99.1914 35.207 98.9609 34.7227 98.7578C34.2383 98.5547 33.7422 98.3476 33.2344 98.1367C32.7344 97.9258 32.2422 97.6953 31.7578 97.4453C31.2734 97.1875 30.8398 96.8828 30.457 96.5312C30.0742 96.1719 29.7656 95.7461 29.5312 95.2539C29.3047 94.7617 29.1914 94.168 29.1914 93.4726C29.1914 92.7148 29.3359 92.0351 29.625 91.4336C29.9141 90.832 30.3203 90.3203 30.8438 89.8984C31.3672 89.4765 31.9922 89.1562 32.7188 88.9375C33.4453 88.7109 34.2461 88.5976 35.1211 88.5976C35.3789 88.5976 35.6758 88.6094 36.0117 88.6328C36.3477 88.6562 36.707 88.6953 37.0898 88.75C37.4727 88.7969 37.8711 88.8633 38.2852 88.9492C38.707 89.0273 39.1289 89.1289 39.5508 89.2539L39.0938 91.5273L38.8711 91.6445C38.457 91.457 38.0547 91.3008 37.6641 91.1758C37.2734 91.0508 36.9023 90.9492 36.5508 90.8711C36.1992 90.793 35.8711 90.7383 35.5664 90.707C35.2695 90.6758 35.0078 90.6601 34.7812 90.6601C34.3516 90.6601 33.9609 90.7109 33.6094 90.8125C33.2578 90.914 32.957 91.0625 32.707 91.2578C32.4648 91.4531 32.2734 91.6953 32.1328 91.9844C32 92.2656 31.9336 92.5898 31.9336 92.957C31.9336 93.4492 32.0508 93.8711 32.2852 94.2226C32.5195 94.5664 32.8242 94.8711 33.1992 95.1367C33.582 95.4023 34.0156 95.6406 34.5 95.8515C34.9922 96.0547 35.4922 96.2656 36 96.4844C36.5156 96.6953 37.0156 96.9258 37.5 97.1758C37.9922 97.4258 38.4258 97.7226 38.8008 98.0664C39.1836 98.4101 39.4922 98.8164 39.7266 99.2851C39.9609 99.7461 40.0781 100.301 40.0781 100.949C40.0781 101.676 39.9258 102.359 39.6211 103C39.3164 103.641 38.8828 104.203 38.3203 104.687C37.7656 105.164 37.0977 105.543 36.3164 105.824C35.5352 106.098 34.6641 106.234 33.7031 106.234C33.3125 106.234 32.9023 106.207 32.4727 106.152C32.043 106.105 31.6055 106.035 31.1602 105.941C30.7148 105.848 30.2734 105.73 29.8359 105.59C29.3984 105.449 28.9766 105.289 28.5703 105.109L29.0391 102.812L29.2734 102.695C30.1016 103.148 30.9102 103.508 31.6992 103.773C32.4883 104.039 33.25 104.172 33.9844 104.172ZM50.543 106H47.625V90.8945H42.0586L42.4453 88.832H56.2852L55.8984 90.8945H50.543V106ZM63.6094 104.172C64.0781 104.172 64.5117 104.113 64.9102 103.996C65.3164 103.871 65.668 103.699 65.9648 103.48C66.2617 103.254 66.4922 102.98 66.6562 102.66C66.8281 102.332 66.9141 101.965 66.9141 101.559C66.9141 101.074 66.7969 100.664 66.5625 100.328C66.3359 99.9922 66.0312 99.6992 65.6484 99.4492C65.2656 99.1914 64.832 98.9609 64.3477 98.7578C63.8633 98.5547 63.3672 98.3476 62.8594 98.1367C62.3594 97.9258 61.8672 97.6953 61.3828 97.4453C60.8984 97.1875 60.4648 96.8828 60.082 96.5312C59.6992 96.1719 59.3906 95.7461 59.1562 95.2539C58.9297 94.7617 58.8164 94.168 58.8164 93.4726C58.8164 92.7148 58.9609 92.0351 59.25 91.4336C59.5391 90.832 59.9453 90.3203 60.4688 89.8984C60.9922 89.4765 61.6172 89.1562 62.3438 88.9375C63.0703 88.7109 63.8711 88.5976 64.7461 88.5976C65.0039 88.5976 65.3008 88.6094 65.6367 88.6328C65.9727 88.6562 66.332 88.6953 66.7148 88.75C67.0977 88.7969 67.4961 88.8633 67.9102 88.9492C68.332 89.0273 68.7539 89.1289 69.1758 89.2539L68.7188 91.5273L68.4961 91.6445C68.082 91.457 67.6797 91.3008 67.2891 91.1758C66.8984 91.0508 66.5273 90.9492 66.1758 90.8711C65.8242 90.793 65.4961 90.7383 65.1914 90.707C64.8945 90.6758 64.6328 90.6601 64.4062 90.6601C63.9766 90.6601 63.5859 90.7109 63.2344 90.8125C62.8828 90.914 62.582 91.0625 62.332 91.2578C62.0898 91.4531 61.8984 91.6953 61.7578 91.9844C61.625 92.2656 61.5586 92.5898 61.5586 92.957C61.5586 93.4492 61.6758 93.8711 61.9102 94.2226C62.1445 94.5664 62.4492 94.8711 62.8242 95.1367C63.207 95.4023 63.6406 95.6406 64.125 95.8515C64.6172 96.0547 65.1172 96.2656 65.625 96.4844C66.1406 96.6953 66.6406 96.9258 67.125 97.1758C67.6172 97.4258 68.0508 97.7226 68.4258 98.0664C68.8086 98.4101 69.1172 98.8164 69.3516 99.2851C69.5859 99.7461 69.7031 100.301 69.7031 100.949C69.7031 101.676 69.5508 102.359 69.2461 103C68.9414 103.641 68.5078 104.203 67.9453 104.687C67.3906 105.164 66.7227 105.543 65.9414 105.824C65.1602 106.098 64.2891 106.234 63.3281 106.234C62.9375 106.234 62.5273 106.207 62.0977 106.152C61.668 106.105 61.2305 106.035 60.7852 105.941C60.3398 105.848 59.8984 105.73 59.4609 105.59C59.0234 105.449 58.6016 105.289 58.1953 105.109L58.6641 102.812L58.8984 102.695C59.7266 103.148 60.5352 103.508 61.3242 103.773C62.1133 104.039 62.875 104.172 63.6094 104.172ZM82.9336 101.57H76.0547L74.6133 106H72.0117L78.0938 88.832H81.3867L87.4688 106H84.3984L82.9336 101.57ZM82.2891 99.5781L80.25 93.2265L79.6055 90.7773H79.3711L78.7383 93.2265L76.6758 99.5781H82.2891ZM90.2227 106L91.5352 88.832H95.7891L99.4688 99.8008L100.125 102.355H100.359L101.027 99.8008L104.719 88.832H109.09L110.414 106H107.414L106.617 93.168L106.547 90.4961H106.312L105.609 93.0508L101.426 105.648H98.7773L94.5586 93.0742L93.832 90.4961H93.5977L93.5391 93.1445L92.7539 106H90.2227ZM128.52 105.098C127.426 105.52 126.387 105.816 125.402 105.988C124.418 106.152 123.504 106.234 122.66 106.234C121.285 106.234 120.055 106.039 118.969 105.648C117.891 105.25 116.973 104.691 116.215 103.973C115.457 103.246 114.879 102.371 114.48 101.348C114.082 100.324 113.883 99.1836 113.883 97.9258C113.883 96.9414 114.004 96.0273 114.246 95.1836C114.488 94.3398 114.824 93.5742 115.254 92.8867C115.684 92.1914 116.199 91.5781 116.801 91.0469C117.402 90.5156 118.062 90.0703 118.781 89.7109C119.5 89.3437 120.266 89.0664 121.078 88.8789C121.891 88.6914 122.727 88.5976 123.586 88.5976C123.867 88.5976 124.18 88.6094 124.523 88.6328C124.867 88.6562 125.23 88.6953 125.613 88.75C126.004 88.7969 126.406 88.8633 126.82 88.9492C127.234 89.0273 127.652 89.1289 128.074 89.2539L127.617 91.5156L127.383 91.6328C126.562 91.25 125.793 90.9922 125.074 90.8594C124.355 90.7265 123.734 90.6601 123.211 90.6601C122.258 90.6601 121.395 90.832 120.621 91.1758C119.848 91.5117 119.184 91.9805 118.629 92.582C118.074 93.1758 117.645 93.8828 117.34 94.7031C117.043 95.5156 116.895 96.4023 116.895 97.3633C116.895 98.2773 117.031 99.1445 117.305 99.9648C117.586 100.785 117.992 101.508 118.523 102.133C119.055 102.758 119.703 103.254 120.469 103.621C121.234 103.988 122.109 104.172 123.094 104.172C123.508 104.172 123.961 104.137 124.453 104.066C124.953 103.996 125.445 103.883 125.93 103.727V97.7969H128.52V105.098ZM139.91 106H136.992V90.8945H131.426L131.812 88.832H145.652L145.266 90.8945H139.91V106ZM151.5 88.832V99.5781C151.5 100.367 151.621 101.051 151.863 101.629C152.113 102.207 152.438 102.684 152.836 103.059C153.242 103.434 153.699 103.715 154.207 103.902C154.715 104.082 155.227 104.172 155.742 104.172C156.273 104.172 156.773 104.078 157.242 103.891C157.719 103.703 158.133 103.426 158.484 103.059C158.836 102.691 159.113 102.23 159.316 101.676C159.527 101.121 159.633 100.473 159.633 99.7305V88.832H162.141V99.5664C162.141 100.098 162.078 100.633 161.953 101.172C161.836 101.703 161.652 102.215 161.402 102.707C161.152 103.199 160.836 103.66 160.453 104.09C160.078 104.52 159.633 104.895 159.117 105.215C158.602 105.527 158.016 105.777 157.359 105.965C156.711 106.145 155.992 106.234 155.203 106.234C154.219 106.234 153.32 106.09 152.508 105.801C151.695 105.504 150.996 105.07 150.41 104.5C149.832 103.93 149.383 103.23 149.062 102.402C148.75 101.566 148.594 100.609 148.594 99.5312V88.832H151.5Z" fill="current"/>
<path d="M2.41406 88.832V87.832H1.41406V88.832H2.41406ZM15.3867 91.1289L14.706 91.8614L14.71 91.8651L15.3867 91.1289ZM17.1328 93.6601L16.2043 94.0315L16.2069 94.0379L17.1328 93.6601ZM17.4844 99.0156L16.5084 98.7976L16.5063 98.8075L17.4844 99.0156ZM16.7461 101.137L17.6405 101.584L17.6426 101.58L16.7461 101.137ZM13.6172 104.594L14.1413 105.445L14.1439 105.444L13.6172 104.594ZM11.168 105.625L10.9062 104.66L10.9042 104.66L11.168 105.625ZM2.41406 106H1.41406V107H2.41406V106ZM5.32031 103.937H4.32031V104.937H5.32031V103.937ZM11.2617 103.422L11.6679 104.336L11.6755 104.332L11.2617 103.422ZM13.1836 102.004L13.9436 102.654L13.9477 102.649L13.1836 102.004ZM14.3203 99.8945L15.2753 100.191L15.2761 100.189L14.3203 99.8945ZM12.9844 92.5703L12.2823 93.2824L12.2873 93.2873L12.9844 92.5703ZM10.9336 91.3281L10.5984 92.2703L10.6065 92.2731L10.9336 91.3281ZM5.32031 90.8945V89.8945H4.32031V90.8945H5.32031ZM2.41406 89.832H8.51953V87.832H2.41406V89.832ZM8.51953 89.832C9.93972 89.832 11.1511 90.0236 12.1704 90.3841L12.8374 88.4986C11.5598 88.0467 10.115 87.832 8.51953 87.832V89.832ZM12.1704 90.3841C13.2096 90.7518 14.0469 91.249 14.706 91.8614L16.0675 90.3964C15.1796 89.5713 14.0951 88.9435 12.8374 88.4986L12.1704 90.3841ZM14.71 91.8651C15.3731 92.4747 15.8692 93.1937 16.2043 94.0315L18.0613 93.2888C17.6152 92.1734 16.9472 91.205 16.0635 90.3927L14.71 91.8651ZM16.2069 94.0379C16.5526 94.8851 16.7305 95.8142 16.7305 96.8359H18.7305C18.7305 95.5764 18.5099 94.3883 18.0587 93.2824L16.2069 94.0379ZM16.7305 96.8359C16.7305 97.478 16.6573 98.1314 16.5084 98.7976L18.4603 99.2336C18.6396 98.431 18.7305 97.6314 18.7305 96.8359H16.7305ZM16.5063 98.8075C16.3675 99.4597 16.149 100.088 15.8496 100.694L17.6426 101.58C18.015 100.826 18.2887 100.04 18.4625 99.2237L16.5063 98.8075ZM15.8517 100.689C15.555 101.283 15.1769 101.846 14.7137 102.379L16.2238 103.691C16.7919 103.037 17.2653 102.334 17.6405 101.584L15.8517 100.689ZM14.7137 102.379C14.2688 102.892 13.7302 103.347 13.0905 103.744L14.1439 105.444C14.9417 104.95 15.6375 104.366 16.2238 103.691L14.7137 102.379ZM13.0931 103.742C12.4745 104.123 11.7487 104.431 10.9062 104.66L11.4297 106.59C12.431 106.319 13.338 105.94 14.1413 105.445L13.0931 103.742ZM10.9042 104.66C10.0909 104.883 9.15814 105 8.09766 105V107C9.3028 107 10.4169 106.867 11.4318 106.59L10.9042 104.66ZM8.09766 105H2.41406V107H8.09766V105ZM3.41406 106V88.832H1.41406V106H3.41406ZM5.32031 104.937H8.53125V102.937H5.32031V104.937ZM8.53125 104.937C9.6858 104.937 10.7401 104.748 11.6679 104.336L10.8556 102.508C10.2365 102.783 9.47045 102.937 8.53125 102.937V104.937ZM11.6755 104.332C12.5702 103.926 13.3327 103.368 13.9436 102.654L12.4236 101.354C12.0189 101.827 11.5001 102.215 10.8479 102.511L11.6755 104.332ZM13.9477 102.649C14.5478 101.938 14.9884 101.115 15.2753 100.191L13.3653 99.5978C13.1522 100.284 12.8351 100.867 12.4195 101.359L13.9477 102.649ZM15.2761 100.189C15.558 99.2724 15.6953 98.3013 15.6953 97.2812H13.6953C13.6953 98.1205 13.5826 98.8917 13.3645 99.6004L15.2761 100.189ZM15.6953 97.2812C15.6953 96.172 15.5376 95.1498 15.2007 94.2302L13.3227 94.9182C13.564 95.5768 13.6953 96.3592 13.6953 97.2812H15.6953ZM15.2007 94.2302C14.8638 93.3105 14.3591 92.5121 13.6815 91.8533L12.2873 93.2873C12.7346 93.7222 13.0816 94.2598 13.3227 94.9182L15.2007 94.2302ZM13.6864 91.8582C13.0151 91.1963 12.1992 90.708 11.2607 90.3831L10.6065 92.2731C11.293 92.5107 11.8443 92.8506 12.2823 93.2824L13.6864 91.8582ZM11.2688 90.386C10.3292 90.0517 9.28682 89.8945 8.15625 89.8945V91.8945C9.1038 91.8945 9.913 92.0264 10.5984 92.2703L11.2688 90.386ZM8.15625 89.8945H5.32031V91.8945H8.15625V89.8945ZM4.32031 90.8945V103.937H6.32031V90.8945H4.32031ZM24.6562 106V107H25.6562V106H24.6562ZM21.75 106H20.75V107H21.75V106ZM21.75 88.832V87.832H20.75V88.832H21.75ZM24.6562 88.832H25.6562V87.832H24.6562V88.832ZM24.6562 105H21.75V107H24.6562V105ZM22.75 106V88.832H20.75V106H22.75ZM21.75 89.832H24.6562V87.832H21.75V89.832ZM23.6562 88.832V106H25.6562V88.832H23.6562ZM35.2852 103.996L35.5673 104.956L35.5792 104.952L35.2852 103.996ZM36.3398 103.48L36.933 104.286L36.9398 104.281L36.9465 104.275L36.3398 103.48ZM37.0312 102.66L36.1454 102.196L36.1412 102.204L37.0312 102.66ZM36.9375 100.328L36.1084 100.887L36.1129 100.894L36.1174 100.9L36.9375 100.328ZM36.0234 99.4492L35.4648 100.279L35.4707 100.283L35.4767 100.286L36.0234 99.4492ZM33.2344 98.1367L32.8457 99.0581L32.8508 99.0602L33.2344 98.1367ZM31.7578 97.4453L31.2879 98.3281L31.2992 98.3339L31.7578 97.4453ZM30.457 96.5312L29.7726 97.2604L29.7806 97.2678L30.457 96.5312ZM29.5312 95.2539L28.6228 95.6721L28.6284 95.6838L29.5312 95.2539ZM32.7188 88.9375L33.0071 89.8951L33.0164 89.8921L32.7188 88.9375ZM37.0898 88.75L36.9484 89.7399L36.9584 89.7414L36.9683 89.7426L37.0898 88.75ZM38.2852 88.9492L38.0819 89.9283L38.0925 89.9305L38.1031 89.9325L38.2852 88.9492ZM39.5508 89.2539L40.5312 89.451L40.7113 88.5548L39.8349 88.2951L39.5508 89.2539ZM39.0938 91.5273L39.5595 92.4122L39.9804 92.1907L40.0741 91.7244L39.0938 91.5273ZM38.8711 91.6445L38.4586 92.5555L38.9041 92.7572L39.3368 92.5294L38.8711 91.6445ZM35.5664 90.707L35.4617 91.7015L35.4644 91.7018L35.5664 90.707ZM32.707 91.2578L32.0914 90.4698L32.0853 90.4745L32.0793 90.4794L32.707 91.2578ZM32.1328 91.9844L31.2335 91.5469L31.2286 91.5574L32.1328 91.9844ZM32.2852 94.2226L31.4531 94.7774L31.4589 94.786L32.2852 94.2226ZM33.1992 95.1367L32.6212 95.9528L32.6291 95.9583L33.1992 95.1367ZM34.5 95.8515L34.1007 96.7684L34.1096 96.7722L34.1185 96.7759L34.5 95.8515ZM36 96.4844L35.6044 97.4028L35.6128 97.4064L35.6214 97.4099L36 96.4844ZM37.5 97.1758L37.0413 98.0644L37.0471 98.0673L37.5 97.1758ZM38.8008 98.0664L38.125 98.8036L38.1327 98.8104L38.8008 98.0664ZM39.7266 99.2851L38.8321 99.7324L38.8352 99.7384L39.7266 99.2851ZM38.3203 104.687L38.972 105.446L38.9728 105.445L38.3203 104.687ZM36.3164 105.824L36.6468 106.768L36.6551 106.765L36.3164 105.824ZM32.4727 106.152L32.5989 105.16L32.59 105.159L32.5811 105.158L32.4727 106.152ZM28.5703 105.109L27.5905 104.909L27.4295 105.698L28.1658 106.024L28.5703 105.109ZM29.0391 102.812L28.5918 101.918L28.1566 102.136L28.0593 102.613L29.0391 102.812ZM29.2734 102.695L29.7534 101.818L29.2943 101.567L28.8262 101.801L29.2734 102.695ZM33.9844 105.172C34.5366 105.172 35.0663 105.103 35.5673 104.955L35.003 103.037C34.7071 103.124 34.3697 103.172 33.9844 103.172V105.172ZM35.5792 104.952C36.0768 104.799 36.533 104.58 36.933 104.286L35.7466 102.675C35.5529 102.818 35.306 102.943 34.9911 103.04L35.5792 104.952ZM36.9465 104.275C37.3574 103.962 37.6867 103.574 37.9213 103.116L36.1412 102.204C36.0477 102.387 35.9161 102.546 35.7332 102.686L36.9465 104.275ZM37.9171 103.124C38.171 102.639 38.2891 102.111 38.2891 101.559H36.2891C36.2891 101.819 36.2352 102.025 36.1454 102.196L37.9171 103.124ZM38.2891 101.559C38.2891 100.908 38.1292 100.289 37.7576 99.7559L36.1174 100.9C36.2145 101.04 36.2891 101.241 36.2891 101.559H38.2891ZM37.7666 99.769C37.4564 99.3091 37.0504 98.9255 36.5702 98.6119L35.4767 100.286C35.7621 100.473 35.9655 100.675 36.1084 100.887L37.7666 99.769ZM36.582 98.6198C36.1383 98.3209 35.6459 98.0606 35.1094 97.8356L34.3359 99.68C34.7682 99.8613 35.143 100.062 35.4648 100.279L36.582 98.6198ZM35.1094 97.8356C34.6239 97.632 34.1268 97.4246 33.618 97.2132L32.8508 99.0602C33.3576 99.2707 33.8526 99.4773 34.3359 99.68L35.1094 97.8356ZM33.6231 97.2153C33.1469 97.0145 32.678 96.7949 32.2165 96.5567L31.2992 98.3339C31.8063 98.5957 32.3218 98.8371 32.8457 99.0581L33.6231 97.2153ZM32.2277 96.5626C31.8139 96.3423 31.4505 96.0859 31.1334 95.7947L29.7806 97.2678C30.2292 97.6797 30.733 98.0326 31.288 98.328L32.2277 96.5626ZM31.1415 95.8022C30.8529 95.5313 30.617 95.2081 30.4341 94.824L28.6284 95.6838C28.9142 96.2841 29.2955 96.8124 29.7726 97.2603L31.1415 95.8022ZM30.4396 94.8357C30.288 94.5063 30.1914 94.063 30.1914 93.4726H28.1914C28.1914 94.2729 28.3214 95.0171 28.6229 95.672L30.4396 94.8357ZM30.1914 93.4726C30.1914 92.8444 30.3105 92.3159 30.5263 91.8667L28.7237 91.0005C28.3614 91.7544 28.1914 92.5853 28.1914 93.4726H30.1914ZM30.5263 91.8667C30.7505 91.4002 31.0628 91.0062 31.4713 90.677L30.2162 89.1198C29.5778 89.6344 29.0776 90.2638 28.7237 91.0005L30.5263 91.8667ZM31.4713 90.677C31.8821 90.3459 32.3882 90.0813 33.007 89.895L32.4305 87.9799C31.5962 88.2311 30.8522 88.6072 30.2162 89.1198L31.4713 90.677ZM33.0164 89.8921C33.6334 89.6997 34.3322 89.5976 35.1211 89.5976V87.5976C34.1599 87.5976 33.2572 87.7221 32.4211 87.9828L33.0164 89.8921ZM35.1211 89.5976C35.3499 89.5976 35.6228 89.6081 35.9421 89.6304L36.0813 87.6352C35.7288 87.6106 35.4079 87.5976 35.1211 87.5976V89.5976ZM35.9421 89.6304C36.2508 89.6519 36.586 89.6882 36.9484 89.7399L37.2313 87.76C36.828 87.7024 36.4445 87.6606 36.0813 87.6352L35.9421 89.6304ZM36.9683 89.7426C37.3212 89.7858 37.6924 89.8475 38.0819 89.9283L38.4884 87.9701C38.0498 87.8791 37.6241 87.8079 37.2114 87.7574L36.9683 89.7426ZM38.1031 89.9325C38.4897 90.0041 38.8775 90.0974 39.2667 90.2127L39.8349 88.2951C39.3803 88.1604 38.9244 88.0506 38.4672 87.9659L38.1031 89.9325ZM38.5704 89.0568L38.1134 91.3302L40.0741 91.7244L40.5312 89.451L38.5704 89.0568ZM38.628 90.6424L38.4053 90.7596L39.3368 92.5294L39.5595 92.4122L38.628 90.6424ZM39.2836 90.7336C38.8382 90.5319 38.3998 90.3613 37.9688 90.2233L37.3593 92.1282C37.7096 92.2403 38.0759 92.3822 38.4586 92.5555L39.2836 90.7336ZM37.9688 90.2233C37.5532 90.0903 37.1526 89.9804 36.7677 89.8949L36.3339 91.8473C36.6521 91.918 36.9937 92.0112 37.3593 92.1282L37.9688 90.2233ZM36.7677 89.8949C36.3846 89.8098 36.0178 89.7481 35.6684 89.7122L35.4644 91.7018C35.7244 91.7285 36.0138 91.7761 36.3339 91.8473L36.7677 89.8949ZM35.6711 89.7125C35.3496 89.6787 35.0517 89.6601 34.7812 89.6601V91.6601C34.9639 91.6601 35.1894 91.6729 35.4617 91.7015L35.6711 89.7125ZM34.7812 89.6601C34.2735 89.6601 33.7877 89.7201 33.3318 89.8518L33.8869 91.7732C34.1342 91.7018 34.4296 91.6601 34.7812 91.6601V89.6601ZM33.3318 89.8518C32.8762 89.9834 32.4562 90.1847 32.0914 90.4698L33.3227 92.0458C33.4578 91.9402 33.6394 91.8447 33.8869 91.7732L33.3318 89.8518ZM32.0793 90.4794C31.7188 90.7701 31.4363 91.1301 31.2336 91.5469L33.032 92.4218C33.1105 92.2605 33.2109 92.1361 33.3348 92.0362L32.0793 90.4794ZM31.2286 91.5574C31.0223 91.9941 30.9336 92.4686 30.9336 92.957H32.9336C32.9336 92.7111 32.9777 92.5371 33.0371 92.4114L31.2286 91.5574ZM30.9336 92.957C30.9336 93.6133 31.0921 94.2358 31.4531 94.7773L33.1172 93.6679C33.0095 93.5063 32.9336 93.2851 32.9336 92.957H30.9336ZM31.4589 94.786C31.767 95.2378 32.1592 95.6255 32.6212 95.9527L33.7772 94.3207C33.4892 94.1167 33.2721 93.895 33.1114 93.6593L31.4589 94.786ZM32.6291 95.9583C33.0722 96.2657 33.5643 96.5348 34.1007 96.7684L34.8993 94.9347C34.467 94.7465 34.0919 94.5389 33.7693 94.3151L32.6291 95.9583ZM34.1185 96.7759C34.6058 96.977 35.1011 97.186 35.6044 97.4028L36.3956 95.5659C35.8833 95.3453 35.3786 95.1323 34.8815 94.9272L34.1185 96.7759ZM35.6214 97.4099C36.1104 97.61 36.5837 97.8282 37.0414 98.0644L37.9586 96.2871C37.4476 96.0234 36.9209 95.7806 36.3786 95.5588L35.6214 97.4099ZM37.0471 98.0673C37.4652 98.2797 37.8224 98.5261 38.1251 98.8035L39.4765 97.3292C39.0291 96.9192 38.5192 96.5718 37.9529 96.2842L37.0471 98.0673ZM38.1327 98.8104C38.4203 99.0687 38.6528 99.3737 38.8321 99.7324L40.621 98.8379C40.3315 98.259 39.9469 97.7515 39.4689 97.3223L38.1327 98.8104ZM38.8352 99.7384C38.9823 100.028 39.0781 100.419 39.0781 100.949H41.0781C41.0781 100.182 40.9396 99.4644 40.6179 98.8319L38.8352 99.7384ZM39.0781 100.949C39.0781 101.531 38.9573 102.067 38.718 102.57L40.5242 103.429C40.8942 102.651 41.0781 101.821 41.0781 100.949H39.0781ZM38.718 102.57C38.4759 103.08 38.1298 103.532 37.6678 103.93L38.9728 105.445C39.6358 104.874 40.1569 104.202 40.5242 103.429L38.718 102.57ZM37.6686 103.929C37.2179 104.316 36.6598 104.638 35.9777 104.883L36.6551 106.765C37.5356 106.448 38.3133 106.012 38.972 105.446L37.6686 103.929ZM35.9861 104.88C35.3265 105.111 34.5693 105.234 33.7031 105.234V107.234C34.7588 107.234 35.7438 107.084 36.6468 106.768L35.9861 104.88ZM33.7031 105.234C33.359 105.234 32.9912 105.21 32.5989 105.16L32.3464 107.144C32.8135 107.204 33.266 107.234 33.7031 107.234V105.234ZM32.5811 105.158C32.1858 105.115 31.7809 105.05 31.3662 104.963L30.9541 106.92C31.43 107.02 31.9001 107.096 32.3642 107.146L32.5811 105.158ZM31.3662 104.963C30.955 104.876 30.5469 104.768 30.1419 104.638L29.5299 106.542C30 106.693 30.4747 106.819 30.9541 106.92L31.3662 104.963ZM30.1419 104.638C29.7368 104.508 29.3478 104.36 28.9748 104.195L28.1658 106.024C28.6053 106.218 29.0601 106.391 29.5299 106.542L30.1419 104.638ZM29.5501 105.309L30.0189 103.012L28.0593 102.613L27.5905 104.909L29.5501 105.309ZM29.4863 103.707L29.7207 103.59L28.8262 101.801L28.5918 101.918L29.4863 103.707ZM28.7934 103.573C29.6663 104.05 30.5287 104.435 31.3802 104.721L32.0183 102.826C31.2916 102.581 30.5368 102.247 29.7534 101.818L28.7934 103.573ZM31.3802 104.721C32.2585 105.017 33.1281 105.172 33.9844 105.172V103.172C33.3719 103.172 32.7181 103.061 32.0183 102.826L31.3802 104.721ZM50.543 106V107H51.543V106H50.543ZM47.625 106H46.625V107H47.625V106ZM47.625 90.8945H48.625V89.8945H47.625V90.8945ZM42.0586 90.8945L41.0757 90.7102L40.8537 91.8945H42.0586V90.8945ZM42.4453 88.832V87.832H41.6154L41.4624 88.6477L42.4453 88.832ZM56.2852 88.832L57.268 89.0163L57.4901 87.832H56.2852V88.832ZM55.8984 90.8945V91.8945H56.7284L56.8813 91.0788L55.8984 90.8945ZM50.543 90.8945V89.8945H49.543V90.8945H50.543ZM50.543 105H47.625V107H50.543V105ZM48.625 106V90.8945H46.625V106H48.625ZM47.625 89.8945H42.0586V91.8945H47.625V89.8945ZM43.0415 91.0788L43.4282 89.0163L41.4624 88.6477L41.0757 90.7102L43.0415 91.0788ZM42.4453 89.832H56.2852V87.832H42.4453V89.832ZM55.3023 88.6477L54.9156 90.7102L56.8813 91.0788L57.268 89.0163L55.3023 88.6477ZM55.8984 89.8945H50.543V91.8945H55.8984V89.8945ZM49.543 90.8945V106H51.543V90.8945H49.543ZM64.9102 103.996L65.1923 104.956L65.2042 104.952L64.9102 103.996ZM65.9648 103.48L66.558 104.286L66.5648 104.281L66.5715 104.275L65.9648 103.48ZM66.6562 102.66L65.7704 102.196L65.7662 102.204L66.6562 102.66ZM66.5625 100.328L65.7334 100.887L65.7378 100.894L65.7424 100.9L66.5625 100.328ZM65.6484 99.4492L65.0898 100.279L65.0957 100.283L65.1016 100.286L65.6484 99.4492ZM62.8594 98.1367L62.4707 99.0581L62.4758 99.0602L62.8594 98.1367ZM61.3828 97.4453L60.9129 98.3281L60.9242 98.3339L61.3828 97.4453ZM60.082 96.5312L59.3976 97.2604L59.4056 97.2678L60.082 96.5312ZM59.1562 95.2539L58.2478 95.6721L58.2534 95.6838L59.1562 95.2539ZM62.3438 88.9375L62.6321 89.8951L62.6414 89.8921L62.3438 88.9375ZM66.7148 88.75L66.5734 89.7399L66.5834 89.7414L66.5933 89.7426L66.7148 88.75ZM67.9102 88.9492L67.7069 89.9283L67.7175 89.9305L67.7281 89.9325L67.9102 88.9492ZM69.1758 89.2539L70.1562 89.451L70.3363 88.5548L69.4599 88.2951L69.1758 89.2539ZM68.7188 91.5273L69.1845 92.4122L69.6054 92.1907L69.6991 91.7244L68.7188 91.5273ZM68.4961 91.6445L68.0836 92.5555L68.5291 92.7572L68.9618 92.5294L68.4961 91.6445ZM65.1914 90.707L65.0867 91.7015L65.0894 91.7018L65.1914 90.707ZM62.332 91.2578L61.7164 90.4698L61.7103 90.4745L61.7043 90.4794L62.332 91.2578ZM61.7578 91.9844L60.8585 91.5469L60.8536 91.5574L61.7578 91.9844ZM61.9102 94.2226L61.0781 94.7774L61.0839 94.786L61.9102 94.2226ZM62.8242 95.1367L62.2462 95.9528L62.2541 95.9583L62.8242 95.1367ZM64.125 95.8515L63.7257 96.7684L63.7346 96.7722L63.7435 96.7759L64.125 95.8515ZM65.625 96.4844L65.2294 97.4028L65.2378 97.4064L65.2464 97.4099L65.625 96.4844ZM67.125 97.1758L66.6663 98.0644L66.6721 98.0673L67.125 97.1758ZM68.4258 98.0664L67.75 98.8036L67.7577 98.8104L68.4258 98.0664ZM69.3516 99.2851L68.4571 99.7324L68.4602 99.7384L69.3516 99.2851ZM67.9453 104.687L68.597 105.446L68.5978 105.445L67.9453 104.687ZM65.9414 105.824L66.2718 106.768L66.2801 106.765L65.9414 105.824ZM62.0977 106.152L62.2239 105.16L62.215 105.159L62.2061 105.158L62.0977 106.152ZM58.1953 105.109L57.2155 104.909L57.0545 105.698L57.7908 106.024L58.1953 105.109ZM58.6641 102.812L58.2169 101.918L57.7816 102.136L57.6843 102.613L58.6641 102.812ZM58.8984 102.695L59.3784 101.818L58.9193 101.567L58.4512 101.801L58.8984 102.695ZM63.6094 105.172C64.1616 105.172 64.6913 105.103 65.1923 104.955L64.628 103.037C64.3321 103.124 63.9947 103.172 63.6094 103.172V105.172ZM65.2042 104.952C65.7018 104.799 66.158 104.58 66.558 104.286L65.3716 102.675C65.1779 102.818 64.931 102.943 64.6161 103.04L65.2042 104.952ZM66.5715 104.275C66.9824 103.962 67.3117 103.574 67.5463 103.116L65.7662 102.204C65.6727 102.387 65.5411 102.546 65.3582 102.686L66.5715 104.275ZM67.5421 103.124C67.796 102.639 67.9141 102.111 67.9141 101.559H65.9141C65.9141 101.819 65.8602 102.025 65.7704 102.196L67.5421 103.124ZM67.9141 101.559C67.9141 100.908 67.7542 100.289 67.3826 99.7559L65.7424 100.9C65.8395 101.04 65.9141 101.241 65.9141 101.559H67.9141ZM67.3916 99.769C67.0814 99.3091 66.6754 98.9255 66.1952 98.6119L65.1016 100.286C65.3871 100.473 65.5905 100.675 65.7334 100.887L67.3916 99.769ZM66.207 98.6198C65.7633 98.3209 65.2709 98.0606 64.7344 97.8356L63.9609 99.68C64.3932 99.8613 64.768 100.062 65.0898 100.279L66.207 98.6198ZM64.7344 97.8356C64.2489 97.632 63.7518 97.4246 63.243 97.2132L62.4758 99.0602C62.9826 99.2707 63.4776 99.4773 63.9609 99.68L64.7344 97.8356ZM63.2481 97.2153C62.7719 97.0145 62.303 96.7949 61.8415 96.5567L60.9242 98.3339C61.4313 98.5957 61.9468 98.8371 62.4707 99.0581L63.2481 97.2153ZM61.8527 96.5626C61.4389 96.3423 61.0755 96.0859 60.7584 95.7947L59.4056 97.2678C59.8542 97.6797 60.358 98.0326 60.913 98.328L61.8527 96.5626ZM60.7665 95.8022C60.4779 95.5313 60.242 95.2081 60.0591 94.824L58.2534 95.6838C58.5392 96.2841 58.9205 96.8124 59.3976 97.2603L60.7665 95.8022ZM60.0646 94.8357C59.913 94.5063 59.8164 94.063 59.8164 93.4726H57.8164C57.8164 94.2729 57.9464 95.0171 58.2479 95.672L60.0646 94.8357ZM59.8164 93.4726C59.8164 92.8444 59.9355 92.3159 60.1513 91.8667L58.3487 91.0005C57.9864 91.7544 57.8164 92.5853 57.8164 93.4726H59.8164ZM60.1513 91.8667C60.3755 91.4002 60.6878 91.0062 61.0963 90.677L59.8412 89.1198C59.2028 89.6344 58.7026 90.2638 58.3487 91.0005L60.1513 91.8667ZM61.0963 90.677C61.5071 90.3459 62.0132 90.0813 62.632 89.895L62.0555 87.9799C61.2212 88.2311 60.4772 88.6072 59.8412 89.1198L61.0963 90.677ZM62.6414 89.8921C63.2584 89.6997 63.9572 89.5976 64.7461 89.5976V87.5976C63.7849 87.5976 62.8822 87.7221 62.0461 87.9828L62.6414 89.8921ZM64.7461 89.5976C64.9749 89.5976 65.2478 89.6081 65.5671 89.6304L65.7063 87.6352C65.3538 87.6106 65.0329 87.5976 64.7461 87.5976V89.5976ZM65.5671 89.6304C65.8758 89.6519 66.211 89.6882 66.5734 89.7399L66.8563 87.76C66.453 87.7024 66.0695 87.6606 65.7063 87.6352L65.5671 89.6304ZM66.5933 89.7426C66.9463 89.7858 67.3174 89.8475 67.7069 89.9283L68.1134 87.9701C67.6748 87.8791 67.2491 87.8079 66.8364 87.7574L66.5933 89.7426ZM67.7281 89.9325C68.1147 90.0041 68.5025 90.0974 68.8917 90.2127L69.4599 88.2951C69.0053 88.1604 68.5494 88.0506 68.0922 87.9659L67.7281 89.9325ZM68.1954 89.0568L67.7384 91.3302L69.6991 91.7244L70.1562 89.451L68.1954 89.0568ZM68.253 90.6424L68.0303 90.7596L68.9618 92.5294L69.1845 92.4122L68.253 90.6424ZM68.9086 90.7336C68.4632 90.5319 68.0248 90.3613 67.5938 90.2233L66.9843 92.1282C67.3346 92.2403 67.7009 92.3822 68.0836 92.5555L68.9086 90.7336ZM67.5938 90.2233C67.1782 90.0903 66.7776 89.9804 66.3927 89.8949L65.9588 91.8473C66.2771 91.918 66.6187 92.0112 66.9843 92.1282L67.5938 90.2233ZM66.3927 89.8949C66.0096 89.8098 65.6428 89.7481 65.2934 89.7122L65.0894 91.7018C65.3494 91.7285 65.6388 91.7761 65.9588 91.8473L66.3927 89.8949ZM65.2961 89.7125C64.9746 89.6787 64.6767 89.6601 64.4062 89.6601V91.6601C64.5889 91.6601 64.8144 91.6729 65.0867 91.7015L65.2961 89.7125ZM64.4062 89.6601C63.8985 89.6601 63.4127 89.7201 62.9568 89.8518L63.5119 91.7732C63.7592 91.7018 64.0546 91.6601 64.4062 91.6601V89.6601ZM62.9568 89.8518C62.5012 89.9834 62.0812 90.1847 61.7164 90.4698L62.9477 92.0458C63.0828 91.9402 63.2644 91.8447 63.5119 91.7732L62.9568 89.8518ZM61.7043 90.4794C61.3438 90.7701 61.0613 91.1301 60.8586 91.5469L62.657 92.4218C62.7355 92.2605 62.8359 92.1361 62.9598 92.0362L61.7043 90.4794ZM60.8536 91.5574C60.6473 91.9941 60.5586 92.4686 60.5586 92.957H62.5586C62.5586 92.7111 62.6027 92.5371 62.6621 92.4114L60.8536 91.5574ZM60.5586 92.957C60.5586 93.6133 60.7171 94.2358 61.0781 94.7773L62.7422 93.6679C62.6345 93.5063 62.5586 93.2851 62.5586 92.957H60.5586ZM61.0839 94.786C61.392 95.2378 61.7842 95.6255 62.2462 95.9527L63.4022 94.3207C63.1142 94.1167 62.8971 93.895 62.7364 93.6593L61.0839 94.786ZM62.2541 95.9583C62.6972 96.2657 63.1893 96.5348 63.7257 96.7684L64.5243 94.9347C64.092 94.7465 63.7169 94.5389 63.3943 94.3151L62.2541 95.9583ZM63.7435 96.7759C64.2308 96.977 64.7261 97.186 65.2294 97.4028L66.0206 95.5659C65.5083 95.3453 65.0036 95.1323 64.5065 94.9272L63.7435 96.7759ZM65.2464 97.4099C65.7354 97.61 66.2087 97.8282 66.6664 98.0644L67.5836 96.2871C67.0726 96.0234 66.5459 95.7806 66.0036 95.5588L65.2464 97.4099ZM66.6721 98.0673C67.0902 98.2797 67.4474 98.5261 67.7501 98.8035L69.1015 97.3292C68.6541 96.9192 68.1442 96.5718 67.5779 96.2842L66.6721 98.0673ZM67.7577 98.8104C68.0453 99.0687 68.2778 99.3737 68.4571 99.7324L70.246 98.8379C69.9566 98.259 69.5719 97.7515 69.0939 97.3223L67.7577 98.8104ZM68.4602 99.7384C68.6073 100.028 68.7031 100.419 68.7031 100.949H70.7031C70.7031 100.182 70.5646 99.4644 70.243 98.8319L68.4602 99.7384ZM68.7031 100.949C68.7031 101.531 68.5823 102.067 68.343 102.57L70.1492 103.429C70.5192 102.651 70.7031 101.821 70.7031 100.949H68.7031ZM68.343 102.57C68.1009 103.08 67.7548 103.532 67.2928 103.93L68.5978 105.445C69.2608 104.874 69.7819 104.202 70.1492 103.429L68.343 102.57ZM67.2936 103.929C66.8429 104.316 66.2848 104.638 65.6027 104.883L66.2801 106.765C67.1606 106.448 67.9383 106.012 68.597 105.446L67.2936 103.929ZM65.6111 104.88C64.9515 105.111 64.1943 105.234 63.3281 105.234V107.234C64.3838 107.234 65.3688 107.084 66.2718 106.768L65.6111 104.88ZM63.3281 105.234C62.984 105.234 62.6162 105.21 62.2239 105.16L61.9714 107.144C62.4385 107.204 62.891 107.234 63.3281 107.234V105.234ZM62.2061 105.158C61.8108 105.115 61.4059 105.05 60.9912 104.963L60.5791 106.92C61.055 107.02 61.5251 107.096 61.9892 107.146L62.2061 105.158ZM60.9912 104.963C60.58 104.876 60.1719 104.768 59.7669 104.638L59.1549 106.542C59.625 106.693 60.0997 106.819 60.5791 106.92L60.9912 104.963ZM59.7669 104.638C59.3618 104.508 58.9728 104.36 58.5998 104.195L57.7908 106.024C58.2303 106.218 58.6851 106.391 59.1549 106.542L59.7669 104.638ZM59.1751 105.309L59.6439 103.012L57.6843 102.613L57.2155 104.909L59.1751 105.309ZM59.1113 103.707L59.3456 103.59L58.4512 101.801L58.2169 101.918L59.1113 103.707ZM58.4184 103.573C59.2913 104.05 60.1537 104.435 61.0052 104.721L61.6433 102.826C60.9166 102.581 60.1618 102.247 59.3784 101.818L58.4184 103.573ZM61.0052 104.721C61.8835 105.017 62.7531 105.172 63.6094 105.172V103.172C62.9969 103.172 62.3431 103.061 61.6433 102.826L61.0052 104.721ZM82.9336 101.57L83.883 101.256L83.6562 100.57H82.9336V101.57ZM76.0547 101.57V100.57H75.3285L75.1038 101.261L76.0547 101.57ZM74.6133 106V107H75.3395L75.5642 106.309L74.6133 106ZM72.0117 106L71.0691 105.666L70.5966 107H72.0117V106ZM78.0938 88.832V87.832H77.3871L77.1512 88.4981L78.0938 88.832ZM81.3867 88.832L82.3293 88.4981L82.0934 87.832H81.3867V88.832ZM87.4688 106V107H88.8839L88.4113 105.666L87.4688 106ZM84.3984 106L83.449 106.314L83.6759 107H84.3984V106ZM82.2891 99.5781V100.578H83.6604L83.2412 99.2724L82.2891 99.5781ZM80.25 93.2265L79.2829 93.481L79.2897 93.5068L79.2979 93.5322L80.25 93.2265ZM79.6055 90.7773L80.5725 90.5228L80.3764 89.7773H79.6055V90.7773ZM79.3711 90.7773V89.7773H78.5966L78.4029 90.5272L79.3711 90.7773ZM78.7383 93.2265L79.6894 93.5354L79.6988 93.5063L79.7065 93.4767L78.7383 93.2265ZM76.6758 99.5781L75.7247 99.2693L75.2997 100.578H76.6758V99.5781ZM82.9336 100.57H76.0547V102.57H82.9336V100.57ZM75.1038 101.261L73.6624 105.691L75.5642 106.309L77.0056 101.88L75.1038 101.261ZM74.6133 105H72.0117V107H74.6133V105ZM72.9543 106.334L79.0363 89.1659L77.1512 88.4981L71.0691 105.666L72.9543 106.334ZM78.0938 89.832H81.3867V87.832H78.0938V89.832ZM80.4441 89.1659L86.5262 106.334L88.4113 105.666L82.3293 88.4981L80.4441 89.1659ZM87.4688 105H84.3984V107H87.4688V105ZM85.3479 105.686L83.883 101.256L81.9842 101.884L83.449 106.314L85.3479 105.686ZM83.2412 99.2724L81.2021 92.9209L79.2979 93.5322L81.3369 99.8838L83.2412 99.2724ZM81.2171 92.9721L80.5725 90.5228L78.6384 91.0318L79.2829 93.481L81.2171 92.9721ZM79.6055 89.7773H79.3711V91.7773H79.6055V89.7773ZM78.4029 90.5272L77.7701 92.9764L79.7065 93.4767L80.3393 91.0275L78.4029 90.5272ZM77.7872 92.9177L75.7247 99.2693L77.6269 99.887L79.6894 93.5354L77.7872 92.9177ZM76.6758 100.578H82.2891V98.5781H76.6758V100.578ZM90.2227 106L89.2256 105.924L89.1433 107H90.2227V106ZM91.5352 88.832V87.832H90.6087L90.5381 88.7558L91.5352 88.832ZM95.7891 88.832L96.7371 88.514L96.5084 87.832H95.7891V88.832ZM99.4688 99.8008L100.437 99.552L100.428 99.517L100.417 99.4827L99.4688 99.8008ZM100.125 102.355L99.1564 102.604L99.3494 103.355H100.125V102.355ZM100.359 102.355V103.355H101.132L101.327 102.608L100.359 102.355ZM101.027 99.8008L100.08 99.4818L100.069 99.5145L100.06 99.5478L101.027 99.8008ZM104.719 88.832V87.832H104L103.771 88.5131L104.719 88.832ZM109.09 88.832L110.087 88.7551L110.016 87.832H109.09V88.832ZM110.414 106V107H111.494L111.411 105.923L110.414 106ZM107.414 106L106.416 106.062L106.474 107H107.414V106ZM106.617 93.168L105.618 93.1943L105.618 93.2121L105.619 93.2299L106.617 93.168ZM106.547 90.4961L107.547 90.4698L107.521 89.4961H106.547V90.4961ZM106.312 90.4961V89.4961H105.551L105.348 90.2307L106.312 90.4961ZM105.609 93.0508L106.558 93.3659L106.567 93.3412L106.574 93.3161L105.609 93.0508ZM101.426 105.648V106.648H102.147L102.375 105.964L101.426 105.648ZM98.7773 105.648L97.8293 105.967L98.0581 106.648H98.7773V105.648ZM94.5586 93.0742L93.5961 93.3455L93.6027 93.369L93.6105 93.3923L94.5586 93.0742ZM93.832 90.4961L94.7945 90.2248L94.5892 89.4961H93.832V90.4961ZM93.5977 90.4961V89.4961H92.6195L92.5979 90.474L93.5977 90.4961ZM93.5391 93.1445L94.5372 93.2055L94.5384 93.1861L94.5388 93.1666L93.5391 93.1445ZM92.7539 106V107H93.6947L93.752 106.061L92.7539 106ZM91.2197 106.076L92.5322 88.9082L90.5381 88.7558L89.2256 105.924L91.2197 106.076ZM91.5352 89.832H95.7891V87.832H91.5352V89.832ZM94.841 89.1501L98.5207 100.119L100.417 99.4827L96.7371 88.514L94.841 89.1501ZM98.5002 100.05L99.1564 102.604L101.094 102.107L100.437 99.552L98.5002 100.05ZM100.125 103.355H100.359V101.355H100.125V103.355ZM101.327 102.608L101.995 100.054L100.06 99.5478L99.3919 102.102L101.327 102.608ZM101.975 100.12L105.667 89.151L103.771 88.5131L100.08 99.4818L101.975 100.12ZM104.719 89.832H109.09V87.832H104.719V89.832ZM108.093 88.9089L109.417 106.077L111.411 105.923L110.087 88.7551L108.093 88.9089ZM110.414 105H107.414V107H110.414V105ZM108.412 105.938L107.615 93.106L105.619 93.2299L106.416 106.062L108.412 105.938ZM107.617 93.1416L107.547 90.4698L105.547 90.5224L105.618 93.1943L107.617 93.1416ZM106.547 89.4961H106.312V91.4961H106.547V89.4961ZM105.348 90.2307L104.645 92.7854L106.574 93.3161L107.277 90.7614L105.348 90.2307ZM104.66 92.7356L100.477 105.333L102.375 105.964L106.558 93.3659L104.66 92.7356ZM101.426 104.648H98.7773V106.648H101.426V104.648ZM99.7254 105.33L95.5067 92.7561L93.6105 93.3923L97.8293 105.967L99.7254 105.33ZM95.5211 92.803L94.7945 90.2248L92.8695 90.7673L93.5961 93.3455L95.5211 92.803ZM93.832 89.4961H93.5977V91.4961H93.832V89.4961ZM92.5979 90.474L92.5393 93.1224L94.5388 93.1666L94.5974 90.5182L92.5979 90.474ZM92.5409 93.0836L91.7558 105.939L93.752 106.061L94.5372 93.2055L92.5409 93.0836ZM92.7539 105H90.2227V107H92.7539V105ZM128.52 105.098L128.879 106.031L129.52 105.784V105.098H128.52ZM125.402 105.988L125.567 106.975L125.574 106.973L125.402 105.988ZM118.969 105.648L118.622 106.586L118.63 106.589L118.969 105.648ZM116.215 103.973L115.523 104.694L115.527 104.698L116.215 103.973ZM115.254 92.8867L116.102 93.4167L116.105 93.4124L115.254 92.8867ZM118.781 89.7109L119.228 90.6054L119.236 90.6014L118.781 89.7109ZM125.613 88.75L125.472 89.7399L125.483 89.7415L125.494 89.7429L125.613 88.75ZM126.82 88.9492L126.617 89.9283L126.626 89.9302L126.635 89.9319L126.82 88.9492ZM128.074 89.2539L129.054 89.452L129.236 88.555L128.358 88.2951L128.074 89.2539ZM127.617 91.5156L128.064 92.41L128.501 92.1919L128.597 91.7137L127.617 91.5156ZM127.383 91.6328L126.96 92.539L127.398 92.7433L127.83 92.5272L127.383 91.6328ZM120.621 91.1758L121.019 92.093L121.027 92.0896L120.621 91.1758ZM118.629 92.582L119.36 93.2647L119.364 93.2599L118.629 92.582ZM117.34 94.7031L116.402 94.3549L116.401 94.3599L117.34 94.7031ZM117.305 99.9648L116.356 100.281L116.359 100.289L117.305 99.9648ZM124.453 104.066L124.314 103.076L124.312 103.076L124.453 104.066ZM125.93 103.727L126.237 104.678L126.93 104.455V103.727H125.93ZM125.93 97.7969V96.7969H124.93V97.7969H125.93ZM128.52 97.7969H129.52V96.7969H128.52V97.7969ZM128.16 104.165C127.117 104.567 126.141 104.844 125.23 105.003L125.574 106.973C126.633 106.789 127.735 106.472 128.879 106.031L128.16 104.165ZM125.238 105.002C124.298 105.158 123.44 105.234 122.66 105.234V107.234C123.568 107.234 124.538 107.146 125.567 106.975L125.238 105.002ZM122.66 105.234C121.379 105.234 120.266 105.052 119.307 104.707L118.63 106.589C119.843 107.026 121.191 107.234 122.66 107.234V105.234ZM119.315 104.71C118.351 104.354 117.553 103.864 116.903 103.247L115.527 104.698C116.392 105.519 117.43 106.146 118.622 106.586L119.315 104.71ZM116.907 103.251C116.259 102.63 115.76 101.879 115.412 100.985L113.549 101.71C113.997 102.863 114.655 103.862 115.523 104.694L116.907 103.251ZM115.412 100.985C115.065 100.093 114.883 99.0773 114.883 97.9258H112.883C112.883 99.2899 113.099 100.556 113.549 101.71L115.412 100.985ZM114.883 97.9258C114.883 97.0236 114.994 96.2034 115.207 95.4595L113.285 94.9077C113.014 95.8513 112.883 96.8592 112.883 97.9258H114.883ZM115.207 95.4595C115.426 94.6979 115.726 94.0189 116.102 93.4167L114.406 92.3567C113.923 93.1295 113.551 93.9817 113.285 94.9077L115.207 95.4595ZM116.105 93.4124C116.484 92.799 116.936 92.2615 117.463 91.7964L116.139 90.2973C115.462 90.8947 114.884 91.5838 114.403 92.361L116.105 93.4124ZM117.463 91.7964C117.999 91.3226 118.587 90.926 119.228 90.6053L118.334 88.8165C117.538 89.2146 116.805 89.7086 116.139 90.2973L117.463 91.7964ZM119.236 90.6014C119.88 90.2728 120.568 90.023 121.303 89.8533L120.853 87.9045C119.964 88.1098 119.12 88.4147 118.326 88.8204L119.236 90.6014ZM121.303 89.8533C122.04 89.6833 122.8 89.5976 123.586 89.5976V87.5976C122.653 87.5976 121.742 87.6995 120.853 87.9045L121.303 89.8533ZM123.586 89.5976C123.84 89.5976 124.129 89.6083 124.455 89.6305L124.591 87.6351C124.23 87.6105 123.894 87.5976 123.586 87.5976V89.5976ZM124.455 89.6305C124.772 89.6521 125.111 89.6883 125.472 89.7399L125.755 87.76C125.35 87.7023 124.963 87.6604 124.591 87.6351L124.455 89.6305ZM125.494 89.7429C125.855 89.7861 126.229 89.8477 126.617 89.9283L127.024 87.9701C126.584 87.8788 126.153 87.8076 125.732 87.7571L125.494 89.7429ZM126.635 89.9319C127.014 90.0034 127.399 90.0969 127.79 90.2127L128.358 88.2951C127.905 88.1609 127.454 88.0512 127.006 87.9665L126.635 89.9319ZM127.094 89.0558L126.637 91.3175L128.597 91.7137L129.054 89.452L127.094 89.0558ZM127.17 90.6212L126.936 90.7384L127.83 92.5272L128.064 92.41L127.17 90.6212ZM127.806 90.7266C126.926 90.3161 126.075 90.0274 125.256 89.876L124.893 91.8427C125.511 91.957 126.199 92.1839 126.96 92.539L127.806 90.7266ZM125.256 89.876C124.499 89.7361 123.814 89.6601 123.211 89.6601V91.6601C123.655 91.6601 124.212 91.717 124.893 91.8427L125.256 89.876ZM123.211 89.6601C122.136 89.6601 121.131 89.8546 120.215 90.262L121.027 92.0896C121.658 91.8094 122.38 91.6601 123.211 91.6601V89.6601ZM120.223 90.2585C119.326 90.6482 118.546 91.1971 117.894 91.9041L119.364 93.2599C119.821 92.7638 120.37 92.3752 121.019 92.093L120.223 90.2585ZM117.898 91.8994C117.246 92.5971 116.75 93.4202 116.402 94.3549L118.277 95.0513C118.539 94.3454 118.902 93.7545 119.36 93.2647L117.898 91.8994ZM116.401 94.3599C116.059 95.2939 115.895 96.2982 115.895 97.3633H117.895C117.895 96.5065 118.027 95.7373 118.279 95.0463L116.401 94.3599ZM115.895 97.3633C115.895 98.3786 116.047 99.3531 116.356 100.281L118.253 99.6486C118.016 98.9359 117.895 98.176 117.895 97.3633H115.895ZM116.359 100.289C116.678 101.221 117.145 102.055 117.761 102.78L119.285 101.485C118.84 100.961 118.494 100.349 118.251 99.6405L116.359 100.289ZM117.761 102.78C118.387 103.516 119.149 104.097 120.036 104.523L120.901 102.719C120.257 102.411 119.723 102 119.285 101.485L117.761 102.78ZM120.036 104.523C120.957 104.964 121.983 105.172 123.094 105.172V103.172C122.235 103.172 121.512 103.012 120.901 102.719L120.036 104.523ZM123.094 105.172C123.563 105.172 124.064 105.132 124.595 105.056L124.312 103.076C123.857 103.141 123.452 103.172 123.094 103.172V105.172ZM124.592 105.057C125.15 104.978 125.698 104.852 126.237 104.678L125.623 102.775C125.193 102.914 124.756 103.014 124.314 103.076L124.592 105.057ZM126.93 103.727V97.7969H124.93V103.727H126.93ZM125.93 98.7969H128.52V96.7969H125.93V98.7969ZM127.52 97.7969V105.098H129.52V97.7969H127.52ZM139.91 106V107H140.91V106H139.91ZM136.992 106H135.992V107H136.992V106ZM136.992 90.8945H137.992V89.8945H136.992V90.8945ZM131.426 90.8945L130.443 90.7102L130.221 91.8945H131.426V90.8945ZM131.812 88.832V87.832H130.983L130.83 88.6477L131.812 88.832ZM145.652 88.832L146.635 89.0163L146.857 87.832H145.652V88.832ZM145.266 90.8945V91.8945H146.096L146.249 91.0788L145.266 90.8945ZM139.91 90.8945V89.8945H138.91V90.8945H139.91ZM139.91 105H136.992V107H139.91V105ZM137.992 106V90.8945H135.992V106H137.992ZM136.992 89.8945H131.426V91.8945H136.992V89.8945ZM132.409 91.0788L132.795 89.0163L130.83 88.6477L130.443 90.7102L132.409 91.0788ZM131.812 89.832H145.652V87.832H131.812V89.832ZM144.669 88.6477L144.283 90.7102L146.249 91.0788L146.635 89.0163L144.669 88.6477ZM145.266 89.8945H139.91V91.8945H145.266V89.8945ZM138.91 90.8945V106H140.91V90.8945H138.91ZM151.5 88.832H152.5V87.832H151.5V88.832ZM151.863 101.629L150.941 102.015L150.945 102.026L151.863 101.629ZM152.836 103.059L152.151 103.787L152.158 103.793L152.836 103.059ZM154.207 103.902L153.861 104.841L153.873 104.845L154.207 103.902ZM157.242 103.891L156.876 102.96L156.871 102.962L157.242 103.891ZM159.316 101.676L158.382 101.32L158.377 101.332L159.316 101.676ZM159.633 88.832V87.832H158.633V88.832H159.633ZM162.141 88.832H163.141V87.832H162.141V88.832ZM161.953 101.172L160.979 100.946L160.977 100.956L161.953 101.172ZM160.453 104.09L159.706 103.425L159.7 103.432L160.453 104.09ZM159.117 105.215L159.636 106.07L159.645 106.064L159.117 105.215ZM157.359 105.965L157.626 106.929L157.634 106.926L157.359 105.965ZM152.508 105.801L152.165 106.74L152.173 106.743L152.508 105.801ZM150.41 104.5L149.708 105.212L149.713 105.217L150.41 104.5ZM149.062 102.402L148.126 102.753L148.13 102.763L149.062 102.402ZM148.594 88.832V87.832H147.594V88.832H148.594ZM150.5 88.832V99.5781H152.5V88.832H150.5ZM150.5 99.5781C150.5 100.467 150.636 101.288 150.941 102.015L152.786 101.243C152.606 100.814 152.5 100.268 152.5 99.5781H150.5ZM150.945 102.026C151.241 102.71 151.639 103.305 152.151 103.787L153.521 102.33C153.236 102.062 152.985 101.704 152.781 101.232L150.945 102.026ZM152.158 103.793C152.658 104.255 153.227 104.607 153.861 104.84L154.553 102.964C154.171 102.823 153.826 102.612 153.514 102.324L152.158 103.793ZM153.873 104.845C154.484 105.061 155.108 105.172 155.742 105.172V103.172C155.345 103.172 154.946 103.103 154.541 102.96L153.873 104.845ZM155.742 105.172C156.394 105.172 157.021 105.056 157.614 104.819L156.871 102.962C156.526 103.1 156.153 103.172 155.742 103.172V105.172ZM157.608 104.821C158.218 104.581 158.754 104.223 159.207 103.75L157.762 102.367C157.511 102.629 157.219 102.825 156.876 102.96L157.608 104.821ZM159.207 103.75C159.668 103.268 160.012 102.683 160.255 102.02L158.377 101.332C158.214 101.778 158.004 102.114 157.762 102.367L159.207 103.75ZM160.251 102.031C160.515 101.339 160.633 100.565 160.633 99.7305H158.633C158.633 100.38 158.54 100.904 158.382 101.32L160.251 102.031ZM160.633 99.7305V88.832H158.633V99.7305H160.633ZM159.633 89.832H162.141V87.832H159.633V89.832ZM161.141 88.832V99.5664H163.141V88.832H161.141ZM161.141 99.5664C161.141 100.019 161.088 100.478 160.979 100.946L162.927 101.398C163.069 100.788 163.141 100.177 163.141 99.5664H161.141ZM160.977 100.956C160.878 101.404 160.723 101.836 160.511 102.254L162.294 103.16C162.582 102.594 162.794 102.002 162.93 101.387L160.977 100.956ZM160.511 102.254C160.301 102.666 160.034 103.056 159.706 103.425L161.2 104.755C161.637 104.264 162.003 103.732 162.294 103.16L160.511 102.254ZM159.7 103.432C159.394 103.782 159.026 104.094 158.59 104.365L159.645 106.064C160.239 105.695 160.762 105.257 161.207 104.747L159.7 103.432ZM158.599 104.36C158.169 104.62 157.666 104.837 157.085 105.003L157.634 106.926C158.365 106.718 159.035 106.434 159.635 106.07L158.599 104.36ZM157.092 105.001C156.544 105.153 155.917 105.234 155.203 105.234V107.234C156.067 107.234 156.878 107.136 157.626 106.929L157.092 105.001ZM155.203 105.234C154.317 105.234 153.534 105.104 152.843 104.859L152.173 106.743C153.107 107.075 154.12 107.234 155.203 107.234V105.234ZM152.851 104.862C152.163 104.61 151.587 104.25 151.108 103.783L149.713 105.217C150.405 105.891 151.227 106.398 152.165 106.74L152.851 104.862ZM151.112 103.788C150.644 103.326 150.269 102.75 149.995 102.042L148.13 102.763C148.496 103.711 149.02 104.533 149.708 105.212L151.112 103.788ZM149.999 102.052C149.736 101.349 149.594 100.514 149.594 99.5312H147.594C147.594 100.705 147.764 101.784 148.126 102.752L149.999 102.052ZM149.594 99.5312V88.832H147.594V99.5312H149.594ZM148.594 89.832H151.5V87.832H148.594V89.832Z" fill="#2ED7D9" fill-opacity="0.43"/>
</g>
<g filter="url(#filter1_d_1674_706)">
<path d="M113.811 47.1827C113.811 65.2863 99.2466 79.9623 81.2801 79.9623C72.1515 79.9623 66.3805 77.8515 60.1722 71.2708C78.052 68.7875 76.4377 57.7022 76.4377 48.7968C72.7295 42.2996 58.9381 29.5526 57.3164 25.0813C67.3738 16.8865 69.1121 14.4032 81.2801 14.4031C99.2466 14.4031 113.811 29.079 113.811 47.1827Z" fill="#CCE6E4" fill-opacity="0.42" shape-rendering="crispEdges"/>
</g>
<g filter="url(#filter2_f_1674_706)">
<path d="M70 51.5C70 62.8218 64.7696 69.5 54 69.5C55.5 68 33.5 74 31 49C34 38.5 46.7304 32 57.5 32C68.2696 32 70 40.1782 70 51.5Z" fill="white"/>
</g>
<path d="M89.6441 81.4921C101.936 73.5455 103.426 72.6763 107.524 69.5722C111 61.3773 112.863 56.4107 114.974 49.5816C114.974 37.6618 111.994 36.296 110.007 27.9192C101.812 23.3828 99.9498 20.1545 91.6307 14.4031H70.6468C63.1969 20.0304 61.4586 20.7754 52.8912 27.9192C50.0002 35 52.0001 31.9502 59.3478 31.9502C68.2877 31.9502 70.5227 42.6863 70.5227 45.1117C70.5227 48.4463 76.3584 50.2025 76.3584 51.8166C73.5026 54.5483 71.8884 54.4241 73.8751 56.1624C74.1092 56.8997 71.516 58.1491 73.8751 58.1491C70.5227 62.3707 73.7509 60.7565 73.3784 63.8606C71.1435 67.3373 63.8177 66.2198 62.0794 69.6964C60.4653 69.1997 56.8277 69.7531 55.6228 70.4414C62.4519 75.2838 64.1902 76.7738 73.006 81.4921H89.6441Z" fill="#D9E9E9"/>
<path d="M80.7034 15.5586L81.2001 47.0984" stroke="white" stroke-width="0.3"/>
<line x1="70.6651" y1="14.4184" x2="80.5983" y2="15.66" stroke="white" stroke-width="0.3"/>
<line x1="57.6166" y1="30.8642" x2="70.5297" y2="14.4744" stroke="white" stroke-width="0.3"/>
<line x1="52.9555" y1="27.8396" x2="80.7685" y2="15.6714" stroke="white" stroke-width="0.3"/>
<line x1="80.5631" y1="15.6598" x2="91.4897" y2="14.4182" stroke="white" stroke-width="0.3"/>
<line x1="80.638" y1="15.6705" x2="109.693" y2="27.8387" stroke="white" stroke-width="0.3"/>
<line x1="91.6262" y1="14.4777" x2="114.721" y2="45.5189" stroke="white" stroke-width="0.3"/>
<line x1="68.5725" y1="38.2851" x2="80.989" y2="29.3452" stroke="white" stroke-width="0.3"/>
<line x1="63.4958" y1="23.1175" x2="80.8789" y2="29.3257" stroke="white" stroke-width="0.3"/>
<line x1="80.9203" y1="29.1003" x2="97.8068" y2="42.2618" stroke="white" stroke-width="0.3"/>
<line x1="80.7782" y1="29.0772" x2="97.6646" y2="23.1173" stroke="white" stroke-width="0.3"/>
<line x1="81.0348" y1="46.9543" x2="109.593" y2="38.7594" stroke="white" stroke-width="0.3"/>
<line x1="97.3168" y1="41.8816" x2="97.5651" y2="23.0085" stroke="white" stroke-width="0.3"/>
<line x1="70.6877" y1="43.9742" x2="81.1176" y2="46.9542" stroke="white" stroke-width="0.3"/>
<line x1="81.2046" y1="46.9276" x2="72.513" y2="61.3308" stroke="white" stroke-width="0.3"/>
<line x1="109.785" y1="27.9818" x2="108.551" y2="66.7215" stroke="white" stroke-width="0.3"/>
<line x1="81.2026" y1="46.7694" x2="97.8407" y2="72.8441" stroke="white" stroke-width="0.3"/>
<line x1="97.8571" y1="42.1793" x2="91.1522" y2="62.294" stroke="white" stroke-width="0.3"/>
<line x1="97.8405" y1="41.8017" x2="108.519" y2="58.1914" stroke="white" stroke-width="0.3"/>
<line x1="108.514" y1="58.1134" x2="93.1173" y2="79.2214" stroke="white" stroke-width="0.3"/>
<line x1="108.428" y1="58.1708" x2="91.0449" y2="62.3924" stroke="white" stroke-width="0.3"/>
<line x1="91.0098" y1="62.3966" x2="73.6267" y2="62.3966" stroke="white" stroke-width="0.3"/>
<path d="M93.3242 79.2174L57.3164 70.0292" stroke="white" stroke-width="0.3"/>
<line x1="72.5051" y1="64.8886" x2="81.1966" y2="76.5601" stroke="white" stroke-width="0.3"/>
<line x1="61.5662" y1="69.5915" x2="73.0689" y2="81.3474" stroke="white" stroke-width="0.3"/>
<line x1="91.1332" y1="62.3317" x2="81.2001" y2="76.7349" stroke="white" stroke-width="0.3"/>
<line x1="81.148" y1="76.7814" x2="72.9531" y2="81.2513" stroke="white" stroke-width="0.3"/>
<line x1="81.1493" y1="76.5188" x2="89.5926" y2="81.237" stroke="white" stroke-width="0.3"/>
<line x1="108.521" y1="57.6861" x2="114.729" y2="49.4912" stroke="white" stroke-width="0.3"/>
<line x1="97.6674" y1="72.5342" x2="107.352" y2="69.3059" stroke="white" stroke-width="0.3"/>
<line x1="81.0418" y1="76.5037" x2="97.9283" y2="72.5304" stroke="white" stroke-width="0.3"/>
<path d="M63.4552 22.9253L54.0873 26.9437L69.4456 15.4286L63.4552 22.9253Z" fill="#FFCE54"/>
<path d="M70.7255 14.6515L79.503 15.7124L64.8012 22.1097L70.7255 14.6515Z" fill="#FA5E6B"/>
<path d="M74.7311 24.2124L80.2592 16.228L64.5185 23.2189L74.7311 24.2124Z" fill="url(#paint0_linear_1674_706)"/>
<path d="M80.535 15.3964L73.7606 14.4652L87.3094 14.4652L80.535 15.3964Z" fill="#FF8F5A"/>
<path d="M62.5308 23.8397L56.695 30.7929L55.8259 27.9371L54.2117 27.4404L62.5308 23.8397Z" fill="url(#paint1_linear_1674_706)"/>
<path d="M91.685 14.5304L93.9236 18.6363L87.0911 15.405L91.685 14.5304Z" fill="url(#paint2_linear_1674_706)"/>
<path d="M98.0421 22.598L92.4547 14.6514L100.153 20.4872L106.551 25.9435L98.0421 22.598Z" fill="#E577BE"/>
<path d="M62.4474 32.827L64.5705 26.2961L69.1575 34.288L62.4474 32.827Z" fill="#5A00CF"/>
<path d="M70.8435 26.2047L68.3949 35.4522L63.6627 32.5251L70.8435 26.2047Z" fill="#4325B7"/>
<path d="M67.7495 28.2756L74.256 27.4843L63.8646 33.5548L67.7495 28.2756Z" fill="#7A47C3"/>
<path d="M70.7475 32.7019L74.4663 27.1386L64.0749 33.209L70.7475 32.7019Z" fill="#6823B2"/>
<path d="M74.2816 27.0963L70.0783 32.3864L73.5486 33.8131L74.2816 27.0963Z" fill="#7950DC"/>
<path d="M109.714 28.0614L109.093 37.4979L99.1601 23.7155L109.714 28.0614Z" fill="url(#paint3_linear_1674_706)"/>
<path d="M108.223 68.1666L103.878 70.0291L99.5175 71.3756L108.596 58.6059L108.223 68.1666Z" fill="url(#paint4_linear_1674_706)"/>
<path d="M62.9699 29.853L57.4102 31.279L63.2099 24.1183L62.9699 29.853Z" fill="#985A86"/>
<path d="M109.59 38.4911L110.14 29.1788L113.315 37.1253L114.681 44.6994L109.59 38.4911Z" fill="#0067D2"/>
<path d="M63.617 23.5321L68.988 25.5562L60.1284 28.0899L63.617 23.5321Z" fill="#B2368C"/>
<path d="M77.0601 22.6722L80.1268 24.9072L74.9475 26.8194L72.9609 26.0746L74.9475 25.3296L77.0601 22.6722Z" fill="url(#paint5_linear_1674_706)"/>
<path d="M87.8602 23.3429L86.6186 26.6955L81.3679 28.2992L81.3679 25.4538L82.7695 23.3429L82.1487 21.4805L87.8602 23.3429Z" fill="url(#paint6_linear_1674_706)"/>
<path d="M77.5547 51.7768C77.3716 52.5095 74.9473 53.8876 74.3265 55.0051C74.1638 55.4781 75.2743 55.9573 75.0714 56.495C74.8961 56.9599 74.2097 57.2421 74.0065 57.7367C73.8992 57.998 75.1861 58.0916 75.0714 58.3575C74.698 59.2237 74.0253 59.8593 73.5815 60.7167C73.5815 62.2066 75.2005 62.8142 74.699 63.5725C74.0065 65.8074 69.6082 66.9249 67.7457 67.2974C66.8772 67.7027 65.1382 67.6699 63.1516 69.7807C62.0341 69.7807 59.0542 70.1532 57.8125 69.7807C58.0608 69.284 58.185 69.1599 58.185 69.1599C62.7791 69.6565 62.6549 65.0624 61.2891 64.4416C61.6616 63.0758 61.6616 63.5725 61.9099 62.5791C69.1115 59.9717 63.1516 54.0117 59.7991 56.495C59.7705 55.7369 59.7991 54.6326 58.185 53.6392C59.7991 52.0251 58.9963 50.9262 58.93 50.1626C59.4266 49.5418 59.675 48.921 60.0475 47.9277C67.1249 45.6927 62.1583 40.6019 59.9233 41.0986C63.7724 37.7461 60.1717 36.132 59.0541 35.6353C59.2408 34.9523 59.3025 34.642 58.8058 33.7728C60.0475 33.152 59.7991 32.2829 60.42 31.9104C62.5308 32.2829 65.699 32.7216 68.2423 35.6353C70.421 38.1313 71.3465 41.7194 71.719 45.5685C72.2156 48.3002 77.8651 50.5351 77.5547 51.7768Z" fill="url(#paint7_linear_1674_706)"/>
<line x1="57.0411" y1="32.0633" x2="56.299" y2="34.537" stroke="#4C235F" stroke-width="0.2"/>
<line x1="45.7474" y1="34.1719" x2="56.6739" y2="31.6886" stroke="#4C235F" stroke-width="0.2"/>
<line x1="40.1273" y1="37.6622" x2="44.3489" y2="34.9305" stroke="#4C235F" stroke-width="0.2"/>
<line x1="33.9117" y1="42.635" x2="39.1266" y2="38.4134" stroke="#4C235F" stroke-width="0.2"/>
<line x1="31.1512" y1="48.6313" x2="33.6345" y2="43.168" stroke="#4C235F" stroke-width="0.2"/>
<line x1="31.0904" y1="49.8873" x2="32.8287" y2="56.0955" stroke="#4C235F" stroke-width="0.2"/>
<line x1="33.652" y1="56.0558" x2="37.8736" y2="51.3376" stroke="#4C235F" stroke-width="0.2"/>
<line x1="33.5642" y1="57.8127" x2="36.2958" y2="62.7793" stroke="#4C235F" stroke-width="0.2"/>
<line x1="36.4339" y1="62.4818" x2="41.6488" y2="61.2402" stroke="#4C235F" stroke-width="0.2"/>
<line x1="42.7592" y1="62.0462" x2="44.4975" y2="66.5161" stroke="#4C235F" stroke-width="0.2"/>
<line x1="45.1422" y1="66.7009" x2="49.1155" y2="66.4526" stroke="#4C235F" stroke-width="0.2"/>
<line x1="50.1693" y1="66.7166" x2="53.6459" y2="68.9516" stroke="#4C235F" stroke-width="0.2"/>
<line x1="55.0277" y1="68.9518" x2="59.2493" y2="66.2201" stroke="#4C235F" stroke-width="0.2"/>
<line x1="58.9547" y1="66.0557" x2="58.9547" y2="63.3241" stroke="#4C235F" stroke-width="0.2"/>
<line x1="59.2184" y1="62.5254" x2="60.9567" y2="59.7938" stroke="#4C235F" stroke-width="0.2"/>
<line x1="56.6103" y1="57.0234" x2="60.832" y2="58.7617" stroke="#4C235F" stroke-width="0.2"/>
<line x1="55.9259" y1="52.3905" x2="56.1742" y2="55.8671" stroke="#4C235F" stroke-width="0.2"/>
<line x1="57.1612" y1="48.4615" x2="56.1679" y2="50.9448" stroke="#4C235F" stroke-width="0.2"/>
<line x1="59.1391" y1="45.498" x2="57.4007" y2="48.2296" stroke="#4C235F" stroke-width="0.2"/>
<line x1="58.4069" y1="39.2093" x2="59.6485" y2="43.6792" stroke="#4C235F" stroke-width="0.2"/>
<line x1="56.412" y1="35.7116" x2="57.902" y2="38.4432" stroke="#4C235F" stroke-width="0.2"/>
<line x1="45.4062" y1="34.4183" x2="55.5877" y2="35.4116" stroke="#4C235F" stroke-width="0.2"/>
<line x1="42.3238" y1="41.9341" x2="44.8071" y2="34.9808" stroke="#4C235F" stroke-width="0.2"/>
<line x1="41.8305" y1="42.2608" x2="39.8438" y2="38.2875" stroke="#4C235F" stroke-width="0.2"/>
<line x1="49.7872" y1="41.0344" x2="45.3172" y2="35.0745" stroke="#4C235F" stroke-width="0.2"/>
<line x1="51.0387" y1="40.6553" x2="55.7569" y2="35.9371" stroke="#4C235F" stroke-width="0.2"/>
<line x1="51.3227" y1="41.3773" x2="58.0276" y2="38.894" stroke="#4C235F" stroke-width="0.2"/>
<line x1="45.6228" y1="47.5817" x2="59.0327" y2="44.6017" stroke="#4C235F" stroke-width="0.2"/>
<line x1="31.44" y1="48.8345" x2="42.1182" y2="42.6263" stroke="#4C235F" stroke-width="0.2"/>
<line x1="38.1107" y1="49.7192" x2="33.8891" y2="43.0143" stroke="#4C235F" stroke-width="0.2"/>
<line x1="39.3458" y1="49.1294" x2="41.8291" y2="43.4178" stroke="#4C235F" stroke-width="0.2"/>
<line x1="42.9041" y1="42.3649" x2="50.354" y2="41.6199" stroke="#4C235F" stroke-width="0.2"/>
<line x1="31.2598" y1="49.3191" x2="38.213" y2="50.5608" stroke="#4C235F" stroke-width="0.2"/>
<line x1="39.6477" y1="49.8217" x2="45.1109" y2="47.5867" stroke="#4C235F" stroke-width="0.2"/>
<line x1="45.5683" y1="47.3662" x2="49.7899" y2="42.3996" stroke="#4C235F" stroke-width="0.2"/>
<line x1="56.7511" y1="47.9998" x2="50.7912" y2="42.2882" stroke="#4C235F" stroke-width="0.2"/>
<line x1="56.8113" y1="48.5239" x2="45.8847" y2="47.5306" stroke="#4C235F" stroke-width="0.2"/>
<line x1="56.8519" y1="48.5192" x2="48.657" y2="51.2508" stroke="#4C235F" stroke-width="0.2"/>
<line x1="39.6958" y1="50.3115" x2="46.8974" y2="51.0564" stroke="#4C235F" stroke-width="0.2"/>
<line x1="39.5108" y1="51.3362" x2="42.7391" y2="54.8128" stroke="#4C235F" stroke-width="0.2"/>
<line x1="47.1972" y1="51.979" x2="43.4723" y2="54.959" stroke="#4C235F" stroke-width="0.2"/>
<line x1="36.3839" y1="62.2625" x2="43.3372" y2="54.8126" stroke="#4C235F" stroke-width="0.2"/>
<line x1="33.7097" y1="56.7689" x2="42.4012" y2="55.279" stroke="#4C235F" stroke-width="0.2"/>
<line x1="42.5667" y1="60.0841" x2="43.0634" y2="55.8625" stroke="#4C235F" stroke-width="0.2"/>
<line x1="43.6615" y1="60.9892" x2="51.1114" y2="61.2375" stroke="#4C235F" stroke-width="0.2"/>
<line x1="43.7155" y1="55.2956" x2="51.1655" y2="60.5105" stroke="#4C235F" stroke-width="0.2"/>
<line x1="43.4228" y1="55.03" x2="55.0943" y2="56.52" stroke="#4C235F" stroke-width="0.2"/>
<line x1="48.4692" y1="52.3589" x2="51.6975" y2="60.0571" stroke="#4C235F" stroke-width="0.2"/>
<line x1="44.8404" y1="66.4724" x2="50.8003" y2="62.0024" stroke="#4C235F" stroke-width="0.2"/>
<line x1="50.0224" y1="66.0186" x2="51.5124" y2="62.2936" stroke="#4C235F" stroke-width="0.2"/>
<line x1="58.7478" y1="66.1366" x2="53.2846" y2="62.1633" stroke="#4C235F" stroke-width="0.2"/>
<line x1="60.81" y1="59.6976" x2="53.6084" y2="60.9393" stroke="#4C235F" stroke-width="0.2"/>
<line x1="56.6644" y1="57.5737" x2="58.6511" y2="62.292" stroke="#4C235F" stroke-width="0.2"/>
<line x1="50.5752" y1="65.9624" x2="58.2735" y2="62.9825" stroke="#4C235F" stroke-width="0.2"/>
<line x1="53.1232" y1="61.2413" x2="58.3381" y2="62.7313" stroke="#4C235F" stroke-width="0.2"/>
<line x1="49.1272" y1="51.3043" x2="55.0871" y2="51.5527" stroke="#4C235F" stroke-width="0.2"/>
<circle cx="30.8692" cy="49.2935" r="0.869155" fill="url(#paint8_linear_1674_706)"/>
<circle cx="33.7255" cy="42.7127" r="0.74499" fill="url(#paint9_linear_1674_706)"/>
<circle cx="39.6844" cy="37.9944" r="0.74499" fill="url(#paint10_linear_1674_706)"/>
<circle cx="57.3153" cy="31.5378" r="0.74499" fill="url(#paint11_linear_1674_706)"/>
<circle cx="35.9598" cy="62.5791" r="0.74499" fill="url(#paint12_linear_1674_706)"/>
<circle cx="44.5274" cy="66.6765" r="0.869155" fill="url(#paint13_linear_1674_706)"/>
<circle cx="49.7422" cy="66.4282" r="0.869155" fill="url(#paint14_linear_1674_706)"/>
<circle cx="59.1797" cy="66.4282" r="0.869155" fill="url(#paint15_linear_1674_706)"/>
<circle cx="58.9297" cy="62.8274" r="0.869155" fill="url(#paint16_linear_1674_706)"/>
<circle cx="42.5416" cy="61.2132" r="1.36582" fill="url(#paint17_linear_1674_706)"/>
<circle cx="38.6914" cy="50.411" r="1.73831" fill="url(#paint18_linear_1674_706)"/>
<circle cx="52.1016" cy="61.3374" r="1.73831" fill="url(#paint19_linear_1674_706)"/>
<circle cx="42.2916" cy="42.5885" r="1.36582" fill="url(#paint20_linear_1674_706)"/>
<circle cx="43.1621" cy="55.2534" r="0.869155" fill="url(#paint21_linear_1674_706)"/>
<circle cx="45.2715" cy="47.5551" r="0.869155" fill="url(#paint22_linear_1674_706)"/>
<circle cx="56.9431" cy="48.3001" r="0.620825" fill="url(#paint23_linear_1674_706)"/>
<circle cx="55.8273" cy="51.6526" r="0.99332" fill="url(#paint24_linear_1674_706)"/>
<circle cx="56.1992" cy="35.3869" r="0.869155" fill="url(#paint25_linear_1674_706)"/>
<circle cx="58.3097" cy="38.7394" r="0.99332" fill="url(#paint26_linear_1674_706)"/>
<circle cx="59.9244" cy="44.5752" r="1.36582" fill="url(#paint27_linear_1674_706)"/>
<circle cx="61.4146" cy="59.2267" r="1.36582" fill="url(#paint28_linear_1674_706)"/>
<circle cx="56.1998" cy="56.7433" r="1.36582" fill="url(#paint29_linear_1674_706)"/>
<circle cx="48.0045" cy="51.2801" r="1.36582" fill="url(#paint30_linear_1674_706)"/>
<circle cx="50.2389" cy="41.5952" r="1.36582" fill="url(#paint31_linear_1674_706)"/>
<circle cx="33.1041" cy="56.9917" r="1.36582" fill="url(#paint32_linear_1674_706)"/>
<circle cx="54.4615" cy="69.4082" r="1.36582" fill="url(#paint33_linear_1674_706)"/>
<circle cx="45.0235" cy="34.5179" r="0.869155" fill="url(#paint34_linear_1674_706)"/>
<path d="M96.801 46.8103C96.801 46.8103 99.2843 45.7873 99.2843 46.8102C99.2843 48.921 101.147 47.1827 101.147 47.1827L107.976 57.985L91.7103 61.9584L96.801 46.8103Z" fill="url(#paint35_linear_1674_706)"/>
<path d="M107.851 58.6059L97.9177 72.1398C97.9177 72.1398 99.8877 69.4081 98.5964 68.4148C97.3051 67.4215 100.277 65.1865 98.5964 65.1865C96.9159 65.1865 92.5786 63.8207 92.5786 63.8207L91.7095 62.5791L107.851 58.6059Z" fill="url(#paint36_linear_1674_706)"/>
<path d="M98.3852 72.4631L107.107 69.7807L94.4425 78.224L98.3852 72.4631Z" fill="#0468C4"/>
<path d="M91.0889 61.4617L85.129 52.0253L89.8473 49.666L92.3306 46.8102L95.9314 46.8102L91.0889 61.4617Z" fill="url(#paint37_linear_1674_706)"/>
<path d="M90.7173 62.3308L86.7441 62.3308L83.3916 58.2334L85.0057 56.2467L85.0057 53.1426L90.7173 62.3308Z" fill="url(#paint38_linear_1674_706)"/>
<path d="M90.4676 62.8274L89.8468 63.9449L87.2393 62.8275L90.4676 62.8274Z" fill="#0055B0"/>
<path d="M102.582 45.6245L106.609 45.6245L102.61 48.37L102.582 45.6245Z" fill="#0065CA"/>
<path d="M108.348 57.3642L101.519 46.9341L107.107 48.0518L108.845 53.7634L108.721 56.8675L108.348 57.3642Z" fill="#0A74D1"/>
<path d="M105.721 47.8657L105.721 44.6992L108.846 49.4176L108.846 53.6392L105.721 47.8657Z" fill="#0157D0"/>
<path d="M109.093 43.4578L108.845 47.1827L106.023 45.5065L109.093 43.4578Z" fill="#006EEA"/>
<path d="M109.218 40.3536L108.97 47.0585L106.238 42.4644L109.218 40.3536Z" fill="#004EAB"/>
<path d="M109.217 40.9744L103.754 43.706L102.885 42.216L107.355 38.9877H109.267L109.217 40.9744Z" fill="#0B6DD2"/>
<path d="M105.533 40.1634L108.145 41.4137L105.062 43.0198L105.533 40.1634Z" fill="#0493F3"/>
<path d="M109.88 42.7128L109.88 39.206L112.445 42.7128L109.88 42.7128Z" fill="#0265CB"/>
<path d="M100.029 41.6449L102.646 40.8626L102.537 41.6957L100.923 42.9362L101.296 44.5504L100.029 41.6449Z" fill="url(#paint39_linear_1674_706)"/>
<path d="M98.9118 41.9926L99.7808 42.9615L99.6567 43.334L98.6634 42.4648L98.5392 42.0922L98.9118 41.9926Z" fill="#D9D9D9"/>
<path d="M98.9118 41.9926L99.7808 42.9615L99.6567 43.334L98.6634 42.4648L98.5392 42.0922L98.9118 41.9926Z" fill="url(#paint40_linear_1674_706)"/>
<path d="M109.217 56.9918L113.19 51.9009L113.315 54.7567L108.969 66.0557L109.217 56.9918Z" fill="url(#paint41_linear_1674_706)"/>
<path d="M109.838 42.5886L114.184 47.5552L113.812 50.2868L110.708 54.3843L109.342 52.5218L109.838 42.5886Z" fill="url(#paint42_linear_1674_706)"/>
<path d="M112.694 43.3336L113.687 44.6994L114.183 47.431L112.135 45.4444L112.694 43.3336Z" fill="#0F4ACA"/>
<path d="M109.341 54.2601L110.086 54.881L109.217 56.1226L109.341 54.2601Z" fill="#1E509A"/>
<path d="M87.4886 49.666L89.5994 47.431L90.5927 48.176L88.606 49.9143L87.2402 50.6593L87.4886 49.666Z" fill="#1A5AA9"/>
<path d="M90.5918 44.3269L95.4342 43.0853L93.0751 45.8169H90.5918V44.3269Z" fill="url(#paint43_linear_1674_706)"/>
<path d="M92.9509 38.7395L97.2967 41.8436L90.5918 43.5819L91.2126 41.5953L92.9509 42.9703L94.6892 40.602L92.9509 38.7395Z" fill="#095DAD"/>
<path d="M89.9707 37.0011L90.219 36.5045L91.5848 37.622H90.5915L89.9707 37.0011Z" fill="#0B6DD2"/>
<path d="M94.9383 32.9037L96.925 34.7662V41.2228L94.1934 38.367L95.5592 36.6287L94.9383 32.9037Z" fill="url(#paint44_linear_1674_706)"/>
<path d="M89.9707 33.8971V32.0346L93.6957 37.1253L92.9507 37.9945L91.0882 36.6287L89.9707 33.8971Z" fill="#007BE2"/>
<path d="M94.0687 26.323H95.807H97.0486V27.6888H96.1795C96.1795 27.6888 96.3005 28.5151 96.1795 29.0546C96.0733 29.5277 96.1795 31.0412 96.1795 31.0412L97.0486 31.5379V33.2762L94.9378 31.0412L92.9512 32.1587L94.0687 26.323Z" fill="url(#paint45_linear_1674_706)"/>
<path d="M99.2841 26.4472L97.6699 22.8464L109.341 38.4912L107.355 39.112L105.741 37.8703L106.361 39.4845L97.6699 41.5953V37.8703H98.6632L97.6699 36.5045V33.0279V30.2963L98.6632 29.5513L97.6699 27.6888L99.2841 26.4472Z" fill="url(#paint46_linear_1674_706)"/>
<path d="M58.4336 70.6499L63.5244 71.8915L61.0411 74.6232L58.4336 72.6365V70.6499Z" fill="#0250A1"/>
<path d="M58.1855 70.0291L61.6622 69.9049L63.028 71.1465L58.1855 70.0291Z" fill="#0250A1"/>
<defs>
<filter id="filter0_d_1674_706" x="1.41406" y="88.5976" width="165.727" height="24.6367" filterUnits="userSpaceOnUse" color-interpolation-filters="sRGB">
<feFlood flood-opacity="0" result="BackgroundImageFix"/>
<feColorMatrix in="SourceAlpha" type="matrix" values="0 0 0 0 0 0 0 0 0 0 0 0 0 0 0 0 0 0 127 0" result="hardAlpha"/>
<feOffset dx="2" dy="4"/>
<feGaussianBlur stdDeviation="1.5"/>
<feComposite in2="hardAlpha" operator="out"/>
<feColorMatrix type="matrix" values="0 0 0 0 0 0 0 0 0 0 0 0 0 0 0 0 0 0 0.25 0"/>
<feBlend mode="normal" in2="BackgroundImageFix" result="effect1_dropShadow_1674_706"/>
<feBlend mode="normal" in="SourceGraphic" in2="effect1_dropShadow_1674_706" result="shape"/>
</filter>
<filter id="filter1_d_1674_706" x="46.3164" y="3.40314" width="80.4941" height="89.5591" filterUnits="userSpaceOnUse" color-interpolation-filters="sRGB">
<feFlood flood-opacity="0" result="BackgroundImageFix"/>
<feColorMatrix in="SourceAlpha" type="matrix" values="0 0 0 0 0 0 0 0 0 0 0 0 0 0 0 0 0 0 127 0" result="hardAlpha"/>
<feOffset dx="1" dy="1"/>
<feGaussianBlur stdDeviation="6"/>
<feComposite in2="hardAlpha" operator="out"/>
<feColorMatrix type="matrix" values="0 0 0 0 0.180392 0 0 0 0 0.843137 0 0 0 0 0.85098 0 0 0 1 0"/>
<feBlend mode="normal" in2="BackgroundImageFix" result="effect1_dropShadow_1674_706"/>
<feBlend mode="normal" in="SourceGraphic" in2="effect1_dropShadow_1674_706" result="shape"/>
</filter>
<filter id="filter2_f_1674_706" x="27" y="28" width="47" height="45.5" filterUnits="userSpaceOnUse" color-interpolation-filters="sRGB">
<feFlood flood-opacity="0" result="BackgroundImageFix"/>
<feBlend mode="normal" in="SourceGraphic" in2="BackgroundImageFix" result="shape"/>
<feGaussianBlur stdDeviation="2" result="effect1_foregroundBlur_1674_706"/>
</filter>
<linearGradient id="paint0_linear_1674_706" x1="66.7534" y1="22.9705" x2="77.0591" y2="21.1081" gradientUnits="userSpaceOnUse">
<stop offset="0.420771" stop-color="#D64270"/>
<stop offset="1" stop-color="#FA8E50"/>
</linearGradient>
<linearGradient id="paint1_linear_1674_706" x1="55.0809" y1="28.3096" x2="58.185" y2="29.3029" gradientUnits="userSpaceOnUse">
<stop stop-color="#E84F6B"/>
<stop offset="0.820833" stop-color="#FE903E"/>
</linearGradient>
<linearGradient id="paint2_linear_1674_706" x1="91.685" y1="14.5304" x2="90.1148" y2="17.8507" gradientUnits="userSpaceOnUse">
<stop stop-color="#EA605F"/>
<stop offset="1" stop-color="#F28360"/>
</linearGradient>
<linearGradient id="paint3_linear_1674_706" x1="100.526" y1="23.7155" x2="109.093" y2="35.7596" gradientUnits="userSpaceOnUse">
<stop offset="0.365356" stop-color="#EA3AB7"/>
<stop offset="1" stop-color="#067CF1"/>
</linearGradient>
<linearGradient id="paint4_linear_1674_706" x1="109.281" y1="59.3831" x2="100.246" y2="71.0805" gradientUnits="userSpaceOnUse">
<stop stop-color="#8FC3FD"/>
<stop offset="0.544792" stop-color="#067CF1"/>
</linearGradient>
<linearGradient id="paint5_linear_1674_706" x1="79.5137" y1="24.4293" x2="76.8482" y2="25.0976" gradientUnits="userSpaceOnUse">
<stop stop-color="#983E88"/>
<stop offset="0.701128" stop-color="#FA4F79"/>
</linearGradient>
<linearGradient id="paint6_linear_1674_706" x1="85.8793" y1="24.5222" x2="82.352" y2="21.8706" gradientUnits="userSpaceOnUse">
<stop offset="0.32707" stop-color="#694ED2"/>
<stop offset="0.857292" stop-color="#FF7F9E"/>
</linearGradient>
<linearGradient id="paint7_linear_1674_706" x1="60.2958" y1="32.0345" x2="73.3331" y2="65.6833" gradientUnits="userSpaceOnUse">
<stop offset="0.208074" stop-color="#95236C"/>
<stop offset="1" stop-color="#D92684"/>
</linearGradient>
<linearGradient id="paint8_linear_1674_706" x1="30.0132" y1="49.3097" x2="31.6032" y2="48.9693" gradientUnits="userSpaceOnUse">
<stop offset="0.608817" stop-color="#4C235F"/>
<stop offset="0.870099" stop-color="#A92571"/>
</linearGradient>
<linearGradient id="paint9_linear_1674_706" x1="32.9918" y1="42.7266" x2="34.3546" y2="42.4348" gradientUnits="userSpaceOnUse">
<stop offset="0.608817" stop-color="#4C235F"/>
<stop offset="0.870099" stop-color="#A92571"/>
</linearGradient>
<linearGradient id="paint10_linear_1674_706" x1="38.9507" y1="38.0083" x2="40.3136" y2="37.7166" gradientUnits="userSpaceOnUse">
<stop offset="0.608817" stop-color="#4C235F"/>
<stop offset="0.870099" stop-color="#A92571"/>
</linearGradient>
<linearGradient id="paint11_linear_1674_706" x1="56.5816" y1="31.5517" x2="57.9445" y2="31.26" gradientUnits="userSpaceOnUse">
<stop offset="0.608817" stop-color="#4C235F"/>
<stop offset="0.870099" stop-color="#A92571"/>
</linearGradient>
<linearGradient id="paint12_linear_1674_706" x1="35.2261" y1="62.593" x2="36.589" y2="62.3012" gradientUnits="userSpaceOnUse">
<stop offset="0.608817" stop-color="#4C235F"/>
<stop offset="0.870099" stop-color="#A92571"/>
</linearGradient>
<linearGradient id="paint13_linear_1674_706" x1="43.6714" y1="66.6927" x2="45.2614" y2="66.3523" gradientUnits="userSpaceOnUse">
<stop offset="0.608817" stop-color="#4C235F"/>
<stop offset="0.870099" stop-color="#A92571"/>
</linearGradient>
<linearGradient id="paint14_linear_1674_706" x1="48.8862" y1="66.4444" x2="50.4762" y2="66.104" gradientUnits="userSpaceOnUse">
<stop offset="0.608817" stop-color="#4C235F"/>
<stop offset="0.870099" stop-color="#A92571"/>
</linearGradient>
<linearGradient id="paint15_linear_1674_706" x1="58.3237" y1="66.4444" x2="59.9137" y2="66.104" gradientUnits="userSpaceOnUse">
<stop offset="0.608817" stop-color="#4C235F"/>
<stop offset="0.870099" stop-color="#A92571"/>
</linearGradient>
<linearGradient id="paint16_linear_1674_706" x1="58.0737" y1="62.8436" x2="59.6637" y2="62.5033" gradientUnits="userSpaceOnUse">
<stop offset="0.608817" stop-color="#4C235F"/>
<stop offset="0.870099" stop-color="#A92571"/>
</linearGradient>
<linearGradient id="paint17_linear_1674_706" x1="41.1965" y1="61.2387" x2="43.6951" y2="60.7038" gradientUnits="userSpaceOnUse">
<stop offset="0.608817" stop-color="#4C235F"/>
<stop offset="0.870099" stop-color="#A92571"/>
</linearGradient>
<linearGradient id="paint18_linear_1674_706" x1="36.9795" y1="50.4434" x2="40.1595" y2="49.7626" gradientUnits="userSpaceOnUse">
<stop offset="0.608817" stop-color="#4C235F"/>
<stop offset="0.870099" stop-color="#A92571"/>
</linearGradient>
<linearGradient id="paint19_linear_1674_706" x1="50.3896" y1="61.3698" x2="53.5697" y2="60.689" gradientUnits="userSpaceOnUse">
<stop offset="0.608817" stop-color="#4C235F"/>
<stop offset="0.870099" stop-color="#A92571"/>
</linearGradient>
<linearGradient id="paint20_linear_1674_706" x1="40.9465" y1="42.614" x2="43.4451" y2="42.0791" gradientUnits="userSpaceOnUse">
<stop offset="0.608817" stop-color="#4C235F"/>
<stop offset="0.870099" stop-color="#A92571"/>
</linearGradient>
<linearGradient id="paint21_linear_1674_706" x1="42.3061" y1="55.2696" x2="43.8962" y2="54.9292" gradientUnits="userSpaceOnUse">
<stop offset="0.608817" stop-color="#4C235F"/>
<stop offset="0.870099" stop-color="#A92571"/>
</linearGradient>
<linearGradient id="paint22_linear_1674_706" x1="44.4155" y1="47.5713" x2="46.0055" y2="47.2309" gradientUnits="userSpaceOnUse">
<stop offset="0.608817" stop-color="#4C235F"/>
<stop offset="0.870099" stop-color="#A92571"/>
</linearGradient>
<linearGradient id="paint23_linear_1674_706" x1="56.3317" y1="48.3117" x2="57.4674" y2="48.0686" gradientUnits="userSpaceOnUse">
<stop offset="0.608817" stop-color="#4C235F"/>
<stop offset="0.870099" stop-color="#A92571"/>
</linearGradient>
<linearGradient id="paint24_linear_1674_706" x1="54.849" y1="51.6711" x2="56.6662" y2="51.2821" gradientUnits="userSpaceOnUse">
<stop offset="0.608817" stop-color="#4C235F"/>
<stop offset="0.870099" stop-color="#A92571"/>
</linearGradient>
<linearGradient id="paint25_linear_1674_706" x1="55.3432" y1="35.4031" x2="56.9333" y2="35.0628" gradientUnits="userSpaceOnUse">
<stop offset="0.608817" stop-color="#4C235F"/>
<stop offset="0.870099" stop-color="#A92571"/>
</linearGradient>
<linearGradient id="paint26_linear_1674_706" x1="57.3315" y1="38.758" x2="59.1486" y2="38.369" gradientUnits="userSpaceOnUse">
<stop offset="0.608817" stop-color="#4C235F"/>
<stop offset="0.870099" stop-color="#A92571"/>
</linearGradient>
<linearGradient id="paint27_linear_1674_706" x1="58.5793" y1="44.6006" x2="61.0779" y2="44.0658" gradientUnits="userSpaceOnUse">
<stop offset="0.608817" stop-color="#4C235F"/>
<stop offset="0.870099" stop-color="#A92571"/>
</linearGradient>
<linearGradient id="paint28_linear_1674_706" x1="60.0695" y1="59.2521" x2="62.5681" y2="58.7172" gradientUnits="userSpaceOnUse">
<stop offset="0.608817" stop-color="#4C235F"/>
<stop offset="0.870099" stop-color="#A92571"/>
</linearGradient>
<linearGradient id="paint29_linear_1674_706" x1="54.8547" y1="56.7688" x2="57.3533" y2="56.2339" gradientUnits="userSpaceOnUse">
<stop offset="0.608817" stop-color="#4C235F"/>
<stop offset="0.870099" stop-color="#A92571"/>
</linearGradient>
<linearGradient id="paint30_linear_1674_706" x1="46.6594" y1="51.3055" x2="49.158" y2="50.7706" gradientUnits="userSpaceOnUse">
<stop offset="0.608817" stop-color="#4C235F"/>
<stop offset="0.870099" stop-color="#A92571"/>
</linearGradient>
<linearGradient id="paint31_linear_1674_706" x1="48.8937" y1="41.6206" x2="51.3924" y2="41.0858" gradientUnits="userSpaceOnUse">
<stop offset="0.608817" stop-color="#4C235F"/>
<stop offset="0.870099" stop-color="#A92571"/>
</linearGradient>
<linearGradient id="paint32_linear_1674_706" x1="31.759" y1="57.0171" x2="34.2576" y2="56.4822" gradientUnits="userSpaceOnUse">
<stop offset="0.608817" stop-color="#4C235F"/>
<stop offset="0.870099" stop-color="#A92571"/>
</linearGradient>
<linearGradient id="paint33_linear_1674_706" x1="53.1164" y1="69.4336" x2="55.615" y2="68.8988" gradientUnits="userSpaceOnUse">
<stop offset="0.608817" stop-color="#4C235F"/>
<stop offset="0.870099" stop-color="#A92571"/>
</linearGradient>
<linearGradient id="paint34_linear_1674_706" x1="44.1675" y1="34.5341" x2="45.7575" y2="34.1937" gradientUnits="userSpaceOnUse">
<stop offset="0.608817" stop-color="#4C235F"/>
<stop offset="0.870099" stop-color="#A92571"/>
</linearGradient>
<linearGradient id="paint35_linear_1674_706" x1="102.513" y1="58.73" x2="96.4285" y2="48.176" gradientUnits="userSpaceOnUse">
<stop offset="0.383333" stop-color="#1D85E6"/>
<stop offset="0.992708" stop-color="#0F63A1"/>
</linearGradient>
<linearGradient id="paint36_linear_1674_706" x1="94.5653" y1="62.455" x2="103.381" y2="66.9249" gradientUnits="userSpaceOnUse">
<stop stop-color="#016CD1"/>
<stop offset="1" stop-color="#035DC2"/>
</linearGradient>
<linearGradient id="paint37_linear_1674_706" x1="91.3373" y1="57.9851" x2="89.5747" y2="48.8901" gradientUnits="userSpaceOnUse">
<stop offset="0.383333" stop-color="#1D85E6"/>
<stop offset="0.992708" stop-color="#0F63A1"/>
</linearGradient>
<linearGradient id="paint38_linear_1674_706" x1="89.249" y1="60.251" x2="83.7345" y2="57.9743" gradientUnits="userSpaceOnUse">
<stop offset="0.383333" stop-color="#1D85E6"/>
<stop offset="0.992708" stop-color="#0F63A1"/>
</linearGradient>
<linearGradient id="paint39_linear_1674_706" x1="100.278" y1="42.3403" x2="102.513" y2="41.4711" gradientUnits="userSpaceOnUse">
<stop stop-color="#146AB3"/>
<stop offset="1" stop-color="#1593CE"/>
</linearGradient>
<linearGradient id="paint40_linear_1674_706" x1="98.5798" y1="42.0593" x2="99.8692" y2="42.4474" gradientUnits="userSpaceOnUse">
<stop stop-color="#146AB3"/>
<stop offset="1" stop-color="#1593CE"/>
</linearGradient>
<linearGradient id="paint41_linear_1674_706" x1="112.321" y1="57.3642" x2="109.341" y2="57.1159" gradientUnits="userSpaceOnUse">
<stop stop-color="#0049A5"/>
<stop offset="0.579508" stop-color="#4AAFFB"/>
</linearGradient>
<linearGradient id="paint42_linear_1674_706" x1="111.328" y1="42.5886" x2="111.328" y2="54.3843" gradientUnits="userSpaceOnUse">
<stop stop-color="#188BA9"/>
<stop offset="1" stop-color="#007CDD"/>
</linearGradient>
<linearGradient id="paint43_linear_1674_706" x1="93.013" y1="43.0853" x2="93.013" y2="45.8169" gradientUnits="userSpaceOnUse">
<stop stop-color="#37648E"/>
<stop offset="1" stop-color="#0E6DC1"/>
</linearGradient>
<linearGradient id="paint44_linear_1674_706" x1="95.5592" y1="32.9037" x2="95.5592" y2="41.2228" gradientUnits="userSpaceOnUse">
<stop offset="0.227083" stop-color="#9F5BCA"/>
<stop offset="1" stop-color="#0388FF"/>
</linearGradient>
<linearGradient id="paint45_linear_1674_706" x1="94.9999" y1="26.323" x2="96.0553" y2="31.6621" gradientUnits="userSpaceOnUse">
<stop stop-color="#741B77"/>
<stop offset="0.65917" stop-color="#855CD6"/>
<stop offset="1" stop-color="#0060D9"/>
</linearGradient>
<linearGradient id="paint46_linear_1674_706" x1="98.5391" y1="23.5914" x2="99.9049" y2="41.7195" gradientUnits="userSpaceOnUse">
<stop stop-color="#ED6AC8"/>
<stop offset="0.628937" stop-color="#7349EA"/>
<stop offset="1" stop-color="#0279D7"/>
</linearGradient>
</defs>
</svg>
