<svg width="1440" height="754" viewBox="0 0 1440 754" fill="none" xmlns="http://www.w3.org/2000/svg">
<path d="M0 529L26 493L53 459.5L62 449.5L71 440L92.5 414.5L116 394.5L164 362.5L189.5 347L226.5 326.5L266 313.5L280.5 308.5L301 303L321.5 298.5L330.5 296.5L339.5 295L358 292.5L363.5 291.5L370 291L382.5 289.5L409 288L423 287.5H434.5H465L487.5 288.5L499.5 289.5L518.5 291.5L543.5 294L556.5 295.5L587.5 300L603.5 303L630.5 307.5L655 311.5L687 318L728.5 326.5L769.5 335.5L809 343.5L833 348L858 353L890 358.5L921 363.5L958.5 368L1000.5 371L1021.5 372H1052.5L1089.5 369.5L1114.5 366L1136 362L1167 353.5L1196 342.5L1235.5 321.5L1271 296L1307 262L1331.5 232.5L1356.5 197L1380 154L1394 126.5L1405.5 100.5L1412.5 81.5L1420.5 60L1425.5 46.5L1440 0V760H0V529Z" fill="#D7FEFE"/>
</svg>
