<svg width="1440" height="753" viewBox="0 0 1440 753" fill="none" xmlns="http://www.w3.org/2000/svg">
<path d="M0 524.128L26 488.459L53 455.268L62 445.36L71 435.947L92.5 410.682L116 390.866L164 359.161L189.5 343.804L226.5 323.493L266 310.612L280.5 305.659L301 300.209L321.5 295.751L330.5 293.769L339.5 292.283L358 289.806L363.5 288.815L370 288.32L382.5 286.834L409 285.347L423 284.852H434.5H465L487.5 285.843L499.5 286.834L518.5 288.815L543.5 291.292L556.5 292.778L587.5 297.237L603.5 300.209L630.5 304.668L655 308.631L687 315.071L728.5 323.493L769.5 332.41L809 340.336L833 344.795L858 349.749L890 355.198L921 360.152L958.5 364.611L1000.5 367.583L1021.5 368.574H1052.5L1089.5 366.097L1114.5 362.629L1136 358.666L1167 350.244L1196 339.345L1235.5 318.539L1271 293.274L1307 259.587L1331.5 230.359L1356.5 195.186L1380 152.582L1394 125.335L1405.5 99.5743L1412.5 80.7493L1420.5 59.4474L1425.5 46.0717L1440 0V753H0V524.128Z" fill="#D7FEFE"/>
</svg>
