<svg width="37" height="34" viewBox="0 0 37 34" fill="none" xmlns="http://www.w3.org/2000/svg">
<path d="M22.5092 32.3562L22.3954 32.2966L22.319 32.3998C22.2703 32.4657 22.2367 32.5592 22.2151 32.6459C22.2042 32.6894 22.1953 32.7355 22.189 32.7821L20.8565 32.7821C20.4583 31.8258 20.0818 30.7653 19.7705 29.8681C19.7154 29.7094 19.6622 29.5554 19.6112 29.4077C19.3674 28.7011 19.1734 28.139 19.0607 27.9045C18.9082 27.5871 18.9875 27.098 19.2902 26.5876C19.5882 26.0853 20.0818 25.6015 20.6813 25.3135C21.2882 25.022 21.9039 24.9124 22.4049 24.9641C22.8907 25.0142 23.2448 25.2112 23.4076 25.5128C23.3763 25.998 23.3763 27.3259 23.3763 28.7733L23.3763 28.791C23.3763 30.225 23.3763 31.7807 23.3471 32.7821L22.8512 32.7821C22.7333 32.5483 22.6487 32.4293 22.5092 32.3562Z" fill="white" stroke="black" stroke-width="0.3"/>
<path d="M31.8303 17.7625C31.8303 24.703 25.0277 30.375 16.5746 30.375C8.12147 30.375 1.31895 24.703 1.31895 17.7625C1.31895 10.822 8.12147 5.15 16.5746 5.15C25.0277 5.15 31.8303 10.822 31.8303 17.7625Z" fill="white" stroke="black" stroke-width="0.3"/>
<path d="M11.5877 22.9781C11.5877 25.057 9.4871 26.7936 6.82538 26.7936C4.16365 26.7936 2.06309 25.057 2.06309 22.9781C2.06309 20.8992 4.16365 19.1626 6.82538 19.1626C9.4871 19.1626 11.5877 20.8992 11.5877 22.9781Z" fill="white" stroke="black" stroke-width="0.3"/>
<path d="M9.85915 22.9781C9.85915 25.057 7.75859 26.7936 5.09686 26.7936C2.43513 26.7936 0.33457 25.057 0.33457 22.9781C0.33457 20.8992 2.43513 19.1626 5.09686 19.1626C7.75859 19.1626 9.85915 20.8992 9.85915 22.9781Z" fill="white" stroke="black" stroke-width="0.3"/>
<path d="M10.3783 32.6213C10.358 32.6988 10.3352 32.7838 10.3103 32.8658C10.2507 32.8845 10.1772 32.8965 10.0912 32.902C9.97643 32.9094 9.84918 32.9046 9.72027 32.8942C9.60633 32.885 9.49462 32.8717 9.39118 32.8594C9.37761 32.8578 9.36417 32.8562 9.3509 32.8546C9.28374 32.8467 9.21796 32.8391 9.15911 32.8344C8.7839 31.8879 8.55288 31.0791 8.31625 30.2507L8.31383 30.2422C8.1005 29.4954 7.88234 28.7327 7.55028 27.8462C8.39225 28.321 9.45277 28.7942 11.6952 29.6055V29.6117V29.6187V29.6257V29.6327V29.6397V29.6467V29.6538V29.6608V29.6678V29.6748V29.6819V29.6889V29.6959V29.703V29.71V29.7171V29.7241V29.7312V29.7382V29.7453V29.7523V29.7594V29.7665V29.7735V29.7806V29.7877V29.7948V29.8019V29.8089V29.816V29.8231V29.8302V29.8373V29.8444V29.8515V29.8586V29.8657V29.8728V29.88V29.8871V29.8942V29.9013V29.9084V29.9156V29.9227V29.9298V29.9369V29.9441V29.9512V29.9584V29.9655V29.9726V29.9798V29.9869V29.9941V30.0012V30.0084V30.0155V30.0227V30.0299V30.037V30.0442V30.0513V30.0585V30.0657V30.0729V30.08V30.0872V30.0944V30.1016V30.1087V30.1159V30.1231V30.1303V30.1375V30.1447V30.1519V30.159V30.1662V30.1734V30.1806V30.1878V30.195V30.2022V30.2094V30.2166V30.2238V30.231V30.2382V30.2454V30.2527V30.2599V30.2671V30.2743V30.2815V30.2887V30.2959V30.3031V30.3104V30.3176V30.3248V30.332V30.3392V30.3465V30.3537V30.3609V30.3681V30.3754V30.3826V30.3898V30.397V30.4043V30.4115V30.4187V30.4259V30.4332V30.4404V30.4476V30.4549V30.4621V30.4693V30.4766V30.4838V30.491V30.4983V30.5055V30.5127V30.52V30.5272V30.5344V30.5417V30.5489V30.5561V30.5634V30.5706V30.5778V30.5851V30.5923V30.5995V30.6068V30.614V30.6212V30.6285V30.6357V30.6429V30.6502V30.6574V30.6646V30.6719V30.6791V30.6863V30.6935V30.7008V30.708V30.7152V30.7225V30.7297V30.7369V30.7441V30.7514V30.7586V30.7658V30.773V30.7803V30.7875V30.7947V30.8019V30.8091V30.8164V30.8236V30.8308V30.838V30.8452V30.8524V30.8597V30.8669V30.8741V30.8813V30.8885V30.8957V30.9029V30.9101V30.9173V30.9245V30.9317V30.9389V30.9461V30.9533V30.9605V30.9677V30.9749V30.9821V30.9893V30.9965V31.0036V31.0108V31.018V31.0252V31.0324V31.0396V31.0467V31.0539V31.0611V31.0682V31.0754V31.0826V31.0898V31.0969V31.1041V31.1112V31.1184V31.1255V31.1327V31.1399V31.147V31.1541V31.1613V31.1684V31.1756V31.1827V31.1899V31.197V31.2041V31.2112V31.2184V31.2255V31.2326V31.2397V31.2469V31.254V31.2611V31.2682V31.2753V31.2824V31.2895V31.2966V31.3037V31.3108V31.3179V31.325V31.3321V31.3391V31.3462V31.3533V31.3604V31.3674V31.3745V31.3816V31.3886V31.3957V31.4028V31.4098V31.4169V31.4239V31.4309V31.438V31.445V31.4521V31.4591V31.4661V31.4731V31.4802V31.4872V31.4942V31.5012V31.5082V31.5152V31.5222V31.5292V31.5362V31.5432V31.5502V31.5572V31.5641V31.5711V31.5781V31.5851V31.592V31.599V31.6059V31.6129V31.6198V31.6268V31.6337V31.6407V31.6476V31.6545V31.6614V31.6684V31.6753V31.6822V31.6891V31.696V31.7029V31.7098V31.7167V31.7236V31.7305V31.7373V31.7442V31.7511V31.7579V31.7648V31.7717V31.7785V31.7854V31.7922V31.799V31.8059V31.8127V31.8195V31.8264V31.8332V31.84V31.8468V31.8536V31.8604V31.8672V31.874V31.8807V31.8875V31.8943V31.9011V31.9078V31.9146V31.9213V31.9281V31.9348V31.9415V31.9483V31.955V31.9617V31.9684V31.9752V31.9819V31.9886V31.9953V32.0019V32.0086V32.0153V32.022V32.0286V32.0353V32.042V32.0486V32.0553V32.0619V32.0685V32.0752V32.0818V32.0884V32.095V32.1016V32.1082V32.1148V32.1214V32.128V32.1346V32.1411V32.1477V32.1543V32.1608V32.1674V32.1739V32.1804V32.187V32.1935V32.2V32.2065V32.213V32.2195V32.226V32.2325V32.239V32.2454V32.2519V32.2584V32.2648V32.2713V32.2777V32.2842V32.2906V32.297V32.3034V32.3098V32.3162V32.3226V32.329V32.3354V32.3418V32.3481V32.3545V32.3608V32.3672V32.3735V32.3799V32.3862V32.3925V32.3988V32.4051V32.4114V32.4177V32.424V32.4303V32.4366V32.4428V32.4491V32.4553V32.4616V32.4678V32.474V32.4803V32.4865V32.4927V32.4989V32.5051V32.5112V32.5174V32.5236V32.5298V32.5359V32.542V32.5482V32.5543V32.5604V32.5666V32.5727V32.5788V32.5849V32.5909V32.597V32.6031V32.6091V32.6152V32.6212V32.6273V32.6333V32.6393V32.6453V32.6513V32.6573V32.6633V32.6693V32.6753V32.6813V32.6872V32.6932V32.6991V32.705V32.7109V32.7169V32.7228V32.7287V32.7346V32.7404V32.7463V32.7522V32.758V32.7639V32.7697V32.7755V32.7814V32.7872V32.793V32.7988V32.8046V32.8103V32.8161V32.8219V32.8276V32.8295H11.6944H11.6927H11.691H11.6893H11.6875H11.6858H11.684H11.6823H11.6805H11.6788H11.677H11.6752H11.6734H11.6717H11.6699H11.6681H11.6662H11.6644H11.6626H11.6608H11.6589H11.6571H11.6552H11.6534H11.6515H11.6497H11.6478H11.6459H11.644H11.6421H11.6402H11.6383H11.6364H11.6345H11.6326H11.6307H11.6287H11.6268H11.6248H11.6229H11.6209H11.619H11.617H11.615H11.6131H11.6111H11.6091H11.6071H11.6051H11.6031H11.6011H11.599H11.597H11.595H11.593H11.5909H11.5889H11.5868H11.5848H11.5827H11.5807H11.5786H11.5765H11.5744H11.5723H11.5703H11.5682H11.5661H11.564H11.5619H11.5597H11.5576H11.5555H11.5534H11.5512H11.5491H11.547H11.5448H11.5427H11.5405H11.5383H11.5362H11.534H11.5318H11.5297H11.5275H11.5253H11.5231H11.5209H11.5187H11.5165H11.5143H11.5121H11.5099H11.5076H11.5054H11.5032H11.501H11.4987H11.4965H11.4942H11.492H11.4897H11.4875H11.4852H11.483H11.4807H11.4784H11.4762H11.4739H11.4716H11.4693H11.467H11.4647H11.4624H11.4601H11.4578H11.4555H11.4532H11.4509H11.4486H11.4463H11.444H11.4416H11.4393H11.437H11.4347H11.4323H11.43H11.4276H11.4253H11.4229H11.4206H11.4182H11.4159H11.4135H11.4112H11.4088H11.4064H11.4041H11.4017H11.3993H11.3969H11.3945H11.3922H11.3898H11.3874H11.385H11.3826H11.3802H11.3778H11.3754H11.373H11.3706H11.3682H11.3658H11.3634H11.361H11.3585H11.3561H11.3537H11.3513H11.3489H11.3464H11.344H11.3416H11.3391H11.3367H11.3343H11.3318H11.3294H11.327H11.3245H11.3221H11.3196H11.3172H11.3147H11.3123H11.3098H11.3074H11.3049H11.3025H11.3H11.2976H11.2951H11.2926H11.2902H11.2877H11.2853H11.2828H11.2803H11.2779H11.2754H11.2729H11.2705H11.268H11.2655H11.263H11.2606H11.2581H11.2556H11.2531H11.2507H11.2482H11.2457H11.2432H11.2407H11.2383H11.2358H11.2333H11.2308H11.2283H11.2259H11.2234H11.2209H11.2184H11.2159H11.2134H11.211H11.2085H11.206H11.2035H11.201H11.1985H11.196H11.1936H11.1911H11.1886H11.1861H11.1836H11.1811H11.1787H11.1762H11.1737H11.1712H11.1687H11.1662H11.1638H11.1613H11.1588H11.1563H11.1538H11.1513H11.1489H11.1464H11.1439H11.1414H11.139H11.1365H11.134H11.1315H11.129H11.1266H11.1241H11.1216H11.1192H11.1167H11.1142H11.1118H11.1093H11.1068H11.1044H11.1019H11.0994H11.097H11.0945H11.092H11.0896H11.0871H11.0847H11.0822H11.0798H11.0773H11.0749H11.0724H11.07H11.0675H11.0651H11.0626H11.0602H11.0578H11.0553H11.0529H11.0505H11.048H11.0456H11.0432H11.0407H11.0383H11.0359H11.0335H11.0311H11.0286H11.0262H11.0238H11.0214H11.019H11.0166H11.0142H11.0118H11.0094H11.007H11.0046H11.0022H10.9998H10.9974H10.9951H10.9927H10.9903H10.9879H10.9855H10.9832H10.9808H10.9784H10.9761H10.9737H10.9714H10.969H10.9667H10.9643H10.962H10.9596H10.9573H10.9549H10.9526H10.9503H10.9479H10.9456H10.9433H10.941H10.9387H10.9364H10.9341H10.9317H10.9294H10.9271H10.9248H10.9226H10.9203H10.918H10.9157H10.9134H10.9112H10.9103C10.8717 32.7496 10.8412 32.6689 10.8145 32.5947C10.8102 32.5827 10.8059 32.5707 10.8016 32.5587C10.7891 32.5236 10.7769 32.4892 10.7655 32.4601C10.7515 32.4242 10.732 32.3777 10.705 32.3418L10.5325 32.1124L10.4427 32.385C10.4293 32.4255 10.4118 32.4929 10.3925 32.5671C10.3879 32.5849 10.3831 32.603 10.3783 32.6213Z" fill="white" stroke="black" stroke-width="0.3"/>
<rect x="5.57773" y="21.0898" width="1.09822" height="3.6487" rx="0.549108" fill="white" stroke="black" stroke-width="0.3"/>
<rect x="2.78672" y="21.0898" width="1.09822" height="3.6487" rx="0.549108" fill="white" stroke="black" stroke-width="0.3"/>
<path d="M12.954 7.10229L12.2662 6.7051C12.314 6.69041 12.3664 6.67441 12.4231 6.65731C12.7236 6.56668 13.1443 6.44513 13.6248 6.32149C14.5889 6.07343 15.7823 5.81998 16.7281 5.78661C17.4271 5.76196 18.3248 5.84569 19.053 5.93686C19.416 5.9823 19.7349 6.02932 19.9629 6.06496C20.0769 6.08278 20.1681 6.09775 20.2308 6.10825L20.2838 6.11726L21.2357 6.99998C20.9947 6.95051 20.6869 6.88999 20.3435 6.82866C19.5322 6.68378 18.5136 6.53292 17.705 6.51482C16.7517 6.49349 15.5474 6.64451 14.5874 6.79911C14.1061 6.87661 13.6838 6.95542 13.3818 7.01487C13.2308 7.04459 13.1098 7.06949 13.0264 7.08698C12.9977 7.09299 12.9735 7.09813 12.954 7.10229Z" fill="white" stroke="black" stroke-width="0.3"/>
<path d="M1.9122 13.9742C1.9122 13.9742 1.23062 9.25212 2.02405 8.72147M7.73081 11.4406C7.73081 11.4406 2.81749 8.19082 2.02405 8.72147M2.02405 8.72147C2.02405 8.72147 2.73665 8.10154 5.07993 8.8933C7.4232 9.68506 7.73081 9.94281 7.73081 9.94281" stroke="black" stroke-width="0.3"/>
<path d="M31.6831 15.3656C33.5397 16.0563 35.9504 12.9936 33.5397 13.1486C31.1291 13.3036 33.6088 17.6903 36.0698 14.9377" stroke="black" stroke-width="0.3"/>
<path d="M27.85 32.3562L27.7362 32.2966L27.6598 32.3998C27.6111 32.4657 27.5775 32.5592 27.5559 32.6459C27.5451 32.6894 27.5362 32.7355 27.5299 32.7821L26.1973 32.7821C25.7991 31.8258 25.4226 30.7653 25.1113 29.8681C25.0562 29.7094 25.0031 29.5554 24.9521 29.4077C24.7082 28.7011 24.5142 28.139 24.4015 27.9045C24.2491 27.5871 24.3283 27.098 24.6311 26.5876C24.929 26.0853 25.4226 25.6015 26.0221 25.3135C26.6291 25.022 27.2447 24.9124 27.7457 24.9641C28.2315 25.0142 28.5856 25.2112 28.7484 25.5128C28.7171 25.998 28.7171 27.3259 28.7171 28.7733L28.7171 28.791C28.7171 30.225 28.7171 31.7807 28.6879 32.7821L28.192 32.7821C28.0741 32.5483 27.9896 32.4293 27.85 32.3562Z" fill="white" stroke="black" stroke-width="0.3"/>
<path d="M11.3223 12.1827C11.3223 12.1827 14.3444 7.93124 15.5489 7.85208C16.7534 7.77292 18.5762 12.998 18.5762 12.998" stroke="black" stroke-width="0.3"/>
<circle cx="5.42345" cy="16.9069" r="0.700793" fill="black"/>
<circle cx="12.5758" cy="16.9069" r="0.700793" fill="black"/>
<path d="M15.0778 32.6398L14.9979 32.62L14.9383 32.6769C14.8869 32.726 14.8415 32.7943 14.8069 32.86C14.788 32.8959 14.7705 32.9344 14.7559 32.9734L13.5109 33.1751C13.2962 32.5969 13.1144 31.953 12.9653 31.4017C12.938 31.3006 12.9117 31.2024 12.8865 31.1082C12.8389 30.9302 12.7952 30.7668 12.7558 30.6265C12.6967 30.4161 12.6432 30.2414 12.596 30.1432C12.5706 30.0903 12.5714 29.9805 12.6604 29.8108C12.7452 29.649 12.8951 29.4645 13.0985 29.2897C13.5056 28.9398 14.1029 28.6493 14.756 28.6495C15.5592 28.6498 15.9546 28.9382 16.1836 29.2628C16.3019 29.4306 16.3805 29.6147 16.4444 29.7922C16.4632 29.8445 16.4816 29.8987 16.4997 29.9525C16.5314 30.0466 16.5627 30.1391 16.5954 30.2171C16.5746 30.2822 16.5533 30.3487 16.5313 30.4174C16.3542 30.9705 16.1335 31.6593 15.832 32.7991L15.3536 32.8766C15.3264 32.8287 15.2988 32.7876 15.2684 32.7538C15.2118 32.691 15.1497 32.6575 15.0778 32.6398Z" fill="white" stroke="black" stroke-width="0.3"/>
<circle cx="17.2002" cy="3.20001" r="2.85" fill="white" stroke="black" stroke-width="0.3"/>
<circle cx="17.2002" cy="3.20001" r="1.85" fill="white" stroke="black" stroke-width="0.3"/>
<path d="M17.2266 3.60764C17.2611 3.60764 17.2936 3.60405 17.3242 3.59689C17.3555 3.58908 17.3825 3.57769 17.4053 3.56271C17.4287 3.54709 17.4473 3.52788 17.4609 3.5051C17.4746 3.48231 17.4814 3.45562 17.4814 3.42502C17.4814 3.38791 17.472 3.35633 17.4531 3.33029C17.4342 3.30425 17.4095 3.28114 17.3789 3.26096C17.3483 3.24077 17.3132 3.22254 17.2734 3.20627C17.2344 3.18934 17.1943 3.17209 17.1533 3.15451C17.113 3.13693 17.0729 3.11773 17.0332 3.09689C16.9941 3.07541 16.9593 3.05002 16.9287 3.02072C16.8981 2.99142 16.8734 2.95692 16.8545 2.91721C16.8356 2.87749 16.8262 2.82997 16.8262 2.77463C16.8262 2.72189 16.835 2.67372 16.8525 2.6301C16.8701 2.58583 16.8949 2.54709 16.9268 2.51389C16.9587 2.48068 16.9971 2.45301 17.042 2.43088C17.0869 2.40809 17.1367 2.39149 17.1914 2.38107V2.02853H17.3955V2.36935C17.4157 2.37001 17.4382 2.37163 17.4629 2.37424C17.4876 2.37684 17.5137 2.38042 17.541 2.38498C17.5684 2.38889 17.5964 2.39409 17.625 2.4006C17.6543 2.40711 17.6829 2.41428 17.7109 2.42209L17.666 2.63205L17.6475 2.64084C17.6149 2.62652 17.5827 2.61447 17.5508 2.60471C17.5195 2.59429 17.4896 2.58583 17.4609 2.57932C17.4323 2.5728 17.4056 2.56825 17.3809 2.56564C17.3561 2.56304 17.335 2.56174 17.3174 2.56174C17.2861 2.56174 17.2572 2.56532 17.2305 2.57248C17.2044 2.57964 17.1816 2.59038 17.1621 2.60471C17.1432 2.61838 17.1283 2.63563 17.1172 2.65646C17.1061 2.67665 17.1006 2.70008 17.1006 2.72678C17.1006 2.76323 17.11 2.79448 17.1289 2.82053C17.1478 2.84592 17.1725 2.86903 17.2031 2.88986C17.2344 2.91004 17.2699 2.9286 17.3096 2.94553C17.3493 2.9618 17.3896 2.97905 17.4307 2.99728C17.4717 3.01486 17.512 3.03407 17.5518 3.0549C17.5915 3.07573 17.6266 3.1008 17.6572 3.1301C17.6885 3.15874 17.7135 3.1926 17.7324 3.23166C17.7513 3.27072 17.7607 3.31695 17.7607 3.37033C17.7607 3.42046 17.7523 3.46734 17.7354 3.51096C17.7184 3.55458 17.6943 3.59429 17.6631 3.6301C17.6318 3.66525 17.5934 3.69585 17.5479 3.72189C17.5029 3.74728 17.4521 3.76682 17.3955 3.78049V4.14182H17.1914V3.80002C17.1615 3.80002 17.1289 3.79807 17.0938 3.79416C17.0592 3.7896 17.0238 3.78342 16.9873 3.7756C16.9515 3.76779 16.9154 3.75835 16.8789 3.74728C16.8431 3.73557 16.8086 3.72222 16.7754 3.70724L16.8193 3.49631L16.8398 3.48654C16.9102 3.52235 16.9769 3.55165 17.04 3.57443C17.1038 3.59657 17.166 3.60764 17.2266 3.60764Z" fill="black"/>
</svg>
