<svg width="46" height="47" viewBox="0 0 46 47" fill="none" xmlns="http://www.w3.org/2000/svg">
<path d="M21.1164 8.03151L21.1164 8.03152L21.1184 8.03118L26.6112 7.06753L33.0528 10.8171L40.094 22.7776L36.2383 30.489L36.2382 30.4891L32.9642 37.0115L24.3854 38.2904L18.7907 38.7727L12.5406 35.5033L5.49949 23.2547L9.25759 15.8354L9.25831 15.8341L12.6289 9.38184L21.1164 8.03151Z" stroke="black" stroke-width="0.25"/>
<path d="M16.1568 19.915L19.4308 13.4633L25.9725 12.5014L25.9733 12.5012L32.7881 11.5414L36.5577 17.8812L39.1255 22.8719L35.8502 29.6152L32.4789 36.1652L27.0058 37.1253L19.3157 37.9905L16.1529 32.9106L12.6893 26.7534L16.1568 19.915L16.1568 19.915Z" fill="white" stroke="black" stroke-width="0.25"/>
<path d="M32.2419 24.3272C32.2419 26.1987 31.4695 28.0644 30.2328 29.462C28.9962 30.8595 27.3038 31.7803 25.4689 31.7803C23.6269 31.7803 22.1562 31.0481 21.144 29.8527C20.1301 28.6552 19.5703 26.9853 19.5703 25.1045C19.5703 21.3623 22.9493 17.9429 26.6347 17.9429C28.4803 17.9429 29.8764 18.6047 30.8134 19.7242C31.753 20.8466 32.2419 22.4426 32.2419 24.3272Z" fill="white" stroke="black" stroke-width="0.25"/>
<path d="M32.048 23.5502C32.048 25.3227 31.1197 27.2376 29.7717 28.7744C28.4258 30.3087 26.6815 31.4433 25.0716 31.6834C23.3125 31.6806 21.9673 30.8704 21.0575 29.6155C20.1436 28.355 19.668 26.6427 19.668 24.8501C19.668 21.2932 22.9166 18.0403 26.4621 18.0403C28.3247 18.0403 29.7161 18.5366 30.6422 19.4616C31.5683 20.3865 32.048 21.7588 32.048 23.5502Z" fill="white" stroke="black" stroke-width="0.25"/>
<path d="M32.048 23.5502C32.048 25.3227 31.1197 27.2376 29.7717 28.7744C28.4258 30.3087 26.6815 31.4433 25.0716 31.6834C23.3125 31.6806 21.9673 30.8704 21.0575 29.6155C20.1436 28.355 19.668 26.6427 19.668 24.8501C19.668 21.2932 22.9166 18.0403 26.4621 18.0403C28.3247 18.0403 29.7161 18.5366 30.6422 19.4616C31.5683 20.3865 32.048 21.7588 32.048 23.5502Z" fill="white" stroke="black" stroke-width="0.25"/>
<path d="M19.6663 24.8604L19.6667 24.8604V24.8502C19.6667 21.2988 22.9159 18.2282 26.4675 18.0402C30.0734 17.8493 31.8525 20.3253 31.8525 21.9958C31.8525 22.8762 31.5522 23.8989 31.0378 24.9427C30.5242 25.9851 29.8009 27.0406 28.9647 27.9846C28.1284 28.9287 27.1818 29.7583 26.2231 30.3509C25.2631 30.9444 24.2999 31.2948 23.428 31.2948C23.0512 31.2948 22.6092 31.1218 22.1566 30.7926C21.7058 30.4646 21.2541 29.9883 20.8601 29.3997C20.0721 28.2222 19.5232 26.6074 19.6663 24.8604Z" fill="white" stroke="black" stroke-width="0.25"/>
<path d="M22.3649 30.8064C22.1785 30.7573 21.9044 30.5943 21.5947 30.3096C21.2762 30.0168 20.9314 29.6054 20.6214 29.089C20.0017 28.0568 19.5239 26.6102 19.6672 24.8603L19.6676 24.8604V24.8501C19.6676 21.2988 22.9168 18.2282 26.4684 18.0401C28.274 17.9445 29.4043 18.4698 30.0815 19.0089C30.4213 19.2794 30.6493 19.5552 30.7918 19.7623C30.8631 19.8658 30.913 19.952 30.9447 20.0116C30.9605 20.0414 30.9718 20.0645 30.979 20.0797L30.982 20.0862C31.1659 21.7034 30.6168 24.117 29.2143 26.2628C27.8126 28.4073 25.5657 30.2731 22.3649 30.8064Z" fill="white" stroke="black" stroke-width="0.25"/>
<path d="M21.609 30.2197C21.1172 29.8954 19.5739 28.3708 19.6671 24.8533L19.6672 24.8533V24.85C19.6672 21.2986 22.9164 18.228 26.468 18.04C27.8012 17.9694 28.6502 18.1857 29.1612 18.4129C29.4169 18.5266 29.5891 18.6435 29.6958 18.7299C29.7492 18.7731 29.7863 18.8088 29.8093 18.8327C29.816 18.8396 29.8214 18.8455 29.8258 18.8503C30.0536 19.623 30.0595 20.6475 29.8352 21.7737C29.6088 22.9102 29.1495 24.1417 28.4582 25.3078C27.0823 27.629 24.7944 29.6805 21.609 30.2197Z" fill="white" stroke="black" stroke-width="0.25"/>
<path d="M19.6689 24.8501V24.8501C19.6689 21.2987 22.9182 18.2281 26.4697 18.0401C27.4193 17.9898 28.0057 18.0864 28.3501 18.191C28.5222 18.2433 28.6338 18.2976 28.7002 18.3366C28.7275 18.3526 28.7472 18.3661 28.7605 18.3759C29.2187 19.9422 28.909 22.5092 27.6783 24.8273C26.4475 27.1456 24.3062 29.1943 21.1254 29.7337C21.0305 29.6633 20.9003 29.5198 20.7542 29.2951C20.5913 29.0446 20.4161 28.7048 20.255 28.2829C19.9328 27.4395 19.6689 26.2737 19.6689 24.8501Z" fill="white" stroke="black" stroke-width="0.25"/>
<path d="M27.47 17.9974C27.519 17.9962 27.561 17.9956 27.5968 17.9953C28.0574 19.5683 27.9334 22.0614 26.8978 24.2992C25.8605 26.5408 23.9141 28.5158 20.7354 29.054C20.5337 28.9141 20.2751 28.583 20.0623 27.9479C19.8375 27.2768 19.6689 26.2801 19.6689 24.8501V24.8501C19.6689 21.2988 22.9182 18.2281 26.4697 18.0401C26.9494 18.0147 27.2656 18.0021 27.47 17.9974Z" fill="white" stroke="black" stroke-width="0.25"/>
<path d="M26.4697 18.0401C26.5284 18.037 26.5837 18.0341 26.6358 18.0314C27.0897 19.6032 27.0748 21.8124 26.1692 23.7648C25.2578 25.7297 23.4414 27.4415 20.2693 27.9819C20.2019 27.8997 20.1335 27.78 20.0681 27.6216C19.9899 27.4321 19.9192 27.195 19.8597 26.917C19.7409 26.3611 19.6689 25.6506 19.6689 24.8501C19.6689 21.2988 22.9182 18.2281 26.4697 18.0401Z" fill="white" stroke="black" stroke-width="0.25"/>
<path d="M19.6689 24.8501C19.6689 21.6455 22.3147 18.8322 25.441 18.1754C25.4402 19.7524 25.4178 21.7197 24.745 23.4703C24.0604 25.2512 22.7006 26.8121 19.9735 27.4916C19.8386 27.3274 19.7588 27.0812 19.716 26.6867C19.6689 26.2522 19.6689 25.6655 19.6689 24.8603V24.8501Z" fill="white" stroke="black" stroke-width="0.25"/>
</svg>
