<svg width="36" height="35" viewBox="0 0 36 35" fill="none" xmlns="http://www.w3.org/2000/svg">
<path d="M24.4105 18C24.4105 22.6798 23.6292 26.9095 22.3716 29.9637C21.7426 31.4912 20.9975 32.7174 20.1778 33.5594C19.3585 34.401 18.4741 34.85 17.5605 34.85C16.647 34.85 15.7626 34.401 14.9433 33.5594C14.1236 32.7174 13.3785 31.4912 12.7495 29.9637C11.4919 26.9095 10.7105 22.6798 10.7105 18C10.7105 13.3202 11.4919 9.09051 12.7495 6.0363C13.3785 4.50884 14.1236 3.2826 14.9433 2.44058C15.7626 1.59903 16.647 1.15 17.5605 1.15C18.4741 1.15 19.3585 1.59903 20.1778 2.44058C20.9975 3.2826 21.7426 4.50884 22.3716 6.0363C23.6292 9.09051 24.4105 13.3202 24.4105 18Z" stroke="black" stroke-width="0.3"/>
<path d="M21.1053 23.7013C17.032 25.9007 12.9943 27.229 9.76266 27.6027C8.14641 27.7897 6.73974 27.7369 5.63376 27.4408C4.52819 27.1448 3.73696 26.6101 3.32243 25.8424C2.9079 25.0746 2.89483 24.1198 3.2538 23.033C3.6129 21.9459 4.34042 20.7408 5.3833 19.4919C7.4685 16.9949 10.794 14.3475 14.8672 12.1482C18.9405 9.94887 22.9782 8.62059 26.2098 8.24681C27.8261 8.05987 29.2328 8.11263 30.3388 8.40873C31.4443 8.70471 32.2356 9.23944 32.6501 10.0072C33.0646 10.7749 33.0777 11.7298 32.7187 12.8165C32.3596 13.9037 31.6321 15.1088 30.5892 16.3576C28.504 18.8546 25.1785 21.502 21.1053 23.7013Z" stroke="black" stroke-width="0.3"/>
<path d="M14.783 23.6526C10.7446 21.3898 7.46101 18.6906 5.41515 16.1613C4.39194 14.8963 3.68338 13.68 3.34134 12.5873C2.99942 11.4951 3.02743 10.5405 3.45393 9.7794C3.88043 9.01825 4.67993 8.49597 5.79 8.21733C6.90047 7.93858 8.3078 7.90784 9.92093 8.12005C13.1463 8.54436 17.1627 9.93568 21.2011 12.1985C25.2394 14.4613 28.5231 17.1604 30.5689 19.6898C31.5921 20.9548 32.3007 22.1711 32.6427 23.2637C32.9846 24.356 32.9566 25.3105 32.5301 26.0717C32.1036 26.8328 31.3041 27.3551 30.1941 27.6338C29.0836 27.9125 27.6763 27.9432 26.0631 27.731C22.8378 27.3067 18.8214 25.9154 14.783 23.6526Z" stroke="black" stroke-width="0.3"/>
<path d="M21.4105 17.5C21.4105 19.9195 19.6707 21.85 17.5605 21.85C15.4504 21.85 13.7105 19.9195 13.7105 17.5C13.7105 15.0805 15.4504 13.15 17.5605 13.15C19.6707 13.15 21.4105 15.0805 21.4105 17.5Z" stroke="black" stroke-width="0.3"/>
<circle cx="18.0605" cy="1.5" r="1" fill="black" stroke="black"/>
<circle cx="32.0605" cy="9.5" r="1" fill="black" stroke="black"/>
<circle cx="9.06055" cy="19.5" r="1" fill="black" stroke="black"/>
</svg>
