<svg width="36" height="25" viewBox="0 0 36 25" fill="none" xmlns="http://www.w3.org/2000/svg">
<rect class="rect"  x="0.15" y="2.12387" width="35.7" height="22.4586" fill="white" stroke="black" stroke-width="0.3" style="fill: white"/>
<path d="M19.0778 24.5825H17.0102C16.9997 24.5504 16.9861 24.5127 16.9688 24.47C16.912 24.3298 16.8153 24.1361 16.6536 23.9128C16.3297 23.4655 15.749 22.9045 14.7187 22.4159C12.6784 21.4484 8.87673 20.7657 1.79844 21.8001V3.36525H34.0502V21.8005C27.5568 20.8696 23.8158 21.5536 21.6884 22.4918C20.6147 22.9653 19.9535 23.5029 19.5589 23.9278C19.3618 24.1401 19.2317 24.3237 19.1501 24.4561C19.1195 24.5059 19.0957 24.5484 19.0778 24.5825Z" fill="white" stroke="black" stroke-width="0.3"/>
<path d="M18.1392 3.35451C18.2881 3.37244 18.2881 3.37214 18.2882 3.37182L18.2882 3.3711L18.2884 3.36938L18.2889 3.36482L18.2898 3.35133C18.2904 3.34043 18.2909 3.32575 18.2906 3.30757C18.2901 3.27121 18.2867 3.22087 18.2761 3.15885C18.2749 3.15197 18.2736 3.14495 18.2722 3.13779C18.2764 3.04166 18.2963 2.91126 18.3563 2.75847C18.4911 2.41569 18.8364 1.9402 19.7083 1.48743C21.4524 0.581746 25.2624 -0.211019 33.5064 0.322608V19.6556C25.1021 18.0498 21.2003 19.2565 19.4073 20.9347C18.6203 21.6713 18.2495 22.4904 18.0821 23.1802C17.8668 22.5187 17.4459 21.7399 16.6341 21.0344C14.7498 19.3966 10.8025 18.1873 2.56504 19.6578V0.324729C10.5656 -0.07291 14.4308 0.71799 16.2904 1.59318C17.2225 2.03188 17.642 2.48764 17.8311 2.81698C17.9115 2.95681 17.9516 3.07594 17.9714 3.16457C17.9714 3.16714 17.9714 3.16968 17.9714 3.17221C17.9711 3.23771 17.9761 3.29058 17.9816 3.32833C17.9844 3.34721 17.9872 3.36234 17.9896 3.3734L17.9926 3.38693L17.9938 3.39135L17.9942 3.39297L17.9944 3.39362C17.9944 3.39391 17.9945 3.39417 18.1392 3.35451ZM18.1392 3.35451L18.2881 3.37244L17.9945 3.39417L18.1392 3.35451ZM17.99 3.33841C17.99 3.33857 17.99 3.33849 17.9901 3.33819L17.99 3.33841ZM18.2842 3.31612C18.2842 3.31629 18.2842 3.31622 18.2841 3.3159L18.2842 3.31612Z" fill="white" stroke="black" stroke-width="0.3"/>
</svg>
