<svg width="36" height="35" viewBox="0 0 36 35" fill="none" xmlns="http://www.w3.org/2000/svg">
<rect x="4.70957" y="4.60397" width="26.6322" height="24.8296" rx="1.85" fill="white" stroke="black" stroke-width="0.3"/>
<rect x="9.37461" y="8.95129" width="17.3013" height="16.135" rx="1.85" fill="white" stroke="black" stroke-width="0.3"/>
<path d="M22.7888 16.711H22.6388V16.861C22.6388 17.0016 22.6477 17.107 22.655 17.1939C22.6574 17.2228 22.6597 17.2496 22.6614 17.2751C22.6681 17.3753 22.6684 17.4717 22.641 17.6308L22.6218 17.7423L22.7238 17.7914C23.0339 17.9406 23.055 17.9506 23.6784 18.2154C23.6537 18.2986 23.6271 18.399 23.5994 18.5056C23.5915 18.5359 23.5834 18.567 23.5752 18.5987C23.534 18.7575 23.4889 18.9318 23.4398 19.1029C23.3807 19.3088 23.3177 19.504 23.2519 19.6565C23.219 19.7327 23.1871 19.7942 23.157 19.8395C23.1539 19.8442 23.1508 19.8486 23.1479 19.8528C22.6788 19.5711 22.4439 19.4256 22.215 19.1926L22.0778 19.0529L21.9787 19.2219C21.7873 19.548 21.7077 19.71 21.5386 20.0866L21.5066 20.1578L21.5467 20.2249C21.7189 20.5133 21.8899 20.714 22.0718 20.9274C22.1026 20.9635 22.1337 21.0001 22.1652 21.0375C22.1297 21.0732 22.0884 21.1151 22.0427 21.1613C22.0059 21.1986 21.9664 21.2387 21.9247 21.2808C21.7678 21.4392 21.5778 21.6295 21.3864 21.8129C21.1945 21.9968 21.0036 22.1716 20.8446 22.3001C20.7787 22.3532 20.7204 22.3968 20.6713 22.4293C20.5706 22.0593 20.485 21.858 20.3746 21.5983C20.3318 21.4976 20.2853 21.3882 20.2327 21.2567L20.1722 21.1053L20.0264 21.1782C19.6223 21.3802 19.4574 21.4428 19.363 21.4747C19.3474 21.48 19.333 21.4847 19.3194 21.4891C19.2437 21.5138 19.1886 21.5317 19.0618 21.608L18.9886 21.652L18.9891 21.7374C18.9908 22.0052 18.9903 22.2527 18.9898 22.555C18.9896 22.6888 18.9893 22.8333 18.9892 22.995C18.6511 22.9953 18.0308 22.9951 17.5509 22.9949C17.4094 22.9949 17.2801 22.9948 17.1738 22.9948C17.1856 22.8162 17.2152 22.6167 17.2462 22.4183C17.2495 22.3973 17.2528 22.3764 17.2561 22.3554C17.2918 22.1285 17.3275 21.9015 17.3275 21.7365V21.629L17.2257 21.5945C17.0025 21.5187 16.7875 21.4054 16.5623 21.28C16.5276 21.2607 16.4926 21.241 16.4573 21.2212C16.267 21.1144 16.068 21.0026 15.86 20.9102L15.7138 20.8452L15.6584 20.9954C15.5847 21.1951 15.4035 21.5433 15.2215 21.8775C15.1443 22.0192 15.0669 22.1586 14.9995 22.2798C14.9609 22.3494 14.9255 22.4129 14.8955 22.4676C14.8188 22.411 14.7255 22.3431 14.6219 22.2678C14.426 22.1252 14.1937 21.9563 13.9697 21.788C13.7505 21.6233 13.5356 21.4569 13.3597 21.3092C13.2384 21.2073 13.1415 21.1192 13.0748 21.0495C13.3306 20.7548 13.4996 20.6002 13.9684 20.2707L14.0993 20.1787L13.999 20.054C13.952 19.9955 13.9102 19.9429 13.8716 19.8944C13.6826 19.6567 13.571 19.5165 13.2986 19.2463L13.2222 19.1706L13.126 19.2185C13.0058 19.2784 12.8965 19.3478 12.7834 19.4196C12.7407 19.4467 12.6974 19.4742 12.6528 19.5016C12.5177 19.5847 12.3573 19.6763 12.1365 19.7767C12.0718 19.4809 11.9673 18.9939 11.8714 18.52C11.8118 18.2258 11.7558 17.9376 11.7147 17.7036C11.6918 17.5734 11.6745 17.4646 11.6634 17.3821H11.665H11.6672H11.6694H11.6716H11.6738H11.676H11.6782H11.6804H11.6826H11.6848H11.6871H11.6893H11.6915H11.6937H11.6959H11.6981H11.7003H11.7025H11.7048H11.707H11.7092H11.7114H11.7136H11.7159H11.7181H11.7203H11.7225H11.7247H11.727H11.7292H11.7314H11.7337H11.7359H11.7381H11.7403H11.7426H11.7448H11.747H11.7493H11.7515H11.7538H11.756H11.7582H11.7605H11.7627H11.765H11.7672H11.7695H11.7717H11.774H11.7762H11.7785H11.7807H11.783H11.7852H11.7875H11.7897H11.792H11.7942H11.7965H11.7988H11.801H11.8033H11.8056H11.8078H11.8101H11.8124H11.8146H11.8169H11.8192H11.8215H11.8237H11.826H11.8283H11.8306H11.8329H11.8351H11.8374H11.8397H11.842H11.8443H11.8466H11.8489H11.8512H11.8535H11.8558H11.8581H11.8604H11.8627H11.865H11.8673H11.8696H11.8719H11.8742H11.8765H11.8788H11.8811H11.8834H11.8858H11.8881H11.8904H11.8927H11.895H11.8974H11.8997H11.902H11.9044H11.9067H11.909H11.9114H11.9137H11.916H11.9184H11.9207H11.9231H11.9254H11.9278H11.9301H11.9325H11.9348H11.9372H11.9395H11.9419H11.9443H11.9466H11.949H11.9514H11.9537H11.9561H11.9585H11.9608H11.9632H11.9656H11.968H11.9704H11.9727H11.9751H11.9775H11.9799H11.9823H11.9847H11.9871H11.9895H11.9919H11.9943H11.9967H11.9991H12.0015H12.0039H12.0064H12.0088H12.0112H12.0136H12.016H12.0185H12.0209H12.0233H12.0257H12.0282H12.0306H12.033H12.0355H12.0379H12.0404H12.0428H12.0453H12.0477H12.0502H12.0526H12.0551H12.0575H12.06H12.0625H12.0649H12.0674H12.0699H12.0724H12.0748H12.0773H12.0798H12.0823H12.0848H12.0873H12.0897H12.0922H12.0947H12.0972H12.0997H12.1022H12.1047H12.1073H12.1098H12.1123H12.1148H12.1173H12.1198H12.1224H12.1249H12.1274H12.1299H12.1325H12.135H12.1376H12.1401H12.1426H12.1452H12.1477H12.1503H12.1529H12.1554H12.158H12.1605H12.1631H12.1657H12.1682H12.1708H12.1734H12.176H12.1786H12.1811H12.1837H12.1863H12.1889H12.1915H12.1941H12.1967H12.1993H12.2019H12.2045H12.2072H12.2098H12.2124H12.215H12.2176H12.2203H12.2229H12.2255H12.2282H12.2308H12.2335H12.2361H12.2388H12.2414H12.2441H12.2467H12.2494H12.252H12.2547H12.2574H12.2601H12.2627H12.2654H12.2681H12.2708H12.2735H12.2762H12.2789H12.2816H12.2843H12.287H12.2897H12.2924H12.2951H12.2978H12.3005H12.3033H12.306H12.3087H12.3114H12.3142H12.3169H12.3197H12.3224H12.3252H12.3279H12.3307H12.3334H12.3362H12.339H12.3417H12.3445H12.3473H12.3501H12.3528H12.3556H12.3584H12.3612H12.364H12.3668H12.3696H12.3724H12.3752H12.3781H12.3809H12.3837H12.3865H12.3893H12.3922H12.395H12.3979H12.4007H12.4035H12.4064H12.4092H12.4121H12.415H12.4178H12.4207H12.4236H12.4264H12.4293H12.4322H12.4351H12.438H12.4409H12.4438H12.4467H12.4496H12.4525H12.4554H12.4583H12.4612H12.4641H12.4671H12.47H12.4729H12.4759H12.4788H12.4818H12.4847H12.4877H12.4906H12.4936H12.4965H12.4995H12.5025H12.5055H12.5084H12.5114H12.5144H12.5174H12.5204H12.5234H12.5264H12.5294H12.5324H12.5354H12.5385H12.5415H12.5445H12.5475H12.5506H12.5536H12.5567H12.5597H12.5628H12.5658H12.5689H12.5719H12.575H12.5781H12.5812H12.5842H12.5873H12.5904H12.5935H12.5966H12.5997H12.6028H12.6059H12.609H12.6122H12.6153H12.6184H12.6215H12.6247H12.6278H12.631H12.6341H12.6373H12.6404H12.6436H12.6467H12.6499H12.6531H12.6563H12.6594H12.6626H12.6658H12.669H12.6722H12.6754H12.6786H12.6818H12.6851H12.6883H12.6915H12.6947H12.698H12.7012H12.7045H12.7077H12.711H12.7142H12.7175H12.7208H12.724H12.7273H12.7306H12.7339H12.7372H12.7405H12.7438H12.7471H12.7504H12.7537H12.757H12.7603H12.7637H12.767H12.7703H12.7737H12.777H12.7804H12.7837H12.7871H12.7904H12.7938H12.7972H12.8006H12.804H12.8073H12.8107H12.8141H12.8175H12.8209H12.8244H12.9744V17.2321C12.9744 16.8144 12.9939 16.6039 13.0265 16.3496L13.0467 16.1915L12.8876 16.1809C12.1271 16.1302 11.9924 16.1226 11.8581 16.1101C11.8118 16.1058 11.7656 16.101 11.6938 16.0935C11.8918 15.4304 12.1893 14.5832 12.4235 14.0381C12.8267 14.2261 13.1644 14.4263 13.6092 14.755L13.7433 14.8541L13.8277 14.7102C13.9871 14.4387 14.063 14.3384 14.2645 14.0934L14.3281 14.016L14.281 13.9276C14.1259 13.6361 14.0544 13.5157 13.9501 13.3952C13.9069 13.3452 13.8582 13.2954 13.7986 13.2344C13.7896 13.2252 13.7804 13.2157 13.7708 13.206C13.7192 13.153 13.6571 13.0889 13.5795 13.0056C13.9602 12.7093 14.8963 12.0249 15.3787 11.6986C15.4429 11.9989 15.5015 12.2267 15.598 12.6014C15.6297 12.7245 15.6654 12.8633 15.7068 13.0259L15.7527 13.2063L15.9192 13.123C16.3225 12.9214 16.5218 12.8789 16.9597 12.7856C16.9887 12.7795 17.0187 12.7731 17.0499 12.7664L17.1844 12.7376L17.1673 12.6011C17.1429 12.4053 17.1241 12.2518 17.1083 12.1228C17.0616 11.7421 17.0413 11.5764 16.9803 11.1731C17.3485 11.1669 18.0702 11.1715 18.6432 11.1751C18.8329 11.1763 19.0063 11.1773 19.1453 11.1779C19.1384 11.3523 19.1206 11.5077 19.1012 11.6765C19.0995 11.6911 19.0978 11.7057 19.0961 11.7204C19.0694 11.9541 19.0422 12.2123 19.0422 12.5655V12.692L19.1669 12.7133C19.2158 12.7217 19.2593 12.7287 19.2991 12.7351C19.5203 12.7707 19.63 12.7884 19.9289 12.9149L20.0314 12.9583L20.1026 12.8728C20.2367 12.712 20.3315 12.5775 20.4532 12.405L20.4612 12.3937C20.5718 12.2368 20.7077 12.0447 20.919 11.7665C21.0956 11.8956 21.3997 12.1212 21.6935 12.3539C21.8832 12.5042 22.0665 12.6559 22.208 12.7857C22.2789 12.8507 22.3373 12.9084 22.3801 12.9564C22.3949 12.973 22.4072 12.9877 22.4171 13.0006C22.2499 13.3765 22.0545 13.5341 21.6351 13.8726C21.572 13.9236 21.5038 13.9786 21.4299 14.0391L21.3135 14.1343L21.409 14.2505C21.5015 14.363 21.6032 14.4734 21.7004 14.5791C21.7581 14.6418 21.8143 14.7028 21.8661 14.7615C22.0108 14.9258 22.1385 15.0903 22.2342 15.2824L22.3115 15.4376L22.454 15.3388C22.8618 15.0558 23.115 14.8638 23.3974 14.6496C23.4271 14.6271 23.4572 14.6043 23.4877 14.5811C23.5851 15.135 23.7159 15.93 23.8408 16.711H23.8384H23.8358H23.8333H23.8308H23.8283H23.8257H23.8232H23.8207H23.8181H23.8156H23.8131H23.8105H23.808H23.8055H23.8029H23.8004H23.7979H23.7953H23.7928H23.7902H23.7877H23.7852H23.7826H23.7801H23.7776H23.775H23.7725H23.77H23.7674H23.7649H23.7623H23.7598H23.7573H23.7547H23.7522H23.7497H23.7471H23.7446H23.742H23.7395H23.737H23.7344H23.7319H23.7293H23.7268H23.7243H23.7217H23.7192H23.7166H23.7141H23.7116H23.709H23.7065H23.704H23.7014H23.6989H23.6963H23.6938H23.6913H23.6887H23.6862H23.6836H23.6811H23.6786H23.676H23.6735H23.6709H23.6684H23.6659H23.6633H23.6608H23.6582H23.6557H23.6532H23.6506H23.6481H23.6456H23.643H23.6405H23.6379H23.6354H23.6329H23.6303H23.6278H23.6253H23.6227H23.6202H23.6177H23.6151H23.6126H23.6101H23.6075H23.605H23.6025H23.5999H23.5974H23.5949H23.5923H23.5898H23.5873H23.5847H23.5822H23.5797H23.5771H23.5746H23.5721H23.5695H23.567H23.5645H23.562H23.5594H23.5569H23.5544H23.5519H23.5493H23.5468H23.5443H23.5418H23.5392H23.5367H23.5342H23.5317H23.5291H23.5266H23.5241H23.5216H23.5191H23.5165H23.514H23.5115H23.509H23.5065H23.5039H23.5014H23.4989H23.4964H23.4939H23.4914H23.4889H23.4863H23.4838H23.4813H23.4788H23.4763H23.4738H23.4713H23.4688H23.4663H23.4638H23.4612H23.4587H23.4562H23.4537H23.4512H23.4487H23.4462H23.4437H23.4412H23.4387H23.4362H23.4337H23.4312H23.4287H23.4262H23.4237H23.4212H23.4188H23.4163H23.4138H23.4113H23.4088H23.4063H23.4038H23.4013H23.3988H23.3963H23.3939H23.3914H23.3889H23.3864H23.3839H23.3815H23.379H23.3765H23.374H23.3715H23.3691H23.3666H23.3641H23.3616H23.3592H23.3567H23.3542H23.3518H23.3493H23.3468H23.3444H23.3419H23.3394H23.337H23.3345H23.332H23.3296H23.3271H23.3247H23.3222H23.3198H23.3173H23.3149H23.3124H23.3099H23.3075H23.3051H23.3026H23.3002H23.2977H23.2953H23.2928H23.2904H23.2879H23.2855H23.2831H23.2806H23.2782H23.2758H23.2733H23.2709H23.2685H23.266H23.2636H23.2612H23.2588H23.2563H23.2539H23.2515H23.2491H23.2466H23.2442H23.2418H23.2394H23.237H23.2346H23.2322H23.2297H23.2273H23.2249H23.2225H23.2201H23.2177H23.2153H23.2129H23.2105H23.2081H23.2057H23.2033H23.2009H23.1986H23.1962H23.1938H23.1914H23.189H23.1866H23.1842H23.1819H23.1795H23.1771H23.1747H23.1723H23.17H23.1676H23.1652H23.1629H23.1605H23.1581H23.1558H23.1534H23.151H23.1487H23.1463H23.144H23.1416H23.1393H23.1369H23.1346H23.1322H23.1299H23.1275H23.1252H23.1228H23.1205H23.1182H23.1158H23.1135H23.1112H23.1088H23.1065H23.1042H23.1018H23.0995H23.0972H23.0949H23.0926H23.0902H23.0879H23.0856H23.0833H23.081H23.0787H23.0764H23.0741H23.0718H23.0695H23.0672H23.0649H23.0626H23.0603H23.058H23.0557H23.0534H23.0511H23.0489H23.0466H23.0443H23.042H23.0397H23.0375H23.0352H23.0329H23.0307H23.0284H23.0261H23.0239H23.0216H23.0193H23.0171H23.0148H23.0126H23.0103H23.0081H23.0058H23.0036H23.0014H22.9991H22.9969H22.9946H22.9924H22.9902H22.9879H22.9857H22.9835H22.9813H22.9791H22.9768H22.9746H22.9724H22.9702H22.968H22.9658H22.9636H22.9614H22.9592H22.957H22.9548H22.9526H22.9504H22.9482H22.946H22.9438H22.9416H22.9395H22.9373H22.9351H22.9329H22.9307H22.9286H22.9264H22.9242H22.9221H22.9199H22.9178H22.9156H22.9135H22.9113H22.9092H22.907H22.9049H22.9027H22.9006H22.8985H22.8963H22.8942H22.8921H22.8899H22.8878H22.8857H22.8836H22.8814H22.8793H22.8772H22.8751H22.873H22.8709H22.8688H22.8667H22.8646H22.8625H22.8604H22.8583H22.8562H22.8541H22.8521H22.85H22.8479H22.8458H22.8438H22.8417H22.8396H22.8376H22.8355H22.8334H22.8314H22.8293H22.8273H22.8252H22.8232H22.8211H22.8191H22.8171H22.815H22.813H22.811H22.8089H22.8069H22.8049H22.8029H22.8009H22.7989H22.7968H22.7948H22.7928H22.7908H22.7888Z" fill="white" stroke="black" stroke-width="0.3"/>
<circle cx="18.0786" cy="16.9127" r="2.87192" fill="white" stroke="black" stroke-width="0.3"/>
<circle cx="7.95207" cy="7.5289" r="1.12239" fill="white" stroke="black" stroke-width="0.3"/>
<circle cx="7.95207" cy="26.5087" r="1.12239" fill="white" stroke="black" stroke-width="0.3"/>
<circle cx="28.7343" cy="26.0845" r="1.12239" fill="white" stroke="black" stroke-width="0.3"/>
<circle cx="28.7343" cy="8.05906" r="1.12239" fill="white" stroke="black" stroke-width="0.3"/>
<line x1="8.68516" x2="8.68516" y2="4.45461" stroke="black" stroke-width="0.3"/>
<line x1="11.8131" y1="0.000621796" x2="11.8131" y2="4.45523" stroke="black" stroke-width="0.3"/>
<line x1="15.2066" y1="0.000621796" x2="15.2066" y2="4.45523" stroke="black" stroke-width="0.3"/>
<line x1="18.2818" y1="0.000621796" x2="18.2818" y2="4.45523" stroke="black" stroke-width="0.3"/>
<line x1="21.4625" y1="0.000621796" x2="21.4625" y2="4.45523" stroke="black" stroke-width="0.3"/>
<line x1="24.6432" y1="0.000621796" x2="24.6432" y2="4.45523" stroke="black" stroke-width="0.3"/>
<line x1="27.8248" y1="0.000621796" x2="27.8248" y2="4.45523" stroke="black" stroke-width="0.3"/>
<line x1="8.73887" y1="29.5836" x2="8.73887" y2="34.0382" stroke="black" stroke-width="0.3"/>
<line x1="11.8668" y1="29.5842" x2="11.8668" y2="34.0388" stroke="black" stroke-width="0.3"/>
<line x1="15.2594" y1="29.5842" x2="15.2594" y2="34.0388" stroke="black" stroke-width="0.3"/>
<line x1="18.3346" y1="29.5842" x2="18.3346" y2="34.0388" stroke="black" stroke-width="0.3"/>
<line x1="21.5152" y1="29.5842" x2="21.5152" y2="34.0388" stroke="black" stroke-width="0.3"/>
<line x1="24.6969" y1="29.5842" x2="24.6969" y2="34.0388" stroke="black" stroke-width="0.3"/>
<line x1="27.8775" y1="29.5842" x2="27.8775" y2="34.0388" stroke="black" stroke-width="0.3"/>
<line x1="31.2793" y1="26.6219" x2="35.7339" y2="26.6219" stroke="black" stroke-width="0.3"/>
<line x1="31.3232" y1="23.4941" x2="35.7779" y2="23.4941" stroke="black" stroke-width="0.3"/>
<line x1="31.3701" y1="20.1015" x2="35.8247" y2="20.1015" stroke="black" stroke-width="0.3"/>
<line x1="31.4131" y1="17.0268" x2="35.8677" y2="17.0268" stroke="black" stroke-width="0.3"/>
<line x1="31.458" y1="13.8462" x2="35.9126" y2="13.8462" stroke="black" stroke-width="0.3"/>
<line x1="31.502" y1="10.6655" x2="35.9566" y2="10.6655" stroke="black" stroke-width="0.3"/>
<line x1="31.5449" y1="7.48494" x2="35.9995" y2="7.48494" stroke="black" stroke-width="0.3"/>
<line y1="26.5158" x2="4.45461" y2="26.5158" stroke="black" stroke-width="0.3"/>
<line x1="0.0439453" y1="23.3881" x2="4.49856" y2="23.3881" stroke="black" stroke-width="0.3"/>
<line x1="0.0908203" y1="19.9955" x2="4.54543" y2="19.9955" stroke="black" stroke-width="0.3"/>
<line x1="0.133789" y1="16.9208" x2="4.5884" y2="16.9208" stroke="black" stroke-width="0.3"/>
<line x1="0.177734" y1="13.7402" x2="4.63235" y2="13.7402" stroke="black" stroke-width="0.3"/>
<line x1="0.22168" y1="10.5595" x2="4.67629" y2="10.5595" stroke="black" stroke-width="0.3"/>
<line x1="0.265625" y1="7.3789" x2="4.72024" y2="7.3789" stroke="black" stroke-width="0.3"/>
</svg>
