<svg width="30" height="15" viewBox="0 0 30 15" fill="none" xmlns="http://www.w3.org/2000/svg">
<path d="M0.36025 9.92605C0.240404 9.90885 0.145416 9.82281 0.112991 9.71143H27.5247C28.8368 9.71143 29.9004 10.7751 29.9004 12.0871C29.9004 13.3992 28.8368 14.4628 27.5247 14.4628H0.114531C0.148424 14.359 0.242405 14.2817 0.356862 14.2734L0.995625 14.2276C1.05198 14.2235 1.10048 14.1862 1.11882 14.1328L1.19908 13.8989C1.61731 12.6801 1.5941 11.3532 1.13349 10.1498L1.11815 10.1097C1.09944 10.0608 1.0557 10.0259 1.00387 10.0184L0.36025 9.92605Z" stroke="black" stroke-width="0.2"/>
<path d="M1.18114 10.1701C1.16751 10.1232 1.20287 10.0763 1.25177 10.0765L15.4419 10.139C16.552 10.1439 17.4493 11.0452 17.4493 12.1553C17.4493 13.2688 16.5466 14.1715 15.4331 14.1715H1.23646C1.19752 14.1715 1.16988 14.1336 1.18179 14.0965C1.57194 12.8827 1.59047 11.58 1.235 10.3556L1.18114 10.1701Z" fill="white" stroke="black" stroke-width="0.2"/>
<path d="M12 10.7765H16.3688" stroke="black" stroke-width="0.2" stroke-linecap="round"/>
<path d="M12.5254 12.2328L17.4768 12.2328" stroke="black" stroke-width="0.2" stroke-linecap="round"/>
<path d="M14 13.5434H16.1844" stroke="black" stroke-width="0.2" stroke-linecap="round"/>
<path d="M11.0693 12.2328H11.7975" stroke="black" stroke-width="0.2" stroke-linecap="round"/>
<path d="M0.36025 5.12034C0.240404 5.10313 0.145416 5.01709 0.112991 4.90572H27.5247C28.8368 4.90572 29.9004 5.96935 29.9004 7.2814C29.9004 8.59345 28.8368 9.65708 27.5247 9.65708H0.114531C0.148424 9.55324 0.242405 9.47594 0.356862 9.46772L0.995625 9.42187C1.05198 9.41783 1.10048 9.38051 1.11882 9.32706L1.19908 9.09318C1.61731 7.87441 1.5941 6.54746 1.13349 5.34407L1.11815 5.304C1.09944 5.2551 1.0557 5.22017 1.00387 5.21273L0.36025 5.12034Z" stroke="black" stroke-width="0.2"/>
<path d="M1.18114 5.36441C1.16751 5.31745 1.20287 5.27058 1.25177 5.2708L15.4419 5.33331C16.552 5.3382 17.4493 6.23947 17.4493 7.34955C17.4493 8.4631 16.5466 9.36581 15.4331 9.36581H1.23646C1.19752 9.36581 1.16988 9.32789 1.18179 9.29082C1.57194 8.07702 1.59047 6.77432 1.235 5.54991L1.18114 5.36441Z" fill="white" stroke="black" stroke-width="0.2"/>
<path d="M12 5.97076H16.3688" stroke="black" stroke-width="0.2" stroke-linecap="round"/>
<path d="M12.5254 7.42705L17.4768 7.42705" stroke="black" stroke-width="0.2" stroke-linecap="round"/>
<path d="M14 8.73768H16.1844" stroke="black" stroke-width="0.2" stroke-linecap="round"/>
<path d="M11.0693 7.42705H11.7975" stroke="black" stroke-width="0.2" stroke-linecap="round"/>
<path d="M29.6398 0.314619C29.7596 0.297416 29.8546 0.211374 29.887 0.1H2.47528C1.16323 0.1 0.0996017 1.16363 0.0996017 2.47568C0.0996017 3.78773 1.16323 4.85136 2.47528 4.85136H29.8855C29.8516 4.74752 29.7576 4.67022 29.6431 4.662L29.0044 4.61616C28.948 4.61211 28.8995 4.57479 28.8812 4.52135L28.8009 4.28746C28.3827 3.0687 28.4059 1.74174 28.8665 0.538348L28.8818 0.498281C28.9006 0.44938 28.9443 0.414452 28.9961 0.407012L29.6398 0.314619Z" fill="white" stroke="black" stroke-width="0.2"/>
<path d="M28.8087 0.414983C28.8139 0.404215 28.806 0.39172 28.7941 0.391751L3.16368 0.459628C2.03349 0.462621 1.11887 1.37967 1.11887 2.50986C1.11887 3.64218 2.03679 4.56011 3.16911 4.56011H28.8012C28.8064 4.56011 28.8097 4.55461 28.8073 4.55007C28.1484 3.31782 28.1181 1.8449 28.7258 0.586625L28.8087 0.414983Z" fill="white" stroke="black" stroke-width="0.2"/>
<path d="M6 1.16503H1.63115" stroke="black" stroke-width="0.2" stroke-linecap="round"/>
<path d="M6.11621 2.62132L1.16485 2.62132" stroke="black" stroke-width="0.2" stroke-linecap="round"/>
<path d="M4 3.93195L1.81558 3.93195" stroke="black" stroke-width="0.2" stroke-linecap="round"/>
<path d="M7.57227 2.62132H6.84412" stroke="black" stroke-width="0.2" stroke-linecap="round"/>
<path d="M20.0961 0.436852L19.9984 0.941553C19.7745 2.09835 19.7829 3.28813 20.0233 4.44163V4.44163" stroke="black" stroke-width="0.2" stroke-linecap="round"/>
</svg>
