<svg width="54" height="45" viewBox="0 0 54 45" fill="none" xmlns="http://www.w3.org/2000/svg">
<path d="M29.2382 12.4916L30.4329 13.0627L26.4716 15.5592C25.8896 14.6519 25.0441 13.9444 24.0485 13.5313L22.3183 12.8134C21.7547 12.5796 21.836 11.7569 22.4345 11.6379C24.7351 11.1805 27.1219 11.48 29.2382 12.4916Z" stroke="black" stroke-width="0.25"/>
<path d="M29.3937 12.3061L30.4299 12.8338L26.929 14.9041C26.4426 14.1042 25.7237 13.4718 24.8684 13.0912L23.3844 12.4309C22.8983 12.2147 22.9882 11.4992 23.5127 11.4099C25.5184 11.0685 27.5807 11.3828 29.3937 12.3061Z" stroke="black" stroke-width="0.25"/>
<path d="M33.208 24.3835L33.9652 23.2972L29.2879 23.0811C29.2294 24.1574 28.8433 25.19 28.1813 26.0407L27.0309 27.5189C26.6561 28.0005 27.1328 28.6758 27.7121 28.4839C29.9387 27.7463 31.8668 26.3078 33.208 24.3835Z" stroke="black" stroke-width="0.25"/>
<path d="M33.5094 24.4919L34.1631 23.5303L30.0979 23.4028C30.057 24.3381 29.7318 25.2386 29.1656 25.9842L28.1833 27.2777C27.8615 27.7015 28.285 28.2851 28.7877 28.1107C30.7098 27.4435 32.3655 26.1745 33.5094 24.4919Z" stroke="black" stroke-width="0.25"/>
<path d="M33.0885 11.1189L32.8961 11.1818C31.6275 11.5969 30.4171 12.1723 29.2943 12.8942L29.1971 12.9567C27.9573 13.7537 26.8266 14.7087 25.8333 15.7975L24.3973 17.3716L25.3067 18.5819C25.7569 19.1812 26.0951 19.8571 26.3047 20.5768C26.3625 20.7754 26.3964 20.9803 26.4055 21.1869L26.5287 23.9858L28.985 24.1245C30.0369 24.1838 31.0922 24.1309 32.1329 23.9667C33.6616 23.7254 35.1453 23.2559 36.5344 22.5738L37.2022 22.2459C41.6413 20.0663 45.3102 16.5305 47.6703 12.1846C47.8982 11.7648 47.6908 11.2375 47.2362 11.0908C42.6357 9.60572 37.6831 9.61556 33.0885 11.1189Z" fill="white" stroke="black" stroke-width="0.25"/>
<mask id="path-6-inside-1_1354_1164" fill="white">
<path fill-rule="evenodd" clip-rule="evenodd" d="M35.2348 23.1621C36.0692 21.3342 36.1359 18.9053 35.2384 16.5389C34.4178 14.3753 32.9594 12.7071 31.3117 11.8143C30.5834 12.1384 29.8801 12.518 29.2081 12.9499L29.1109 13.0125C27.8711 13.8095 26.7404 14.7645 25.7471 15.8533L24.3112 17.4274L25.2205 18.6377C25.6707 19.237 26.0089 19.9128 26.2185 20.6325C26.2763 20.8312 26.3102 21.036 26.3193 21.2427L26.4425 24.0416L28.8988 24.1802C29.9507 24.2396 31.006 24.1867 32.0467 24.0225C33.1384 23.8502 34.2071 23.5614 35.2348 23.1621Z"/>
</mask>
<path d="M35.2384 16.5389L35.4721 16.4502L35.2384 16.5389ZM35.2348 23.1621L35.3254 23.3951L35.4201 23.3583L35.4623 23.2659L35.2348 23.1621ZM31.3117 11.8143L31.4309 11.5945L31.3226 11.5358L31.2101 11.5859L31.3117 11.8143ZM29.2081 12.9499L29.3433 13.1602L29.3433 13.1602L29.2081 12.9499ZM29.1109 13.0125L28.9757 12.8022L28.9757 12.8022L29.1109 13.0125ZM25.7471 15.8533L25.5624 15.6848L25.5624 15.6848L25.7471 15.8533ZM24.3112 17.4274L24.1265 17.2589L23.9868 17.4119L24.1113 17.5775L24.3112 17.4274ZM25.2205 18.6377L25.4204 18.4875L25.2205 18.6377ZM26.2185 20.6325L26.4585 20.5626L26.2185 20.6325ZM26.3193 21.2427L26.569 21.2317L26.3193 21.2427ZM26.4425 24.0416L26.1927 24.0526L26.2027 24.2785L26.4284 24.2912L26.4425 24.0416ZM28.8988 24.1802L28.8847 24.4298L28.8847 24.4298L28.8988 24.1802ZM32.0467 24.0225L32.0857 24.2694L32.0467 24.0225ZM35.0046 16.6275C35.8818 18.9403 35.8104 21.2991 35.0074 23.0582L35.4623 23.2659C36.328 21.3693 36.39 18.8704 35.4721 16.4502L35.0046 16.6275ZM31.1926 12.0341C32.782 12.8954 34.2029 14.5138 35.0046 16.6275L35.4721 16.4502C34.6326 14.2368 33.1368 12.5189 31.4309 11.5945L31.1926 12.0341ZM31.2101 11.5859C30.4701 11.9152 29.7556 12.3008 29.0729 12.7397L29.3433 13.1602C30.0045 12.7352 30.6966 12.3617 31.4134 12.0427L31.2101 11.5859ZM29.0729 12.7397L28.9757 12.8022L29.2461 13.2228L29.3433 13.1602L29.0729 12.7397ZM28.9757 12.8022C27.7177 13.6109 26.5703 14.58 25.5624 15.6848L25.9318 16.0218C26.9104 14.949 28.0246 14.0081 29.2461 13.2228L28.9757 12.8022ZM25.5624 15.6848L24.1265 17.2589L24.4958 17.5958L25.9318 16.0218L25.5624 15.6848ZM24.1113 17.5775L25.0206 18.7879L25.4204 18.4875L24.511 17.2772L24.1113 17.5775ZM25.0206 18.7879C25.4528 19.3631 25.7773 20.0117 25.9785 20.7025L26.4585 20.5626C26.2405 19.814 25.8887 19.1109 25.4204 18.4875L25.0206 18.7879ZM25.9785 20.7025C26.0307 20.8819 26.0613 21.067 26.0695 21.2537L26.569 21.2317C26.5591 21.0051 26.522 20.7804 26.4585 20.5626L25.9785 20.7025ZM26.0695 21.2537L26.1927 24.0526L26.6923 24.0306L26.569 21.2317L26.0695 21.2537ZM26.4284 24.2912L28.8847 24.4298L28.9129 23.9306L26.4566 23.792L26.4284 24.2912ZM28.8847 24.4298C29.9544 24.4902 31.0274 24.4364 32.0857 24.2694L32.0078 23.7755C30.9846 23.937 29.9471 23.989 28.9129 23.9306L28.8847 24.4298ZM32.0857 24.2694C33.195 24.0943 34.281 23.8009 35.3254 23.3951L35.1443 22.929C34.1332 23.322 33.0817 23.606 32.0078 23.7755L32.0857 24.2694Z" fill="black" mask="url(#path-6-inside-1_1354_1164)"/>
<path d="M42.958 15.7124L42.8364 15.7414L42.958 15.7124ZM43.3466 17.8246L43.2226 17.8407L43.255 18.0903L43.4343 17.9137L43.3466 17.8246ZM40.6097 9.98666L40.6123 9.86169L40.3833 9.85689L40.5032 10.0521L40.6097 9.98666ZM47.161 11.0883L47.1994 10.9693L47.161 11.0883ZM47.5951 12.1821L47.7049 12.2417L47.7049 12.2417L47.5951 12.1821ZM42.8364 15.7414C43.0043 16.445 43.1325 17.146 43.2226 17.8407L43.4705 17.8086C43.3793 17.1052 43.2495 16.3955 43.0796 15.6833L42.8364 15.7414ZM40.5032 10.0521C41.5294 11.7222 42.3354 13.6416 42.8364 15.7414L43.0796 15.6833C42.5725 13.5582 41.7565 11.6142 40.7162 9.92122L40.5032 10.0521ZM47.1994 10.9693C45.0561 10.2774 42.8367 9.90827 40.6123 9.86169L40.6071 10.1116C42.8073 10.1577 45.0025 10.5229 47.1226 11.2072L47.1994 10.9693ZM47.7049 12.2417C47.9697 11.754 47.7294 11.1404 47.1994 10.9693L47.1226 11.2072C47.5018 11.3296 47.6763 11.7706 47.4852 12.1224L47.7049 12.2417ZM43.4343 17.9137C45.1215 16.2516 46.565 14.3407 47.7049 12.2417L47.4852 12.1224C46.3572 14.1995 44.9286 16.0907 43.2589 17.7356L43.4343 17.9137Z" fill="black"/>
<path d="M26.731 20.249C27.0231 21.2038 27.1496 22.1047 27.1213 22.7874C27.1071 23.1293 27.0543 23.4094 26.9692 23.6124C26.8838 23.8162 26.7737 23.9252 26.6536 23.962C26.5335 23.9987 26.3812 23.97 26.1963 23.8488C26.0123 23.7281 25.8119 23.5255 25.6088 23.25C25.2035 22.7 24.8043 21.8825 24.5123 20.9277C24.2202 19.9729 24.0937 19.0719 24.122 18.3892C24.1362 18.0473 24.1889 17.7673 24.274 17.5643C24.3595 17.3604 24.4696 17.2514 24.5897 17.2147C24.7098 17.1779 24.862 17.2067 25.0469 17.3279C25.231 17.4485 25.4314 17.6511 25.6344 17.9266C26.0398 18.4766 26.439 19.2942 26.731 20.249Z" stroke="black" stroke-width="0.25"/>
<circle cx="38.6586" cy="15.3151" r="2.46885" transform="rotate(6.38089 38.6586 15.3151)" stroke="black" stroke-width="0.25"/>
<circle cx="38.8633" cy="15.1517" r="2.28358" transform="rotate(6.38089 38.8633 15.1517)" fill="white" stroke="black" stroke-width="0.25"/>
<path d="M20.7621 19.7169L18.859 20.1076C18.8418 20.1111 18.8306 20.0902 18.843 20.0778C20.3532 18.571 22.3889 17.7086 24.5219 17.6719L25.2674 17.659C25.287 17.6587 25.3061 17.665 25.3216 17.677L25.3499 17.6989C26.5859 18.6544 27.2731 20.1564 27.1881 21.7163L27.1531 22.3577C27.1498 22.418 27.1233 22.475 27.0795 22.5166C25.7058 23.8214 23.9759 24.7069 22.1131 25.0529L21.493 25.1681C21.4088 25.1837 21.3622 25.074 21.4319 25.0242L23.2332 23.7382C23.246 23.7291 23.2353 23.7093 23.2207 23.715C21.0733 24.5549 18.7422 24.8124 16.4633 24.4614L15.3892 24.296C15.3753 24.2939 15.3696 24.277 15.3792 24.2668L16.1531 23.4466C17.5117 22.0067 19.0726 20.7722 20.7868 19.7819C20.8214 19.7619 20.8013 19.7088 20.7621 19.7169Z" stroke="black" stroke-width="0.25"/>
<path d="M29.2835 17.9784C29.6169 17.8294 30.0072 17.99 30.1393 18.3305C30.2695 18.666 30.0968 19.0428 29.7576 19.1632L20.3168 22.5149C20.1904 22.5597 20.0516 22.4937 20.0067 22.3673C19.9643 22.2479 20.0208 22.116 20.1365 22.0643L29.2835 17.9784Z" stroke="black" stroke-width="0.25"/>
<path d="M25.6442 16.8215L25.6571 16.8041C26.1707 16.1161 26.7803 15.5053 27.4672 14.9904V14.9904" stroke="black" stroke-width="0.25" stroke-linecap="round"/>
<path d="M34.9219 11.1349V11.1349C36.0893 10.7481 37.3096 10.5445 38.5393 10.5312L38.6083 10.5304" stroke="black" stroke-width="0.25" stroke-linecap="round"/>
<path d="M21.2893 19.4429V19.4429C22.3706 18.857 23.5361 18.442 24.7443 18.2128L24.8121 18.1999" stroke="black" stroke-width="0.25" stroke-linecap="round" stroke-dasharray="10 10"/>
<path d="M26.2263 22.4403V22.4403C25.2764 23.2214 24.2113 23.8508 23.0688 24.3059L23.0047 24.3314" stroke="black" stroke-width="0.25" stroke-linecap="round" stroke-dasharray="10 10"/>
<path d="M27.0176 20.9732V20.9732C24.6939 22.4374 22.0771 23.374 19.352 23.7169L16.1201 24.1236" stroke="black" stroke-width="0.25" stroke-linecap="round" stroke-dasharray="10 10"/>
<path d="M15.8495 24.1323V24.1323C18.1196 22.1735 20.6991 20.605 23.4828 19.4909L25.9512 18.503" stroke="black" stroke-width="0.25" stroke-linecap="round" stroke-dasharray="10 10"/>
<path d="M29.6153 13.3539L29.6963 13.2988C30.116 13.0127 30.5634 12.7692 31.0315 12.572V12.572" stroke="black" stroke-width="0.25" stroke-linecap="round"/>
<path d="M42.0629 10.4245L42.1103 10.4268C42.4709 10.4443 42.8296 10.49 43.1832 10.5635V10.5635" stroke="black" stroke-width="0.25" stroke-linecap="round"/>
<path d="M45.0109 10.8341L45.0491 10.8413C45.6849 10.9607 46.308 11.1397 46.9102 11.3761V11.3761" stroke="black" stroke-width="0.25" stroke-linecap="round"/>
<path d="M38.0303 14.7888L39.6656 15.2754" stroke="black" stroke-width="0.25" stroke-linecap="round"/>
<path d="M38.1885 15.2829L39.2165 15.5754" stroke="black" stroke-width="0.25" stroke-linecap="round"/>
<path d="M38.5713 14.537L39.5993 14.8294" stroke="black" stroke-width="0.25" stroke-linecap="round"/>
<path d="M13.0627 26.5039C13.0627 26.5039 5.54727 30.5209 2.00033 34.5C-9.23773 47.1075 45.0627 30.5039 45.0627 30.5039" stroke="black" stroke-width="0.3" stroke-dasharray="5 5"/>
</svg>
