<svg width="512" height="50" viewBox="0 0 512 50" fill="none" xmlns="http://www.w3.org/2000/svg">
<rect x="0.5" y="0.5" width="511" height="49" rx="24.5" stroke="#434040"/>
<circle cx="25" cy="25" r="24.5" stroke="black"/>
<path d="M23.2729 13.031C17.0567 13.031 12 17.8932 12 23.8703C12 29.8475 17.0567 34.7097 23.2729 34.7097C25.1732 34.7097 27.0413 34.2761 28.6195 33.44C28.746 33.5862 28.8861 33.721 29.0382 33.8426L32.2591 36.9395C32.5565 37.2613 32.9192 37.5212 33.3248 37.7034C33.7305 37.8855 34.1706 37.986 34.6181 37.9986C35.0656 38.0113 35.5111 37.9359 35.9272 37.777C36.3433 37.6181 36.7212 37.3792 37.0378 37.0748C37.3543 36.7704 37.6029 36.407 37.7681 36.0069C37.9333 35.6068 38.0118 35.1784 37.9986 34.7481C37.9854 34.3179 37.8809 33.8947 37.6915 33.5046C37.5021 33.1146 37.2317 32.7659 36.8971 32.4799L33.6763 29.3829C33.5194 29.232 33.3467 29.0971 33.1609 28.9803C34.0306 27.4628 34.5781 25.6975 34.5781 23.8394C34.5781 17.8622 29.5214 13 23.3052 13L23.2729 13.031ZM23.2729 16.1279C27.7499 16.1279 31.325 19.5656 31.325 23.8703C31.325 25.9143 30.552 27.8035 29.1993 29.1971C29.1671 29.2281 29.1349 29.2591 29.1027 29.29C28.9505 29.4116 28.8104 29.5463 28.684 29.6926C27.2668 30.9314 25.3343 31.6437 23.2407 31.6437C18.7638 31.6437 15.1886 28.2061 15.1886 23.9013C15.1886 19.5965 18.7638 16.1589 23.2407 16.1589L23.2729 16.1279Z" fill="black"/>
</svg>
