<svg width="51" height="51" viewBox="0 0 51 51" fill="none" xmlns="http://www.w3.org/2000/svg">
<path d="M25.5 50C39.031 50 50 39.031 50 25.5C50 11.969 39.031 1 25.5 1C11.969 1 1 11.969 1 25.5C1 39.031 11.969 50 25.5 50Z" stroke="black"/>
<path d="M24.1285 16.5223C18.8191 16.5223 14.5 20.0231 14.5 24.3266C14.5 28.6302 18.8191 32.131 24.1285 32.131C25.7516 32.131 27.3472 31.8188 28.6951 31.2168C28.8031 31.3221 28.9228 31.4191 29.0528 31.5066L31.8038 33.7365C32.0578 33.9681 32.3676 34.1553 32.714 34.2864C33.0605 34.4175 33.4364 34.4899 33.8186 34.499C34.2009 34.5081 34.5814 34.4538 34.9368 34.3395C35.2922 34.2251 35.615 34.053 35.8854 33.8338C36.1558 33.6147 36.368 33.353 36.5091 33.065C36.6503 32.7769 36.7173 32.4685 36.706 32.1587C36.6948 31.8489 36.6055 31.5442 36.4437 31.2633C36.2819 30.9825 36.051 30.7314 35.7652 30.5255L33.0142 28.2957C32.8802 28.1871 32.7327 28.0899 32.5741 28.0058C33.3168 26.9132 33.7845 25.6422 33.7845 24.3043C33.7845 20.0008 29.4654 16.5 24.156 16.5L24.1285 16.5223ZM24.1285 18.7521C27.9524 18.7521 31.006 21.2272 31.006 24.3266C31.006 25.7983 30.3457 27.1585 29.1903 28.1619C29.1628 28.1842 29.1353 28.2065 29.1078 28.2288C28.9779 28.3163 28.8581 28.4134 28.7502 28.5187C27.5397 29.4106 25.8891 29.9235 24.101 29.9235C20.2771 29.9235 17.2235 27.4484 17.2235 24.3489C17.2235 21.2495 20.2771 18.7744 24.101 18.7744L24.1285 18.7521Z" fill="black"/>
</svg>
