<svg width="50" height="50" viewBox="0 0 50 50" fill="none" xmlns="http://www.w3.org/2000/svg">
<path d="M25 49.5C38.531 49.5 49.5 38.531 49.5 25C49.5 11.469 38.531 0.5 25 0.5C11.469 0.5 0.5 11.469 0.5 25C0.5 38.531 11.469 49.5 25 49.5Z" fill="none" stroke="black"/>
<path d="M23.6285 15.0257C18.3191 15.0257 14 19.0648 14 24.0301C14 28.9954 18.3191 33.0345 23.6285 33.0345C25.2516 33.0345 26.8472 32.6743 28.1951 31.9797C28.3031 32.1012 28.4228 32.2131 28.5528 32.3141L31.3038 34.8868C31.5578 35.1541 31.8676 35.37 32.214 35.5213C32.5605 35.6726 32.9364 35.7561 33.3186 35.7666C33.7009 35.7771 34.0814 35.7145 34.4368 35.5825C34.7922 35.4505 35.115 35.252 35.3854 34.9992C35.6558 34.7463 35.868 34.4444 36.0091 34.112C36.1503 33.7797 36.2173 33.4239 36.206 33.0664C36.1948 32.7089 36.1055 32.3574 35.9437 32.0334C35.7819 31.7094 35.551 31.4197 35.2652 31.1821L32.5142 28.6095C32.3802 28.4841 32.2327 28.372 32.0741 28.275C32.8168 27.0144 33.2845 25.548 33.2845 24.0044C33.2845 19.0391 28.9654 15 23.656 15L23.6285 15.0257ZM23.6285 17.5984C27.4524 17.5984 30.506 20.4541 30.506 24.0301C30.506 25.7281 29.8457 27.2974 28.6903 28.4551C28.6628 28.4808 28.6353 28.5066 28.6078 28.5323C28.4779 28.6333 28.3581 28.7452 28.2502 28.8667C27.0397 29.8958 25.3891 30.4875 23.601 30.4875C19.7771 30.4875 16.7235 27.6318 16.7235 24.0558C16.7235 20.4798 19.7771 17.6241 23.601 17.6241L23.6285 17.5984Z" fill="black"/>
</svg>
