<svg width="43" height="29" viewBox="0 0 43 29" fill="none" xmlns="http://www.w3.org/2000/svg">
<path d="M22.0811 0.599959C22.5805 0.215806 23.2576 0 23.9636 0C24.6697 0 25.3468 0.215806 25.8461 0.599959L41.8218 12.8948C42.321 13.279 42.6014 13.8001 42.6014 14.3435C42.6014 14.8869 42.321 15.408 41.8218 15.7922L25.8461 28.0871C25.3439 28.4603 24.6713 28.6669 23.9732 28.6622C23.2751 28.6575 22.6073 28.442 22.1136 28.0621C21.6199 27.6822 21.3399 27.1682 21.3338 26.6309C21.3278 26.0937 21.5961 25.576 22.0811 25.1896L33.5118 16.3926H2.66262C1.95645 16.3926 1.2792 16.1768 0.779865 15.7925C0.280526 15.4082 0 14.887 0 14.3435C0 13.8 0.280526 13.2788 0.779865 12.8945C1.2792 12.5103 1.95645 12.2944 2.66262 12.2944H33.5118L22.0811 3.49743C21.582 3.11317 21.3016 2.59205 21.3016 2.0487C21.3016 1.50534 21.582 0.984229 22.0811 0.599959Z" fill="white"/>
</svg>
